G04 Layer_Physical_Order=1*
G04 Layer_Color=255*
%FSLAX25Y25*%
%MOIN*%
G70*
G01*
G75*
%ADD10C,0.01000*%
%ADD11R,0.03500X0.03500*%
%ADD12R,0.04331X0.03937*%
%ADD13R,0.05118X0.05906*%
%ADD14R,0.04331X0.01500*%
%ADD15O,0.04331X0.01500*%
%ADD16R,0.03500X0.03500*%
%ADD17R,0.06299X0.07087*%
%ADD18R,0.07087X0.06299*%
%ADD19O,0.02362X0.08661*%
%ADD20R,0.02362X0.08661*%
%ADD21R,0.01772X0.06890*%
%ADD22O,0.01772X0.06890*%
%ADD23R,0.03937X0.04331*%
%ADD24R,0.03543X0.02559*%
%ADD25R,0.05906X0.05118*%
%ADD26R,0.05512X0.11811*%
%ADD27R,0.23622X0.25590*%
%ADD28R,0.04724X0.02362*%
%ADD29C,0.02400*%
%ADD30C,0.01800*%
%ADD31C,0.01400*%
%ADD32C,0.05906*%
%ADD33R,0.05906X0.05906*%
%ADD34O,0.19500X0.17500*%
%ADD35R,0.09500X0.09500*%
%ADD36C,0.09500*%
%ADD37R,0.04800X0.04800*%
%ADD38C,0.04800*%
%ADD39C,0.06000*%
%ADD40R,0.06000X0.06000*%
%ADD41R,0.09500X0.09500*%
%ADD42C,0.22000*%
%ADD43C,0.03100*%
G36*
X428000Y139720D02*
Y115500D01*
X357500D01*
X354000Y119000D01*
Y135000D01*
X359500Y140500D01*
X428000Y139720D01*
D02*
G37*
G36*
X154500Y173000D02*
X151500D01*
X153000Y174500D01*
X154500Y173000D01*
D02*
G37*
D10*
X484053Y476000D02*
G03*
X476236Y474498I-4053J0D01*
G01*
X478498Y472236D02*
G03*
X484053Y476000I1502J3764D01*
G01*
X478498Y462236D02*
G03*
X484053Y466000I1502J3764D01*
G01*
D02*
G03*
X476236Y464498I-4053J0D01*
G01*
X484053Y456000D02*
G03*
X476236Y454498I-4053J0D01*
G01*
X475000Y469400D02*
G03*
X476133Y469870I0J1600D01*
G01*
X475000Y469400D02*
G03*
X476131Y469869I0J1600D01*
G01*
X474453Y466000D02*
G03*
X472875Y469400I-4453J0D01*
G01*
Y462600D02*
G03*
X474453Y466000I-2875J3400D01*
G01*
X475000Y459400D02*
G03*
X476131Y459869I0J1600D01*
G01*
X475000Y459400D02*
G03*
X476133Y459870I0J1600D01*
G01*
X474053Y456000D02*
G03*
X472206Y459400I-4053J0D01*
G01*
X472206Y452600D02*
G03*
X474053Y456000I-2206J3400D01*
G01*
X478498Y452236D02*
G03*
X484053Y456000I1502J3764D01*
G01*
X478498Y442236D02*
G03*
X484053Y446000I1502J3764D01*
G01*
D02*
G03*
X476236Y444498I-4053J0D01*
G01*
X484053Y436000D02*
G03*
X476236Y434498I-4053J0D01*
G01*
X478498Y432236D02*
G03*
X484053Y436000I1502J3764D01*
G01*
X475000Y449400D02*
G03*
X476133Y449870I0J1600D01*
G01*
X475000Y449400D02*
G03*
X476131Y449869I0J1600D01*
G01*
X474053Y446000D02*
G03*
X472206Y449400I-4053J0D01*
G01*
Y442600D02*
G03*
X474053Y446000I-2206J3400D01*
G01*
X475000Y439400D02*
G03*
X476133Y439870I0J1600D01*
G01*
X475000Y439400D02*
G03*
X476131Y439869I0J1600D01*
G01*
X474053Y436000D02*
G03*
X472206Y439400I-4053J0D01*
G01*
Y432600D02*
G03*
X474053Y436000I-2206J3400D01*
G01*
X467125Y469400D02*
G03*
X467125Y462600I2875J-3400D01*
G01*
X467794Y459400D02*
G03*
X466276Y457600I2206J-3400D01*
G01*
Y454400D02*
G03*
X467794Y452600I3724J1600D01*
G01*
X455550Y466000D02*
G03*
X455550Y466000I-3050J0D01*
G01*
X467794Y449400D02*
G03*
X466276Y447600I2206J-3400D01*
G01*
Y444400D02*
G03*
X467794Y442600I3724J1600D01*
G01*
Y439400D02*
G03*
X467794Y432600I2206J-3400D01*
G01*
X463000D02*
G03*
X461867Y432130I0J-1600D01*
G01*
X463000Y432600D02*
G03*
X461869Y432131I0J-1600D01*
G01*
X452500Y447600D02*
G03*
X451367Y447130I0J-1600D01*
G01*
X452500Y447600D02*
G03*
X451369Y447131I0J-1600D01*
G01*
X451000Y452600D02*
G03*
X449867Y452130I0J-1600D01*
G01*
X451000Y452600D02*
G03*
X449869Y452131I0J-1600D01*
G01*
X457000Y442600D02*
G03*
X455869Y442131I0J-1600D01*
G01*
X457000Y442600D02*
G03*
X455867Y442130I0J-1600D01*
G01*
X484053Y426000D02*
G03*
X476236Y424498I-4053J0D01*
G01*
X478498Y422236D02*
G03*
X484053Y426000I1502J3764D01*
G01*
X483724Y417600D02*
G03*
X476600Y418206I-3724J-1600D01*
G01*
X486133Y417130D02*
G03*
X485000Y417600I-1133J-1130D01*
G01*
X486131Y417131D02*
G03*
X485000Y417600I-1131J-1131D01*
G01*
X490000Y413057D02*
G03*
X489630Y413633I-1500J-557D01*
G01*
X490000Y413057D02*
G03*
X489631Y413631I-1500J-557D01*
G01*
X476600Y413794D02*
G03*
X483724Y414400I3400J2206D01*
G01*
X475000Y429400D02*
G03*
X476133Y429870I0J1600D01*
G01*
X475000Y429400D02*
G03*
X476131Y429869I0J1600D01*
G01*
X474053Y426000D02*
G03*
X472206Y429400I-4053J0D01*
G01*
X467794D02*
G03*
X474053Y426000I2206J-3400D01*
G01*
X473870Y422133D02*
G03*
X473400Y421000I1130J-1133D01*
G01*
X473869Y422131D02*
G03*
X473400Y421000I1131J-1131D01*
G01*
X476130Y412367D02*
G03*
X476600Y413500I-1130J1133D01*
G01*
X476131Y412369D02*
G03*
X476600Y413500I-1131J1131D01*
G01*
X473400Y418206D02*
G03*
X466276Y417600I-3400J-2206D01*
G01*
Y414400D02*
G03*
X467794Y412600I3724J1600D01*
G01*
X467500D02*
G03*
X466367Y412130I0J-1600D01*
G01*
X467500Y412600D02*
G03*
X466369Y412131I0J-1600D01*
G01*
X484453Y406000D02*
G03*
X484453Y406000I-4453J0D01*
G01*
X472500Y409400D02*
G03*
X473631Y409869I0J1600D01*
G01*
X472500Y409400D02*
G03*
X473633Y409870I0J1600D01*
G01*
X474053Y406000D02*
G03*
X472206Y409400I-4053J0D01*
G01*
X466217Y407454D02*
G03*
X468400Y402277I3783J-1455D01*
G01*
X471600D02*
G03*
X474053Y406000I-1600J3724D01*
G01*
X464000Y417600D02*
G03*
X462867Y417130I0J-1600D01*
G01*
X464000Y417600D02*
G03*
X462869Y417131I0J-1600D01*
G01*
X461470Y407233D02*
G03*
X461000Y406100I1130J-1133D01*
G01*
X461469Y407231D02*
G03*
X461000Y406100I1131J-1131D01*
G01*
X456370Y410633D02*
G03*
X455900Y409500I1130J-1133D01*
G01*
X456369Y410631D02*
G03*
X455900Y409500I1131J-1131D01*
G01*
X451370Y421633D02*
G03*
X450900Y420500I1130J-1133D01*
G01*
X451369Y421631D02*
G03*
X450900Y420500I1131J-1131D01*
G01*
X448500Y472600D02*
G03*
X447367Y472130I0J-1600D01*
G01*
X448500Y472600D02*
G03*
X447369Y472131I0J-1600D01*
G01*
X447500Y462600D02*
G03*
X446367Y462130I0J-1600D01*
G01*
X450000Y457600D02*
G03*
X448869Y457131I0J-1600D01*
G01*
X447500Y462600D02*
G03*
X446369Y462131I0J-1600D01*
G01*
X450000Y457600D02*
G03*
X448867Y457130I0J-1600D01*
G01*
X435000Y477600D02*
G03*
X433867Y477130I0J-1600D01*
G01*
X435000Y477600D02*
G03*
X433869Y477131I0J-1600D01*
G01*
X428870Y453633D02*
G03*
X428600Y453275I1130J-1133D01*
G01*
X428869Y453631D02*
G03*
X428600Y453275I1131J-1131D01*
G01*
X441870Y437633D02*
G03*
X441400Y436500I1130J-1133D01*
G01*
X445870Y432133D02*
G03*
X445400Y431000I1130J-1133D01*
G01*
X445869Y432131D02*
G03*
X445400Y431000I1131J-1131D01*
G01*
X441869Y437631D02*
G03*
X441400Y436500I1131J-1131D01*
G01*
X435370Y443633D02*
G03*
X435100Y443275I1130J-1133D01*
G01*
X432370Y448133D02*
G03*
X431900Y447000I1130J-1133D01*
G01*
X432369Y448131D02*
G03*
X431900Y447000I1131J-1131D01*
G01*
X435369Y443631D02*
G03*
X435100Y443275I1131J-1131D01*
G01*
X438520Y440783D02*
G03*
X438100Y440047I1130J-1133D01*
G01*
X438519Y440781D02*
G03*
X438100Y440047I1131J-1131D01*
G01*
X425870Y469133D02*
G03*
X425400Y468000I1130J-1133D01*
G01*
X425869Y469131D02*
G03*
X425400Y468000I1131J-1131D01*
G01*
X381600Y428500D02*
G03*
X381131Y429631I-1600J0D01*
G01*
X381600Y428500D02*
G03*
X381130Y429633I-1600J0D01*
G01*
X333633Y477130D02*
G03*
X332500Y477600I-1133J-1130D01*
G01*
X333631Y477131D02*
G03*
X332500Y477600I-1131J-1131D01*
G01*
X361600Y427000D02*
G03*
X361131Y428131I-1600J0D01*
G01*
X361600Y427000D02*
G03*
X361130Y428133I-1600J0D01*
G01*
X402550Y410500D02*
G03*
X402550Y410500I-3050J0D01*
G01*
X345600Y421000D02*
G03*
X345130Y422133I-1600J0D01*
G01*
X345600Y421000D02*
G03*
X345131Y422131I-1600J0D01*
G01*
X424053Y376000D02*
G03*
X424053Y376000I-4053J0D01*
G01*
Y386000D02*
G03*
X424053Y386000I-4053J0D01*
G01*
Y366000D02*
G03*
X424053Y366000I-4053J0D01*
G01*
X428131Y328369D02*
G03*
X428400Y328725I-1131J1131D01*
G01*
X428130Y328367D02*
G03*
X428400Y328725I-1130J1133D01*
G01*
X424453Y356000D02*
G03*
X424453Y356000I-4453J0D01*
G01*
X424053Y346000D02*
G03*
X424053Y346000I-4053J0D01*
G01*
Y336000D02*
G03*
X424053Y336000I-4053J0D01*
G01*
X376550Y396000D02*
G03*
X376550Y396000I-3050J0D01*
G01*
X414053Y386000D02*
G03*
X414053Y386000I-4053J0D01*
G01*
Y376000D02*
G03*
X414053Y376000I-4053J0D01*
G01*
X354550Y381199D02*
G03*
X354550Y381199I-3050J0D01*
G01*
X414053Y366000D02*
G03*
X414053Y366000I-4053J0D01*
G01*
Y346000D02*
G03*
X414053Y346000I-4053J0D01*
G01*
X414453Y356000D02*
G03*
X414453Y356000I-4453J0D01*
G01*
X414053Y336000D02*
G03*
X414053Y336000I-4053J0D01*
G01*
X339550Y366500D02*
G03*
X339550Y366500I-3050J0D01*
G01*
X444131Y293869D02*
G03*
X444600Y295000I-1131J1131D01*
G01*
X444130Y293867D02*
G03*
X444600Y295000I-1130J1133D01*
G01*
X448130Y287867D02*
G03*
X448600Y289000I-1130J1133D01*
G01*
X448131Y287869D02*
G03*
X448600Y289000I-1131J1131D01*
G01*
X448050Y281000D02*
G03*
X444208Y283945I-3050J0D01*
G01*
X434631Y310369D02*
G03*
X434900Y310725I-1131J1131D01*
G01*
X434630Y310367D02*
G03*
X434900Y310725I-1130J1133D01*
G01*
X431131Y318869D02*
G03*
X431600Y320000I-1131J1131D01*
G01*
X437630Y304867D02*
G03*
X438050Y305603I-1130J1133D01*
G01*
X437631Y304869D02*
G03*
X438050Y305603I-1131J1131D01*
G01*
X440780Y298517D02*
G03*
X441250Y299650I-1130J1133D01*
G01*
X440781Y298519D02*
G03*
X441250Y299650I-1131J1131D01*
G01*
X431130Y318867D02*
G03*
X431600Y320000I-1130J1133D01*
G01*
X423731Y324417D02*
G03*
X424633Y324870I-231J1583D01*
G01*
X426000Y314400D02*
G03*
X427133Y314870I0J1600D01*
G01*
X428000Y304400D02*
G03*
X429133Y304870I0J1600D01*
G01*
X426000Y314400D02*
G03*
X427131Y314869I0J1600D01*
G01*
X428000Y304400D02*
G03*
X429131Y304869I0J1600D01*
G01*
X442535Y286798D02*
G03*
X439798Y289535I-3035J-298D01*
G01*
X442055Y281792D02*
G03*
X448050Y281000I2945J-792D01*
G01*
X436465Y286202D02*
G03*
X439202Y283465I3035J298D01*
G01*
X430000Y288400D02*
G03*
X431133Y288870I0J1600D01*
G01*
X430000Y288400D02*
G03*
X431131Y288869I0J1600D01*
G01*
X426500Y294400D02*
G03*
X427633Y294870I0J1600D01*
G01*
X426500Y294400D02*
G03*
X427631Y294869I0J1600D01*
G01*
X433500Y283900D02*
G03*
X434633Y284370I0J1600D01*
G01*
X433500Y283900D02*
G03*
X434631Y284369I0J1600D01*
G01*
X463730Y268467D02*
G03*
X464200Y269600I-1130J1133D01*
G01*
X463731Y268469D02*
G03*
X464200Y269600I-1131J1131D01*
G01*
X466550Y265000D02*
G03*
X463307Y268044I-3050J0D01*
G01*
X489630Y266867D02*
G03*
X490000Y267443I-1130J1133D01*
G01*
X489631Y266869D02*
G03*
X490000Y267443I-1131J1131D01*
G01*
X471131Y264369D02*
G03*
X471600Y265500I-1131J1131D01*
G01*
X471130Y264367D02*
G03*
X471600Y265500I-1130J1133D01*
G01*
X466445Y264208D02*
G03*
X466550Y265000I-2945J792D01*
G01*
X458631Y271869D02*
G03*
X459100Y273000I-1131J1131D01*
G01*
X458630Y271867D02*
G03*
X459100Y273000I-1130J1133D01*
G01*
X453630Y280367D02*
G03*
X454100Y281500I-1130J1133D01*
G01*
X453631Y280369D02*
G03*
X454100Y281500I-1131J1131D01*
G01*
X452945Y271600D02*
G03*
X455050Y274500I-945J2900D01*
G01*
X458000Y263400D02*
G03*
X459133Y263870I0J1600D01*
G01*
X458000Y263400D02*
G03*
X459131Y263869I0J1600D01*
G01*
X454500Y268400D02*
G03*
X455633Y268870I0J1600D01*
G01*
X454500Y268400D02*
G03*
X455631Y268869I0J1600D01*
G01*
X475550Y257500D02*
G03*
X472693Y254456I-3050J0D01*
G01*
X464500Y258400D02*
G03*
X465633Y258870I0J1600D01*
G01*
X464500Y258400D02*
G03*
X465631Y258869I0J1600D01*
G01*
X460456Y265193D02*
G03*
X464292Y262055I3044J-193D01*
G01*
X470500Y248400D02*
G03*
X471631Y248869I0J1600D01*
G01*
X470500Y248400D02*
G03*
X471633Y248870I0J1600D01*
G01*
X455050Y274500D02*
G03*
X450285Y277022I-3050J0D01*
G01*
X449478Y276215D02*
G03*
X451055Y271600I2522J-1715D01*
G01*
X445650Y273050D02*
G03*
X446783Y273520I0J1600D01*
G01*
X445650Y273050D02*
G03*
X446781Y273519I0J1600D01*
G01*
X438000Y278400D02*
G03*
X439133Y278870I0J1600D01*
G01*
X438000Y278400D02*
G03*
X439131Y278869I0J1600D01*
G01*
X458550Y227500D02*
G03*
X458550Y227500I-3050J0D01*
G01*
X423417Y328180D02*
G03*
X423731Y324417I-3417J-2180D01*
G01*
D02*
G03*
X424631Y324869I-231J1583D01*
G01*
X423724Y317600D02*
G03*
X423724Y314400I-3724J-1600D01*
G01*
Y307600D02*
G03*
X423724Y304400I-3724J-1600D01*
G01*
X414053Y306000D02*
G03*
X406277Y307600I-4053J0D01*
G01*
Y304400D02*
G03*
X414053Y306000I3724J1600D01*
G01*
X414053Y326000D02*
G03*
X414053Y326000I-4053J0D01*
G01*
Y316000D02*
G03*
X414053Y316000I-4053J0D01*
G01*
X414241Y288869D02*
G03*
X415373Y288400I1131J1131D01*
G01*
X423724Y281600D02*
G03*
X421102Y283900I-3724J-1600D01*
G01*
X421537Y276250D02*
G03*
X423724Y278400I-1537J3750D01*
G01*
X418898Y283900D02*
G03*
X418463Y276250I1102J-3900D01*
G01*
X423724Y271600D02*
G03*
X422669Y273050I-3724J-1600D01*
G01*
X422206Y266600D02*
G03*
X423724Y268400I-2206J3400D01*
G01*
X417331Y273050D02*
G03*
X417794Y266600I2669J-3050D01*
G01*
Y263400D02*
G03*
X423724Y258400I2206J-3400D01*
G01*
Y261600D02*
G03*
X422206Y263400I-3724J-1600D01*
G01*
X415500Y287100D02*
G03*
X414369Y286631I0J-1600D01*
G01*
X415500Y287100D02*
G03*
X414367Y286630I0J-1600D01*
G01*
X414240Y288870D02*
G03*
X415373Y288400I1133J1130D01*
G01*
X414650Y276250D02*
G03*
X413519Y275781I0J-1600D01*
G01*
X414053Y280000D02*
G03*
X413764Y281502I-4053J0D01*
G01*
X411502Y283764D02*
G03*
X414053Y280000I-1502J-3764D01*
G01*
X414650Y276250D02*
G03*
X413517Y275780I0J-1600D01*
G01*
X415000Y266600D02*
G03*
X413869Y266131I0J-1600D01*
G01*
X414053Y270000D02*
G03*
X413764Y271502I-4053J0D01*
G01*
X415000Y266600D02*
G03*
X413867Y266130I0J-1600D01*
G01*
X411502Y273764D02*
G03*
X414053Y270000I-1502J-3764D01*
G01*
X411502Y263764D02*
G03*
X414053Y260000I-1502J-3764D01*
G01*
X386867Y304870D02*
G03*
X388000Y304400I1133J1130D01*
G01*
X386869Y304869D02*
G03*
X388000Y304400I1131J1131D01*
G01*
X378400Y314000D02*
G03*
X378870Y312867I1600J0D01*
G01*
X378400Y314000D02*
G03*
X378869Y312869I1600J0D01*
G01*
X358400Y282000D02*
G03*
X358869Y280869I1600J0D01*
G01*
X358400Y282000D02*
G03*
X358870Y280867I1600J0D01*
G01*
X342400Y281000D02*
G03*
X342870Y279867I1600J0D01*
G01*
X342400Y281000D02*
G03*
X342869Y279869I1600J0D01*
G01*
X423724Y251600D02*
G03*
X423724Y248400I-3724J-1600D01*
G01*
X424053Y240000D02*
G03*
X416236Y238498I-4053J0D01*
G01*
X418498Y236236D02*
G03*
X424053Y240000I1502J3764D01*
G01*
Y230000D02*
G03*
X416236Y228498I-4053J0D01*
G01*
X418498Y226236D02*
G03*
X424053Y230000I1502J3764D01*
G01*
X415000Y233400D02*
G03*
X416133Y233870I0J1600D01*
G01*
X415000Y233400D02*
G03*
X416131Y233869I0J1600D01*
G01*
X424053Y220000D02*
G03*
X416236Y218498I-4053J0D01*
G01*
X415000Y223400D02*
G03*
X416133Y223870I0J1600D01*
G01*
X406276Y248400D02*
G03*
X414053Y250000I3724J1600D01*
G01*
Y260000D02*
G03*
X413764Y261502I-4053J0D01*
G01*
X412206Y236600D02*
G03*
X414053Y240000I-2206J3400D01*
G01*
Y250000D02*
G03*
X406276Y251600I-4053J0D01*
G01*
X414053Y240000D02*
G03*
X407794Y236600I-4053J0D01*
G01*
X407794Y233400D02*
G03*
X407794Y226600I2206J-3400D01*
G01*
X414053Y230000D02*
G03*
X412206Y233400I-4053J0D01*
G01*
X415000Y223400D02*
G03*
X416131Y223869I0J1600D01*
G01*
X412206Y226600D02*
G03*
X414053Y230000I-2206J3400D01*
G01*
Y220000D02*
G03*
X412206Y223400I-4053J0D01*
G01*
X418498Y216236D02*
G03*
X424053Y220000I1502J3764D01*
G01*
X415000Y213400D02*
G03*
X415947Y213710I0J1600D01*
G01*
X415000Y203400D02*
G03*
X416133Y203870I0J1600D01*
G01*
X424053Y190000D02*
G03*
X424053Y190000I-4053J0D01*
G01*
Y200000D02*
G03*
X424053Y200000I-4053J0D01*
G01*
X415000Y203400D02*
G03*
X416131Y203869I0J1600D01*
G01*
X415000Y213400D02*
G03*
X415947Y213710I0J1600D01*
G01*
X412206Y216600D02*
G03*
X414053Y220000I-2206J3400D01*
G01*
X407794Y223400D02*
G03*
X407794Y216600I2206J-3400D01*
G01*
X414053Y190000D02*
G03*
X414053Y190000I-4053J0D01*
G01*
X390867Y248870D02*
G03*
X392000Y248400I1133J1130D01*
G01*
X390869Y248869D02*
G03*
X392000Y248400I1131J1131D01*
G01*
X388869Y233869D02*
G03*
X390000Y233400I1131J1131D01*
G01*
X388867Y233870D02*
G03*
X390000Y233400I1133J1130D01*
G01*
X383367Y223870D02*
G03*
X384500Y223400I1133J1130D01*
G01*
X383369Y223869D02*
G03*
X384500Y223400I1131J1131D01*
G01*
X374369Y213869D02*
G03*
X375500Y213400I1131J1131D01*
G01*
X374367Y213870D02*
G03*
X375500Y213400I1133J1130D01*
G01*
X367867Y203870D02*
G03*
X369000Y203400I1133J1130D01*
G01*
X367869Y203869D02*
G03*
X369000Y203400I1131J1131D01*
G01*
X317131Y472131D02*
G03*
X316000Y472600I-1131J-1131D01*
G01*
X317133Y472130D02*
G03*
X316000Y472600I-1133J-1130D01*
G01*
X300133Y467130D02*
G03*
X299000Y467600I-1133J-1130D01*
G01*
X300131Y467131D02*
G03*
X299000Y467600I-1131J-1131D01*
G01*
X281131Y457131D02*
G03*
X280000Y457600I-1131J-1131D01*
G01*
X281133Y457130D02*
G03*
X280000Y457600I-1133J-1130D01*
G01*
X256633Y451630D02*
G03*
X255500Y452100I-1133J-1130D01*
G01*
X256631Y451631D02*
G03*
X255500Y452100I-1131J-1131D01*
G01*
X240631Y442131D02*
G03*
X239500Y442600I-1131J-1131D01*
G01*
X240633Y442130D02*
G03*
X239500Y442600I-1133J-1130D01*
G01*
X231631Y437131D02*
G03*
X230500Y437600I-1131J-1131D01*
G01*
X231633Y437130D02*
G03*
X230500Y437600I-1133J-1130D01*
G01*
X331600Y406000D02*
G03*
X331130Y407133I-1600J0D01*
G01*
X331600Y406000D02*
G03*
X331131Y407131I-1600J0D01*
G01*
X317600Y390000D02*
G03*
X317131Y391131I-1600J0D01*
G01*
X317600Y390000D02*
G03*
X317130Y391133I-1600J0D01*
G01*
X267100Y401000D02*
G03*
X266631Y402131I-1600J0D01*
G01*
X267100Y401000D02*
G03*
X266630Y402133I-1600J0D01*
G01*
X257600Y394000D02*
G03*
X257131Y395131I-1600J0D01*
G01*
X257600Y394000D02*
G03*
X257130Y395133I-1600J0D01*
G01*
X220131Y432131D02*
G03*
X219000Y432600I-1131J-1131D01*
G01*
X220133Y432130D02*
G03*
X219000Y432600I-1133J-1130D01*
G01*
X209633Y427130D02*
G03*
X208500Y427600I-1133J-1130D01*
G01*
X209631Y427131D02*
G03*
X208500Y427600I-1131J-1131D01*
G01*
X207131Y394131D02*
G03*
X206000Y394600I-1131J-1131D01*
G01*
X205133Y407130D02*
G03*
X204000Y407600I-1133J-1130D01*
G01*
X207133Y394130D02*
G03*
X206000Y394600I-1133J-1130D01*
G01*
X202131Y422131D02*
G03*
X201000Y422600I-1131J-1131D01*
G01*
X202133Y422130D02*
G03*
X201000Y422600I-1133J-1130D01*
G01*
X205131Y407131D02*
G03*
X204000Y407600I-1131J-1131D01*
G01*
X132206Y472600D02*
G03*
X133724Y474400I-2206J3400D01*
G01*
Y477600D02*
G03*
X127794Y472600I-3724J-1600D01*
G01*
X127794Y469400D02*
G03*
X133724Y464400I2206J-3400D01*
G01*
Y467600D02*
G03*
X132206Y469400I-3724J-1600D01*
G01*
X124453Y476000D02*
G03*
X124453Y476000I-4453J0D01*
G01*
X125000Y472600D02*
G03*
X123867Y472130I0J-1600D01*
G01*
X125000Y472600D02*
G03*
X123869Y472131I0J-1600D01*
G01*
X123764Y454498D02*
G03*
X124053Y456000I-3764J1502D01*
G01*
Y466000D02*
G03*
X123764Y467502I-4053J0D01*
G01*
X121502Y469764D02*
G03*
X124053Y466000I-1502J-3764D01*
G01*
X131102Y452100D02*
G03*
X133724Y454400I-1102J3900D01*
G01*
X132206Y442600D02*
G03*
X134053Y446000I-2206J3400D01*
G01*
D02*
G03*
X132831Y448900I-4053J0D01*
G01*
X133724Y457600D02*
G03*
X128898Y452100I-3724J-1600D01*
G01*
X127169Y448900D02*
G03*
X127794Y442600I2831J-2900D01*
G01*
X133724Y437600D02*
G03*
X132206Y439400I-3724J-1600D01*
G01*
Y432600D02*
G03*
X133724Y434400I-2206J3400D01*
G01*
X127794Y439400D02*
G03*
X127794Y432600I2206J-3400D01*
G01*
X124367Y449370D02*
G03*
X125500Y448900I1133J1130D01*
G01*
X124369Y449369D02*
G03*
X125500Y448900I1131J1131D01*
G01*
X123764Y444498D02*
G03*
X124053Y446000I-3764J1502D01*
G01*
Y456000D02*
G03*
X121502Y452236I-4053J0D01*
G01*
X124053Y446000D02*
G03*
X121502Y442236I-4053J0D01*
G01*
X123867Y439870D02*
G03*
X125000Y439400I1133J1130D01*
G01*
X123869Y439869D02*
G03*
X125000Y439400I1131J1131D01*
G01*
X123764Y434498D02*
G03*
X124053Y436000I-3764J1502D01*
G01*
D02*
G03*
X121502Y432236I-4053J0D01*
G01*
X171050Y415500D02*
G03*
X171050Y415500I-3050J0D01*
G01*
X176050Y401000D02*
G03*
X176050Y401000I-3050J0D01*
G01*
X133724Y427600D02*
G03*
X132206Y429400I-3724J-1600D01*
G01*
X132206Y422600D02*
G03*
X133724Y424400I-2206J3400D01*
G01*
X127794Y429400D02*
G03*
X127794Y422600I2206J-3400D01*
G01*
X134453Y416000D02*
G03*
X132875Y419400I-4453J0D01*
G01*
X127125D02*
G03*
X134453Y416000I2875J-3400D01*
G01*
X123867Y429870D02*
G03*
X125000Y429400I1133J1130D01*
G01*
X123869Y429869D02*
G03*
X125000Y429400I1131J1131D01*
G01*
X123764Y424498D02*
G03*
X124053Y426000I-3764J1502D01*
G01*
D02*
G03*
X121502Y422236I-4053J0D01*
G01*
X123867Y419870D02*
G03*
X125000Y419400I1133J1130D01*
G01*
X123869Y419869D02*
G03*
X125000Y419400I1131J1131D01*
G01*
X126100Y411500D02*
G03*
X125630Y412633I-1600J0D01*
G01*
X126100Y411500D02*
G03*
X125631Y412631I-1600J0D01*
G01*
X123764Y414498D02*
G03*
X124053Y416000I-3764J1502D01*
G01*
D02*
G03*
X121502Y412236I-4053J0D01*
G01*
X126369Y391869D02*
G03*
X127500Y391400I1131J1131D01*
G01*
X126367Y391870D02*
G03*
X127500Y391400I1133J1130D01*
G01*
X121600Y402276D02*
G03*
X122900Y403169I-1600J3724D01*
G01*
Y408831D02*
G03*
X118400Y402276I-2900J-2831D01*
G01*
X122900Y396000D02*
G03*
X123369Y394869I1600J0D01*
G01*
X122900Y396000D02*
G03*
X123370Y394867I1600J0D01*
G01*
X118400Y393500D02*
G03*
X118869Y392369I1600J0D01*
G01*
X118400Y393500D02*
G03*
X118870Y392367I1600J0D01*
G01*
X325050Y361500D02*
G03*
X325050Y361500I-3050J0D01*
G01*
X305100Y377000D02*
G03*
X304631Y378131I-1600J0D01*
G01*
X305100Y377000D02*
G03*
X304630Y378133I-1600J0D01*
G01*
X313050Y363000D02*
G03*
X313050Y363000I-3050J0D01*
G01*
X280050Y356500D02*
G03*
X280050Y356500I-3050J0D01*
G01*
X249600Y386500D02*
G03*
X249130Y387633I-1600J0D01*
G01*
X249600Y386500D02*
G03*
X249131Y387631I-1600J0D01*
G01*
X244600Y379000D02*
G03*
X244130Y380133I-1600J0D01*
G01*
X244600Y379000D02*
G03*
X244131Y380131I-1600J0D01*
G01*
X328400Y279500D02*
G03*
X328869Y278369I1600J0D01*
G01*
X328400Y279500D02*
G03*
X328870Y278367I1600J0D01*
G01*
X314400Y274500D02*
G03*
X314870Y273367I1600J0D01*
G01*
X314400Y274500D02*
G03*
X314869Y273369I1600J0D01*
G01*
X263900Y294882D02*
G03*
X263900Y291118I-2400J-1882D01*
G01*
X301900Y270500D02*
G03*
X302370Y269367I1600J0D01*
G01*
X301900Y270500D02*
G03*
X302369Y269369I1600J0D01*
G01*
X266630Y237867D02*
G03*
X267100Y239000I-1130J1133D01*
G01*
X266631Y237869D02*
G03*
X267100Y239000I-1131J1131D01*
G01*
X254400Y294882D02*
G03*
X249600Y294882I-2400J-1882D01*
G01*
Y291118D02*
G03*
X254400Y291118I2400J1882D01*
G01*
X249130Y242867D02*
G03*
X249600Y244000I-1130J1133D01*
G01*
X257130Y237867D02*
G03*
X257600Y239000I-1130J1133D01*
G01*
X257131Y237869D02*
G03*
X257600Y239000I-1131J1131D01*
G01*
X244131Y253869D02*
G03*
X244600Y255000I-1131J1131D01*
G01*
X244130Y253867D02*
G03*
X244600Y255000I-1130J1133D01*
G01*
X249131Y242869D02*
G03*
X249600Y244000I-1131J1131D01*
G01*
X244000Y238400D02*
G03*
X245133Y238870I0J1600D01*
G01*
X244000Y238400D02*
G03*
X245131Y238869I0J1600D01*
G01*
X239600Y372000D02*
G03*
X239131Y373131I-1600J0D01*
G01*
X239600Y372000D02*
G03*
X239130Y373133I-1600J0D01*
G01*
X234100Y366500D02*
G03*
X233631Y367631I-1600J0D01*
G01*
X234100Y366500D02*
G03*
X233630Y367633I-1600J0D01*
G01*
X229600Y362000D02*
G03*
X229130Y363133I-1600J0D01*
G01*
X229600Y362000D02*
G03*
X229131Y363131I-1600J0D01*
G01*
X224053Y350000D02*
G03*
X224053Y350000I-4053J0D01*
G01*
Y340000D02*
G03*
X224053Y340000I-4053J0D01*
G01*
X229131Y327869D02*
G03*
X229600Y329000I-1131J1131D01*
G01*
X229130Y327867D02*
G03*
X229600Y329000I-1130J1133D01*
G01*
X222206Y326600D02*
G03*
X224053Y330000I-2206J3400D01*
G01*
D02*
G03*
X217794Y326600I-4053J0D01*
G01*
X224000Y323400D02*
G03*
X225133Y323870I0J1600D01*
G01*
X224000Y323400D02*
G03*
X225131Y323869I0J1600D01*
G01*
X224053Y320000D02*
G03*
X222206Y323400I-4053J0D01*
G01*
X217794D02*
G03*
X224053Y320000I2206J-3400D01*
G01*
Y310000D02*
G03*
X224053Y310000I-4053J0D01*
G01*
X203131Y389131D02*
G03*
X202000Y389600I-1131J-1131D01*
G01*
X203133Y389130D02*
G03*
X202000Y389600I-1133J-1130D01*
G01*
X124369Y386869D02*
G03*
X125500Y386400I1131J1131D01*
G01*
X124367Y386870D02*
G03*
X125500Y386400I1133J1130D01*
G01*
X215000Y326600D02*
G03*
X213869Y326131I0J-1600D01*
G01*
X215000Y326600D02*
G03*
X213867Y326130I0J-1600D01*
G01*
X214053Y320000D02*
G03*
X213764Y321502I-4053J0D01*
G01*
X210000Y315947D02*
G03*
X214053Y320000I0J4053D01*
G01*
Y340000D02*
G03*
X210000Y344053I-4053J0D01*
G01*
Y335947D02*
G03*
X214053Y340000I0J4053D01*
G01*
Y350000D02*
G03*
X210000Y354053I-4053J0D01*
G01*
Y345947D02*
G03*
X214053Y350000I0J4053D01*
G01*
Y330000D02*
G03*
X210000Y334053I-4053J0D01*
G01*
Y325947D02*
G03*
X214053Y330000I0J4053D01*
G01*
X211502Y323764D02*
G03*
X210000Y324053I-1502J-3764D01*
G01*
X214053Y310000D02*
G03*
X210000Y314053I-4053J0D01*
G01*
X233630Y291867D02*
G03*
X234100Y293000I-1130J1133D01*
G01*
X233631Y291869D02*
G03*
X234100Y293000I-1131J1131D01*
G01*
X239130Y288867D02*
G03*
X239600Y290000I-1130J1133D01*
G01*
X239131Y288869D02*
G03*
X239600Y290000I-1131J1131D01*
G01*
X224500Y283400D02*
G03*
X225633Y283870I0J1600D01*
G01*
X224500Y283400D02*
G03*
X225631Y283869I0J1600D01*
G01*
X222875Y286600D02*
G03*
X224453Y290000I-2875J3400D01*
G01*
X228870Y283133D02*
G03*
X228400Y282000I1130J-1133D01*
G01*
X228869Y283131D02*
G03*
X228400Y282000I1131J-1131D01*
G01*
X224631Y267131D02*
G03*
X223500Y267600I-1131J-1131D01*
G01*
X224633Y267130D02*
G03*
X223500Y267600I-1133J-1130D01*
G01*
X238000Y248400D02*
G03*
X239133Y248870I0J1600D01*
G01*
X234053Y260000D02*
G03*
X231600Y263724I-4053J0D01*
G01*
X227100Y257169D02*
G03*
X234053Y260000I2900J2831D01*
G01*
X233724Y251600D02*
G03*
X233724Y248400I-3724J-1600D01*
G01*
X238000D02*
G03*
X239131Y248869I0J1600D01*
G01*
X233525Y228000D02*
G03*
X234053Y230000I-3525J2000D01*
G01*
X233724Y241600D02*
G03*
X233724Y238400I-3724J-1600D01*
G01*
X234053Y230000D02*
G03*
X226475Y228000I-4053J0D01*
G01*
X228400Y263724D02*
G03*
X227100Y262831I1600J-3724D01*
G01*
Y264000D02*
G03*
X226631Y265131I-1600J0D01*
G01*
X227100Y264000D02*
G03*
X226630Y265133I-1600J0D01*
G01*
X226631Y254369D02*
G03*
X227100Y255500I-1131J1131D01*
G01*
X226630Y254367D02*
G03*
X227100Y255500I-1130J1133D01*
G01*
X224053Y250000D02*
G03*
X223764Y251502I-4053J0D01*
G01*
X223525Y228000D02*
G03*
X224053Y230000I-3525J2000D01*
G01*
X224453Y300000D02*
G03*
X224453Y300000I-4453J0D01*
G01*
Y290000D02*
G03*
X217125Y286600I-4453J0D01*
G01*
X210000Y305947D02*
G03*
X214053Y310000I0J4053D01*
G01*
Y300000D02*
G03*
X210000Y304053I-4053J0D01*
G01*
X213764Y288498D02*
G03*
X214053Y290000I-3764J1502D01*
G01*
X210000Y295947D02*
G03*
X214053Y300000I0J4053D01*
G01*
Y290000D02*
G03*
X210000Y294053I-4053J0D01*
G01*
X214053Y283711D02*
G03*
X215000Y283400I947J1290D01*
G01*
X214053Y283711D02*
G03*
X215000Y283400I947J1290D01*
G01*
X210000Y285947D02*
G03*
X211502Y286236I0J4053D01*
G01*
X224053Y240000D02*
G03*
X216276Y241600I-4053J0D01*
G01*
Y238400D02*
G03*
X224053Y240000I3724J1600D01*
G01*
X216276Y228400D02*
G03*
X216475Y228000I3724J1600D01*
G01*
X221502Y253764D02*
G03*
X224053Y250000I-1502J-3764D01*
G01*
Y230000D02*
G03*
X216276Y231600I-4053J0D01*
G01*
X480150Y490000D02*
X490000Y480150D01*
X488000Y490000D02*
X490000Y488000D01*
X480052Y480052D02*
X489000Y489000D01*
X479952Y470052D02*
X490000Y480101D01*
X484048Y476203D02*
X490000Y470251D01*
X470251Y490000D02*
X480203Y480048D01*
X470153Y480053D02*
X480100Y490000D01*
X476133Y469870D02*
X478498Y472236D01*
X479849Y460050D02*
X490000Y470201D01*
X484041Y466311D02*
X490000Y460351D01*
X483156Y453458D02*
X490000Y460302D01*
X478357Y462095D02*
X480421Y460031D01*
X478307Y472044D02*
X480310Y470041D01*
X476133Y459870D02*
X478498Y462236D01*
X474337Y452600D02*
X476236Y454498D01*
X474053Y476299D02*
X476044Y474307D01*
X474337Y472600D02*
X476236Y474498D01*
X474053Y474053D02*
X475948Y475948D01*
X472875Y469400D02*
X475000D01*
X474053Y472600D02*
Y480053D01*
X474051Y464151D02*
X475948Y466048D01*
X474337Y462600D02*
X476236Y464498D01*
X474453Y465999D02*
X476095Y464357D01*
X474017Y456535D02*
X476145Y454408D01*
X472875Y462600D02*
X474337D01*
X472206Y459400D02*
X475000D01*
X472399Y452600D02*
X475950Y456151D01*
X484031Y456421D02*
X490000Y450452D01*
X483414Y443816D02*
X490000Y450402D01*
X479743Y450045D02*
X482542Y452844D01*
X490000Y413057D02*
Y488000D01*
X484017Y446535D02*
X490000Y440552D01*
X478408Y452145D02*
X480535Y450017D01*
X476133Y449870D02*
X478498Y452236D01*
X483559Y434062D02*
X490000Y440503D01*
X484000Y436653D02*
X490000Y430653D01*
X479634Y440036D02*
X482184Y442586D01*
X479522Y430024D02*
X481938Y432441D01*
X478530Y432223D02*
X480776Y429978D01*
X478458Y442195D02*
X480653Y440000D01*
X476133Y439870D02*
X478498Y442236D01*
X476133Y429870D02*
X478498Y432236D01*
X474000Y446653D02*
X476195Y444458D01*
X474337Y442600D02*
X476236Y444498D01*
X473156Y443458D02*
X475955Y446257D01*
X472206Y452600D02*
X474337D01*
X472206Y449400D02*
X475000D01*
X472298Y442600D02*
X472542Y442843D01*
X473978Y436776D02*
X476223Y434530D01*
X474337Y432600D02*
X476236Y434498D01*
X473414Y433816D02*
X475964Y436366D01*
X472206Y442600D02*
X474337D01*
X472206Y439400D02*
X475000D01*
X472206Y432600D02*
X474337D01*
X465947Y477600D02*
Y480053D01*
X474053D01*
X465947Y472600D02*
Y474400D01*
X461152Y469400D02*
X465697Y464856D01*
X457801Y477600D02*
X470201Y490000D01*
X460351D02*
X470299Y480053D01*
X448350Y477600D02*
X465947D01*
X448500Y472600D02*
X465947D01*
X448350Y474400D02*
X465947D01*
X466047Y466000D02*
X470000D01*
X473953D01*
X462600Y462600D02*
X465568Y465568D01*
X447500Y462600D02*
X467125D01*
X448163Y459400D02*
X467794D01*
X449163Y469400D02*
X467125D01*
X450663Y454400D02*
X466276D01*
X450000Y457600D02*
X466276D01*
X456152Y474400D02*
X457952Y472600D01*
X462701D02*
X464501Y474400D01*
X452801Y472600D02*
X454601Y474400D01*
X455488Y465387D02*
X459501Y469400D01*
X451253D02*
X451708Y468945D01*
X448350Y478049D02*
X460301Y490000D01*
X450452D02*
X462852Y477600D01*
X439252Y478850D02*
X450402Y490000D01*
X440552D02*
X452952Y477600D01*
X455445Y465208D02*
X458053Y462600D01*
X457600Y457600D02*
X459400Y459400D01*
X452701Y462600D02*
X453113Y463012D01*
X462499Y452600D02*
X464299Y454400D01*
X461253Y459400D02*
X463053Y457600D01*
X452500Y466000D02*
Y468550D01*
Y466000D02*
X455050D01*
X449950D02*
X452500D01*
X451353Y459400D02*
X453153Y457600D01*
X452500Y463450D02*
Y466000D01*
X461353Y449400D02*
X463153Y447600D01*
X457499D02*
X459299Y449400D01*
X462399Y442600D02*
X464199Y444400D01*
X451000Y452600D02*
X467794D01*
X451663Y449400D02*
X467794D01*
X452500Y447600D02*
X466276D01*
X457000Y442600D02*
X467794D01*
X453163Y444400D02*
X466276D01*
X463000Y432600D02*
X467794D01*
X461454Y439400D02*
X466165Y434689D01*
X457663Y439400D02*
X467794D01*
X454609Y436346D02*
X460346Y430609D01*
X448600Y428801D02*
X459199Y439400D01*
X448600Y418902D02*
X465955Y436257D01*
X451370Y421633D02*
X461867Y432130D01*
X452600Y452600D02*
X454400Y454400D01*
X456353D02*
X458153Y452600D01*
X451558Y449296D02*
X453254Y447600D01*
X438100Y441837D02*
X450663Y454400D01*
X441250Y438987D02*
X451663Y449400D01*
X441870Y437633D02*
X451367Y447130D01*
X456454Y444400D02*
X458254Y442600D01*
X449659Y431396D02*
X455396Y425659D01*
X449859Y441096D02*
X452346Y438609D01*
X444600Y434701D02*
X454299Y444400D01*
X444600Y435837D02*
X453163Y444400D01*
X448600Y430337D02*
X457663Y439400D01*
X445870Y432133D02*
X455867Y442130D01*
X483663Y424266D02*
X490000Y430603D01*
X483978Y426776D02*
X490000Y420753D01*
X479406Y420009D02*
X481734Y422337D01*
X486280Y416983D02*
X490000Y420704D01*
X478689Y422165D02*
X480903Y419951D01*
X476600Y420337D02*
X478498Y422236D01*
X476600Y418206D02*
Y420337D01*
X486133Y417130D02*
X489630Y413633D01*
X483724Y417600D02*
X485000D01*
X483724Y414400D02*
X484337D01*
X486900Y411837D01*
X479742Y410445D02*
X481553Y412257D01*
X473951Y426903D02*
X476165Y424689D01*
X473870Y422133D02*
X476236Y424498D01*
X473559Y424062D02*
X475976Y426478D01*
X472206Y429400D02*
X475000D01*
X469522Y420024D02*
X471938Y422441D01*
X473400Y418206D02*
Y421000D01*
X468837Y422118D02*
X471036Y419918D01*
X464663Y414400D02*
X466276D01*
X484377Y405181D02*
X486900Y407704D01*
X484421Y406534D02*
X486900Y404054D01*
X480000Y406000D02*
X483953D01*
X479477Y401578D02*
X486900Y394155D01*
X480000Y402047D02*
Y406000D01*
X471600Y392404D02*
X480819Y401623D01*
X478837Y412118D02*
X480534Y410421D01*
X471600Y382505D02*
X486900Y397805D01*
X471600Y399555D02*
X486900Y384256D01*
X471600Y359958D02*
X486900Y344657D01*
X471600Y342907D02*
X486900Y358207D01*
X471600Y352806D02*
X486900Y368106D01*
X471600Y333007D02*
X486900Y348307D01*
X471600Y350058D02*
X486900Y334758D01*
X471600Y372605D02*
X486900Y387905D01*
X471600Y379756D02*
X486900Y364457D01*
X471600Y389656D02*
X486900Y374356D01*
X471600Y369857D02*
X486900Y354557D01*
X471600Y362706D02*
X486900Y378006D01*
X473633Y409870D02*
X476130Y412367D01*
X480000Y406000D02*
Y409953D01*
X473878Y407177D02*
X475578Y405477D01*
X473743Y404447D02*
X475555Y406258D01*
X464200Y405437D02*
X466217Y407454D01*
X464200Y404803D02*
X465991Y406594D01*
X476047Y406000D02*
X480000D01*
X464959Y406196D02*
X466046Y405109D01*
X464200Y387157D02*
X468400Y382957D01*
X464200Y385004D02*
X468400Y389204D01*
X464200Y377257D02*
X468400Y373057D01*
X464200Y375105D02*
X468400Y379305D01*
X464200Y337659D02*
X468400Y333459D01*
X464200Y365205D02*
X468400Y369405D01*
X463663Y429400D02*
X467794D01*
X464000Y417600D02*
X466276D01*
X462609Y428346D02*
X466118Y424837D01*
X454100Y419837D02*
X463663Y429400D01*
X454100Y414502D02*
X465964Y426366D01*
X457659Y423396D02*
X463527Y417528D01*
X459100Y408837D02*
X464663Y414400D01*
X456370Y410633D02*
X462867Y417130D01*
X461470Y407233D02*
X466367Y412130D01*
X464200Y397056D02*
X468400Y392856D01*
X464200Y394904D02*
X468400Y399104D01*
X460709Y410446D02*
X462696Y408459D01*
X459100Y402156D02*
X461000Y400256D01*
X459100Y399703D02*
X461000Y401603D01*
X459100Y389804D02*
X461000Y391704D01*
X459100Y392256D02*
X461000Y390356D01*
X454100Y417056D02*
X458446Y412709D01*
X454100Y404603D02*
X455900Y406403D01*
X454100Y407156D02*
X455900Y405356D01*
X448600Y422555D02*
X450900Y420256D01*
X448600Y409002D02*
X450900Y411302D01*
X448600Y412656D02*
X450900Y410356D01*
X454100Y394703D02*
X455900Y396503D01*
X454100Y387357D02*
X455900Y385557D01*
X454100Y397256D02*
X455900Y395457D01*
X459100Y382357D02*
X461000Y380457D01*
X454100Y384804D02*
X455900Y386604D01*
X448600Y399103D02*
X450900Y401403D01*
X448600Y392857D02*
X450900Y390557D01*
X448600Y402757D02*
X450900Y400456D01*
X448600Y382958D02*
X450900Y380658D01*
X448600Y389203D02*
X450900Y391503D01*
X459100Y372458D02*
X461000Y370557D01*
X459100Y370005D02*
X461000Y371905D01*
X459100Y379904D02*
X461000Y381804D01*
X464200Y355306D02*
X468400Y359506D01*
X464200Y367357D02*
X468400Y363158D01*
X454100Y365005D02*
X455900Y366805D01*
X459100Y362558D02*
X461000Y360658D01*
X454100Y367558D02*
X455900Y365758D01*
X459100Y360105D02*
X461000Y362005D01*
X454100Y357659D02*
X455900Y355858D01*
X464200Y357458D02*
X468400Y353258D01*
X464200Y345406D02*
X468400Y349606D01*
X459100Y350206D02*
X461000Y352106D01*
X464200Y335507D02*
X468400Y339707D01*
X464200Y347558D02*
X468400Y343358D01*
X459100Y342759D02*
X461000Y340859D01*
X459100Y340306D02*
X461000Y342206D01*
X459100Y352659D02*
X461000Y350759D01*
X459100Y330407D02*
X461000Y332307D01*
X459100Y332859D02*
X461000Y330960D01*
X454100Y377457D02*
X455900Y375658D01*
X454100Y374904D02*
X455900Y376704D01*
X448600Y379304D02*
X450900Y381604D01*
X454100Y355105D02*
X455900Y356905D01*
X448600Y373058D02*
X450900Y370758D01*
X448600Y363158D02*
X450900Y360858D01*
X448600Y359505D02*
X450900Y361805D01*
X448600Y369404D02*
X450900Y371704D01*
X448600Y349605D02*
X450900Y351905D01*
X448600Y353259D02*
X450900Y350959D01*
X454100Y345206D02*
X455900Y347006D01*
X454100Y337860D02*
X455900Y336059D01*
X454100Y347759D02*
X455900Y345959D01*
X454100Y327960D02*
X455900Y326160D01*
X454100Y335306D02*
X455900Y337106D01*
X448600Y339706D02*
X450900Y342006D01*
X448600Y343359D02*
X450900Y341059D01*
X448600Y329806D02*
X450900Y332106D01*
X448600Y333460D02*
X450900Y331160D01*
X448350Y477600D02*
Y478850D01*
Y473150D02*
Y474400D01*
X447503Y473150D02*
X448103Y472550D01*
X442650Y478850D02*
X448350D01*
X442650Y473150D02*
X448350D01*
X442350Y478303D02*
X442650Y478003D01*
X428600Y458298D02*
X443451Y473150D01*
X437603D02*
X442995Y467758D01*
X448558Y452296D02*
X449296Y451558D01*
X428870Y453633D02*
X447367Y472130D01*
X445258Y465495D02*
X448153Y462600D01*
X444808Y456046D02*
X446296Y454558D01*
X431600Y451399D02*
X449601Y469400D01*
X431600Y451837D02*
X449163Y469400D01*
X441803Y478850D02*
X442350Y478303D01*
X442650Y473150D02*
Y478850D01*
X436650Y477600D02*
Y478850D01*
X442350Y473150D02*
Y478850D01*
X436650Y473150D02*
Y474400D01*
X430653Y490000D02*
X441803Y478850D01*
X436650D02*
X442350D01*
X435000Y477600D02*
X436650D01*
X436353Y474400D02*
X436650Y474103D01*
Y473150D02*
X442350D01*
X435663Y474400D02*
X436650D01*
X440308Y460546D02*
X442546Y458308D01*
X435359Y455596D02*
X437596Y453359D01*
X428600Y467337D02*
X435663Y474400D01*
X431058Y469796D02*
X438046Y462808D01*
X428600Y462354D02*
X433096Y457859D01*
X443609Y447346D02*
X444346Y446609D01*
X446609Y444346D02*
X447596Y443359D01*
X439859Y451096D02*
X441346Y449609D01*
X441659Y439396D02*
X442646Y438409D01*
X435100Y446337D02*
X448163Y459400D01*
X435100Y445000D02*
X449501Y459400D01*
X432370Y448133D02*
X446367Y462130D01*
X438520Y440783D02*
X449867Y452130D01*
X435370Y443633D02*
X448867Y457130D01*
X444909Y436146D02*
X447396Y433659D01*
X444600Y424801D02*
X445400Y425601D01*
X444600Y426555D02*
X445400Y425756D01*
X444600Y416656D02*
X445400Y415856D01*
X444600Y414902D02*
X445400Y415702D01*
X444600Y405002D02*
X445400Y405802D01*
X444600Y406756D02*
X445400Y405957D01*
X435100Y445955D02*
X436396Y444659D01*
X435100Y443275D02*
Y446337D01*
X438659Y442396D02*
X439396Y441659D01*
X438100Y440047D02*
Y441837D01*
X431600Y449455D02*
X432646Y448409D01*
X431600Y441500D02*
X431900Y441799D01*
X431600Y439556D02*
X431900Y439256D01*
X431600Y429656D02*
X431900Y429356D01*
X431600Y431600D02*
X431900Y431900D01*
X431600Y419757D02*
X431900Y419456D01*
X431600Y411801D02*
X431900Y412101D01*
X431600Y421701D02*
X431900Y422001D01*
X431600Y401902D02*
X431900Y402202D01*
X431600Y409857D02*
X431900Y409557D01*
X410854Y490000D02*
X428796Y472058D01*
X420753Y490000D02*
X433745Y477008D01*
X400954Y490000D02*
X425400Y465554D01*
X380633Y430130D02*
X440503Y490000D01*
X391055D02*
X425400Y455655D01*
X365783Y444979D02*
X410804Y490000D01*
X371256D02*
X425400Y435856D01*
X355884Y454879D02*
X391005Y490000D01*
X375683Y435080D02*
X430603Y490000D01*
X361356D02*
X425400Y425956D01*
X425870Y469133D02*
X433867Y477130D01*
X428600Y453275D02*
Y467337D01*
X381155Y490000D02*
X425400Y445755D01*
X370733Y440030D02*
X420704Y490000D01*
X370733Y440030D02*
X420704Y490000D01*
X360834Y449929D02*
X400905Y490000D01*
X341035Y469728D02*
X361307Y490000D01*
X345984Y464778D02*
X371206Y490000D01*
X336085Y474678D02*
X351407Y490000D01*
X350934Y459829D02*
X381106Y490000D01*
X340184Y449079D02*
X348671Y457566D01*
X335234Y454028D02*
X343722Y462516D01*
X333633Y477130D02*
X381130Y429633D01*
X331837Y474400D02*
X378400Y427837D01*
X359983Y429280D02*
X368470Y437767D01*
X359983Y429280D02*
X368470Y437767D01*
X355033Y434229D02*
X363521Y442717D01*
X345134Y444129D02*
X353621Y452616D01*
X350084Y439179D02*
X358571Y447666D01*
X334134Y433129D02*
X342871Y441866D01*
X344033Y423229D02*
X352771Y431967D01*
X339084Y428179D02*
X347821Y436916D01*
X381600Y411299D02*
X425400Y455098D01*
X402136Y412035D02*
X425400Y435299D01*
X381600Y421198D02*
X425400Y464998D01*
Y330163D02*
Y468000D01*
X381600Y420259D02*
X415948Y385911D01*
X341558Y490000D02*
X425400Y406157D01*
X381600Y401399D02*
X425400Y445199D01*
X351457Y490000D02*
X425400Y416057D01*
X381600Y381600D02*
X425400Y425400D01*
X331658Y490000D02*
X425400Y396258D01*
X399500Y410500D02*
Y413050D01*
Y410500D02*
X402050D01*
X399500Y407950D02*
Y410500D01*
X402349Y409410D02*
X425400Y386358D01*
X409849Y390050D02*
X425400Y405601D01*
X396950Y410500D02*
X399500D01*
X381600Y391499D02*
X397965Y407865D01*
X381600Y371701D02*
X425400Y415501D01*
X381600Y410359D02*
X405947Y386012D01*
X361600Y420997D02*
X373420Y432817D01*
X361600Y411097D02*
X378370Y427867D01*
X345600Y414896D02*
X357720Y427017D01*
X361600Y401198D02*
X378400Y417998D01*
X361600Y420460D02*
X378400Y403660D01*
X345600Y414896D02*
X357720Y427017D01*
X345600Y416661D02*
X358400Y403861D01*
X345600Y404997D02*
X358400Y417797D01*
X361600Y410561D02*
X373133Y399028D01*
X345600Y395097D02*
X358400Y407898D01*
X345600Y406762D02*
X358400Y393962D01*
X361600Y400661D02*
X378400Y383861D01*
X361600Y391299D02*
X378400Y408099D01*
X331600Y400897D02*
X342400Y411696D01*
X331600Y400897D02*
X342400Y411696D01*
X331600Y400963D02*
X342400Y390163D01*
X331600Y390997D02*
X342400Y401797D01*
X444600Y396857D02*
X445400Y396057D01*
X444600Y395103D02*
X445400Y395903D01*
X431600Y392002D02*
X431900Y392302D01*
X444600Y385203D02*
X445400Y386003D01*
X444600Y386958D02*
X445400Y386157D01*
X431600Y390058D02*
X431900Y389758D01*
X431600Y382103D02*
X431900Y382403D01*
X431600Y399957D02*
X431900Y399658D01*
X431600Y380158D02*
X431900Y379858D01*
X419911Y381948D02*
X425400Y376459D01*
X444600Y375304D02*
X445400Y376104D01*
X444600Y367159D02*
X445400Y366358D01*
X444600Y377058D02*
X445400Y376258D01*
X444600Y357259D02*
X445400Y356459D01*
X444600Y365404D02*
X445400Y366204D01*
X431600Y372203D02*
X431900Y372503D01*
X431600Y370259D02*
X431900Y369959D01*
X423559Y374062D02*
X425400Y375903D01*
X431600Y360360D02*
X431900Y360059D01*
X431600Y362304D02*
X431900Y362604D01*
X419743Y390045D02*
X425400Y395702D01*
X423414Y383816D02*
X425400Y385802D01*
X419634Y380036D02*
X422184Y382586D01*
X419522Y370024D02*
X421938Y372441D01*
X413157Y383458D02*
X415955Y386257D01*
X410012Y381947D02*
X415947Y376012D01*
X413414Y373816D02*
X415964Y376366D01*
X410111Y371949D02*
X415949Y366111D01*
X420012Y371947D02*
X425400Y366560D01*
X423663Y364266D02*
X425400Y366003D01*
X419847Y360450D02*
X421734Y362337D01*
X423886Y358174D02*
X425400Y356660D01*
X420111Y361949D02*
X422174Y359886D01*
X413559Y364062D02*
X415976Y366478D01*
X410208Y361953D02*
X412428Y359733D01*
X413733Y358428D02*
X415585Y356576D01*
X410000Y356000D02*
X413953D01*
X444600Y355505D02*
X445400Y356305D01*
X431600Y352404D02*
X431900Y352704D01*
X431600Y350460D02*
X431900Y350160D01*
X444600Y345605D02*
X445400Y346405D01*
X444600Y347359D02*
X445400Y346560D01*
X420576Y351585D02*
X425400Y346761D01*
X423807Y344612D02*
X425400Y346204D01*
X424351Y355055D02*
X425400Y356104D01*
X431600Y342505D02*
X431900Y342805D01*
X420302Y341959D02*
X425400Y336861D01*
X444600Y337460D02*
X445400Y336660D01*
X444600Y335706D02*
X445400Y336506D01*
X431600Y340561D02*
X431900Y340261D01*
X444600Y327561D02*
X445400Y326761D01*
X431600Y332605D02*
X431900Y332905D01*
X431600Y330661D02*
X431900Y330361D01*
X423860Y334765D02*
X425400Y336305D01*
X423417Y328180D02*
X425400Y330163D01*
X420000Y356000D02*
Y359953D01*
Y356000D02*
X423953D01*
X416047D02*
X420000D01*
X419286Y349989D02*
X420945Y351649D01*
X420000Y352047D02*
Y356000D01*
X410000Y356000D02*
Y359953D01*
X414321Y354924D02*
X415550Y356153D01*
X410000Y352047D02*
Y356000D01*
X410664Y351597D02*
X415959Y346303D01*
X419161Y339965D02*
X421388Y342193D01*
X420395Y331966D02*
X423799Y328562D01*
X419031Y329935D02*
X421236Y332140D01*
X413743Y344447D02*
X416011Y346714D01*
X410395Y341967D02*
X415967Y336395D01*
X413807Y334612D02*
X416035Y336839D01*
X410486Y331976D02*
X415976Y326486D01*
X376532Y396331D02*
X378400Y398199D01*
X373500Y396000D02*
X376050D01*
X373500D02*
Y398550D01*
X381600Y400460D02*
X405949Y376111D01*
X376528Y395633D02*
X378400Y393761D01*
X373500Y393450D02*
Y396000D01*
X370950D02*
X373500D01*
X361600Y381399D02*
X373169Y392968D01*
X345600Y385198D02*
X358400Y397998D01*
X409743Y380045D02*
X412542Y382843D01*
X409634Y370036D02*
X412184Y372586D01*
X381600Y390561D02*
X405953Y366208D01*
X361600Y390762D02*
X378400Y373962D01*
X361600Y371499D02*
X378400Y388299D01*
X353657Y383355D02*
X358400Y388099D01*
X361600Y380862D02*
X378400Y364062D01*
X345600Y365399D02*
X358400Y378199D01*
X351500Y381199D02*
Y383749D01*
Y381199D02*
X354050D01*
X348950D02*
X351500D01*
Y378648D02*
Y381199D01*
X345600Y396862D02*
X358400Y384062D01*
X345600Y386963D02*
X349276Y383286D01*
X331600Y381098D02*
X342400Y391898D01*
X331600Y371198D02*
X342400Y381998D01*
X331600Y391063D02*
X342400Y380263D01*
X345600Y375299D02*
X349343Y379042D01*
X353588Y378975D02*
X358400Y374163D01*
X338802Y368501D02*
X342400Y372098D01*
X345600Y377063D02*
X358400Y364263D01*
X336500Y363950D02*
Y366500D01*
X331600Y381164D02*
X342400Y370364D01*
X336500Y366500D02*
Y369050D01*
X331600Y371264D02*
X334277Y368588D01*
X336500Y366500D02*
X339050D01*
X333950D02*
X336500D01*
X409950Y360453D02*
X411938Y362441D01*
X381600Y361801D02*
X405950Y386151D01*
X381600Y351902D02*
X405955Y376257D01*
X381600Y380661D02*
X405597Y356664D01*
X381600Y370762D02*
X405967Y346395D01*
X361600Y351701D02*
X378400Y368501D01*
X361600Y370963D02*
X378400Y354163D01*
X381600Y360862D02*
X405976Y336486D01*
X381600Y342002D02*
X405964Y366366D01*
X409406Y350009D02*
X411076Y351679D01*
X406047Y356000D02*
X410000D01*
X409286Y339989D02*
X411553Y342257D01*
X409161Y329965D02*
X411388Y332192D01*
X381600Y332103D02*
X405548Y356050D01*
X361600Y341801D02*
X378400Y358601D01*
X381600Y350963D02*
X405988Y326574D01*
X361600Y361600D02*
X378400Y378400D01*
X345600Y355500D02*
X358400Y368300D01*
X345600Y367164D02*
X358400Y354364D01*
X361600Y361063D02*
X378400Y344263D01*
X345600Y345600D02*
X358400Y358400D01*
X338588Y364277D02*
X342400Y360464D01*
X331600Y361298D02*
X334499Y364198D01*
X331600Y361365D02*
X342400Y350565D01*
X331600Y351399D02*
X342400Y362199D01*
X345600Y335701D02*
X358400Y348501D01*
X345600Y347365D02*
X358400Y334565D01*
X345600Y357264D02*
X358400Y344464D01*
X361600Y331902D02*
X378400Y348702D01*
X361600Y351164D02*
X378400Y334364D01*
X331600Y331600D02*
X342400Y342400D01*
X331600Y351465D02*
X342400Y340665D01*
X331600Y341565D02*
X342400Y330766D01*
X331600Y341566D02*
X342400Y330766D01*
X471600Y323108D02*
X486900Y338408D01*
X471600Y330259D02*
X486900Y314959D01*
X471600Y340159D02*
X486900Y324858D01*
X471600Y320359D02*
X486900Y305060D01*
X471600Y313208D02*
X486900Y328508D01*
X464200Y325607D02*
X468400Y329807D01*
X464200Y327760D02*
X468400Y323559D01*
X459100Y322960D02*
X461000Y321060D01*
X464200Y315708D02*
X468400Y319908D01*
X459100Y320507D02*
X461000Y322407D01*
X471600Y303309D02*
X486900Y318609D01*
X464200Y305808D02*
X468400Y310008D01*
X464200Y317860D02*
X468400Y313660D01*
X471600Y310460D02*
X486900Y295160D01*
X464200Y295909D02*
X468400Y300109D01*
X459100Y310608D02*
X461000Y312508D01*
X464200Y307961D02*
X468400Y303761D01*
X459100Y313061D02*
X461000Y311161D01*
X459100Y300708D02*
X461000Y302608D01*
X459100Y303161D02*
X461000Y301261D01*
X454100Y325407D02*
X455900Y327207D01*
X448600Y323561D02*
X450900Y321261D01*
X448600Y319907D02*
X450900Y322207D01*
X454100Y315507D02*
X455900Y317307D01*
X454100Y318061D02*
X455900Y316261D01*
X444600Y317661D02*
X445400Y316861D01*
X444600Y315907D02*
X445400Y316707D01*
X444600Y325806D02*
X445400Y326606D01*
X448600Y310007D02*
X450900Y312307D01*
X448600Y313661D02*
X450900Y311361D01*
X454100Y308161D02*
X455900Y306361D01*
X454100Y305608D02*
X455900Y307408D01*
X448600Y303762D02*
X450900Y301462D01*
X454100Y295708D02*
X455900Y297508D01*
X454100Y298262D02*
X455900Y296462D01*
X444600Y306007D02*
X445400Y306807D01*
X448600Y300108D02*
X450900Y302408D01*
X444600Y307762D02*
X445400Y306962D01*
X444600Y296108D02*
X445400Y296908D01*
X444600Y297862D02*
X445400Y297062D01*
X471600Y300561D02*
X486900Y285261D01*
X471600Y283510D02*
X486900Y298810D01*
X471600Y293409D02*
X486900Y308709D01*
Y268663D02*
Y411837D01*
X471600Y265500D02*
Y402277D01*
X461000Y270263D02*
Y406100D01*
X464200Y298061D02*
X468400Y293861D01*
X459100Y282248D02*
Y408837D01*
X468400Y266163D02*
Y402277D01*
X464200Y269600D02*
Y405437D01*
X471600Y290661D02*
X486900Y275361D01*
X464200Y288162D02*
X468400Y283962D01*
X464200Y286009D02*
X468400Y290209D01*
X471600Y273610D02*
X486900Y288910D01*
X459100Y273000D02*
Y282248D01*
Y293262D02*
X461000Y291362D01*
X459100Y290809D02*
X461000Y292709D01*
X454100Y285809D02*
X455900Y287609D01*
X459100Y280909D02*
X461000Y282809D01*
X459100Y283362D02*
X461000Y281462D01*
X455900Y282248D02*
Y409500D01*
X448600Y290208D02*
X450900Y292508D01*
X448600Y289000D02*
Y430337D01*
X454100Y281500D02*
Y419837D01*
X450900Y282163D02*
Y420500D01*
X444600Y295000D02*
Y435837D01*
X448600Y293862D02*
X450900Y291562D01*
X445400Y289663D02*
Y431000D01*
X454100Y288362D02*
X455900Y286562D01*
Y273663D02*
Y282248D01*
X447364Y279072D02*
X450900Y282609D01*
X444208Y283945D02*
X448130Y287867D01*
X446413Y286150D02*
X450650Y281913D01*
X445000Y281000D02*
Y283550D01*
X444987Y276250D02*
X450900Y282163D01*
X431900Y312163D02*
Y447000D01*
X431600Y322706D02*
X431900Y323006D01*
X441250Y299650D02*
Y438987D01*
X431600Y320000D02*
Y451837D01*
Y320762D02*
X431900Y320462D01*
X427337Y307600D02*
X431900Y312163D01*
X426394Y307600D02*
X431900Y313106D01*
X438050Y300313D02*
Y305603D01*
X434900Y306663D02*
Y310725D01*
X433362Y309100D02*
X434900Y307562D01*
X429133Y304870D02*
X434630Y310367D01*
X437612Y304850D02*
X438050Y304412D01*
X425837Y297600D02*
X434900Y306663D01*
X428400Y320663D02*
Y328725D01*
X426062Y326299D02*
X428400Y323962D01*
X427133Y314870D02*
X431130Y318867D01*
X427362Y315100D02*
X431100Y311362D01*
X424633Y324870D02*
X428130Y328367D01*
X425337Y317600D02*
X428400Y320663D01*
X423724Y317600D02*
X425337D01*
X420486Y321976D02*
X424862Y317600D01*
X428155Y304408D02*
X430400Y302163D01*
X423724Y314400D02*
X426000D01*
X423724Y307600D02*
X427337D01*
X420574Y311988D02*
X424963Y307600D01*
X423724Y304400D02*
X428000D01*
X424053Y297600D02*
X425837D01*
X439798Y289535D02*
X444130Y293867D01*
X441413Y291150D02*
X444150Y288413D01*
X441400Y295663D02*
Y436500D01*
X442535Y286798D02*
X445400Y289663D01*
X429337Y291600D02*
X438050Y300313D01*
X437413Y295150D02*
X439150Y293413D01*
X427633Y294870D02*
X437630Y304867D01*
X432837Y287100D02*
X441400Y295663D01*
X431133Y288870D02*
X440780Y298517D01*
X439500Y286500D02*
Y289050D01*
Y286500D02*
X442050D01*
X439500Y283950D02*
Y286500D01*
X439133Y278870D02*
X442055Y281792D01*
X436950Y286500D02*
X439500D01*
X434633Y284370D02*
X436465Y286202D01*
X437337Y281600D02*
X439202Y283465D01*
X423724Y281600D02*
X437337D01*
X432663Y299900D02*
X435150Y297413D01*
X432463Y290200D02*
X434200Y288463D01*
X427713Y294950D02*
X430200Y292463D01*
X424053Y298610D02*
X425063Y297600D01*
X416035Y291600D02*
X429337D01*
X424053Y294400D02*
X426500D01*
X425693Y287100D02*
X426993Y288400D01*
X430092Y281600D02*
X432392Y283900D01*
X428864D02*
X431164Y281600D01*
X415373Y288400D02*
X430000D01*
X424364D02*
X425664Y287100D01*
X421102Y283900D02*
X433500D01*
X415500Y287100D02*
X432837D01*
X464200Y276110D02*
X468400Y280310D01*
X464200Y278262D02*
X468400Y274062D01*
X463898Y268665D02*
X464807Y267756D01*
X471600Y280762D02*
X485299Y267062D01*
X465386Y267397D02*
X468400Y270410D01*
X463307Y268044D02*
X463730Y268467D01*
X463500Y265000D02*
Y267550D01*
X487562Y264799D02*
X490000Y262362D01*
X466256Y266307D02*
X467400Y265163D01*
X466445Y264208D02*
X468400Y266163D01*
X463500Y265000D02*
X466050D01*
X463500Y262450D02*
Y265000D01*
X454474Y276283D02*
X455900Y277709D01*
X454690Y266600D02*
X461000Y272910D01*
X459100Y273463D02*
X461000Y271563D01*
X452913Y279650D02*
X455900Y276663D01*
X453837Y271600D02*
X455900Y273663D01*
X457337Y266600D02*
X461000Y270263D01*
X460950Y265000D02*
X463500D01*
X459133Y263870D02*
X460456Y265193D01*
X455633Y268870D02*
X458630Y271867D01*
X452945Y271600D02*
X453837D01*
X454263Y268400D02*
X456063Y266600D01*
X475540Y257751D02*
X486900Y269111D01*
X475544Y257307D02*
X486900Y268663D01*
X472500Y257500D02*
X475050D01*
X490000Y185500D02*
Y267443D01*
X482612Y259850D02*
X490000Y252462D01*
X459489Y251600D02*
X486900Y279011D01*
X471600Y270862D02*
X480350Y262112D01*
X457495Y229807D02*
X490000Y262312D01*
X471633Y248870D02*
X489630Y266867D01*
X477663Y254900D02*
X490000Y242563D01*
X472713Y249950D02*
X490000Y232663D01*
X469950Y257500D02*
X472500D01*
X472585Y185500D02*
X490000Y202915D01*
X482485Y185500D02*
X490000Y193015D01*
X464364Y248400D02*
X490000Y222764D01*
X454464Y248400D02*
X490000Y212864D01*
X469837Y251600D02*
X472693Y254456D01*
X462686Y185500D02*
X490000Y212814D01*
X457689Y225376D02*
X490000Y193065D01*
X465633Y258870D02*
X471130Y264367D01*
X469663Y262900D02*
X472047Y260516D01*
X472500Y257500D02*
Y260050D01*
X463837Y261600D02*
X464292Y262055D01*
X458950Y263713D02*
X461063Y261600D01*
X464263Y258400D02*
X470450Y252213D01*
X459590Y261600D02*
X461103Y263114D01*
X472500Y254950D02*
Y257500D01*
X469389Y251600D02*
X472249Y254460D01*
X455500Y227500D02*
Y230050D01*
X454364Y258400D02*
X461164Y251600D01*
X455500Y227500D02*
X458050D01*
X455500Y224950D02*
Y227500D01*
X452950D02*
X455500D01*
X450285Y277022D02*
X453630Y280367D01*
X452000Y274500D02*
Y277050D01*
X449450Y274500D02*
X452000D01*
X445000Y281000D02*
X447550D01*
X444541Y276250D02*
X446928Y278637D01*
X444698Y277965D02*
X445700Y276963D01*
X446783Y273520D02*
X449478Y276215D01*
X447963Y274700D02*
X449096Y273567D01*
X452000Y274500D02*
X454550D01*
X449791Y271600D02*
X450217Y272026D01*
X444791Y266600D02*
X446591Y268400D01*
X423724Y271600D02*
X451055D01*
X423724Y268400D02*
X454500D01*
X444364D02*
X446164Y266600D01*
X422206Y263400D02*
X458000D01*
X422206Y266600D02*
X457337D01*
X445000Y278450D02*
Y281000D01*
X442450D02*
X445000D01*
X441463Y281200D02*
X441965Y280698D01*
X424742Y276250D02*
X426892Y278400D01*
X423724D02*
X438000D01*
X424464D02*
X426614Y276250D01*
X434642D02*
X436792Y278400D01*
X434364D02*
X436514Y276250D01*
X439714Y273050D02*
X441164Y271600D01*
X439891D02*
X441341Y273050D01*
X429992Y271600D02*
X431442Y273050D01*
X434891Y266600D02*
X436691Y268400D01*
X434464D02*
X436264Y266600D01*
X421537Y276250D02*
X444987D01*
X422669Y273050D02*
X445650D01*
X429814D02*
X431264Y271600D01*
X424992Y266600D02*
X426792Y268400D01*
X424565D02*
X426365Y266600D01*
X423724Y261600D02*
X463837D01*
X444565Y248400D02*
X490000Y202965D01*
X449590Y251600D02*
X456390Y258400D01*
X424766Y248400D02*
X487666Y185500D01*
X424765Y248400D02*
X487666Y185500D01*
X423724Y251600D02*
X469837D01*
X423724Y248400D02*
X470500D01*
X423724Y258400D02*
X464500D01*
X423088Y185500D02*
X490000Y252412D01*
X421942Y214053D02*
X456289Y248400D01*
X452786Y185500D02*
X490000Y222714D01*
X434665Y248400D02*
X453376Y229689D01*
X442887Y185500D02*
X490000Y232613D01*
X432987Y185500D02*
X490000Y242513D01*
X424053Y206264D02*
X466189Y248400D01*
X424003Y229364D02*
X467867Y185500D01*
X424016Y219451D02*
X457967Y185500D01*
X370000D02*
X490000D01*
X423988Y239278D02*
X477766Y185500D01*
X449364Y263400D02*
X451164Y261600D01*
X449690D02*
X451490Y263400D01*
X439791Y261600D02*
X441591Y263400D01*
X439690Y251600D02*
X446490Y258400D01*
X439464Y263400D02*
X441264Y261600D01*
X429565Y263400D02*
X431365Y261600D01*
X429891D02*
X431691Y263400D01*
X421881Y253590D02*
X426691Y258400D01*
X434565D02*
X441365Y251600D01*
X424665Y258400D02*
X431465Y251600D01*
X444464Y258400D02*
X451264Y251600D01*
X424053Y209515D02*
X448068Y185500D01*
X429791Y251600D02*
X436591Y258400D01*
X424036Y199632D02*
X438168Y185500D01*
X424043Y189725D02*
X428268Y185500D01*
X421747Y233657D02*
X436490Y248400D01*
X421815Y243624D02*
X426591Y248400D01*
X421466Y193778D02*
X453193Y225505D01*
X421679Y223689D02*
X446390Y248400D01*
X418894Y319899D02*
X421092Y322097D01*
X418749Y309855D02*
X420956Y312062D01*
X413860Y324764D02*
X416065Y326970D01*
X413903Y314908D02*
X416101Y317106D01*
X410574Y321988D02*
X415988Y316574D01*
X410662Y312002D02*
X416002Y306662D01*
X424053Y297600D02*
Y300053D01*
Y291947D02*
Y294400D01*
X420661Y302002D02*
X422610Y300053D01*
X420816Y291947D02*
X421164Y291600D01*
X420293D02*
X420641Y291947D01*
X418847Y300053D02*
X420826Y302032D01*
X415947Y300053D02*
X424053D01*
X413938Y305044D02*
X416145Y307251D01*
X415947Y291947D02*
X424053D01*
X414053Y293583D02*
X416035Y291600D01*
X409030Y319935D02*
X411236Y322140D01*
X408894Y309899D02*
X411092Y312097D01*
X408947Y300053D02*
X410956Y302062D01*
X388663Y307600D02*
X406277D01*
X396695D02*
X406065Y316969D01*
X398464Y304400D02*
X405947Y296917D01*
X414053Y298711D02*
X415947Y296816D01*
X414053Y295259D02*
X415947Y297153D01*
X414053Y293583D02*
Y300053D01*
X415947Y291947D02*
Y300053D01*
X410747Y302017D02*
X412711Y300053D01*
X405947D02*
X414053D01*
X405947Y291947D02*
Y300053D01*
X411163Y291947D02*
X414240Y288870D01*
X405947Y291947D02*
X411163D01*
X422074Y283482D02*
X422493Y283900D01*
X416163D02*
X418898D01*
X415793Y287100D02*
X417093Y288400D01*
X414843Y276250D02*
X416518Y277926D01*
X413764Y281502D02*
X416163Y283900D01*
X414650Y276250D02*
X418463D01*
X413935Y279030D02*
X416715Y276250D01*
X415313Y273050D02*
X417331D01*
X415092Y266600D02*
X416481Y267989D01*
X413954Y269111D02*
X416465Y266600D01*
X415663Y263400D02*
X417794D01*
X415000Y266600D02*
X417794D01*
X410917Y291947D02*
X415764Y287100D01*
X411502Y283764D02*
X414367Y286630D01*
X411502Y273764D02*
X413517Y275780D01*
X413764Y271502D02*
X415313Y273050D01*
X413764Y261502D02*
X415663Y263400D01*
X411502Y263764D02*
X413867Y266130D01*
X391428Y252835D02*
X406518Y267926D01*
X381600Y341063D02*
X406002Y316662D01*
X382780Y313483D02*
X406011Y336714D01*
X381600Y322203D02*
X405991Y346594D01*
X387729Y308533D02*
X406035Y326839D01*
X381600Y321264D02*
X395264Y307600D01*
X381600Y314663D02*
Y428500D01*
X361600Y322002D02*
X378400Y338802D01*
X361600Y341264D02*
X378400Y324464D01*
X381600Y331164D02*
X405164Y307600D01*
X361600Y312103D02*
X378400Y328903D01*
X381600Y314663D02*
X388663Y307600D01*
X388565Y304400D02*
X409030Y283935D01*
X388000Y304400D02*
X406277D01*
X378870Y312867D02*
X386867Y304870D01*
X361600Y292304D02*
X380517Y311220D01*
X361600Y302203D02*
X378400Y319003D01*
X345600Y337465D02*
X358400Y324665D01*
X361600Y331365D02*
X378400Y314565D01*
X345600Y325801D02*
X358400Y338601D01*
X378400Y314000D02*
Y427837D01*
X361600Y282663D02*
Y427000D01*
X331600Y331666D02*
X342400Y320866D01*
X345600Y315902D02*
X358400Y328702D01*
X331600Y321701D02*
X342400Y332501D01*
X345600Y327566D02*
X358400Y314766D01*
X345600Y327566D02*
X358400Y314766D01*
X345600Y317666D02*
X358400Y304866D01*
X345600Y296103D02*
X358400Y308903D01*
X345600Y306002D02*
X358400Y318802D01*
X345600Y286203D02*
X358400Y299003D01*
X345600Y307767D02*
X358400Y294967D01*
X331600Y311867D02*
X342400Y301067D01*
X331600Y292002D02*
X342400Y302802D01*
X331600Y311801D02*
X342400Y322601D01*
X345600Y297867D02*
X358400Y285067D01*
X331600Y301968D02*
X342400Y291167D01*
X366679Y277584D02*
X393495Y304400D01*
X371629Y272634D02*
X403395Y304400D01*
X361729Y282533D02*
X385467Y306271D01*
X381528Y262735D02*
X410741Y291947D01*
X376578Y267684D02*
X405947Y297053D01*
X361600Y311566D02*
X409194Y263972D01*
X361600Y311565D02*
X409194Y263972D01*
X361600Y321465D02*
X409111Y273954D01*
X361600Y301666D02*
X409278Y253988D01*
X361600Y291767D02*
X401766Y251600D01*
X386478Y257785D02*
X406556Y277863D01*
X368078Y259184D02*
X374316Y265422D01*
X363129Y264134D02*
X369366Y270371D01*
X361600Y282663D02*
X392663Y251600D01*
X358870Y280867D02*
X390867Y248870D01*
X345600Y287967D02*
X396968Y236600D01*
X345600Y281663D02*
X390663Y236600D01*
X342870Y279867D02*
X388867Y233870D01*
X331600Y282169D02*
X387169Y226600D01*
X331600Y280163D02*
X385163Y226600D01*
X358400Y282000D02*
Y426337D01*
X345600Y281663D02*
Y421000D01*
X348280Y278983D02*
X358400Y289104D01*
X342400Y281000D02*
Y420337D01*
X331600Y292068D02*
X342400Y281268D01*
X331600Y282103D02*
X342400Y292903D01*
X335580Y276183D02*
X342400Y283003D01*
X331600Y280163D02*
Y406000D01*
X353229Y274033D02*
X359467Y280271D01*
X358179Y269084D02*
X364416Y275321D01*
X345479Y266283D02*
X350967Y271771D01*
X355379Y256384D02*
X360866Y261871D01*
X350429Y261334D02*
X355916Y266821D01*
X340530Y271233D02*
X346017Y276720D01*
X335979Y256783D02*
X343217Y264021D01*
X414337Y236600D02*
X416236Y238498D01*
X416133Y233870D02*
X418498Y236236D01*
X413972Y259194D02*
X419194Y253972D01*
X413972Y259194D02*
X419194Y253972D01*
X411946Y253555D02*
X416445Y258053D01*
X413988Y249278D02*
X419278Y243988D01*
X411881Y243590D02*
X416410Y248119D01*
X417815Y235552D02*
X419364Y234002D01*
X417865Y225602D02*
X419452Y224015D01*
X416133Y223870D02*
X418498Y226236D01*
X414337Y226600D02*
X416236Y228498D01*
X414003Y239364D02*
X415552Y237815D01*
X412206Y236600D02*
X414337D01*
X404966Y248400D02*
X409364Y244003D01*
X404891Y236600D02*
X406410Y238119D01*
X412206Y233400D02*
X415000D01*
X414015Y229451D02*
X415602Y227865D01*
X414027Y219541D02*
X415652Y217915D01*
X412206Y226600D02*
X414337D01*
X404791D02*
X406376Y228185D01*
X412206Y223400D02*
X415000D01*
X423736Y205947D02*
X424053Y206264D01*
X417915Y215652D02*
X419515Y214053D01*
X424053Y205947D02*
Y214053D01*
X421538Y203749D02*
X423736Y205947D01*
X416316Y214053D02*
X418498Y216236D01*
X416316Y214053D02*
X424053D01*
X414337Y216600D02*
X416236Y218498D01*
X416133Y203870D02*
X418210Y205947D01*
X424053D01*
X417965Y205703D02*
X419632Y204036D01*
X414053Y199716D02*
X419725Y194043D01*
X414053Y196264D02*
X416251Y198462D01*
X414049Y189820D02*
X418369Y185500D01*
X413188D02*
X416222Y188534D01*
X415947Y208210D02*
Y213710D01*
X414053Y213400D02*
X415000D01*
X414053Y209615D02*
X415703Y207965D01*
X414053Y206600D02*
Y213400D01*
X412206Y216600D02*
X414337D01*
X404690D02*
X406343Y218253D01*
X405947Y206600D02*
Y213400D01*
X414337Y206600D02*
X415947Y208210D01*
X414053Y203400D02*
X415000D01*
X414053Y195947D02*
Y203400D01*
X413736Y195947D02*
X414053Y196264D01*
X411538Y193749D02*
X413736Y195947D01*
X405947D02*
X414053D01*
X405947D02*
Y203400D01*
X407922Y195947D02*
X409820Y194049D01*
X400092Y251600D02*
X406481Y257989D01*
X392663Y251600D02*
X406276D01*
X392000Y248400D02*
X406276D01*
X395067D02*
X406867Y236600D01*
X394992D02*
X406445Y248054D01*
X382928Y244335D02*
X389165Y250572D01*
X387877Y239385D02*
X396892Y248400D01*
X380128Y231635D02*
X385615Y237123D01*
X390663Y236600D02*
X407794D01*
X390000Y233400D02*
X407794D01*
X400168D02*
X406967Y226600D01*
X394891D02*
X401691Y233400D01*
X390268D02*
X397068Y226600D01*
X385077Y226686D02*
X391792Y233400D01*
X385163Y226600D02*
X407794D01*
X384500Y223400D02*
X407794D01*
X373028Y254235D02*
X379265Y260472D01*
X377978Y249285D02*
X384215Y255522D01*
X360329Y251434D02*
X365816Y256922D01*
X370228Y241535D02*
X375715Y247022D01*
X365278Y246484D02*
X370765Y251972D01*
X340929Y251834D02*
X348166Y259071D01*
X345879Y246884D02*
X353116Y254121D01*
X332679Y243584D02*
X338666Y249571D01*
X350829Y241934D02*
X358066Y249171D01*
X337629Y238634D02*
X343616Y244621D01*
X375178Y236585D02*
X380665Y242072D01*
X365678Y227085D02*
X372915Y234322D01*
X360728Y232035D02*
X367965Y239272D01*
X355778Y236984D02*
X363016Y244222D01*
X347528Y228734D02*
X353516Y234722D01*
X342579Y233684D02*
X348566Y239671D01*
X352478Y223785D02*
X358465Y229772D01*
X332197Y223303D02*
X340316Y231421D01*
X400268Y223400D02*
X407068Y216600D01*
X400368Y213400D02*
X405947Y207821D01*
X394791Y216600D02*
X401591Y223400D01*
X394690Y206600D02*
X401490Y213400D01*
X390469D02*
X397269Y206600D01*
X390369Y223400D02*
X397168Y216600D01*
X376163D02*
X407794D01*
X384891D02*
X391691Y223400D01*
X375500Y213400D02*
X405947D01*
X384791Y206600D02*
X391591Y213400D01*
X400469Y203400D02*
X405947Y197922D01*
X390569Y203400D02*
X408469Y185500D01*
X404590Y206600D02*
X405947Y207958D01*
X403289Y185500D02*
X406250Y188462D01*
X393389Y185500D02*
X405947Y198058D01*
X369663Y206600D02*
X405947D01*
X369000Y203400D02*
X405947D01*
X383490Y185500D02*
X401390Y203400D01*
X380670D02*
X398570Y185500D01*
X373590D02*
X391490Y203400D01*
X370627Y222135D02*
X377865Y229373D01*
X375577Y217185D02*
X382815Y224423D01*
X367327Y208935D02*
X373314Y214923D01*
X357428Y218835D02*
X363415Y224822D01*
X362378Y213885D02*
X368365Y219872D01*
X337147Y218353D02*
X345266Y226472D01*
X347046Y208454D02*
X355165Y216572D01*
X342097Y213403D02*
X350215Y221522D01*
X374891Y206600D02*
X381691Y213400D01*
X380570D02*
X387369Y206600D01*
X370771Y203400D02*
X388671Y185500D01*
X356946Y198554D02*
X365065Y206673D01*
X351996Y203504D02*
X360115Y211623D01*
X366845Y188655D02*
X381591Y203400D01*
X361896Y193604D02*
X371691Y203400D01*
X309309Y477600D02*
X321709Y490000D01*
X311859D02*
X324259Y477600D01*
X301959Y490000D02*
X314359Y477600D01*
X329108D02*
X341508Y490000D01*
X319208Y477600D02*
X331608Y490000D01*
X282161D02*
X294561Y477600D01*
X289510D02*
X301910Y490000D01*
X279610Y477600D02*
X292010Y490000D01*
X299409Y477600D02*
X311809Y490000D01*
X292060D02*
X304460Y477600D01*
X314208Y472600D02*
X316008Y474400D01*
X307660D02*
X309460Y472600D01*
X320385Y468878D02*
X325908Y474400D01*
X297761D02*
X299561Y472600D01*
X304309D02*
X306109Y474400D01*
X294409Y472600D02*
X296209Y474400D01*
X292861Y469400D02*
X294661Y467600D01*
X289409D02*
X291209Y469400D01*
X272261Y490000D02*
X284661Y477600D01*
X277962Y474400D02*
X279762Y472600D01*
X274610D02*
X276410Y474400D01*
X287861D02*
X289661Y472600D01*
X284510D02*
X286310Y474400D01*
X252462Y490000D02*
X264862Y477600D01*
X259811D02*
X272211Y490000D01*
X249912Y477600D02*
X262312Y490000D01*
X269711Y477600D02*
X282111Y490000D01*
X262362D02*
X274762Y477600D01*
X268062Y474400D02*
X269862Y472600D01*
X279510Y467600D02*
X281310Y469400D01*
X264711Y472600D02*
X266511Y474400D01*
X269610Y467600D02*
X271410Y469400D01*
X263163D02*
X264963Y467600D01*
X258163Y474400D02*
X259963Y472600D01*
X259711Y467600D02*
X261511Y469400D01*
X254811Y472600D02*
X256611Y474400D01*
X253263Y469400D02*
X255063Y467600D01*
X249811D02*
X251611Y469400D01*
X327459Y474400D02*
X378400Y423459D01*
X330285Y458978D02*
X338772Y467465D01*
X325335Y463928D02*
X333822Y472415D01*
X321759Y490000D02*
X398410Y413349D01*
X317560Y474400D02*
X378400Y413559D01*
X317133Y472130D02*
X361130Y428133D01*
X315337Y469400D02*
X358400Y426337D01*
X312660Y469400D02*
X358400Y423660D01*
X302761Y469400D02*
X358400Y413761D01*
X300133Y467130D02*
X345130Y422133D01*
X314335Y452928D02*
X323072Y461665D01*
X319285Y447978D02*
X328022Y456715D01*
X309385Y457878D02*
X318122Y466615D01*
X297861Y464400D02*
X342400Y419861D01*
X298337Y464400D02*
X342400Y420337D01*
X287962Y464400D02*
X342400Y409962D01*
X281133Y457130D02*
X331130Y407133D01*
X279337Y454400D02*
X328400Y405337D01*
X278062Y464400D02*
X342400Y400062D01*
X268263Y454400D02*
X328400Y394263D01*
X299283Y467575D02*
X301109Y469400D01*
X304435Y462827D02*
X311008Y469400D01*
X284986Y453277D02*
X296109Y464400D01*
X273062Y469400D02*
X274862Y467600D01*
X282962Y469400D02*
X284762Y467600D01*
X258263Y464400D02*
X265063Y457600D01*
X279409D02*
X286209Y464400D01*
X269510Y457600D02*
X276310Y464400D01*
X268163D02*
X274963Y457600D01*
X294885Y443378D02*
X307122Y455615D01*
X289935Y448327D02*
X302173Y460565D01*
X249711Y457600D02*
X256511Y464400D01*
X259610Y457600D02*
X266410Y464400D01*
X254110Y452100D02*
X256410Y454400D01*
X265036Y443227D02*
X276209Y454400D01*
X260086Y448176D02*
X266310Y454400D01*
X232663Y490000D02*
X245063Y477600D01*
X240012D02*
X252412Y490000D01*
X230113Y477600D02*
X242513Y490000D01*
X242563D02*
X254963Y477600D01*
X248263Y474400D02*
X250063Y472600D01*
X222764Y490000D02*
X235164Y477600D01*
X209500Y490000D02*
X488000D01*
X220213Y477600D02*
X232613Y490000D01*
X133724Y477600D02*
X332500D01*
X228464Y474400D02*
X230264Y472600D01*
X238364Y474400D02*
X240164Y472600D01*
X244912D02*
X246712Y474400D01*
X235012Y472600D02*
X236812Y474400D01*
X243364Y469400D02*
X245164Y467600D01*
X233464Y469400D02*
X235264Y467600D01*
X133724Y474400D02*
X331837D01*
X132206Y472600D02*
X316000D01*
X225113D02*
X226913Y474400D01*
X132206Y469400D02*
X315337D01*
X230012Y467600D02*
X231812Y469400D01*
X200414Y477600D02*
X212814Y490000D01*
X202965D02*
X215365Y477600D01*
X193065Y490000D02*
X205465Y477600D01*
X212864Y490000D02*
X225264Y477600D01*
X210314D02*
X222714Y490000D01*
X183166D02*
X195565Y477600D01*
X120000Y490000D02*
X209500D01*
X180615Y477600D02*
X193015Y490000D01*
X190515Y477600D02*
X202915Y490000D01*
X183166D02*
X195566Y477600D01*
X218565Y474400D02*
X220365Y472600D01*
X223565Y469400D02*
X225365Y467600D01*
X215213Y472600D02*
X217013Y474400D01*
X220113Y467600D02*
X221913Y469400D01*
X213665D02*
X215465Y467600D01*
X198766Y474400D02*
X200566Y472600D01*
X198766Y474400D02*
X200566Y472600D01*
X195414D02*
X197214Y474400D01*
X208665D02*
X210465Y472600D01*
X205314D02*
X207114Y474400D01*
X239811Y457600D02*
X246611Y464400D01*
X248364D02*
X255164Y457600D01*
X239912Y467600D02*
X241712Y469400D01*
X238464Y464400D02*
X245264Y457600D01*
X229912D02*
X236712Y464400D01*
X133724Y467600D02*
X299000D01*
X133724Y464400D02*
X298337D01*
X228565D02*
X235365Y457600D01*
X220012D02*
X226812Y464400D01*
X218665D02*
X225465Y457600D01*
X234311Y452100D02*
X236611Y454400D01*
X238565D02*
X240865Y452100D01*
X228665Y454400D02*
X230965Y452100D01*
X248464Y454400D02*
X250764Y452100D01*
X244211D02*
X246511Y454400D01*
X133724Y457600D02*
X280000D01*
X133724Y454400D02*
X279337D01*
X224412Y452100D02*
X226712Y454400D01*
X218766D02*
X221066Y452100D01*
X218765Y454400D02*
X221065Y452100D01*
X203766Y469400D02*
X205566Y467600D01*
X210213D02*
X212013Y469400D01*
X203766D02*
X205566Y467600D01*
X208766Y464400D02*
X215566Y457600D01*
X208766Y464400D02*
X215565Y457600D01*
X193866Y469400D02*
X195666Y467600D01*
X200314D02*
X202114Y469400D01*
X190414Y467600D02*
X192214Y469400D01*
X200213Y457600D02*
X207013Y464400D01*
X198866D02*
X205666Y457600D01*
X210113D02*
X216913Y464400D01*
X214512Y452100D02*
X216812Y454400D01*
X208866D02*
X211166Y452100D01*
X204613D02*
X206913Y454400D01*
X198967D02*
X201267Y452100D01*
X190314Y457600D02*
X197114Y464400D01*
X188967D02*
X195766Y457600D01*
X194713Y452100D02*
X197013Y454400D01*
X189067D02*
X191367Y452100D01*
X324234Y443028D02*
X332972Y451766D01*
X329184Y438079D02*
X337921Y446816D01*
X299835Y438428D02*
X312072Y450665D01*
X304785Y433478D02*
X317022Y445715D01*
X279885Y428378D02*
X292622Y441115D01*
X269986Y438277D02*
X282723Y451014D01*
X247336Y435427D02*
X257823Y445914D01*
X274935Y433327D02*
X287673Y446065D01*
X252286Y430477D02*
X262773Y440964D01*
X314684Y423579D02*
X326921Y435816D01*
X319634Y418629D02*
X331871Y430866D01*
X309734Y428528D02*
X321972Y440766D01*
X324584Y413679D02*
X336821Y425916D01*
X289785Y418478D02*
X302522Y431215D01*
X284835Y423428D02*
X297572Y436165D01*
X262185Y420577D02*
X272673Y431065D01*
X257236Y425527D02*
X267723Y436014D01*
X267135Y415628D02*
X277622Y426115D01*
X255185Y413577D02*
X259923Y418315D01*
X234711Y442600D02*
X241011Y448900D01*
X242387Y440376D02*
X250910Y448900D01*
X224266D02*
X230566Y442600D01*
X224811D02*
X231111Y448900D01*
X224266D02*
X230566Y442600D01*
X229711Y437600D02*
X231511Y439400D01*
X223866D02*
X225666Y437600D01*
X240336Y428427D02*
X245074Y433164D01*
X245286Y423477D02*
X250023Y428214D01*
X235386Y433376D02*
X240124Y438114D01*
X250236Y418527D02*
X254973Y423264D01*
X237036Y415227D02*
X243023Y421214D01*
X222187Y430076D02*
X226511Y434400D01*
X232086Y420177D02*
X238073Y426164D01*
X227136Y425126D02*
X233124Y431114D01*
X299684Y408579D02*
X312421Y421316D01*
X329533Y408729D02*
X341771Y420967D01*
X294734Y413528D02*
X307472Y426266D01*
X309584Y398679D02*
X322321Y411416D01*
X304634Y403629D02*
X317371Y416366D01*
X278163Y454400D02*
X328400Y404163D01*
X277035Y405728D02*
X287522Y416215D01*
X272085Y410678D02*
X282572Y421165D01*
X256633Y451630D02*
X317130Y391133D01*
X281984Y400778D02*
X292472Y411266D01*
X314533Y393729D02*
X327271Y406467D01*
X265085Y403678D02*
X269822Y408415D01*
X286934Y395829D02*
X297421Y406316D01*
X291884Y390879D02*
X302371Y401366D01*
X267100Y395793D02*
X274772Y403465D01*
X260135Y408628D02*
X264872Y413365D01*
X246935Y405327D02*
X252923Y411315D01*
X241986Y410277D02*
X247973Y416264D01*
X251885Y400378D02*
X257872Y406365D01*
X234236Y402527D02*
X239723Y408014D01*
X231633Y437130D02*
X266630Y402133D01*
X229286Y407477D02*
X234773Y412964D01*
X224336Y412427D02*
X229823Y417914D01*
X228866Y434400D02*
X263900Y399366D01*
X229837Y434400D02*
X263900Y400337D01*
X256835Y395428D02*
X262822Y401415D01*
X244135Y392628D02*
X249622Y398115D01*
X239185Y397577D02*
X244673Y403065D01*
X223036Y401227D02*
X227023Y405214D01*
X232935Y391327D02*
X236923Y395315D01*
X227986Y396277D02*
X231973Y400264D01*
X214366Y448900D02*
X220666Y442600D01*
X214912D02*
X221212Y448900D01*
X205012Y442600D02*
X211312Y448900D01*
X219811Y437600D02*
X221611Y439400D01*
X213966D02*
X215767Y437600D01*
X131102Y452100D02*
X255500D01*
X132831Y448900D02*
X254837D01*
X204467D02*
X210767Y442600D01*
X132206D02*
X239500D01*
X132206Y439400D02*
X238837D01*
X214811Y432600D02*
X216611Y434400D01*
X209912Y437600D02*
X211712Y439400D01*
X209478Y427267D02*
X211611Y429400D01*
X133724Y437600D02*
X230500D01*
X133724Y434400D02*
X229837D01*
X209067D02*
X210867Y432600D01*
X132206D02*
X219000D01*
X132206Y429400D02*
X218337D01*
X200012Y437600D02*
X201812Y439400D01*
X204067D02*
X205867Y437600D01*
X195113Y442600D02*
X201413Y448900D01*
X204912Y432600D02*
X206712Y434400D01*
X199168D02*
X200968Y432600D01*
X194567Y448900D02*
X200867Y442600D01*
X194167Y439400D02*
X195967Y437600D01*
X185213Y442600D02*
X191513Y448900D01*
X190113Y437600D02*
X191913Y439400D01*
X189268Y434400D02*
X191068Y432600D01*
X199912Y427600D02*
X201712Y429400D01*
X204168D02*
X205967Y427600D01*
X195012Y432600D02*
X196812Y434400D01*
X194268Y429400D02*
X196068Y427600D01*
X133724D02*
X208500D01*
X190012D02*
X191812Y429400D01*
X133724Y424400D02*
X207837D01*
X189368D02*
X191168Y422600D01*
X219387Y417376D02*
X224874Y422864D01*
X218086Y406177D02*
X222074Y410164D01*
X214437Y422326D02*
X219924Y427813D01*
X220133Y432130D02*
X257130Y395133D01*
X218337Y429400D02*
X254400Y393337D01*
X208187Y416076D02*
X212174Y420063D01*
X213137Y411126D02*
X217124Y415114D01*
X203237Y421026D02*
X206611Y424400D01*
X207137Y405126D02*
X210874Y408863D01*
X199711Y407600D02*
X205924Y413813D01*
X212086Y400176D02*
X215824Y403914D01*
X217036Y395227D02*
X220773Y398964D01*
X206446Y394536D02*
X209823Y397914D01*
X221986Y390277D02*
X225723Y394014D01*
X211536Y389727D02*
X214773Y392964D01*
X128163Y394600D02*
X206000D01*
X127500Y391400D02*
X205337D01*
X199268Y424400D02*
X201069Y422599D01*
X194912Y422600D02*
X196712Y424400D01*
X189811Y407600D02*
X200974Y418763D01*
X132206Y422600D02*
X201000D01*
X152350Y407600D02*
X204000D01*
X132875Y419400D02*
X200337D01*
X184469D02*
X196269Y407600D01*
X179912D02*
X191712Y419400D01*
X196610Y394600D02*
X204874Y402864D01*
X191610Y389600D02*
X193410Y391400D01*
X201510Y389600D02*
X203310Y391400D01*
X192670D02*
X194470Y389600D01*
X152350Y404400D02*
X203337D01*
X189569D02*
X199370Y394600D01*
X126163Y389600D02*
X202000D01*
X186711Y394600D02*
X196511Y404400D01*
X173266Y490000D02*
X185666Y477600D01*
X178966Y474400D02*
X180766Y472600D01*
X175615D02*
X177415Y474400D01*
X188866D02*
X190666Y472600D01*
X185515D02*
X187315Y474400D01*
X163366Y490000D02*
X175767Y477600D01*
X170716D02*
X183116Y490000D01*
X160816Y477600D02*
X173216Y490000D01*
X169067Y474400D02*
X170867Y472600D01*
X165716D02*
X167516Y474400D01*
X180515Y467600D02*
X182315Y469400D01*
X183967D02*
X185766Y467600D01*
X174067Y469400D02*
X175867Y467600D01*
X180414Y457600D02*
X187214Y464400D01*
X179067D02*
X185867Y457600D01*
X169167Y464400D02*
X175968Y457600D01*
X170515D02*
X177315Y464400D01*
X170615Y467600D02*
X172415Y469400D01*
X160615Y457600D02*
X167415Y464400D01*
X159268D02*
X166068Y457600D01*
X150917Y477600D02*
X163317Y490000D01*
X153467D02*
X165867Y477600D01*
X159168Y474400D02*
X160968Y472600D01*
X155816D02*
X157616Y474400D01*
X149268D02*
X151068Y472600D01*
X141017Y477600D02*
X153417Y490000D01*
X143568D02*
X155967Y477600D01*
X145917Y472600D02*
X147717Y474400D01*
X139368D02*
X141168Y472600D01*
X136017D02*
X137817Y474400D01*
X160716Y467600D02*
X162516Y469400D01*
X164167D02*
X165968Y467600D01*
X154268Y469400D02*
X156068Y467600D01*
X150716Y457600D02*
X157516Y464400D01*
X150816Y467600D02*
X152616Y469400D01*
X144369D02*
X146168Y467600D01*
X149369Y464400D02*
X156168Y457600D01*
X140917Y467600D02*
X142717Y469400D01*
X140816Y457600D02*
X147616Y464400D01*
X139469D02*
X146269Y457600D01*
X179167Y454400D02*
X181467Y452100D01*
X184814D02*
X187114Y454400D01*
X174914Y452100D02*
X177214Y454400D01*
X184668Y448900D02*
X190968Y442600D01*
X175314D02*
X181614Y448900D01*
X169268Y454400D02*
X171568Y452100D01*
X174768Y448900D02*
X181068Y442600D01*
X165015Y452100D02*
X167315Y454400D01*
X165414Y442600D02*
X171714Y448900D01*
X155515Y442600D02*
X161815Y448900D01*
X180213Y437600D02*
X182013Y439400D01*
X184268D02*
X186068Y437600D01*
X174369Y439400D02*
X176169Y437600D01*
X185113Y432600D02*
X186913Y434400D01*
X179368D02*
X181168Y432600D01*
X164868Y448900D02*
X171168Y442600D01*
X170314Y437600D02*
X172114Y439400D01*
X160414Y437600D02*
X162214Y439400D01*
X165314Y432600D02*
X167114Y434400D01*
X164469Y439400D02*
X166269Y437600D01*
X155115Y452100D02*
X157415Y454400D01*
X159369D02*
X161669Y452100D01*
X149469Y454400D02*
X151769Y452100D01*
X154969Y448900D02*
X161269Y442600D01*
X145615D02*
X151915Y448900D01*
X139569Y454400D02*
X141869Y452100D01*
X145216D02*
X147516Y454400D01*
X135316Y452100D02*
X137616Y454400D01*
X145070Y448900D02*
X151370Y442600D01*
X135716D02*
X142016Y448900D01*
X154569Y439400D02*
X156369Y437600D01*
X159570Y434400D02*
X161370Y432600D01*
X150515Y437600D02*
X152315Y439400D01*
X155414Y432600D02*
X157214Y434400D01*
X149670D02*
X151470Y432600D01*
X140615Y437600D02*
X142415Y439400D01*
X144670D02*
X146470Y437600D01*
X135170Y448900D02*
X141470Y442600D01*
X139771Y434400D02*
X141571Y432600D01*
X135615D02*
X137415Y434400D01*
X132615Y479097D02*
X143518Y490000D01*
X133668D02*
X146068Y477600D01*
X126118Y472600D02*
X126903Y473385D01*
X122952Y479334D02*
X133618Y490000D01*
X123768D02*
X136169Y477600D01*
X116935Y486935D02*
X126274Y477595D01*
X125000Y472600D02*
X127794D01*
X134469Y469400D02*
X136269Y467600D01*
X132560Y469142D02*
X132817Y469400D01*
X132504Y459187D02*
X137717Y464400D01*
X131665Y462305D02*
X136370Y457600D01*
X125663Y469400D02*
X127794D01*
X122559Y459142D02*
X126858Y463441D01*
X125116Y468853D02*
X126305Y467665D01*
X125790Y452473D02*
X126813Y453496D01*
X121733Y462337D02*
X126337Y457733D01*
X116047Y476000D02*
X120000D01*
X123953D01*
X120000D02*
Y479953D01*
Y472047D02*
Y476000D01*
X109000Y479000D02*
X120000Y490000D01*
X109000Y475281D02*
X123719Y490000D01*
X111985Y481985D02*
X116004Y477965D01*
X109000Y465382D02*
X116666Y473048D01*
X109000Y475070D02*
X116337Y467733D01*
X123764Y467502D02*
X125663Y469400D01*
X121502Y469764D02*
X123867Y472130D01*
X121965Y472004D02*
X122853Y471116D01*
X109000Y455482D02*
X116903Y463385D01*
X109000Y465171D02*
X116369Y457801D01*
X131733Y452337D02*
X131970Y452100D01*
X126163D02*
X128898D01*
X125500Y448900D02*
X127169D01*
X123764Y454498D02*
X126163Y452100D01*
X125251Y448919D02*
X126370Y447801D01*
X134771Y439400D02*
X136571Y437600D01*
X125816Y442600D02*
X126769Y443553D01*
X125663Y442600D02*
X127794D01*
X125000Y439400D02*
X127794D01*
X123764Y444498D02*
X125663Y442600D01*
X124865Y439406D02*
X126403Y437868D01*
X123764Y434498D02*
X125663Y432600D01*
X121502Y452236D02*
X124367Y449370D01*
X122504Y449187D02*
X123527Y450210D01*
X109000Y445583D02*
X116858Y453441D01*
X109000Y455271D02*
X116403Y447868D01*
X109000Y394500D02*
Y479000D01*
X121502Y442236D02*
X123867Y439870D01*
X122447Y439231D02*
X123477Y440261D01*
X109000Y435683D02*
X116813Y443496D01*
X109000Y445372D02*
X116438Y437933D01*
X109000Y435472D02*
X116474Y427998D01*
X180113Y427600D02*
X181913Y429400D01*
X184369D02*
X186169Y427600D01*
X175213Y432600D02*
X177013Y434400D01*
X185012Y422600D02*
X186812Y424400D01*
X175113Y422600D02*
X176913Y424400D01*
X170213Y427600D02*
X172013Y429400D01*
X174469D02*
X176269Y427600D01*
X169469Y434400D02*
X171269Y432600D01*
X169570Y424400D02*
X171370Y422600D01*
X165213D02*
X167013Y424400D01*
X179469D02*
X181269Y422600D01*
X174569Y419400D02*
X186370Y407600D01*
X170163Y417650D02*
X171913Y419400D01*
X170012Y407600D02*
X181812Y419400D01*
X170423Y413647D02*
X176470Y407600D01*
X168000Y415500D02*
Y418050D01*
Y415500D02*
X170550D01*
X165450D02*
X168000D01*
Y412950D02*
Y415500D01*
X160314Y427600D02*
X162114Y429400D01*
X164569D02*
X166369Y427600D01*
X154670Y429400D02*
X156470Y427600D01*
X159670Y424400D02*
X161470Y422600D01*
X155314D02*
X157114Y424400D01*
X145515Y432600D02*
X147315Y434400D01*
X150414Y427600D02*
X152214Y429400D01*
X144771D02*
X146571Y427600D01*
X140515D02*
X142315Y429400D01*
X139871Y424400D02*
X141671Y422600D01*
X151463Y408850D02*
X162013Y419400D01*
X164670D02*
X166147Y417923D01*
X149771Y424400D02*
X151571Y422600D01*
X154771Y419400D02*
X166571Y407600D01*
X160113D02*
X165850Y413337D01*
X145414Y422600D02*
X147214Y424400D01*
X146650Y408850D02*
X152350D01*
X140650D02*
X146350D01*
X141564D02*
X152114Y419400D01*
X146350Y408022D02*
X146650Y407722D01*
X175307Y402995D02*
X176712Y404400D01*
X173000Y401000D02*
Y403550D01*
X179670Y404400D02*
X189470Y394600D01*
X176811D02*
X186611Y404400D01*
X159871D02*
X169671Y394600D01*
X169771Y404400D02*
X170930Y403240D01*
X157012Y394600D02*
X166812Y404400D01*
X151222Y403150D02*
X159772Y394600D01*
X147113D02*
X156913Y404400D01*
X173000Y401000D02*
X175550D01*
X175240Y398930D02*
X179571Y394600D01*
X173000Y398450D02*
Y401000D01*
X182771Y391400D02*
X184571Y389600D01*
X181711D02*
X183511Y391400D01*
X170450Y401000D02*
X173000D01*
X172871Y391400D02*
X174671Y389600D01*
X166912Y394600D02*
X171005Y398693D01*
X171811Y389600D02*
X173611Y391400D01*
X162972D02*
X164772Y389600D01*
X152350Y407600D02*
Y408850D01*
Y403150D02*
Y404400D01*
X146350Y403737D02*
X146650Y404037D01*
Y403150D02*
Y408850D01*
X146350Y403150D02*
Y408850D01*
X144871Y419400D02*
X156671Y407600D01*
X140650D02*
Y408850D01*
X140314Y407600D02*
X140650Y407936D01*
Y403150D02*
Y404400D01*
X140072D02*
X140650Y403822D01*
X146650Y403150D02*
X152350D01*
X153072Y391400D02*
X154872Y389600D01*
X145763Y403150D02*
X146350Y403737D01*
X152012Y389600D02*
X153812Y391400D01*
X143173D02*
X144973Y389600D01*
X141322Y403150D02*
X149872Y394600D01*
X140650Y403150D02*
X146350D01*
X137213Y394600D02*
X145763Y403150D01*
X142113Y389600D02*
X143913Y391400D01*
X134871Y429400D02*
X136671Y427600D01*
X135515Y422600D02*
X137315Y424400D01*
X125663Y432600D02*
X127794D01*
X125000Y429400D02*
X127794D01*
X125716Y432600D02*
X126726Y433611D01*
X125639Y422624D02*
X126684Y423669D01*
X124971Y429400D02*
X126438Y427933D01*
X130000Y416000D02*
X133953D01*
X126047D02*
X130000D01*
X126100Y410053D02*
X134053D01*
X130000Y412047D02*
Y416000D01*
X125663Y422600D02*
X127794D01*
X125000Y419400D02*
X127125D01*
X125072D02*
X126182Y418291D01*
X125589Y412674D02*
X126356Y413441D01*
X122389Y429274D02*
X123426Y430311D01*
X123764Y424498D02*
X125663Y422600D01*
X121502Y432236D02*
X123867Y429870D01*
X109000Y425784D02*
X116769Y433553D01*
X109000Y415884D02*
X116727Y423611D01*
X109000Y425573D02*
X116511Y418062D01*
X123764Y414498D02*
X125630Y412633D01*
X121502Y422236D02*
X123867Y419870D01*
X122331Y419315D02*
X123376Y420361D01*
X121502Y412236D02*
X122900Y410837D01*
X134972Y419400D02*
X145522Y408850D01*
X134053Y407600D02*
X140650D01*
X134053D02*
Y410053D01*
Y404400D02*
X140650D01*
X134053Y401947D02*
Y404400D01*
X132867Y410053D02*
X142214Y419400D01*
X132290Y412182D02*
X136872Y407600D01*
X126100Y410053D02*
Y411500D01*
X127738Y395024D02*
X137114Y404400D01*
X126100Y401947D02*
X134053D01*
X132625D02*
X139973Y394600D01*
X133273Y391400D02*
X135073Y389600D01*
X132213D02*
X134013Y391400D01*
X126100Y398573D02*
X130073Y394600D01*
X126100Y396663D02*
X128163Y394600D01*
X126100Y396663D02*
Y401947D01*
X123370Y394867D02*
X126367Y391870D01*
X121600Y394163D02*
X126163Y389600D01*
X122900Y408831D02*
Y410837D01*
X122271Y409356D02*
X122900Y409985D01*
Y396000D02*
Y403169D01*
X122124Y402549D02*
X122900Y401773D01*
X109000Y405985D02*
X116684Y413669D01*
X109000Y415673D02*
X116549Y408124D01*
X109000Y405774D02*
X118400Y396374D01*
X109000Y396085D02*
X116644Y403729D01*
X121600Y398786D02*
X122900Y400086D01*
X124238Y391525D02*
X125476Y392762D01*
X121600Y394163D02*
Y402276D01*
X118400Y393500D02*
Y402276D01*
X109000Y390500D02*
Y394500D01*
X317600Y386896D02*
X328400Y397696D01*
X317600Y376997D02*
X328400Y387797D01*
X317600Y386896D02*
X328400Y397696D01*
X324107Y363705D02*
X328400Y367998D01*
X317600Y385264D02*
X328400Y374464D01*
X305100Y374396D02*
X314400Y383697D01*
X317600Y367097D02*
X328400Y377898D01*
X305100Y374396D02*
X314400Y383697D01*
X317600Y375365D02*
X328400Y364565D01*
X305100Y364497D02*
X314400Y373797D01*
X322000Y361500D02*
Y364050D01*
Y361500D02*
X324550D01*
X319450D02*
X322000D01*
X323928Y359137D02*
X328400Y354665D01*
X322000Y358950D02*
Y361500D01*
X317600Y365465D02*
X319637Y363428D01*
X312238Y360928D02*
X314400Y358766D01*
X312238Y360928D02*
X314400Y358766D01*
X317600Y357198D02*
X319795Y359393D01*
X301783Y380979D02*
X312271Y391467D01*
X305100Y368066D02*
X307928Y365238D01*
X305100Y368066D02*
X307928Y365238D01*
X296834Y385929D02*
X307321Y396416D01*
X267100Y375994D02*
X284671Y393566D01*
X267100Y385894D02*
X279722Y398516D01*
X279303Y358499D02*
X299521Y378717D01*
X267100Y366095D02*
X289621Y388616D01*
X310000Y363000D02*
Y365550D01*
Y363000D02*
X312550D01*
X307450D02*
X310000D01*
X313010Y362508D02*
X314400Y363897D01*
X310000Y360450D02*
Y363000D01*
X277000Y356500D02*
X279550D01*
X267100Y366467D02*
X274877Y358690D01*
X277000Y356500D02*
Y359050D01*
X274450Y356500D02*
X277000D01*
X317600Y355566D02*
X328400Y344766D01*
X331600Y341499D02*
X342400Y352299D01*
X317600Y347299D02*
X328400Y358099D01*
Y279500D02*
Y405337D01*
X317600Y275163D02*
Y390000D01*
X305100Y358166D02*
X314400Y348866D01*
X317600Y355566D02*
X328400Y344765D01*
X305100Y344698D02*
X314400Y353998D01*
Y274500D02*
Y389337D01*
X305100Y348267D02*
X314400Y338966D01*
X317600Y345666D02*
X328400Y334866D01*
X317600Y327500D02*
X328400Y338299D01*
X317600Y337399D02*
X328400Y348199D01*
X317600Y325867D02*
X328400Y315067D01*
X317600Y335767D02*
X328400Y324967D01*
X305100Y338367D02*
X314400Y329067D01*
X305100Y328467D02*
X314400Y319167D01*
X305100Y334799D02*
X314400Y344098D01*
X317600Y317600D02*
X328400Y328400D01*
X305100Y315000D02*
X314400Y324300D01*
X267100Y376367D02*
X301900Y341567D01*
X305100Y354597D02*
X310492Y359990D01*
X305100Y271163D02*
Y377000D01*
X301900Y270500D02*
Y376337D01*
X267100Y336397D02*
X301900Y371197D01*
X267100Y336397D02*
X301900Y371197D01*
X267100Y386266D02*
X301900Y351466D01*
X267100Y356568D02*
X301900Y321768D01*
X267100Y326497D02*
X301900Y361297D01*
X277000Y353950D02*
Y356500D01*
X279190Y354377D02*
X301900Y331667D01*
X267100Y346296D02*
X275001Y354197D01*
X305100Y324899D02*
X314400Y334199D01*
X267100Y316598D02*
X301900Y351397D01*
X267100Y306698D02*
X301900Y341498D01*
X267100Y336769D02*
X301900Y301969D01*
X267100Y346669D02*
X301900Y311869D01*
X267100Y326870D02*
X301900Y292070D01*
X267100Y296798D02*
X301900Y331598D01*
X258364Y454400D02*
X328400Y384364D01*
X253964Y448900D02*
X314400Y388464D01*
X254837Y448900D02*
X314400Y389337D01*
X244065Y448900D02*
X314400Y378565D01*
X240633Y442130D02*
X304630Y378133D01*
X238837Y439400D02*
X301900Y376337D01*
X233766Y439400D02*
X301900Y371266D01*
X218967Y434400D02*
X263900Y389467D01*
X234165Y448900D02*
X314400Y368665D01*
X233766Y439400D02*
X301900Y371266D01*
X257600Y385867D02*
X263900Y379567D01*
X257600Y376394D02*
X263900Y382694D01*
X257600Y386293D02*
X263900Y392593D01*
X267100Y396166D02*
X301900Y361366D01*
X257600Y366494D02*
X263900Y372794D01*
X249085Y387678D02*
X254400Y392993D01*
X249600Y383967D02*
X254400Y379168D01*
X214067Y429400D02*
X254400Y389067D01*
X257600Y366068D02*
X263900Y359768D01*
X257600Y375968D02*
X263900Y369668D01*
X242835Y381428D02*
X246400Y384993D01*
X249600Y378293D02*
X254400Y383093D01*
X209633Y427130D02*
X249130Y387633D01*
X207837Y424400D02*
X246400Y385837D01*
X237885Y386378D02*
X241872Y390365D01*
X202133Y422130D02*
X244130Y380133D01*
X194369Y419400D02*
X241400Y372369D01*
X249600Y374068D02*
X254400Y369268D01*
X249600Y368394D02*
X254400Y373194D01*
X244600Y363394D02*
X246400Y365194D01*
X249600Y358494D02*
X254400Y363294D01*
X249600Y364169D02*
X254400Y359368D01*
X244599Y379069D02*
X246400Y377268D01*
X244600Y373293D02*
X246400Y375093D01*
X244600Y369168D02*
X246400Y367369D01*
X239600Y368293D02*
X241400Y370093D01*
X267100Y356195D02*
X294571Y383666D01*
X257600Y356595D02*
X263900Y362895D01*
Y294882D02*
Y400337D01*
X267100Y239000D02*
Y401000D01*
X257600Y239000D02*
Y394000D01*
Y356169D02*
X263900Y349868D01*
X249600Y354269D02*
X254400Y349469D01*
X249600Y348595D02*
X254400Y353395D01*
X257600Y346269D02*
X263900Y339969D01*
X257600Y346695D02*
X263900Y352995D01*
X257600Y336369D02*
X263900Y330069D01*
X257600Y326897D02*
X263900Y333196D01*
X257600Y336796D02*
X263900Y343096D01*
X257600Y316997D02*
X263900Y323297D01*
X257600Y326897D02*
X263900Y333196D01*
X249600Y338695D02*
X254400Y343495D01*
X249600Y334470D02*
X254400Y329670D01*
X249600Y344370D02*
X254400Y339569D01*
X257600Y326470D02*
X263900Y320170D01*
X249600Y318897D02*
X254400Y323696D01*
Y294882D02*
Y393337D01*
X249600Y294882D02*
Y386500D01*
X244600Y359269D02*
X246400Y357469D01*
Y244663D02*
Y385837D01*
X244600Y255000D02*
Y379000D01*
Y353494D02*
X246400Y355294D01*
X244600Y349370D02*
X246400Y347569D01*
X239600Y348494D02*
X241400Y350294D01*
X244600Y339470D02*
X246400Y337670D01*
X244600Y343595D02*
X246400Y345395D01*
X244600Y333695D02*
X246400Y335495D01*
X249600Y328796D02*
X254400Y333596D01*
X244600Y329571D02*
X246400Y327771D01*
X249600Y318897D02*
X254400Y323696D01*
X249600Y324571D02*
X254400Y319771D01*
X239600Y328695D02*
X241400Y330495D01*
X239600Y334571D02*
X241400Y332771D01*
X244600Y323796D02*
X246400Y325596D01*
X239600Y324671D02*
X241400Y322871D01*
X331600Y321766D02*
X342400Y310966D01*
X317600Y307701D02*
X328400Y318501D01*
X317600Y315967D02*
X328400Y305168D01*
X331600Y301902D02*
X342400Y312702D01*
X317600Y287902D02*
X328400Y298702D01*
X305100Y308668D02*
X314400Y299369D01*
X317600Y297801D02*
X328400Y308601D01*
X305100Y318568D02*
X314400Y309268D01*
X317600Y306068D02*
X328400Y295268D01*
X305100Y298769D02*
X314400Y289469D01*
X317600Y278002D02*
X328400Y288802D01*
X326080Y266683D02*
X333317Y273920D01*
X321130Y271633D02*
X328485Y278987D01*
X317600Y296168D02*
X328400Y285368D01*
X312880Y263383D02*
X318867Y269370D01*
X307930Y268332D02*
X314400Y274802D01*
X305100Y305100D02*
X314400Y314400D01*
X305100Y295201D02*
X314400Y304501D01*
X267100Y286899D02*
X301900Y321699D01*
X267100Y276999D02*
X301900Y311800D01*
X267100Y316970D02*
X301900Y282170D01*
X257600Y306671D02*
X263900Y300371D01*
X261500Y293000D02*
Y295550D01*
X267100Y267100D02*
X301900Y301900D01*
X267100Y307071D02*
X301900Y272271D01*
X305100Y288870D02*
X314400Y279570D01*
X305100Y275402D02*
X314400Y284702D01*
X305100Y285301D02*
X314400Y294601D01*
X258950Y293000D02*
X261500D01*
X263592Y290780D02*
X263900Y290472D01*
X261500Y290450D02*
Y293000D01*
X257600Y276973D02*
X263900Y270673D01*
X257600Y277399D02*
X263900Y283699D01*
X317600Y286269D02*
X387269Y216600D01*
X328870Y278367D02*
X383367Y223870D01*
X317600Y276370D02*
X377369Y216600D01*
X317600Y275163D02*
X376163Y216600D01*
X314870Y273367D02*
X374367Y213870D01*
X267100Y287272D02*
X326372Y228000D01*
X305100Y271163D02*
X369663Y206600D01*
X267100Y277372D02*
X316472Y228000D01*
X267100Y297171D02*
X378771Y185500D01*
X305100Y278970D02*
X377470Y206600D01*
X331030Y261733D02*
X338267Y268970D01*
X327729Y248533D02*
X333717Y254521D01*
X322780Y253483D02*
X328767Y259470D01*
X327500Y228000D02*
X370000Y185500D01*
X326995Y228000D02*
X335366Y236371D01*
X307196Y228000D02*
X325467Y246271D01*
X317095Y228000D02*
X330416Y241321D01*
X317830Y258433D02*
X323817Y264420D01*
X302370Y269367D02*
X367867Y203870D01*
X297296Y228000D02*
X320517Y251220D01*
X267100Y247301D02*
X301900Y282101D01*
X277497Y228000D02*
X310617Y261120D01*
X267100Y257201D02*
X301900Y292001D01*
X267100Y267473D02*
X306573Y228000D01*
X267598D02*
X305668Y266070D01*
X263900Y239663D02*
Y291118D01*
X257600Y257600D02*
X263900Y263900D01*
X257600Y267073D02*
X263900Y260773D01*
X257698Y228000D02*
X301900Y272202D01*
X267100Y257573D02*
X296673Y228000D01*
X287397D02*
X315567Y256170D01*
X267100Y247674D02*
X286774Y228000D01*
X266803Y238071D02*
X276874Y228000D01*
X257600Y247701D02*
X263900Y254001D01*
X257600Y257174D02*
X263900Y250874D01*
X261869Y233106D02*
X266975Y228000D01*
X257600Y247274D02*
X263900Y240974D01*
X257600Y307098D02*
X263900Y313398D01*
X257600Y297198D02*
X263900Y303498D01*
X257600Y316571D02*
X263900Y310271D01*
X257600Y296772D02*
X259280Y295092D01*
X252000Y293000D02*
Y295550D01*
X249600Y308997D02*
X254400Y313797D01*
X249600Y304772D02*
X254400Y299972D01*
X249600Y314671D02*
X254400Y309871D01*
X249600Y299097D02*
X254400Y303898D01*
X257600Y287298D02*
X260441Y290140D01*
X253876Y290596D02*
X254400Y290072D01*
X257600Y267499D02*
X263900Y273799D01*
X257600Y286872D02*
X263900Y280572D01*
X249600Y279298D02*
X254400Y284099D01*
X249600Y275073D02*
X254400Y270273D01*
X249600Y284973D02*
X254400Y280173D01*
X249600Y265174D02*
X254400Y260374D01*
X249600Y269399D02*
X254400Y274199D01*
X244600Y313896D02*
X246400Y315697D01*
X244600Y313896D02*
X246400Y315697D01*
X244600Y319671D02*
X246400Y317871D01*
X244600Y294097D02*
X246400Y295898D01*
X244600Y309772D02*
X246400Y307972D01*
X239600Y314772D02*
X241400Y312972D01*
X239600Y308896D02*
X241400Y310697D01*
X239600Y318796D02*
X241400Y320596D01*
X244600Y299872D02*
X246400Y298072D01*
X244600Y303997D02*
X246400Y305797D01*
X252000Y290450D02*
Y293000D01*
X249600Y289198D02*
X250661Y290259D01*
X244600Y289973D02*
X246400Y288173D01*
X244600Y270174D02*
X246400Y268374D01*
X244600Y284198D02*
X246400Y285998D01*
X231600Y281098D02*
X241400Y290897D01*
X244600Y280073D02*
X246400Y278273D01*
X237468Y287205D02*
X241400Y283273D01*
X244600Y264399D02*
X246400Y266199D01*
X244600Y274299D02*
X246400Y276098D01*
X249600Y259500D02*
X254400Y264300D01*
X249600Y255274D02*
X254400Y250474D01*
X249600Y244000D02*
Y291118D01*
X252237Y228000D02*
X263900Y239663D01*
X254400D02*
Y291118D01*
X249600Y249600D02*
X254400Y254400D01*
X249600Y245375D02*
X254400Y240575D01*
X247799Y228000D02*
X263900Y244101D01*
X237899Y228000D02*
X254400Y244501D01*
X257119Y237856D02*
X259606Y235369D01*
X256763Y228000D02*
X327500D01*
X256763D02*
X266630Y237867D01*
X252169Y232906D02*
X254656Y230419D01*
X247263Y228000D02*
X252237D01*
X245669Y239406D02*
X249906Y235169D01*
X247263Y228000D02*
X257130Y237867D01*
X242737Y228000D02*
X254400Y239663D01*
X244600Y260274D02*
X246400Y258474D01*
X244471Y254370D02*
X246400Y256299D01*
X242619Y252356D02*
X246400Y248575D01*
X237337Y251600D02*
X241400Y255663D01*
X239133Y248870D02*
X244130Y253867D01*
X232964Y252764D02*
X241400Y261199D01*
X241600Y241600D02*
X246400Y246400D01*
X236675Y248400D02*
X243406Y241669D01*
X245133Y238870D02*
X249130Y242867D01*
X243337Y241600D02*
X246400Y244663D01*
X233724Y238400D02*
X244000D01*
X233724Y241600D02*
X243337D01*
X236776Y238400D02*
X244956Y230219D01*
X233525Y228000D02*
X242737D01*
X236835Y375428D02*
X240572Y379165D01*
X239600Y358394D02*
X241400Y360194D01*
X239600Y364269D02*
X241400Y362469D01*
X231885Y380378D02*
X235622Y384115D01*
X231335Y369928D02*
X234572Y373165D01*
X234100Y362793D02*
X236400Y365093D01*
X234100Y352894D02*
X236400Y355194D01*
X239600Y354369D02*
X241400Y352570D01*
X234100Y359870D02*
X236400Y357570D01*
X239600Y338595D02*
X241400Y340395D01*
X239600Y344470D02*
X241400Y342670D01*
X229600Y358293D02*
X230900Y359593D01*
X234100Y349970D02*
X236400Y347670D01*
X229600Y344571D02*
X230900Y343271D01*
X234100Y340071D02*
X236400Y337771D01*
X234100Y342994D02*
X236400Y345294D01*
X226935Y385327D02*
X230673Y389065D01*
X226385Y374878D02*
X229622Y378115D01*
X226835Y365428D02*
X229072Y367665D01*
X216486Y384777D02*
X219723Y388014D01*
X221435Y379827D02*
X224673Y383065D01*
X216935Y375327D02*
X219173Y377565D01*
X223444Y352137D02*
X226400Y355093D01*
X221885Y370378D02*
X224122Y372615D01*
X229600Y354470D02*
X230900Y353170D01*
X229600Y348394D02*
X230900Y349694D01*
X224051Y350120D02*
X226400Y347771D01*
X229600Y338494D02*
X230900Y339794D01*
X224046Y340225D02*
X226400Y337871D01*
X217221Y347050D02*
X220224Y344046D01*
X214047Y350224D02*
X217050Y347221D01*
X223405Y342198D02*
X226400Y345194D01*
X236400Y290663D02*
Y371337D01*
X234100Y330171D02*
X236400Y327871D01*
X234100Y293000D02*
Y366500D01*
X241400Y255663D02*
Y378337D01*
X239600Y290000D02*
Y372000D01*
X234100Y333095D02*
X236400Y335395D01*
X229600Y334671D02*
X230900Y333371D01*
X229600Y329000D02*
Y362000D01*
X230900Y293663D02*
Y365837D01*
X229527Y328522D02*
X230900Y329895D01*
X234100Y323195D02*
X236400Y325495D01*
X234100Y320272D02*
X236400Y317972D01*
X239600Y308896D02*
X241400Y310697D01*
X234100Y313296D02*
X236400Y315596D01*
X227817Y326554D02*
X230900Y323472D01*
X224028Y320444D02*
X230900Y313572D01*
X224014Y310559D02*
X230900Y303673D01*
X223282Y312378D02*
X230900Y319995D01*
X226400Y329663D02*
Y361337D01*
X223365Y332259D02*
X226400Y335294D01*
X224039Y330332D02*
X225554Y328817D01*
X225133Y323870D02*
X229130Y327867D01*
X223337Y326600D02*
X226400Y329663D01*
X222206Y326600D02*
X223337D01*
X217727Y336645D02*
X220333Y334039D01*
X215000Y326600D02*
X217794D01*
X222206Y323400D02*
X224000D01*
X223324Y322319D02*
X224478Y323473D01*
X215663Y323400D02*
X217794D01*
X218207Y316365D02*
X220559Y314014D01*
X205133Y407130D02*
X239130Y373133D01*
X207036Y385227D02*
X209273Y387464D01*
X203337Y404400D02*
X236400Y371337D01*
X207133Y394130D02*
X233630Y367633D01*
X185510Y383500D02*
X188410Y386400D01*
X177871D02*
X180771Y383500D01*
X200337Y419400D02*
X241400Y378337D01*
X199469Y404400D02*
X236400Y367469D01*
X211986Y380277D02*
X214223Y382514D01*
X208104Y376396D02*
X209723Y378014D01*
X203155Y381345D02*
X204773Y382964D01*
X210000Y368392D02*
X214673Y373065D01*
X201000Y383500D02*
X210000Y374500D01*
X197670Y386400D02*
X200570Y383500D01*
X125500Y386400D02*
X201337D01*
X195410Y383500D02*
X198310Y386400D01*
X116000Y383500D02*
X201000D01*
X187771Y386400D02*
X190671Y383500D01*
X161912Y389600D02*
X163712Y391400D01*
X158072Y386400D02*
X160972Y383500D01*
X155812D02*
X158712Y386400D01*
X111157Y388343D02*
X118400Y395586D01*
X118870Y392367D02*
X124367Y386870D01*
X109000Y390500D02*
X115000Y384500D01*
X116214Y383500D02*
X121976Y389262D01*
X109000Y395874D02*
X121374Y383500D01*
X148173Y386400D02*
X151073Y383500D01*
X165711D02*
X168611Y386400D01*
X145912Y383500D02*
X148812Y386400D01*
X175611Y383500D02*
X178511Y386400D01*
X167972D02*
X170872Y383500D01*
X126113D02*
X129013Y386400D01*
X128374D02*
X131274Y383500D01*
X115000Y384500D02*
X116000Y383500D01*
X138273Y386400D02*
X141173Y383500D01*
X136013D02*
X138913Y386400D01*
X210000Y374070D02*
X226400Y357670D01*
X213482Y352075D02*
X224572Y363165D01*
X210000Y358492D02*
X219622Y368115D01*
X213444Y342137D02*
X217863Y346556D01*
X214039Y340333D02*
X216645Y337727D01*
X202570Y391400D02*
X230900Y363070D01*
X205337Y391400D02*
X230900Y365837D01*
X203133Y389130D02*
X229130Y363133D01*
X201337Y386400D02*
X226400Y361337D01*
X210000Y364171D02*
X220120Y354051D01*
X214028Y330444D02*
X216479Y327993D01*
X214014Y320559D02*
X216365Y318207D01*
X213996Y310677D02*
X216279Y308394D01*
X213405Y332199D02*
X217801Y336595D01*
X213764Y321502D02*
X215663Y323400D01*
X213324Y312319D02*
X217681Y316676D01*
X210000Y344372D02*
X210332Y344039D01*
X210000Y334472D02*
X210444Y334028D01*
X210000Y334053D02*
Y335947D01*
Y354271D02*
X210225Y354047D01*
X210000Y354053D02*
Y374500D01*
Y344053D02*
Y345947D01*
Y324053D02*
Y325947D01*
X211502Y323764D02*
X213867Y326130D01*
X210000Y324573D02*
X210559Y324014D01*
X210000Y314053D02*
Y315947D01*
Y314673D02*
X210677Y313996D01*
X234100Y303397D02*
X236400Y305697D01*
X239600Y304872D02*
X241400Y303072D01*
X234100Y303397D02*
X236400Y305697D01*
X239600Y294973D02*
X241400Y293173D01*
X239600Y298997D02*
X241400Y300797D01*
X234100Y300473D02*
X236400Y298173D01*
X234100Y293497D02*
X236400Y295797D01*
X234100Y310372D02*
X236400Y308072D01*
X223837Y286600D02*
X230900Y293663D01*
X223481Y292777D02*
X230900Y300197D01*
X233218Y291455D02*
X235205Y289468D01*
X228870Y283133D02*
X236400Y290663D01*
X231600Y281337D02*
X239130Y288867D01*
X225633Y283870D02*
X233630Y291867D01*
X231600Y271198D02*
X241400Y280998D01*
X232518Y282255D02*
X241400Y273374D01*
X224447Y300226D02*
X230900Y293773D01*
X228268Y286505D02*
X230255Y284518D01*
X224440Y290333D02*
X226005Y288768D01*
X223525Y302721D02*
X230900Y310096D01*
X223481Y292777D02*
X230900Y300197D01*
X224053Y275947D02*
Y283400D01*
X222875Y286600D02*
X223837D01*
X224053Y280821D02*
X228400Y276474D01*
X226082Y265680D02*
X228400Y267998D01*
X224633Y267130D02*
X226630Y265133D01*
X224053Y283400D02*
X224500D01*
X222837Y264400D02*
X223184Y264053D01*
X220675Y264400D02*
X221022Y264053D01*
X233013Y262711D02*
X241400Y271098D01*
X233911Y261064D02*
X240356Y254619D01*
X231600Y263724D02*
Y281337D01*
X233724Y251600D02*
X237337D01*
X231600Y273274D02*
X241400Y263474D01*
X229004Y256072D02*
X231206Y253869D01*
X232915Y242815D02*
X238630Y248529D01*
X233724Y248400D02*
X238000D01*
X233757Y231519D02*
X237276Y228000D01*
X229261Y236015D02*
X231519Y233757D01*
X229135Y246041D02*
X231357Y243819D01*
X232866Y232866D02*
X238400Y238400D01*
X228400Y263724D02*
Y282000D01*
X227100Y255500D02*
Y257169D01*
Y262831D02*
Y264000D01*
X223685Y255947D02*
X223900Y256163D01*
X221502Y253764D02*
X223685Y255947D01*
X223764Y251502D02*
X226630Y254367D01*
X223819Y251357D02*
X226041Y249135D01*
X223757Y241519D02*
X226015Y239261D01*
X223681Y231696D02*
X225995Y229382D01*
X222965Y242763D02*
X227237Y247036D01*
X222916Y232815D02*
X227185Y237085D01*
X223525Y228000D02*
X226475D01*
X218394Y306279D02*
X220226Y304447D01*
X220000Y300000D02*
X223953D01*
X220000D02*
Y303953D01*
X219143Y295631D02*
X220333Y294440D01*
X220000Y296047D02*
Y300000D01*
X213282Y302378D02*
X217622Y306718D01*
X216047Y300000D02*
X220000D01*
X213973Y300801D02*
X215631Y299143D01*
X213239Y292435D02*
X217279Y296475D01*
X220000Y290000D02*
Y293953D01*
Y290000D02*
X223953D01*
X216047D02*
X220000D01*
X215947Y275947D02*
X224053D01*
X215947D02*
Y283400D01*
X215663Y286600D02*
X217125D01*
X213764Y288498D02*
X215663Y286600D01*
X214053Y280922D02*
X215947Y279027D01*
X215000Y283400D02*
X215947D01*
X210000Y304774D02*
X210801Y303973D01*
X213945Y290929D02*
X215608Y289266D01*
X210000Y304053D02*
Y305947D01*
Y294053D02*
Y295947D01*
Y294874D02*
X210929Y293945D01*
X214053Y283349D02*
X214277Y283573D01*
X214053Y283349D02*
X214277Y283573D01*
X214053Y275947D02*
Y283711D01*
X211502Y286236D02*
X213685Y284053D01*
X210000D02*
Y285947D01*
Y284053D02*
X213685D01*
X210000Y284975D02*
X210922Y284053D01*
X218103Y267600D02*
X228400Y277898D01*
X219027Y275947D02*
X228400Y266575D01*
X215947Y264053D02*
X223184D01*
X215947Y255947D02*
X223685D01*
X219228D02*
X221357Y253819D01*
X210000Y275075D02*
X217475Y267600D01*
X210000D02*
X223500D01*
X210000Y269397D02*
X216550Y275947D01*
X210000Y264400D02*
X222837D01*
X210000Y249598D02*
X216349Y255947D01*
X219261Y246015D02*
X221519Y243757D01*
X219382Y235995D02*
X221696Y233681D01*
X211901Y241600D02*
X217289Y246988D01*
X211801Y231600D02*
X217236Y237035D01*
X210000Y228000D02*
X216475D01*
X210000Y275947D02*
X214053D01*
X212103Y261600D02*
X214902Y264400D01*
X210776D02*
X213576Y261600D01*
X215947Y255947D02*
Y258400D01*
Y261600D02*
Y264053D01*
X210000Y267600D02*
Y275947D01*
Y261600D02*
X215947D01*
X210000D02*
Y264400D01*
Y258400D02*
X215947D01*
X210000Y241600D02*
Y258400D01*
Y238400D02*
X216276D01*
X210000Y231600D02*
X216276D01*
X210000Y235477D02*
X213877Y231600D01*
X210000Y228400D02*
X216276D01*
X210000Y228000D02*
Y228400D01*
Y255276D02*
X216015Y249261D01*
X210000Y245377D02*
X213777Y241600D01*
X210000D02*
X216276D01*
X210000Y231600D02*
Y238400D01*
X187500Y178500D02*
X194000D01*
X256000Y239000D02*
Y394000D01*
X219000Y431000D02*
X256000Y394000D01*
X125000Y431000D02*
X219000D01*
X243000Y255000D02*
Y379000D01*
X201000Y421000D02*
X243000Y379000D01*
X125000Y421000D02*
X201000D01*
X230500Y436000D02*
X265500Y401000D01*
Y239000D02*
Y401000D01*
X236500Y210000D02*
X265500Y239000D01*
X237000Y220000D02*
X256000Y239000D01*
X208500Y426000D02*
X248000Y386500D01*
Y244000D02*
Y386500D01*
X244000Y240000D02*
X248000Y244000D01*
X238000Y250000D02*
X243000Y255000D01*
X204000Y406000D02*
X238000Y372000D01*
Y290000D02*
Y372000D01*
X230000Y282000D02*
X238000Y290000D01*
X380000Y314000D02*
Y428500D01*
X332500Y476000D02*
X380000Y428500D01*
X130000Y476000D02*
X332500D01*
X451000Y451000D02*
X475000D01*
X439650Y439650D02*
X451000Y451000D01*
X439650Y299650D02*
Y439650D01*
X450000Y456000D02*
X470000D01*
X436500Y442500D02*
X450000Y456000D01*
X436500Y306000D02*
Y442500D01*
X447500Y461000D02*
X475000D01*
X433500Y447000D02*
X447500Y461000D01*
X433500Y311500D02*
Y447000D01*
X426500Y296000D02*
X436500Y306000D01*
X420000Y296000D02*
X426500D01*
X428000Y306000D02*
X433500Y311500D01*
X420000Y306000D02*
X428000D01*
X430000Y320000D02*
Y452500D01*
X426000Y316000D02*
X430000Y320000D01*
X420000Y316000D02*
X426000D01*
X430000Y452500D02*
X448500Y471000D01*
X443000Y436500D02*
X452500Y446000D01*
X443000Y295000D02*
Y436500D01*
X433500Y285500D02*
X443000Y295000D01*
X415500Y285500D02*
X433500D01*
X447000Y431000D02*
X457000Y441000D01*
X447000Y289000D02*
Y431000D01*
X438000Y280000D02*
X447000Y289000D01*
X420000Y280000D02*
X438000D01*
X452500Y420500D02*
X463000Y431000D01*
X452500Y281500D02*
Y420500D01*
X445650Y274650D02*
X452500Y281500D01*
X414650Y274650D02*
X445650D01*
X462600Y269600D02*
Y406100D01*
X458000Y265000D02*
X462600Y269600D01*
X457500Y273000D02*
Y282248D01*
Y409500D01*
X464000Y416000D01*
X454500Y270000D02*
X457500Y273000D01*
X124000Y351780D02*
X133221D01*
X135618Y349382D01*
X141000D01*
X146512Y351941D02*
X152024D01*
X141000D02*
X146512D01*
Y348488D02*
Y351941D01*
Y348488D02*
X148000Y347000D01*
Y344000D02*
Y347000D01*
X146512Y307441D02*
X152024D01*
X141000D02*
X146512D01*
X146500Y307429D02*
X146512Y307441D01*
X146500Y301500D02*
Y307429D01*
Y301500D02*
X148000Y300000D01*
X146500Y318000D02*
Y320500D01*
X124000Y307780D02*
X131720D01*
X134618Y304882D01*
X141000D01*
X172000Y192000D02*
Y198500D01*
Y186500D02*
Y192000D01*
X162346D02*
X172000D01*
X178000Y204500D02*
Y210500D01*
X172000Y198500D02*
X178000Y204500D01*
X177847Y180500D02*
Y186346D01*
X158000Y180972D02*
X158472D01*
Y180500D02*
X171153D01*
X155654Y192000D02*
Y197846D01*
X120000Y204000D02*
Y208000D01*
X122500Y210500D01*
X135500D01*
X142500Y203500D01*
Y198000D02*
Y203500D01*
X148500Y198000D02*
X155500D01*
X161500D02*
Y205000D01*
Y213000D01*
X155500Y205000D02*
Y207500D01*
X156500Y208500D01*
X375500Y215000D02*
X415000D01*
X316000Y274500D02*
X375500Y215000D01*
X316000Y274500D02*
Y390000D01*
X369000Y205000D02*
X415000D01*
X303500Y270500D02*
X369000Y205000D01*
X303500Y270500D02*
Y377000D01*
X390000Y235000D02*
X415000D01*
X344000Y281000D02*
X390000Y235000D01*
X344000Y281000D02*
Y421000D01*
X392000Y250000D02*
X410000D01*
X360000Y282000D02*
X392000Y250000D01*
X360000Y282000D02*
Y427000D01*
X316000Y471000D02*
X360000Y427000D01*
X299000Y466000D02*
X344000Y421000D01*
X280000Y456000D02*
X330000Y406000D01*
Y279500D02*
Y406000D01*
Y279500D02*
X384500Y225000D01*
X255500Y450500D02*
X316000Y390000D01*
X239500Y441000D02*
X303500Y377000D01*
X130000Y466000D02*
X299000D01*
X125000Y471000D02*
X316000D01*
X224500Y285000D02*
X232500Y293000D01*
X435000Y476000D02*
X439500D01*
X427000Y468000D02*
X435000Y476000D01*
X427000Y329500D02*
Y468000D01*
X415000Y265000D02*
X458000D01*
X470000Y265500D02*
Y406000D01*
X464500Y260000D02*
X470000Y265500D01*
X420000Y260000D02*
X464500D01*
X488500Y268000D02*
Y412500D01*
X470500Y250000D02*
X488500Y268000D01*
X420000Y250000D02*
X470500D01*
X230000Y220000D02*
X237000D01*
X130000Y426000D02*
X208500D01*
X380000Y314000D02*
X388000Y306000D01*
X309032Y164969D02*
X313000Y161000D01*
X309032Y164969D02*
Y171346D01*
X249000Y165500D02*
X272500D01*
X242000Y172500D02*
X249000Y165500D01*
X242000Y172500D02*
Y190000D01*
X237000Y195000D02*
X242000Y190000D01*
X225000Y195000D02*
X237000D01*
X220000Y200000D02*
X225000Y195000D01*
X293677Y164203D02*
Y171346D01*
X284474Y155000D02*
X293677Y164203D01*
X216000Y155000D02*
X284474D01*
X210500Y160500D02*
X216000Y155000D01*
X219000Y157000D02*
X283000D01*
X213000Y163000D02*
X219000Y157000D01*
X213000Y163000D02*
Y178000D01*
X283000Y157000D02*
X291118Y165118D01*
X226000Y159000D02*
X281500D01*
X220000Y165000D02*
X226000Y159000D01*
X220000Y165000D02*
Y170000D01*
X281500Y159000D02*
X288559Y166059D01*
X213000Y178000D02*
X215000Y180000D01*
X288559Y166059D02*
Y171346D01*
X215000Y180000D02*
X220000D01*
X210500Y184000D02*
X216500Y190000D01*
X210500Y160500D02*
Y184000D01*
X219163Y146600D02*
X278337D01*
X218500Y145000D02*
X279000D01*
X278337Y146600D02*
X290337Y158600D01*
X207000Y158763D02*
X219163Y146600D01*
X205000Y158500D02*
X218500Y145000D01*
X279000D02*
X291000Y157000D01*
X216500Y190000D02*
X220000D01*
X291118Y165118D02*
Y171346D01*
X388000Y306000D02*
X410000D01*
X120000Y466000D02*
X125000Y471000D01*
X130000Y456000D02*
X280000D01*
X125500Y450500D02*
X255500D01*
X120000Y456000D02*
X125500Y450500D01*
X302500Y176500D02*
Y180000D01*
X301354Y175354D02*
X302500Y176500D01*
X301354Y171346D02*
Y175354D01*
X125000Y441000D02*
X239500D01*
X120000Y446000D02*
X125000Y441000D01*
X448500Y471000D02*
X475000D01*
X480000Y476000D01*
X475000Y461000D02*
X480000Y466000D01*
X475000Y451000D02*
X480000Y456000D01*
X430000Y290000D02*
X439650Y299650D01*
X415373Y290000D02*
X430000D01*
X410000Y295373D02*
X415373Y290000D01*
X410000Y295373D02*
Y296000D01*
X420000Y326000D02*
X423500D01*
X427000Y329500D01*
X410000Y280000D02*
X415500Y285500D01*
X463000Y431000D02*
X475000D01*
X480000Y436000D01*
X452500Y446000D02*
X470000D01*
X457000Y441000D02*
X475000D01*
X464000Y416000D02*
X470000D01*
X420000Y270000D02*
X454500D01*
X415000Y205000D02*
X420000Y210000D01*
X410000Y270000D02*
X414650Y274650D01*
X475000Y413500D02*
Y421000D01*
X472500Y411000D02*
X475000Y413500D01*
X467500Y411000D02*
X472500D01*
X462600Y406100D02*
X467500Y411000D01*
X410000Y260000D02*
X415000Y265000D01*
X480000Y416000D02*
X485000D01*
X488500Y412500D01*
X415000Y235000D02*
X420000Y240000D01*
X384500Y225000D02*
X415000D01*
X420000Y230000D01*
X415000Y215000D02*
X420000Y220000D01*
X130000Y436000D02*
X230500D01*
X230000Y210000D02*
X236500D01*
X207000Y158763D02*
Y204000D01*
X205000Y158500D02*
Y214000D01*
X207000Y204000D02*
X213000Y210000D01*
X205000Y214000D02*
X211000Y220000D01*
X291000Y157000D02*
X303500D01*
X213000Y210000D02*
X220000D01*
X211000Y220000D02*
X220000D01*
X232500Y137000D02*
X249000D01*
X200000Y178500D02*
Y190500D01*
Y147000D02*
Y178500D01*
X210000Y137000D02*
X249000D01*
X200000Y147000D02*
X210000Y137000D01*
X195000Y200500D02*
X202000D01*
X191500Y204000D02*
X195000Y200500D01*
X191500Y204000D02*
Y224000D01*
X197500Y230000D02*
X220000D01*
X191500Y224000D02*
X197500Y230000D01*
X290337Y158600D02*
X299100D01*
X303913Y163413D01*
Y171346D01*
X306472Y159972D02*
Y171346D01*
X303500Y157000D02*
X306472Y159972D01*
X230000Y240000D02*
X244000D01*
X230000Y250000D02*
X238000D01*
X120000Y426000D02*
X125000Y421000D01*
X149500Y406000D02*
X204000D01*
X230000Y260000D02*
Y282000D01*
X206000Y393000D02*
X232500Y366500D01*
X127500Y393000D02*
X206000D01*
X124500Y396000D02*
X127500Y393000D01*
X124500Y396000D02*
Y411500D01*
X120000Y416000D02*
X124500Y411500D01*
X232500Y293000D02*
Y366500D01*
X210000Y320000D02*
X215000Y325000D01*
X224000D01*
X228000Y329000D01*
Y362000D01*
X202000Y388000D02*
X228000Y362000D01*
X125500Y388000D02*
X202000D01*
X120000Y393500D02*
X125500Y388000D01*
X120000Y393500D02*
Y406000D01*
X177000Y264500D02*
Y267500D01*
X175500Y269000D02*
X177000Y267500D01*
X175500Y269000D02*
Y299000D01*
X215000Y285000D02*
X224500D01*
X210000Y290000D02*
X215000Y285000D01*
X284500Y206000D02*
X291154D01*
X287500Y223000D02*
X291260Y219240D01*
Y212500D02*
Y219240D01*
X291154Y212394D02*
X291260Y212500D01*
X291154Y206000D02*
Y212394D01*
X297847Y206000D02*
X305500D01*
X297847D02*
Y211606D01*
X475000Y441000D02*
X480000Y446000D01*
X140000Y173000D02*
X153000D01*
Y180972D01*
Y173000D02*
X167500D01*
X116000Y217000D02*
Y226500D01*
X111500Y212500D02*
X116000Y217000D01*
X111500Y155000D02*
Y212500D01*
Y155000D02*
X115000Y151500D01*
X126500D01*
X132000Y157000D01*
Y165000D01*
X140000Y173000D01*
X167500D02*
X169500Y171000D01*
X110000Y236000D02*
Y278000D01*
Y236000D02*
X114500Y231500D01*
X130500D01*
X134500Y227500D01*
Y219000D02*
Y227500D01*
Y219000D02*
X140347Y213154D01*
X144500D01*
X158000Y180972D02*
Y186500D01*
X129800Y194700D02*
X136500Y188000D01*
X156500D01*
X158000Y186500D01*
X129800Y194700D02*
Y204000D01*
X158000Y160500D02*
Y167500D01*
Y160500D02*
X163000D01*
X166347Y157153D01*
X169500D01*
X175347D01*
X178000Y154500D01*
Y136500D02*
Y154500D01*
X169500Y163847D02*
Y171000D01*
X153000Y151500D02*
Y160500D01*
X148000Y146500D02*
X153000Y151500D01*
X179000Y322500D02*
X191000D01*
X204500Y305500D02*
X210000Y300000D01*
X176500Y305500D02*
X204500D01*
X143500Y272500D02*
X176500Y305500D01*
X122000Y272500D02*
X143500D01*
X116000Y266500D02*
X122000Y272500D01*
X116000Y276500D02*
X141500D01*
X148000Y294240D02*
Y300000D01*
X141500Y276500D02*
X175000Y310000D01*
X210000D01*
X191000Y270000D02*
Y300000D01*
Y270000D02*
X195000Y266000D01*
X223500D01*
X225500Y264000D01*
Y255500D02*
Y264000D01*
X220000Y250000D02*
X225500Y255500D01*
X124500D02*
X128020Y259020D01*
X132500D01*
X116000Y256500D02*
X122260Y262760D01*
X139587D01*
X132500Y266500D02*
X151000D01*
X157500Y260000D01*
X220000D01*
X191500Y240000D02*
X220000D01*
X177000Y254500D02*
X191500Y240000D01*
X156500Y254500D02*
X177000D01*
X152500Y250500D02*
X156500Y254500D01*
X132213Y250500D02*
X152500D01*
X116000Y236500D02*
X129500D01*
X132213Y239213D01*
Y243020D01*
X131500Y242307D02*
X132213Y243020D01*
X116260Y246760D02*
X139299D01*
X110000Y278000D02*
X115000Y283000D01*
X140760Y286760D02*
Y294000D01*
X137000Y283000D02*
X140760Y286760D01*
X115000Y283000D02*
X137000D01*
X171500Y246000D02*
X177000D01*
X152024Y310000D02*
X158000D01*
X152024Y304882D02*
X160882D01*
X164500Y308500D01*
Y322500D01*
X152024Y354500D02*
Y355524D01*
X154000Y357500D01*
X188000D01*
X179000Y330000D02*
X210000D01*
X173000Y322500D02*
Y329000D01*
X164500Y322500D02*
X173000D01*
X146500Y320500D02*
X148500Y322500D01*
X158500D01*
X118500Y294000D02*
X124000D01*
X115500Y297000D02*
X118500Y294000D01*
X115500Y297000D02*
Y311500D01*
X118500Y314500D01*
X131000D01*
X135500Y310000D01*
X141000D01*
X170882Y349382D02*
X171500Y350000D01*
X152024Y349382D02*
X170882D01*
X171500Y350000D02*
X210000D01*
X118500Y338000D02*
X124000D01*
X114500Y342000D02*
X118500Y338000D01*
X114500Y342000D02*
Y355000D01*
X118000Y358500D01*
X130000D01*
X134000Y354500D01*
X141000D01*
X148000Y338240D02*
Y344000D01*
X425500Y119000D02*
X433988D01*
X345500Y119988D02*
X356488D01*
X130000Y406000D02*
X143500D01*
X120000Y436000D02*
X125000Y431000D01*
X475000Y421000D02*
X480000Y426000D01*
X445500Y476000D02*
X470000D01*
X164654Y240000D02*
X171500D01*
X120000Y179500D02*
Y204000D01*
X161500Y216740D02*
X165260D01*
X171500Y210500D01*
X178000D01*
X161500Y220480D02*
X177980D01*
X171500Y233000D02*
Y240000D01*
Y233000D02*
X177980Y226520D01*
Y220480D02*
Y226520D01*
X144653Y213000D02*
X152051D01*
Y220480D02*
Y227949D01*
X148000Y160500D02*
Y168000D01*
X149000Y169000D01*
X156500D01*
X158000Y167500D01*
X156500Y208500D02*
Y219000D01*
X155020Y220480D02*
X156500Y219000D01*
X152051Y220480D02*
X155020D01*
X298795Y171346D02*
Y186500D01*
X296236Y171346D02*
Y184264D01*
X292000Y188500D02*
X296236Y184264D01*
X144500Y219847D02*
Y226000D01*
X160346Y246847D02*
X164500D01*
X158000Y244500D02*
X160346Y246847D01*
X158000Y228000D02*
Y244500D01*
D11*
X142500Y198000D02*
D03*
X148500D02*
D03*
X161500D02*
D03*
X155500D02*
D03*
X158500Y322500D02*
D03*
X164500D02*
D03*
X438500Y127000D02*
D03*
X444500D02*
D03*
X149500Y406000D02*
D03*
X143500D02*
D03*
X439500Y476000D02*
D03*
X445500D02*
D03*
X152000Y228000D02*
D03*
X158000D02*
D03*
X161500Y205000D02*
D03*
X155500D02*
D03*
X178000Y186500D02*
D03*
X172000D02*
D03*
X194000Y178500D02*
D03*
X200000Y178500D02*
D03*
X358500Y171500D02*
D03*
X352500D02*
D03*
X179000Y322500D02*
D03*
X173000D02*
D03*
X179000Y330000D02*
D03*
X173000D02*
D03*
D12*
X291154Y206000D02*
D03*
X297847D02*
D03*
X155654Y192000D02*
D03*
X162346D02*
D03*
X171153Y180500D02*
D03*
X177847D02*
D03*
D13*
X298740Y212500D02*
D03*
X291260D02*
D03*
X148240Y294000D02*
D03*
X140760D02*
D03*
X148240Y338000D02*
D03*
X140760D02*
D03*
X317740Y132000D02*
D03*
X310260D02*
D03*
X289240D02*
D03*
X281760D02*
D03*
D14*
X152024Y351941D02*
D03*
Y354500D02*
D03*
Y349382D02*
D03*
X141000D02*
D03*
Y351941D02*
D03*
X152024Y307441D02*
D03*
Y310000D02*
D03*
Y304882D02*
D03*
X141000D02*
D03*
Y307441D02*
D03*
D15*
Y354500D02*
D03*
Y310000D02*
D03*
D16*
X345500Y144500D02*
D03*
Y138500D02*
D03*
X171500Y240000D02*
D03*
Y246000D02*
D03*
D17*
X445012Y119000D02*
D03*
X433988D02*
D03*
D18*
X345500Y131012D02*
D03*
Y119988D02*
D03*
D19*
X143000Y160500D02*
D03*
D20*
X158000Y180972D02*
D03*
X153000D02*
D03*
X148000D02*
D03*
X143000D02*
D03*
X158000Y160500D02*
D03*
X153000D02*
D03*
X148000D02*
D03*
D21*
X314150Y171346D02*
D03*
X311591D02*
D03*
X309032D02*
D03*
X306472D02*
D03*
X303913D02*
D03*
X301354D02*
D03*
X298795D02*
D03*
X296236D02*
D03*
X293677D02*
D03*
X291118D02*
D03*
X288559D02*
D03*
X286000D02*
D03*
X314150Y143000D02*
D03*
X311591D02*
D03*
X309032D02*
D03*
X306472D02*
D03*
X303913D02*
D03*
X301354D02*
D03*
X298795D02*
D03*
X296236D02*
D03*
X293677D02*
D03*
X291118D02*
D03*
X288559D02*
D03*
D22*
X286000D02*
D03*
D23*
X144500Y213154D02*
D03*
Y219847D02*
D03*
X164500Y240154D02*
D03*
Y246847D02*
D03*
X169500Y163847D02*
D03*
Y157153D02*
D03*
X332500Y171346D02*
D03*
Y164654D02*
D03*
X411500Y153847D02*
D03*
Y147153D02*
D03*
D24*
X161500Y213000D02*
D03*
Y216740D02*
D03*
Y220480D02*
D03*
X152051D02*
D03*
Y213000D02*
D03*
D25*
X325500Y163760D02*
D03*
Y171240D02*
D03*
X372000Y146760D02*
D03*
Y154240D02*
D03*
D26*
X382945Y154000D02*
D03*
X401000D02*
D03*
D27*
X392000Y129394D02*
D03*
D28*
X132213Y250500D02*
D03*
Y243020D02*
D03*
X139299Y246760D02*
D03*
X132500Y266500D02*
D03*
Y259020D02*
D03*
X139587Y262760D02*
D03*
D29*
X307500Y193000D02*
X312500Y188000D01*
Y171346D02*
Y188000D01*
Y171346D02*
X314150D01*
X352153D01*
X284500Y171500D02*
X285000D01*
X282500Y173500D02*
X284500Y171500D01*
X282500Y173500D02*
Y189500D01*
X286000Y193000D01*
X307500D01*
X401000Y154000D02*
X411346D01*
X358500Y171500D02*
X387000D01*
X393000Y165500D01*
Y158000D02*
Y165500D01*
Y158000D02*
X397000Y154000D01*
X401000D01*
X292398Y148398D02*
X295000Y151000D01*
X292398Y143000D02*
Y148398D01*
X295000Y151000D02*
X304500D01*
X307752Y143000D02*
Y149248D01*
X306000Y151000D02*
X307752Y149248D01*
X304500Y151000D02*
X306000D01*
X438500Y127000D02*
Y155000D01*
X411500Y153847D02*
X436346D01*
X445012Y119000D02*
Y126488D01*
X286000Y143000D02*
X287500D01*
X289240Y132000D02*
X294500D01*
X297500Y135000D01*
Y143000D01*
X281760Y132000D02*
Y140760D01*
X284000Y143000D01*
X286000D01*
X305500Y132000D02*
X309260D01*
X302500Y135000D02*
X305500Y132000D01*
X302500Y135000D02*
Y143500D01*
X312500Y143000D02*
X314150D01*
X316000D01*
X317740Y141260D01*
Y132000D02*
Y141260D01*
X281760Y124760D02*
Y132000D01*
X277500Y120500D02*
X281760Y124760D01*
X277500Y112000D02*
Y120500D01*
X289240Y122760D02*
Y132000D01*
Y122760D02*
X291280Y120721D01*
Y112000D02*
Y120721D01*
X308500Y112000D02*
Y122000D01*
X310260Y123760D01*
Y132000D01*
X317740Y124760D02*
Y132000D01*
Y124760D02*
X322280Y120220D01*
Y112000D02*
Y120220D01*
D30*
X112000Y289000D02*
Y318000D01*
X261500Y202000D02*
X264500Y199000D01*
X344000D01*
X115500Y321500D02*
X121559D01*
X112000Y318000D02*
X115500Y321500D01*
X121559D02*
X124000Y319059D01*
X411500Y137000D02*
Y147153D01*
X336240Y163760D02*
X338500Y161500D01*
X342500D01*
X325500Y163760D02*
X336240D01*
X358500Y171500D02*
Y184500D01*
X344000Y199000D02*
X358500Y184500D01*
D31*
X124000Y294000D02*
X139760D01*
X345500Y131012D02*
Y138500D01*
Y144500D02*
X352000D01*
X361740Y154240D01*
X372000D01*
Y138500D02*
Y146760D01*
X124000Y338000D02*
X140260D01*
X372240Y154000D02*
X382945D01*
X372000Y154240D02*
Y166000D01*
D32*
X420000Y170000D02*
D03*
X410000D02*
D03*
X420000Y180000D02*
D03*
X410000Y180000D02*
D03*
X420000Y190000D02*
D03*
X410000D02*
D03*
X420000Y200000D02*
D03*
X116000Y236500D02*
D03*
Y246500D02*
D03*
Y256500D02*
D03*
Y266500D02*
D03*
Y276500D02*
D03*
X420000Y316000D02*
D03*
Y386000D02*
D03*
Y376000D02*
D03*
Y366000D02*
D03*
Y356000D02*
D03*
Y346000D02*
D03*
Y336000D02*
D03*
Y326000D02*
D03*
Y306000D02*
D03*
X410000Y316000D02*
D03*
Y386000D02*
D03*
Y376000D02*
D03*
Y366000D02*
D03*
X410000Y356000D02*
D03*
X410000Y346000D02*
D03*
Y336000D02*
D03*
Y326000D02*
D03*
X410000Y306000D02*
D03*
X220000Y290000D02*
D03*
Y300000D02*
D03*
Y310000D02*
D03*
Y320000D02*
D03*
Y330000D02*
D03*
Y340000D02*
D03*
Y350000D02*
D03*
X210000Y290000D02*
D03*
Y300000D02*
D03*
Y310000D02*
D03*
Y320000D02*
D03*
Y330000D02*
D03*
Y340000D02*
D03*
Y350000D02*
D03*
X178000Y210500D02*
D03*
X230000Y260000D02*
D03*
X220000Y250000D02*
D03*
X230000D02*
D03*
X220000Y240000D02*
D03*
X230000Y240000D02*
D03*
X220000Y230000D02*
D03*
X230000D02*
D03*
X220000Y220000D02*
D03*
X230000D02*
D03*
X220000Y210000D02*
D03*
X230000D02*
D03*
X220000Y200000D02*
D03*
X230000D02*
D03*
X220000Y190000D02*
D03*
X230000Y190000D02*
D03*
X220000Y180000D02*
D03*
X230000D02*
D03*
X220000Y170000D02*
D03*
X230000D02*
D03*
X420000Y220000D02*
D03*
Y230000D02*
D03*
Y240000D02*
D03*
Y250000D02*
D03*
Y260000D02*
D03*
Y270000D02*
D03*
Y280000D02*
D03*
X410000Y220000D02*
D03*
Y230000D02*
D03*
Y240000D02*
D03*
Y250000D02*
D03*
Y260000D02*
D03*
Y270000D02*
D03*
Y280000D02*
D03*
X200000Y200500D02*
D03*
Y190500D02*
D03*
X120000Y476000D02*
D03*
X130000Y476000D02*
D03*
X120000Y466000D02*
D03*
X130000D02*
D03*
X120000Y456000D02*
D03*
X130000D02*
D03*
X120000Y446000D02*
D03*
X130000D02*
D03*
X120000Y436000D02*
D03*
X130000D02*
D03*
X120000Y426000D02*
D03*
X130000Y426000D02*
D03*
X120000Y416000D02*
D03*
X130000D02*
D03*
X120000Y406000D02*
D03*
X480000D02*
D03*
X470000Y406000D02*
D03*
X480000Y416000D02*
D03*
X470000D02*
D03*
X480000Y426000D02*
D03*
X470000D02*
D03*
X480000Y436000D02*
D03*
X470000D02*
D03*
X480000Y446000D02*
D03*
X470000D02*
D03*
X480000Y456000D02*
D03*
X470000Y456000D02*
D03*
X480000Y466000D02*
D03*
X470000D02*
D03*
X480000Y476000D02*
D03*
X342500Y161500D02*
D03*
D33*
X410000Y200000D02*
D03*
X116000Y226500D02*
D03*
X420000Y296000D02*
D03*
X410000D02*
D03*
X220000Y280000D02*
D03*
X210000D02*
D03*
X178000Y220500D02*
D03*
X220000Y260000D02*
D03*
X420000Y210000D02*
D03*
X410000D02*
D03*
X200000Y210500D02*
D03*
X130000Y406000D02*
D03*
X470000Y476000D02*
D03*
X342500Y171500D02*
D03*
D34*
X436500Y154000D02*
D03*
X459000D02*
D03*
X447700Y172000D02*
D03*
D35*
X124000Y338000D02*
D03*
Y294000D02*
D03*
X120000Y179500D02*
D03*
D36*
X124000Y351780D02*
D03*
Y365559D02*
D03*
Y307780D02*
D03*
Y321559D02*
D03*
X120000Y165720D02*
D03*
X291280Y112000D02*
D03*
X322280D02*
D03*
D37*
X120000Y204000D02*
D03*
D38*
X129800D02*
D03*
D39*
X148000Y146500D02*
D03*
X128000Y136500D02*
D03*
D40*
X178000D02*
D03*
D41*
X277500Y112000D02*
D03*
X308500D02*
D03*
D42*
X121000Y114000D02*
D03*
X479000D02*
D03*
D43*
X455500Y227500D02*
D03*
X187500Y178500D02*
D03*
X463500Y265000D02*
D03*
X146500Y318000D02*
D03*
X161500Y209000D02*
D03*
X313000Y161000D02*
D03*
X272500Y165500D02*
D03*
X249000Y137000D02*
D03*
X295000Y151000D02*
D03*
X302500Y180000D02*
D03*
X287500Y223000D02*
D03*
X177000Y264500D02*
D03*
X175500Y299000D02*
D03*
X191000Y322500D02*
D03*
X148000Y300000D02*
D03*
X191000D02*
D03*
X124500Y255500D02*
D03*
X112000Y289000D02*
D03*
X177000Y246000D02*
D03*
X158000Y310000D02*
D03*
X261500Y202000D02*
D03*
X188000Y357500D02*
D03*
X148000Y344000D02*
D03*
X439500Y286500D02*
D03*
X445000Y281000D02*
D03*
X452000Y274500D02*
D03*
X472500Y257500D02*
D03*
X452500Y466000D02*
D03*
X399500Y410500D02*
D03*
X351500Y381199D02*
D03*
X336500Y366500D02*
D03*
X322000Y361500D02*
D03*
X310000Y363000D02*
D03*
X373500Y396000D02*
D03*
X277000Y356500D02*
D03*
X261500Y293000D02*
D03*
X252000D02*
D03*
X168000Y415500D02*
D03*
X173000Y401000D02*
D03*
X405000Y120000D02*
D03*
X401500D02*
D03*
X398000D02*
D03*
X394500D02*
D03*
X391000D02*
D03*
X387500D02*
D03*
X384000D02*
D03*
X380500D02*
D03*
X292000Y188500D02*
D03*
X298795Y186500D02*
D03*
X284500Y206000D02*
D03*
X144500Y226000D02*
D03*
X158000Y237500D02*
D03*
X299750Y151000D02*
D03*
X304500D02*
D03*
X305500Y206000D02*
D03*
X372000Y166000D02*
D03*
X169500Y171000D02*
D03*
M02*
