G04 Layer_Color=20142*
%FSLAX25Y25*%
%MOIN*%
G70*
G01*
G75*
%ADD47R,0.04300X0.04300*%
%ADD48R,0.05131X0.04737*%
%ADD49R,0.05918X0.06706*%
%ADD50R,0.04531X0.01700*%
%ADD51O,0.04531X0.01700*%
%ADD52R,0.04300X0.04300*%
%ADD53R,0.07099X0.07887*%
%ADD54R,0.07887X0.07099*%
%ADD55O,0.03162X0.09461*%
%ADD56R,0.03162X0.09461*%
%ADD57R,0.01972X0.07090*%
%ADD58O,0.01972X0.07090*%
%ADD59R,0.04737X0.05131*%
%ADD60R,0.04343X0.03359*%
%ADD61R,0.06706X0.05918*%
%ADD62R,0.06312X0.12611*%
%ADD63R,0.24422X0.26391*%
%ADD64R,0.05524X0.03162*%
%ADD65C,0.06706*%
%ADD66R,0.06706X0.06706*%
%ADD67O,0.19700X0.17700*%
%ADD68R,0.10300X0.10300*%
%ADD69C,0.10300*%
%ADD70R,0.05600X0.05600*%
%ADD71C,0.05600*%
%ADD72C,0.06800*%
%ADD73R,0.06800X0.06800*%
%ADD74R,0.10300X0.10300*%
%ADD75C,0.22200*%
%ADD76C,0.03900*%
D47*
X142500Y198000D02*
D03*
X148500D02*
D03*
X161500D02*
D03*
X155500D02*
D03*
X158500Y322500D02*
D03*
X164500D02*
D03*
X438500Y127000D02*
D03*
X444500D02*
D03*
X149500Y406000D02*
D03*
X143500D02*
D03*
X439500Y476000D02*
D03*
X445500D02*
D03*
X152000Y228000D02*
D03*
X158000D02*
D03*
X161500Y205000D02*
D03*
X155500D02*
D03*
X178000Y186500D02*
D03*
X172000D02*
D03*
X194000Y178500D02*
D03*
X200000Y178500D02*
D03*
X358500Y171500D02*
D03*
X352500D02*
D03*
X179000Y322500D02*
D03*
X173000D02*
D03*
X179000Y330000D02*
D03*
X173000D02*
D03*
D48*
X291154Y206000D02*
D03*
X297847D02*
D03*
X155654Y192000D02*
D03*
X162346D02*
D03*
X171153Y180500D02*
D03*
X177847D02*
D03*
D49*
X298740Y212500D02*
D03*
X291260D02*
D03*
X148240Y294000D02*
D03*
X140760D02*
D03*
X148240Y338000D02*
D03*
X140760D02*
D03*
X317740Y132000D02*
D03*
X310260D02*
D03*
X289240D02*
D03*
X281760D02*
D03*
D50*
X152024Y351941D02*
D03*
Y354500D02*
D03*
Y349382D02*
D03*
X141000D02*
D03*
Y351941D02*
D03*
X152024Y307441D02*
D03*
Y310000D02*
D03*
Y304882D02*
D03*
X141000D02*
D03*
Y307441D02*
D03*
D51*
Y354500D02*
D03*
Y310000D02*
D03*
D52*
X345500Y144500D02*
D03*
Y138500D02*
D03*
X171500Y240000D02*
D03*
Y246000D02*
D03*
D53*
X445012Y119000D02*
D03*
X433988D02*
D03*
D54*
X345500Y131012D02*
D03*
Y119988D02*
D03*
D55*
X143000Y160500D02*
D03*
D56*
X158000Y180972D02*
D03*
X153000D02*
D03*
X148000D02*
D03*
X143000D02*
D03*
X158000Y160500D02*
D03*
X153000D02*
D03*
X148000D02*
D03*
D57*
X314150Y171346D02*
D03*
X311591D02*
D03*
X309032D02*
D03*
X306472D02*
D03*
X303913D02*
D03*
X301354D02*
D03*
X298795D02*
D03*
X296236D02*
D03*
X293677D02*
D03*
X291118D02*
D03*
X288559D02*
D03*
X286000D02*
D03*
X314150Y143000D02*
D03*
X311591D02*
D03*
X309032D02*
D03*
X306472D02*
D03*
X303913D02*
D03*
X301354D02*
D03*
X298795D02*
D03*
X296236D02*
D03*
X293677D02*
D03*
X291118D02*
D03*
X288559D02*
D03*
D58*
X286000D02*
D03*
D59*
X144500Y213154D02*
D03*
Y219847D02*
D03*
X164500Y240154D02*
D03*
Y246847D02*
D03*
X169500Y163847D02*
D03*
Y157153D02*
D03*
X332500Y171346D02*
D03*
Y164654D02*
D03*
X411500Y153847D02*
D03*
Y147153D02*
D03*
D60*
X161500Y213000D02*
D03*
Y216740D02*
D03*
Y220480D02*
D03*
X152051D02*
D03*
Y213000D02*
D03*
D61*
X325500Y163760D02*
D03*
Y171240D02*
D03*
X372000Y146760D02*
D03*
Y154240D02*
D03*
D62*
X382945Y154000D02*
D03*
X401000D02*
D03*
D63*
X392000Y129394D02*
D03*
D64*
X132213Y250500D02*
D03*
Y243020D02*
D03*
X139299Y246760D02*
D03*
X132500Y266500D02*
D03*
Y259020D02*
D03*
X139587Y262760D02*
D03*
D65*
X420000Y170000D02*
D03*
X410000D02*
D03*
X420000Y180000D02*
D03*
X410000Y180000D02*
D03*
X420000Y190000D02*
D03*
X410000D02*
D03*
X420000Y200000D02*
D03*
X116000Y236500D02*
D03*
Y246500D02*
D03*
Y256500D02*
D03*
Y266500D02*
D03*
Y276500D02*
D03*
X420000Y316000D02*
D03*
Y386000D02*
D03*
Y376000D02*
D03*
Y366000D02*
D03*
Y356000D02*
D03*
Y346000D02*
D03*
Y336000D02*
D03*
Y326000D02*
D03*
Y306000D02*
D03*
X410000Y316000D02*
D03*
Y386000D02*
D03*
Y376000D02*
D03*
Y366000D02*
D03*
X410000Y356000D02*
D03*
X410000Y346000D02*
D03*
Y336000D02*
D03*
Y326000D02*
D03*
X410000Y306000D02*
D03*
X220000Y290000D02*
D03*
Y300000D02*
D03*
Y310000D02*
D03*
Y320000D02*
D03*
Y330000D02*
D03*
Y340000D02*
D03*
Y350000D02*
D03*
X210000Y290000D02*
D03*
Y300000D02*
D03*
Y310000D02*
D03*
Y320000D02*
D03*
Y330000D02*
D03*
Y340000D02*
D03*
Y350000D02*
D03*
X178000Y210500D02*
D03*
X230000Y260000D02*
D03*
X220000Y250000D02*
D03*
X230000D02*
D03*
X220000Y240000D02*
D03*
X230000Y240000D02*
D03*
X220000Y230000D02*
D03*
X230000D02*
D03*
X220000Y220000D02*
D03*
X230000D02*
D03*
X220000Y210000D02*
D03*
X230000D02*
D03*
X220000Y200000D02*
D03*
X230000D02*
D03*
X220000Y190000D02*
D03*
X230000Y190000D02*
D03*
X220000Y180000D02*
D03*
X230000D02*
D03*
X220000Y170000D02*
D03*
X230000D02*
D03*
X420000Y220000D02*
D03*
Y230000D02*
D03*
Y240000D02*
D03*
Y250000D02*
D03*
Y260000D02*
D03*
Y270000D02*
D03*
Y280000D02*
D03*
X410000Y220000D02*
D03*
Y230000D02*
D03*
Y240000D02*
D03*
Y250000D02*
D03*
Y260000D02*
D03*
Y270000D02*
D03*
Y280000D02*
D03*
X200000Y200500D02*
D03*
Y190500D02*
D03*
X120000Y476000D02*
D03*
X130000Y476000D02*
D03*
X120000Y466000D02*
D03*
X130000D02*
D03*
X120000Y456000D02*
D03*
X130000D02*
D03*
X120000Y446000D02*
D03*
X130000D02*
D03*
X120000Y436000D02*
D03*
X130000D02*
D03*
X120000Y426000D02*
D03*
X130000Y426000D02*
D03*
X120000Y416000D02*
D03*
X130000D02*
D03*
X120000Y406000D02*
D03*
X480000D02*
D03*
X470000Y406000D02*
D03*
X480000Y416000D02*
D03*
X470000D02*
D03*
X480000Y426000D02*
D03*
X470000D02*
D03*
X480000Y436000D02*
D03*
X470000D02*
D03*
X480000Y446000D02*
D03*
X470000D02*
D03*
X480000Y456000D02*
D03*
X470000Y456000D02*
D03*
X480000Y466000D02*
D03*
X470000D02*
D03*
X480000Y476000D02*
D03*
X342500Y161500D02*
D03*
D66*
X410000Y200000D02*
D03*
X116000Y226500D02*
D03*
X420000Y296000D02*
D03*
X410000D02*
D03*
X220000Y280000D02*
D03*
X210000D02*
D03*
X178000Y220500D02*
D03*
X220000Y260000D02*
D03*
X420000Y210000D02*
D03*
X410000D02*
D03*
X200000Y210500D02*
D03*
X130000Y406000D02*
D03*
X470000Y476000D02*
D03*
X342500Y171500D02*
D03*
D67*
X436500Y154000D02*
D03*
X459000D02*
D03*
X447700Y172000D02*
D03*
D68*
X124000Y338000D02*
D03*
Y294000D02*
D03*
X120000Y179500D02*
D03*
D69*
X124000Y351780D02*
D03*
Y365559D02*
D03*
Y307780D02*
D03*
Y321559D02*
D03*
X120000Y165720D02*
D03*
X291280Y112000D02*
D03*
X322280D02*
D03*
D70*
X120000Y204000D02*
D03*
D71*
X129800D02*
D03*
D72*
X148000Y146500D02*
D03*
X128000Y136500D02*
D03*
D73*
X178000D02*
D03*
D74*
X277500Y112000D02*
D03*
X308500D02*
D03*
D75*
X121000Y114000D02*
D03*
X479000D02*
D03*
D76*
X455500Y227500D02*
D03*
X187500Y178500D02*
D03*
X463500Y265000D02*
D03*
X146500Y318000D02*
D03*
X313000Y161000D02*
D03*
X272500Y165500D02*
D03*
X249000Y137000D02*
D03*
X295000Y151000D02*
D03*
X302500Y180000D02*
D03*
X287500Y223000D02*
D03*
X177000Y264500D02*
D03*
X175500Y299000D02*
D03*
X191000Y322500D02*
D03*
X148000Y300000D02*
D03*
X191000D02*
D03*
X124500Y255500D02*
D03*
X112000Y289000D02*
D03*
X177000Y246000D02*
D03*
X158000Y310000D02*
D03*
X261500Y202000D02*
D03*
X188000Y357500D02*
D03*
X148000Y344000D02*
D03*
X439500Y286500D02*
D03*
X445000Y281000D02*
D03*
X452000Y274500D02*
D03*
X472500Y257500D02*
D03*
X452500Y466000D02*
D03*
X399500Y410500D02*
D03*
X351500Y381199D02*
D03*
X336500Y366500D02*
D03*
X322000Y361500D02*
D03*
X310000Y363000D02*
D03*
X373500Y396000D02*
D03*
X277000Y356500D02*
D03*
X261500Y293000D02*
D03*
X252000D02*
D03*
X168000Y415500D02*
D03*
X173000Y401000D02*
D03*
X405000Y120000D02*
D03*
X401500D02*
D03*
X398000D02*
D03*
X394500D02*
D03*
X391000D02*
D03*
X387500D02*
D03*
X384000D02*
D03*
X380500D02*
D03*
X292000Y188500D02*
D03*
X298795Y186500D02*
D03*
X284500Y206000D02*
D03*
X144500Y226000D02*
D03*
X158000Y237500D02*
D03*
X299750Y151000D02*
D03*
X304500D02*
D03*
X305500Y206000D02*
D03*
X372000Y166000D02*
D03*
X169500Y171000D02*
D03*
M02*
