M48
;Layer_Color=6321
;FILE_FORMAT=2:5
INCH,LZ
;TYPE=PLATED
T1F00S00C0.01600
T2F00S00C0.02900
T3F00S00C0.03000
T4F00S00C0.03543
T5F00S00C0.04400
T6F00S00C0.11500
T7F00S00C0.12500
%
T01
X0249Y0137
X0295Y0151
X029975
X03045
X03805Y012
X0384
X03875
X0391
X03945
X0398
X04015
X0405
X04725Y02575
X04635Y0265
X0452Y02745
X0445Y0281
X04395Y02865
X04555Y02275
X0372Y0166
X0313Y0161
X03025Y018
X0298795Y01865
X0292Y01885
X02845Y0206
X02875Y0223
X03055Y0206
X02615Y0202
X02725Y01655
X01875Y01785
X01695Y0171
X01615Y0209
X0158Y02375
X0177Y0246
Y02645
X01755Y0299
X0191Y03
X0158Y031
X0252Y0293
X02615
X0148Y03
X0112Y0289
X01245Y02555
X01445Y0226
X01465Y0318
X0148Y0344
X0188Y03575
X0191Y03225
X0173Y0401
X0168Y04155
X0277Y03565
X031Y0363
X0322Y03615
X03365Y03665
X03515Y0381199
X03735Y0396
X03995Y04105
X04525Y0466
T02
X012Y0204
X01298
T03
X0128Y01365
X0148Y01465
X0178Y01365
T04
X03425Y01615
Y01715
X041Y017
Y018
X042Y018
Y017
Y019
X041
Y02
X042
Y021
Y022
X041
Y021
Y023
Y024
X042
Y023
Y025
Y026
Y027
Y028
X041
Y027
Y026
Y025
Y0296
X042
Y0306
X041
X022Y031
Y03
X021
Y031
Y029
X022
Y028
X021
X022Y026
X023
Y025
X022
Y024
Y023
X023
Y024
Y022
X022
Y021
X023
Y02
X022
Y019
X023Y019
Y018
X022
Y017
X023
X02Y01905
Y02005
Y02105
X0178
Y02205
X0116Y02265
Y02365
Y02465
Y02565
Y02665
Y02765
X012Y0406
Y0416
Y0426
Y0436
Y0446
Y0456
Y0466
X013
Y0456
Y0446
Y0436
Y0426
Y0416
Y0406
X021Y035
Y034
X022
Y035
Y033
Y032
X021
Y033
X041Y0326
Y0316
X042
Y0326
Y0336
Y0346
Y0356
Y0366
X041
X041Y0356
X041Y0346
Y0336
Y0376
X042
Y0386
X041
X047Y0406
Y0416
X048
Y0406
Y0426
X047
Y0436
X048
Y0446
X047
Y0456
X048Y0456
Y0466
X047
Y0476
X048
X013Y0476
X012Y0476
T05
X02775Y0112
X029128
X03085
X032228
X012Y016572
Y01795
X0124Y0294
Y030778
Y0321559
Y0338
Y035178
Y0365559
T06
X04365Y0154
T07
X0121Y0114
X0459Y0154
X0479Y0114
X04477Y0172
M30
