G04 Layer_Color=20142*
%FSLAX25Y25*%
%MOIN*%
G70*
G01*
G75*
%ADD46R,0.04300X0.04300*%
%ADD47R,0.07887X0.07099*%
%ADD48O,0.03162X0.09461*%
%ADD49R,0.03162X0.09461*%
%ADD50R,0.01972X0.07090*%
%ADD51O,0.01972X0.07090*%
%ADD52R,0.05918X0.06706*%
%ADD53R,0.04300X0.04300*%
%ADD54R,0.04737X0.05131*%
%ADD55R,0.04343X0.03359*%
%ADD56R,0.06706X0.05918*%
%ADD57R,0.06312X0.12611*%
%ADD58R,0.24422X0.26391*%
%ADD59R,0.05524X0.03162*%
%ADD60R,0.10300X0.10300*%
%ADD61C,0.10300*%
%ADD62C,0.06706*%
%ADD63R,0.06706X0.06706*%
%ADD64R,0.06706X0.06706*%
%ADD65R,0.05600X0.05600*%
%ADD66C,0.05600*%
%ADD67C,0.06800*%
%ADD68R,0.06800X0.06800*%
%ADD69R,0.10300X0.10300*%
%ADD70C,0.03900*%
D46*
X471500Y153500D02*
D03*
Y147500D02*
D03*
X345500Y144500D02*
D03*
Y138500D02*
D03*
X171500Y284000D02*
D03*
Y290000D02*
D03*
X185500Y218500D02*
D03*
Y224500D02*
D03*
X140500Y300500D02*
D03*
Y306500D02*
D03*
X141000Y350000D02*
D03*
Y356000D02*
D03*
D47*
X471500Y140012D02*
D03*
Y128988D02*
D03*
X345500Y131012D02*
D03*
Y119988D02*
D03*
D48*
X140500Y209500D02*
D03*
D49*
X155500Y229972D02*
D03*
X150500D02*
D03*
X145500D02*
D03*
X140500D02*
D03*
X155500Y209500D02*
D03*
X150500D02*
D03*
X145500D02*
D03*
D50*
X314150Y171346D02*
D03*
X311591D02*
D03*
X309032D02*
D03*
X306472D02*
D03*
X303913D02*
D03*
X301354D02*
D03*
X298795D02*
D03*
X296236D02*
D03*
X293677D02*
D03*
X291118D02*
D03*
X288559D02*
D03*
X286000D02*
D03*
X314150Y143000D02*
D03*
X311591D02*
D03*
X309032D02*
D03*
X306472D02*
D03*
X303913D02*
D03*
X301354D02*
D03*
X298795D02*
D03*
X296236D02*
D03*
X293677D02*
D03*
X291118D02*
D03*
X288559D02*
D03*
D51*
X286000D02*
D03*
D52*
X148240Y292500D02*
D03*
X140760D02*
D03*
X148240Y337000D02*
D03*
X140760D02*
D03*
X317740Y132000D02*
D03*
X310260D02*
D03*
X289240D02*
D03*
X281760D02*
D03*
D53*
X149500Y406000D02*
D03*
X143500D02*
D03*
X439500Y476000D02*
D03*
X445500D02*
D03*
X152000Y272000D02*
D03*
X158000D02*
D03*
X160000Y249000D02*
D03*
X154000D02*
D03*
X259000Y217000D02*
D03*
X265000Y217000D02*
D03*
X358500Y171500D02*
D03*
X352500D02*
D03*
D54*
X144500Y257154D02*
D03*
Y263846D02*
D03*
X164500Y284154D02*
D03*
Y290846D02*
D03*
X162000Y216347D02*
D03*
Y209653D02*
D03*
X332500Y171346D02*
D03*
Y164654D02*
D03*
X178500Y224847D02*
D03*
Y218154D02*
D03*
X411500Y153847D02*
D03*
Y147153D02*
D03*
D55*
X161500Y257000D02*
D03*
Y260740D02*
D03*
Y264480D02*
D03*
X152051D02*
D03*
Y257000D02*
D03*
D56*
X325500Y163760D02*
D03*
Y171240D02*
D03*
X372000Y146760D02*
D03*
Y154240D02*
D03*
D57*
X382945Y154000D02*
D03*
X401000D02*
D03*
D58*
X392000Y129394D02*
D03*
D59*
X162500Y330000D02*
D03*
Y322520D02*
D03*
X169587Y326260D02*
D03*
X151000Y359500D02*
D03*
Y352020D02*
D03*
X158087Y355760D02*
D03*
D60*
X124000Y336500D02*
D03*
Y291500D02*
D03*
X120000Y223500D02*
D03*
X428000Y153500D02*
D03*
D61*
X124000Y350279D02*
D03*
Y364059D02*
D03*
Y305279D02*
D03*
Y319059D02*
D03*
X120000Y209720D02*
D03*
X428000Y139720D02*
D03*
X291280Y112000D02*
D03*
X322280D02*
D03*
D62*
X400000Y316000D02*
D03*
Y386000D02*
D03*
Y376000D02*
D03*
Y366000D02*
D03*
Y356000D02*
D03*
Y346000D02*
D03*
Y336000D02*
D03*
Y326000D02*
D03*
Y306000D02*
D03*
X390000Y316000D02*
D03*
Y386000D02*
D03*
Y376000D02*
D03*
Y366000D02*
D03*
X390000Y356000D02*
D03*
X390000Y346000D02*
D03*
Y336000D02*
D03*
Y326000D02*
D03*
X390000Y306000D02*
D03*
X200000Y290000D02*
D03*
Y300000D02*
D03*
Y310000D02*
D03*
Y320000D02*
D03*
Y330000D02*
D03*
Y340000D02*
D03*
Y350000D02*
D03*
X190000Y290000D02*
D03*
Y300000D02*
D03*
Y310000D02*
D03*
Y320000D02*
D03*
Y330000D02*
D03*
Y340000D02*
D03*
Y350000D02*
D03*
X178000Y254500D02*
D03*
X210000Y260000D02*
D03*
X200000Y250000D02*
D03*
X210000D02*
D03*
X200000Y240000D02*
D03*
X210000Y240000D02*
D03*
X200000Y230000D02*
D03*
X210000D02*
D03*
X200000Y220000D02*
D03*
X210000D02*
D03*
X200000Y210000D02*
D03*
X210000D02*
D03*
X200000Y200000D02*
D03*
X210000D02*
D03*
X200000Y190000D02*
D03*
X210000Y190000D02*
D03*
X200000Y180000D02*
D03*
X210000D02*
D03*
X200000Y170000D02*
D03*
X210000D02*
D03*
X178000Y239500D02*
D03*
X400000Y220000D02*
D03*
Y230000D02*
D03*
Y240000D02*
D03*
Y250000D02*
D03*
Y260000D02*
D03*
Y270000D02*
D03*
Y280000D02*
D03*
X390000Y220000D02*
D03*
Y230000D02*
D03*
Y240000D02*
D03*
Y250000D02*
D03*
Y260000D02*
D03*
Y270000D02*
D03*
Y280000D02*
D03*
X255000Y228000D02*
D03*
X265000D02*
D03*
X120000Y476000D02*
D03*
X130000Y476000D02*
D03*
X120000Y466000D02*
D03*
X130000D02*
D03*
X120000Y456000D02*
D03*
X130000D02*
D03*
X120000Y446000D02*
D03*
X130000D02*
D03*
X120000Y436000D02*
D03*
X130000D02*
D03*
X120000Y426000D02*
D03*
X130000Y426000D02*
D03*
X120000Y416000D02*
D03*
X130000D02*
D03*
X120000Y406000D02*
D03*
X480000D02*
D03*
X470000Y406000D02*
D03*
X480000Y416000D02*
D03*
X470000D02*
D03*
X480000Y426000D02*
D03*
X470000D02*
D03*
X480000Y436000D02*
D03*
X470000D02*
D03*
X480000Y446000D02*
D03*
X470000D02*
D03*
X480000Y456000D02*
D03*
X470000Y456000D02*
D03*
X480000Y466000D02*
D03*
X470000D02*
D03*
X480000Y476000D02*
D03*
X342500Y161500D02*
D03*
D63*
X400000Y296000D02*
D03*
X390000D02*
D03*
X200000Y280000D02*
D03*
X190000D02*
D03*
X178000Y264500D02*
D03*
X200000Y260000D02*
D03*
X400000Y210000D02*
D03*
X390000D02*
D03*
X130000Y406000D02*
D03*
X470000Y476000D02*
D03*
X342500Y171500D02*
D03*
D64*
X168000Y239500D02*
D03*
X245000Y228000D02*
D03*
D65*
X120000Y248000D02*
D03*
D66*
X129800D02*
D03*
D67*
X148000Y190500D02*
D03*
X128000Y180500D02*
D03*
D68*
X178000D02*
D03*
D69*
X277500Y112000D02*
D03*
X308500D02*
D03*
D70*
X435492Y287000D02*
D03*
X442392Y284000D02*
D03*
X449500Y283063D02*
D03*
X457000Y279000D02*
D03*
X465250Y287059D02*
D03*
X480161Y292000D02*
D03*
X452000Y481500D02*
D03*
X452653Y468000D02*
D03*
X357862Y394500D02*
D03*
X348801Y378500D02*
D03*
X334000Y363699D02*
D03*
X320000Y359598D02*
D03*
X309500Y358998D02*
D03*
X297103Y356500D02*
D03*
X285000Y354296D02*
D03*
X274500Y353696D02*
D03*
X264405Y353500D02*
D03*
X255000Y334000D02*
D03*
X158500Y415671D02*
D03*
X160912Y398500D02*
D03*
X405000Y120000D02*
D03*
X401500D02*
D03*
X398000D02*
D03*
X394500D02*
D03*
X391000D02*
D03*
X387500D02*
D03*
X384000D02*
D03*
X380500D02*
D03*
X312500Y180000D02*
D03*
X292000Y188500D02*
D03*
X298795Y186500D02*
D03*
X291500Y235000D02*
D03*
X301354Y164000D02*
D03*
X144500Y270000D02*
D03*
X158000Y281500D02*
D03*
X295000Y154500D02*
D03*
X300000D02*
D03*
X304500D02*
D03*
X305500Y206000D02*
D03*
X372000Y166000D02*
D03*
X223500Y215000D02*
D03*
X169500D02*
D03*
X148240Y342500D02*
D03*
Y298500D02*
D03*
X112733Y276233D02*
D03*
M02*
