G04 Layer_Physical_Order=2*
G04 Layer_Color=16711680*
%FSLAX25Y25*%
%MOIN*%
G70*
G01*
G75*
%ADD10C,0.01000*%
%ADD17R,0.05118X0.05906*%
%ADD18R,0.03500X0.03500*%
%ADD25C,0.01400*%
%ADD26C,0.01800*%
%ADD29R,0.09500X0.09500*%
%ADD30C,0.09500*%
%ADD31C,0.05906*%
%ADD32R,0.05906X0.05906*%
%ADD33R,0.05906X0.05906*%
%ADD34R,0.04800X0.04800*%
%ADD35C,0.04800*%
%ADD36C,0.06000*%
%ADD37R,0.06000X0.06000*%
%ADD38R,0.09500X0.09500*%
%ADD39C,0.03100*%
%ADD40R,0.04331X0.03937*%
%ADD41R,0.00500X0.20000*%
%ADD42R,0.28000X0.39000*%
G36*
X182500Y367500D02*
Y276105D01*
X182038Y275913D01*
X181233Y276718D01*
Y293000D01*
X181101Y293663D01*
X180726Y294226D01*
X176226Y298726D01*
X175663Y299101D01*
X175000Y299233D01*
X156500D01*
X155837Y299101D01*
X155274Y298726D01*
X149782Y293233D01*
X129750D01*
Y297250D01*
X118250D01*
Y293233D01*
X115218D01*
X112733Y295718D01*
Y332782D01*
X114718Y334767D01*
X118250D01*
Y330750D01*
X129750D01*
Y342250D01*
X118250D01*
Y338233D01*
X114000D01*
X113337Y338101D01*
X112774Y337726D01*
X110462Y335413D01*
X110000Y335605D01*
Y367500D01*
X115000Y372500D01*
X177500D01*
X182500Y367500D01*
D02*
G37*
G36*
X177767Y292282D02*
Y276000D01*
X177899Y275337D01*
X178274Y274774D01*
X182500Y270549D01*
Y216937D01*
X171191D01*
X170495Y217402D01*
X169500Y217600D01*
X168505Y217402D01*
X167662Y216839D01*
X167098Y215995D01*
X166900Y215000D01*
X167098Y214005D01*
X167662Y213161D01*
X168505Y212598D01*
X169500Y212400D01*
X170495Y212598D01*
X171191Y213063D01*
X182500D01*
Y162500D01*
X187500Y157500D01*
X250000D01*
Y168500D01*
Y168971D01*
X308000D01*
X308585Y169087D01*
X309081Y169419D01*
X313581Y173919D01*
X313913Y174415D01*
X314029Y175000D01*
Y177955D01*
X314338Y178162D01*
X314902Y179005D01*
X315100Y180000D01*
X314902Y180995D01*
X314338Y181838D01*
X313495Y182402D01*
X312500Y182600D01*
X311505Y182402D01*
X310662Y181838D01*
X310098Y180995D01*
X309900Y180000D01*
X310098Y179005D01*
X310662Y178162D01*
X310971Y177955D01*
Y175634D01*
X307366Y172029D01*
X250000D01*
Y217500D01*
X255000Y222500D01*
X263471D01*
Y197000D01*
X263587Y196415D01*
X263919Y195919D01*
X280419Y179419D01*
X280915Y179087D01*
X281500Y178971D01*
X296500D01*
X297085Y179087D01*
X297581Y179419D01*
X299877Y181714D01*
X300208Y182210D01*
X300325Y182795D01*
Y184455D01*
X300634Y184662D01*
X301197Y185505D01*
X301395Y186500D01*
X301197Y187495D01*
X300634Y188338D01*
X299790Y188902D01*
X298795Y189100D01*
X297800Y188902D01*
X296957Y188338D01*
X296393Y187495D01*
X296195Y186500D01*
X296393Y185505D01*
X296957Y184662D01*
X297266Y184455D01*
Y183429D01*
X295866Y182029D01*
X282134D01*
X266529Y197634D01*
Y222500D01*
X289971D01*
Y214953D01*
X287876D01*
Y207047D01*
X289971D01*
Y206469D01*
X288473D01*
Y200532D01*
X289971D01*
Y190053D01*
X289598Y189495D01*
X289400Y188500D01*
X289598Y187505D01*
X290161Y186662D01*
X291005Y186098D01*
X292000Y185900D01*
X292995Y186098D01*
X293839Y186662D01*
X294402Y187505D01*
X294600Y188500D01*
X294402Y189495D01*
X293839Y190338D01*
X293029Y190879D01*
Y200178D01*
X293383Y200532D01*
X294665D01*
X294803Y200532D01*
X294984D01*
X295165D01*
X295303Y200532D01*
X297831D01*
Y203500D01*
Y206469D01*
X295303D01*
X295165Y206469D01*
X294984D01*
X294803D01*
X294665Y206469D01*
X293511D01*
X293304Y206968D01*
X293383Y207047D01*
X294856D01*
X294994Y207047D01*
X295175D01*
X295356D01*
X295494Y207047D01*
X298415D01*
Y211000D01*
Y214953D01*
X295494D01*
X295356Y214953D01*
X295175D01*
X294994D01*
X294856Y214953D01*
X293029D01*
Y222500D01*
X315000D01*
X317500Y220000D01*
Y215000D01*
Y180000D01*
X320000Y177500D01*
X370267D01*
Y167909D01*
X370162Y167838D01*
X369598Y166995D01*
X369400Y166000D01*
X369598Y165005D01*
X370162Y164162D01*
X371005Y163598D01*
X372000Y163400D01*
X372995Y163598D01*
X373838Y164162D01*
X374402Y165005D01*
X374600Y166000D01*
X374402Y166995D01*
X373838Y167838D01*
X373733Y167909D01*
Y177500D01*
X427500D01*
X430000Y175000D01*
Y159250D01*
X422250D01*
Y147750D01*
X430000D01*
Y145566D01*
X429584Y145288D01*
X429501Y145323D01*
X428500Y145454D01*
Y139720D01*
Y133987D01*
X429501Y134118D01*
X429584Y134153D01*
X430000Y133875D01*
Y112500D01*
X427500Y110000D01*
X337500D01*
X332500Y115000D01*
Y125000D01*
X330000Y127500D01*
X115000D01*
X110000Y132500D01*
Y188645D01*
X110182Y188764D01*
X110500Y188837D01*
X119919Y179419D01*
X120415Y179087D01*
X121000Y178971D01*
X124304D01*
X124506Y178483D01*
X125147Y177647D01*
X125983Y177006D01*
X126956Y176603D01*
X128000Y176465D01*
X129044Y176603D01*
X130017Y177006D01*
X130853Y177647D01*
X131494Y178483D01*
X131897Y179456D01*
X132035Y180500D01*
X131897Y181544D01*
X131494Y182517D01*
X130853Y183353D01*
X130017Y183994D01*
X129044Y184397D01*
X128000Y184535D01*
X126956Y184397D01*
X125983Y183994D01*
X125147Y183353D01*
X124506Y182517D01*
X124304Y182029D01*
X121634D01*
X113029Y190633D01*
Y233366D01*
X117633Y237971D01*
X164047D01*
Y235547D01*
X171953D01*
Y243453D01*
X164047D01*
Y241029D01*
X117000D01*
X116512Y240932D01*
X116415Y240913D01*
X115919Y240581D01*
X110500Y235163D01*
X110182Y235236D01*
X110000Y235355D01*
Y292895D01*
X110462Y293087D01*
X113274Y290274D01*
X113837Y289899D01*
X114500Y289767D01*
X118250D01*
Y285750D01*
X129750D01*
Y289767D01*
X150500D01*
X151163Y289899D01*
X151726Y290274D01*
X157218Y295767D01*
X174282D01*
X177767Y292282D01*
D02*
G37*
%LPC*%
G36*
X305000Y205500D02*
X302999D01*
X303098Y205005D01*
X303661Y204162D01*
X304505Y203598D01*
X305000Y203500D01*
Y205500D01*
D02*
G37*
G36*
X301496Y203000D02*
X298831D01*
Y200532D01*
X301496D01*
Y203000D01*
D02*
G37*
G36*
X119500Y209221D02*
X114266D01*
X114398Y208219D01*
X114977Y206821D01*
X115899Y205620D01*
X117100Y204698D01*
X118499Y204118D01*
X119500Y203987D01*
Y209221D01*
D02*
G37*
G36*
X308000Y205500D02*
X306000D01*
Y203500D01*
X306495Y203598D01*
X307339Y204162D01*
X307902Y205005D01*
X308000Y205500D01*
D02*
G37*
G36*
X148000Y194535D02*
X146956Y194397D01*
X145983Y193994D01*
X145147Y193353D01*
X144506Y192517D01*
X144103Y191544D01*
X143965Y190500D01*
X144103Y189456D01*
X144506Y188483D01*
X145147Y187647D01*
X145983Y187006D01*
X146956Y186603D01*
X148000Y186466D01*
X149044Y186603D01*
X150017Y187006D01*
X150853Y187647D01*
X151494Y188483D01*
X151897Y189456D01*
X152034Y190500D01*
X151897Y191544D01*
X151494Y192517D01*
X150853Y193353D01*
X150017Y193994D01*
X149044Y194397D01*
X148000Y194535D01*
D02*
G37*
G36*
X182000Y180000D02*
X178500D01*
Y176500D01*
X182000D01*
Y180000D01*
D02*
G37*
G36*
X177500Y239000D02*
X174079D01*
X174149Y238468D01*
X174547Y237507D01*
X175181Y236681D01*
X176006Y236047D01*
X176968Y235649D01*
X177500Y235579D01*
Y239000D01*
D02*
G37*
G36*
X182000Y184500D02*
X178500D01*
Y181000D01*
X182000D01*
Y184500D01*
D02*
G37*
G36*
X177500D02*
X174000D01*
Y181000D01*
X177500D01*
Y184500D01*
D02*
G37*
G36*
X119500Y215454D02*
X118499Y215322D01*
X117100Y214743D01*
X115899Y213821D01*
X114977Y212620D01*
X114398Y211222D01*
X114266Y210221D01*
X119500D01*
Y215454D01*
D02*
G37*
G36*
X302474Y210500D02*
X299415D01*
Y207047D01*
X302474D01*
Y210500D01*
D02*
G37*
G36*
X299415Y214953D02*
Y211500D01*
X302474D01*
Y214953D01*
X299415D01*
D02*
G37*
G36*
X120500Y215454D02*
Y210221D01*
X125734D01*
X125602Y211222D01*
X125023Y212620D01*
X124101Y213821D01*
X122900Y214743D01*
X121501Y215322D01*
X120500Y215454D01*
D02*
G37*
G36*
X306000Y208501D02*
Y206500D01*
X308000D01*
X307902Y206995D01*
X307339Y207839D01*
X306495Y208402D01*
X306000Y208501D01*
D02*
G37*
G36*
X125750Y229250D02*
X114250D01*
Y217750D01*
X125750D01*
Y229250D01*
D02*
G37*
G36*
X125734Y209221D02*
X120500D01*
Y203987D01*
X121501Y204118D01*
X122900Y204698D01*
X124101Y205620D01*
X125023Y206821D01*
X125602Y208219D01*
X125734Y209221D01*
D02*
G37*
G36*
X305000Y208501D02*
X304505Y208402D01*
X303661Y207839D01*
X303098Y206995D01*
X302999Y206500D01*
X305000D01*
Y208501D01*
D02*
G37*
G36*
X298831Y206469D02*
Y204000D01*
X301496D01*
Y206469D01*
X298831D01*
D02*
G37*
G36*
X299500Y157001D02*
X299005Y156902D01*
X298162Y156338D01*
X297801Y155798D01*
X297199D01*
X296838Y156338D01*
X295995Y156902D01*
X295500Y157001D01*
Y154500D01*
Y151999D01*
X295995Y152098D01*
X296838Y152662D01*
X297199Y153202D01*
X297801D01*
X298162Y152662D01*
X299005Y152098D01*
X299500Y151999D01*
Y154500D01*
Y157001D01*
D02*
G37*
G36*
X305000D02*
Y155000D01*
X307000D01*
X306902Y155495D01*
X306339Y156338D01*
X305495Y156902D01*
X305000Y157001D01*
D02*
G37*
G36*
X342000Y161000D02*
X338579D01*
X338649Y160468D01*
X339047Y159507D01*
X339681Y158681D01*
X340507Y158047D01*
X341468Y157649D01*
X342000Y157579D01*
Y161000D01*
D02*
G37*
G36*
X304000Y157001D02*
X303505Y156902D01*
X302661Y156338D01*
X302500Y156097D01*
X302000D01*
X301838Y156338D01*
X300995Y156902D01*
X300500Y157001D01*
Y154500D01*
Y151999D01*
X300995Y152098D01*
X301838Y152662D01*
X302000Y152903D01*
X302500D01*
X302661Y152662D01*
X303505Y152098D01*
X304000Y151999D01*
Y154500D01*
Y157001D01*
D02*
G37*
G36*
X294500D02*
X294005Y156902D01*
X293162Y156338D01*
X292598Y155495D01*
X292499Y155000D01*
X294500D01*
Y157001D01*
D02*
G37*
G36*
X427500Y145454D02*
X426499Y145323D01*
X425100Y144743D01*
X423899Y143821D01*
X422977Y142620D01*
X422398Y141221D01*
X422266Y140220D01*
X427500D01*
Y145454D01*
D02*
G37*
G36*
Y139220D02*
X422266D01*
X422398Y138219D01*
X422977Y136821D01*
X423899Y135619D01*
X425100Y134698D01*
X426499Y134118D01*
X427500Y133987D01*
Y139220D01*
D02*
G37*
G36*
X307000Y154000D02*
X305000D01*
Y151999D01*
X305495Y152098D01*
X306339Y152662D01*
X306902Y153505D01*
X307000Y154000D01*
D02*
G37*
G36*
X294500D02*
X292499D01*
X292598Y153505D01*
X293162Y152662D01*
X294005Y152098D01*
X294500Y151999D01*
Y154000D01*
D02*
G37*
G36*
X301854Y166500D02*
Y164500D01*
X303855D01*
X303756Y164995D01*
X303193Y165838D01*
X302349Y166402D01*
X301854Y166500D01*
D02*
G37*
G36*
X300854D02*
X300359Y166402D01*
X299516Y165838D01*
X298952Y164995D01*
X298854Y164500D01*
X300854D01*
Y166500D01*
D02*
G37*
G36*
X177500Y180000D02*
X174000D01*
Y176500D01*
X177500D01*
Y180000D01*
D02*
G37*
G36*
X346453Y175453D02*
X338547D01*
Y167547D01*
X346453D01*
Y175453D01*
D02*
G37*
G36*
X343000Y165421D02*
Y162000D01*
X346421D01*
X346351Y162532D01*
X345953Y163493D01*
X345319Y164319D01*
X344493Y164953D01*
X343532Y165351D01*
X343000Y165421D01*
D02*
G37*
G36*
X300854Y163500D02*
X298854D01*
X298952Y163005D01*
X299516Y162162D01*
X300359Y161598D01*
X300854Y161500D01*
Y163500D01*
D02*
G37*
G36*
X346421Y161000D02*
X343000D01*
Y157579D01*
X343532Y157649D01*
X344493Y158047D01*
X345319Y158681D01*
X345953Y159507D01*
X346351Y160468D01*
X346421Y161000D01*
D02*
G37*
G36*
X342000Y165421D02*
X341468Y165351D01*
X340507Y164953D01*
X339681Y164319D01*
X339047Y163493D01*
X338649Y162532D01*
X338579Y162000D01*
X342000D01*
Y165421D01*
D02*
G37*
G36*
X303855Y163500D02*
X301854D01*
Y161500D01*
X302349Y161598D01*
X303193Y162162D01*
X303756Y163005D01*
X303855Y163500D01*
D02*
G37*
G36*
X129734Y318559D02*
X124500D01*
Y313325D01*
X125501Y313457D01*
X126900Y314036D01*
X128101Y314958D01*
X129023Y316159D01*
X129602Y317558D01*
X129734Y318559D01*
D02*
G37*
G36*
X123500D02*
X118266D01*
X118398Y317558D01*
X118977Y316159D01*
X119899Y314958D01*
X121100Y314036D01*
X122499Y313457D01*
X123500Y313325D01*
Y318559D01*
D02*
G37*
G36*
X124500Y324793D02*
Y319559D01*
X129734D01*
X129602Y320560D01*
X129023Y321959D01*
X128101Y323160D01*
X126900Y324082D01*
X125501Y324661D01*
X124500Y324793D01*
D02*
G37*
G36*
X123500D02*
X122499Y324661D01*
X121100Y324082D01*
X119899Y323160D01*
X118977Y321959D01*
X118398Y320560D01*
X118266Y319559D01*
X123500D01*
Y324793D01*
D02*
G37*
G36*
X124000Y311079D02*
X122499Y310881D01*
X121100Y310302D01*
X119899Y309381D01*
X118977Y308179D01*
X118398Y306781D01*
X118200Y305279D01*
X118398Y303779D01*
X118977Y302380D01*
X119899Y301179D01*
X121100Y300257D01*
X122499Y299677D01*
X124000Y299480D01*
X125501Y299677D01*
X126900Y300257D01*
X128101Y301179D01*
X129023Y302380D01*
X129602Y303779D01*
X129800Y305279D01*
X129602Y306781D01*
X129023Y308179D01*
X128101Y309381D01*
X126900Y310302D01*
X125501Y310881D01*
X124000Y311079D01*
D02*
G37*
G36*
X150741Y298000D02*
X148740D01*
Y296000D01*
X149235Y296098D01*
X150079Y296661D01*
X150642Y297505D01*
X150741Y298000D01*
D02*
G37*
G36*
X147740D02*
X145740D01*
X145838Y297505D01*
X146402Y296661D01*
X147245Y296098D01*
X147740Y296000D01*
Y298000D01*
D02*
G37*
G36*
X148740Y301000D02*
Y299000D01*
X150741D01*
X150642Y299495D01*
X150079Y300339D01*
X149235Y300902D01*
X148740Y301000D01*
D02*
G37*
G36*
X147740D02*
X147245Y300902D01*
X146402Y300339D01*
X145838Y299495D01*
X145740Y299000D01*
X147740D01*
Y301000D01*
D02*
G37*
G36*
X129734Y363559D02*
X124500D01*
Y358325D01*
X125501Y358457D01*
X126900Y359036D01*
X128101Y359958D01*
X129023Y361159D01*
X129602Y362558D01*
X129734Y363559D01*
D02*
G37*
G36*
X123500D02*
X118266D01*
X118398Y362558D01*
X118977Y361159D01*
X119899Y359958D01*
X121100Y359036D01*
X122499Y358457D01*
X123500Y358325D01*
Y363559D01*
D02*
G37*
G36*
X124500Y369793D02*
Y364559D01*
X129734D01*
X129602Y365560D01*
X129023Y366959D01*
X128101Y368160D01*
X126900Y369082D01*
X125501Y369661D01*
X124500Y369793D01*
D02*
G37*
G36*
X123500Y369793D02*
X122499Y369661D01*
X121100Y369082D01*
X119899Y368160D01*
X118977Y366959D01*
X118398Y365560D01*
X118266Y364559D01*
X123500D01*
Y369793D01*
D02*
G37*
G36*
X124000Y356079D02*
X122499Y355882D01*
X121100Y355302D01*
X119899Y354380D01*
X118977Y353179D01*
X118398Y351781D01*
X118200Y350279D01*
X118398Y348779D01*
X118977Y347380D01*
X119899Y346179D01*
X121100Y345257D01*
X122499Y344677D01*
X124000Y344480D01*
X125501Y344677D01*
X126900Y345257D01*
X128101Y346179D01*
X129023Y347380D01*
X129602Y348779D01*
X129800Y350279D01*
X129602Y351781D01*
X129023Y353179D01*
X128101Y354380D01*
X126900Y355302D01*
X125501Y355882D01*
X124000Y356079D01*
D02*
G37*
G36*
X150741Y342000D02*
X148740D01*
Y340000D01*
X149235Y340098D01*
X150079Y340662D01*
X150642Y341505D01*
X150741Y342000D01*
D02*
G37*
G36*
X147740D02*
X145740D01*
X145838Y341505D01*
X146402Y340662D01*
X147245Y340098D01*
X147740Y340000D01*
Y342000D01*
D02*
G37*
G36*
X148740Y345001D02*
Y343000D01*
X150741D01*
X150642Y343495D01*
X150079Y344338D01*
X149235Y344902D01*
X148740Y345001D01*
D02*
G37*
G36*
X147740D02*
X147245Y344902D01*
X146402Y344338D01*
X145838Y343495D01*
X145740Y343000D01*
X147740D01*
Y345001D01*
D02*
G37*
G36*
X181921Y254000D02*
X178500D01*
Y250579D01*
X179032Y250649D01*
X179993Y251047D01*
X180819Y251681D01*
X181453Y252507D01*
X181851Y253468D01*
X181921Y254000D01*
D02*
G37*
G36*
X177500D02*
X174079D01*
X174149Y253468D01*
X174547Y252507D01*
X175181Y251681D01*
X176007Y251047D01*
X176968Y250649D01*
X177500Y250579D01*
Y254000D01*
D02*
G37*
G36*
X178500Y258421D02*
Y255000D01*
X181921D01*
X181851Y255532D01*
X181453Y256493D01*
X180819Y257319D01*
X179993Y257953D01*
X179032Y258351D01*
X178500Y258421D01*
D02*
G37*
G36*
X177500D02*
X176968Y258351D01*
X176007Y257953D01*
X175181Y257319D01*
X174547Y256493D01*
X174149Y255532D01*
X174079Y255000D01*
X177500D01*
Y258421D01*
D02*
G37*
G36*
X123400Y251400D02*
X116600D01*
Y244600D01*
X123400D01*
Y251400D01*
D02*
G37*
G36*
X177500Y243421D02*
X176968Y243351D01*
X176006Y242953D01*
X175181Y242319D01*
X174547Y241493D01*
X174149Y240532D01*
X174079Y240000D01*
X177500D01*
Y243421D01*
D02*
G37*
G36*
X181921Y239000D02*
X178500D01*
Y235579D01*
X179032Y235649D01*
X179993Y236047D01*
X180819Y236681D01*
X181453Y237507D01*
X181851Y238468D01*
X181921Y239000D01*
D02*
G37*
G36*
X129800Y251429D02*
X128912Y251312D01*
X128085Y250970D01*
X127375Y250425D01*
X126830Y249715D01*
X126488Y248888D01*
X126371Y248000D01*
X126488Y247112D01*
X126830Y246285D01*
X127375Y245575D01*
X128085Y245030D01*
X128912Y244688D01*
X129800Y244571D01*
X130688Y244688D01*
X131515Y245030D01*
X132225Y245575D01*
X132770Y246285D01*
X133113Y247112D01*
X133229Y248000D01*
X133113Y248888D01*
X132770Y249715D01*
X132225Y250425D01*
X131515Y250970D01*
X130688Y251312D01*
X129800Y251429D01*
D02*
G37*
G36*
X178500Y243421D02*
Y240000D01*
X181921D01*
X181851Y240532D01*
X181453Y241493D01*
X180819Y242319D01*
X179993Y242953D01*
X179032Y243351D01*
X178500Y243421D01*
D02*
G37*
G36*
X160501Y281000D02*
X158500D01*
Y278999D01*
X158995Y279098D01*
X159838Y279661D01*
X160402Y280505D01*
X160501Y281000D01*
D02*
G37*
G36*
X157500D02*
X155499D01*
X155598Y280505D01*
X156162Y279661D01*
X157005Y279098D01*
X157500Y278999D01*
Y281000D01*
D02*
G37*
G36*
X158500Y284000D02*
Y282000D01*
X160501D01*
X160402Y282495D01*
X159838Y283338D01*
X158995Y283902D01*
X158500Y284000D01*
D02*
G37*
G36*
X157500D02*
X157005Y283902D01*
X156162Y283338D01*
X155598Y282495D01*
X155499Y282000D01*
X157500D01*
Y284000D01*
D02*
G37*
G36*
X145000Y272500D02*
Y270500D01*
X147001D01*
X146902Y270995D01*
X146338Y271838D01*
X145495Y272402D01*
X145000Y272500D01*
D02*
G37*
G36*
X144000Y269500D02*
X141999D01*
X142098Y269005D01*
X142662Y268162D01*
X143505Y267598D01*
X144000Y267499D01*
Y269500D01*
D02*
G37*
G36*
X181953Y268453D02*
X174047D01*
Y260547D01*
X181953D01*
Y268453D01*
D02*
G37*
G36*
X144000Y272500D02*
X143505Y272402D01*
X142662Y271838D01*
X142098Y270995D01*
X141999Y270500D01*
X144000D01*
Y272500D01*
D02*
G37*
G36*
X147001Y269500D02*
X145000D01*
Y267499D01*
X145495Y267598D01*
X146338Y268162D01*
X146902Y269005D01*
X147001Y269500D01*
D02*
G37*
%LPD*%
D10*
X484453Y466000D02*
G03*
X484453Y466000I-4453J0D01*
G01*
Y446000D02*
G03*
X484453Y446000I-4453J0D01*
G01*
Y456000D02*
G03*
X484453Y456000I-4453J0D01*
G01*
Y476000D02*
G03*
X484453Y476000I-4453J0D01*
G01*
X474453Y466000D02*
G03*
X474453Y466000I-4453J0D01*
G01*
Y456000D02*
G03*
X474453Y456000I-4453J0D01*
G01*
Y446000D02*
G03*
X474453Y446000I-4453J0D01*
G01*
X484453Y436000D02*
G03*
X484453Y436000I-4453J0D01*
G01*
Y426000D02*
G03*
X484453Y426000I-4453J0D01*
G01*
Y416000D02*
G03*
X484453Y416000I-4453J0D01*
G01*
Y406000D02*
G03*
X484453Y406000I-4453J0D01*
G01*
X474453Y436000D02*
G03*
X466129Y438200I-4453J0D01*
G01*
Y433800D02*
G03*
X474453Y436000I3871J2200D01*
G01*
Y426000D02*
G03*
X474453Y426000I-4453J0D01*
G01*
Y416000D02*
G03*
X474453Y416000I-4453J0D01*
G01*
Y406000D02*
G03*
X474453Y406000I-4453J0D01*
G01*
X455703Y468000D02*
G03*
X455703Y468000I-3050J0D01*
G01*
X455050Y481500D02*
G03*
X455050Y481500I-3050J0D01*
G01*
X404453Y386000D02*
G03*
X404453Y386000I-4453J0D01*
G01*
Y376000D02*
G03*
X404453Y376000I-4453J0D01*
G01*
Y366000D02*
G03*
X404453Y366000I-4453J0D01*
G01*
X483211Y292000D02*
G03*
X483211Y292000I-3050J0D01*
G01*
X468300Y287059D02*
G03*
X468300Y287059I-3050J0D01*
G01*
X438542Y287000D02*
G03*
X438542Y287000I-3050J0D01*
G01*
X445442Y284000D02*
G03*
X445442Y284000I-3050J0D01*
G01*
X452550Y283063D02*
G03*
X452550Y283063I-3050J0D01*
G01*
X460050Y279000D02*
G03*
X460050Y279000I-3050J0D01*
G01*
X404453Y356000D02*
G03*
X404453Y356000I-4453J0D01*
G01*
Y346000D02*
G03*
X404453Y346000I-4453J0D01*
G01*
Y336000D02*
G03*
X404453Y336000I-4453J0D01*
G01*
Y326000D02*
G03*
X404453Y326000I-4453J0D01*
G01*
Y316000D02*
G03*
X404453Y316000I-4453J0D01*
G01*
Y306000D02*
G03*
X404453Y306000I-4453J0D01*
G01*
Y270000D02*
G03*
X404453Y270000I-4453J0D01*
G01*
Y240000D02*
G03*
X404453Y240000I-4453J0D01*
G01*
Y280000D02*
G03*
X404453Y280000I-4453J0D01*
G01*
Y260000D02*
G03*
X404453Y260000I-4453J0D01*
G01*
Y230000D02*
G03*
X404453Y230000I-4453J0D01*
G01*
Y250000D02*
G03*
X404453Y250000I-4453J0D01*
G01*
Y220000D02*
G03*
X404453Y220000I-4453J0D01*
G01*
X360912Y394500D02*
G03*
X360912Y394500I-3050J0D01*
G01*
X394453Y386000D02*
G03*
X394453Y386000I-4453J0D01*
G01*
X161550Y415671D02*
G03*
X161550Y415671I-3050J0D01*
G01*
X163962Y398500D02*
G03*
X163962Y398500I-3050J0D01*
G01*
X134453Y466000D02*
G03*
X134453Y466000I-4453J0D01*
G01*
Y456000D02*
G03*
X134453Y456000I-4453J0D01*
G01*
Y476000D02*
G03*
X134453Y476000I-4453J0D01*
G01*
X133978Y448000D02*
G03*
X133978Y444000I-3978J-2000D01*
G01*
X134453Y436000D02*
G03*
X134453Y436000I-4453J0D01*
G01*
X124453Y476000D02*
G03*
X124453Y476000I-4453J0D01*
G01*
Y466000D02*
G03*
X124453Y466000I-4453J0D01*
G01*
Y456000D02*
G03*
X124453Y456000I-4453J0D01*
G01*
Y446000D02*
G03*
X124453Y446000I-4453J0D01*
G01*
X134453Y416000D02*
G03*
X134453Y416000I-4453J0D01*
G01*
Y426000D02*
G03*
X134453Y426000I-4453J0D01*
G01*
X124453Y436000D02*
G03*
X124453Y436000I-4453J0D01*
G01*
Y426000D02*
G03*
X124453Y426000I-4453J0D01*
G01*
Y416000D02*
G03*
X124453Y416000I-4453J0D01*
G01*
Y406000D02*
G03*
X124453Y406000I-4453J0D01*
G01*
X394453Y376000D02*
G03*
X394453Y376000I-4453J0D01*
G01*
Y366000D02*
G03*
X394453Y366000I-4453J0D01*
G01*
X351852Y378500D02*
G03*
X351852Y378500I-3050J0D01*
G01*
X394453Y356000D02*
G03*
X394453Y356000I-4453J0D01*
G01*
X394453Y336000D02*
G03*
X394453Y336000I-4453J0D01*
G01*
Y326000D02*
G03*
X394453Y326000I-4453J0D01*
G01*
Y346000D02*
G03*
X394453Y346000I-4453J0D01*
G01*
Y316000D02*
G03*
X394453Y316000I-4453J0D01*
G01*
X394453Y306000D02*
G03*
X394453Y306000I-4453J0D01*
G01*
X394453Y270000D02*
G03*
X394453Y270000I-4453J0D01*
G01*
Y280000D02*
G03*
X394453Y280000I-4453J0D01*
G01*
Y250000D02*
G03*
X394453Y250000I-4453J0D01*
G01*
Y240000D02*
G03*
X394453Y240000I-4453J0D01*
G01*
Y260000D02*
G03*
X394453Y260000I-4453J0D01*
G01*
Y230000D02*
G03*
X394453Y230000I-4453J0D01*
G01*
Y220000D02*
G03*
X394453Y220000I-4453J0D01*
G01*
X337050Y363699D02*
G03*
X337050Y363699I-3050J0D01*
G01*
X323050Y359598D02*
G03*
X323050Y359598I-3050J0D01*
G01*
X312550Y358998D02*
G03*
X312550Y358998I-3050J0D01*
G01*
X300153Y356500D02*
G03*
X300153Y356500I-3050J0D01*
G01*
X288050Y354296D02*
G03*
X288050Y354296I-3050J0D01*
G01*
X277550Y353696D02*
G03*
X277550Y353696I-3050J0D01*
G01*
X267455Y353500D02*
G03*
X267455Y353500I-3050J0D01*
G01*
X258050Y334000D02*
G03*
X258050Y334000I-3050J0D01*
G01*
X242500Y241200D02*
G03*
X240944Y240556I0J-2200D01*
G01*
X314056D02*
G03*
X312500Y241200I-1556J-1556D01*
G01*
X242500D02*
G03*
X240940Y240552I0J-2200D01*
G01*
X314059D02*
G03*
X312500Y241200I-1560J-1552D01*
G01*
X214453Y260000D02*
G03*
X210000Y264453I-4453J0D01*
G01*
X214453Y250000D02*
G03*
X210000Y254453I-4453J0D01*
G01*
Y255547D02*
G03*
X214453Y260000I0J4453D01*
G01*
X210000Y245547D02*
G03*
X214453Y250000I0J4453D01*
G01*
Y240000D02*
G03*
X210000Y244453I-4453J0D01*
G01*
X488000Y490000D02*
X490000Y488000D01*
X484051Y474152D02*
X490000Y480101D01*
X480150Y490000D02*
X490000Y480150D01*
X484448Y475803D02*
X490000Y470251D01*
X484452Y465900D02*
X490000Y460351D01*
X484127Y464328D02*
X490000Y470201D01*
X480432Y480432D02*
X489000Y489000D01*
X480339Y470440D02*
X481848Y471949D01*
X478567Y471784D02*
X479900Y470452D01*
X478715Y461737D02*
X479999Y460453D01*
X480245Y460446D02*
X481672Y461873D01*
X484189Y454491D02*
X490000Y460302D01*
X484453Y455999D02*
X490000Y450452D01*
X484452Y446101D02*
X490000Y440552D01*
X484284Y434787D02*
X490000Y440503D01*
X484241Y444643D02*
X490000Y450402D01*
X478856Y451697D02*
X480101Y450452D01*
X480149Y450450D02*
X481509Y451811D01*
X480050Y440452D02*
X481357Y441759D01*
X478990Y441663D02*
X480205Y440448D01*
X470553Y480453D02*
X480100Y490000D01*
X470251D02*
X479803Y480448D01*
X474453Y474453D02*
X475568Y475568D01*
X474453Y465999D02*
X475737Y464715D01*
X474453Y475899D02*
X475784Y474567D01*
X465547Y480453D02*
X474453D01*
Y471547D02*
Y480453D01*
X465547Y471547D02*
X474453D01*
X470432Y470432D02*
X471547Y471547D01*
X470000Y466000D02*
X473953D01*
X474051Y464151D02*
X475560Y465661D01*
X474452Y456101D02*
X475697Y454856D01*
X474448Y446205D02*
X475663Y444989D01*
X474189Y444491D02*
X475550Y445851D01*
X474127Y454328D02*
X475554Y455755D01*
X470339Y460440D02*
X471848Y461949D01*
X470245Y450446D02*
X471672Y451873D01*
X470149Y440450D02*
X471509Y441811D01*
X484448Y436205D02*
X490000Y430653D01*
X484321Y424924D02*
X490000Y430603D01*
X484442Y426312D02*
X490000Y420753D01*
X484351Y415055D02*
X490000Y420704D01*
X479950Y430452D02*
X481213Y431716D01*
X479847Y420450D02*
X481076Y421679D01*
X479118Y431636D02*
X480312Y430442D01*
X479242Y421612D02*
X480421Y420433D01*
X484433Y416421D02*
X490000Y410854D01*
X484377Y405181D02*
X490000Y410804D01*
X480000Y406000D02*
X483953D01*
X484421Y406534D02*
X490000Y400954D01*
X479477Y401578D02*
X490000Y391055D01*
X479742Y410445D02*
X480945Y411649D01*
X480000Y406000D02*
Y409953D01*
X479361Y411593D02*
X480534Y410421D01*
X480000Y402047D02*
Y406000D01*
X476047D02*
X480000D01*
X474442Y436312D02*
X475635Y435118D01*
X474433Y426421D02*
X475612Y425242D01*
X474284Y424787D02*
X475548Y426050D01*
X474241Y434643D02*
X475548Y435950D01*
X470050Y430452D02*
X471357Y431759D01*
X469242Y431612D02*
X470421Y430433D01*
X469950Y420452D02*
X471213Y421716D01*
X469361Y421593D02*
X470534Y420421D01*
X474421Y416534D02*
X475593Y415361D01*
X429500Y421856D02*
X490000Y361356D01*
X429500Y431756D02*
X490000Y371256D01*
X474405Y406650D02*
X475578Y405477D01*
X474351Y405055D02*
X475555Y406258D01*
X469589Y401566D02*
X490000Y381155D01*
X474321Y414924D02*
X475550Y416153D01*
X469847Y410450D02*
X471076Y411679D01*
X469477Y411578D02*
X470650Y410405D01*
X454055Y483754D02*
X460301Y490000D01*
X460351D02*
X469899Y480453D01*
X450452Y490000D02*
X465547Y474905D01*
Y471547D02*
Y480453D01*
X468905Y471547D02*
X469999Y470453D01*
X452653Y468000D02*
X455203D01*
X452000Y481500D02*
X454550D01*
X452000Y478950D02*
Y481500D01*
Y484050D01*
X452653Y468000D02*
Y470550D01*
X450103Y468000D02*
X452653D01*
X470000Y466000D02*
Y469953D01*
Y462047D02*
Y466000D01*
X466047D02*
X470000D01*
X468990Y451663D02*
X470205Y450448D01*
X469118Y441636D02*
X470312Y440442D01*
X468856Y461697D02*
X470101Y460452D01*
X452653Y465450D02*
Y468000D01*
X452101Y478452D02*
X465697Y464856D01*
X457999Y438200D02*
X465554Y445755D01*
X454810Y465843D02*
X465663Y454989D01*
X429500Y449299D02*
X470201Y490000D01*
X420753D02*
X465635Y445118D01*
X417902Y457500D02*
X450402Y490000D01*
X449450Y481500D02*
X452000D01*
X430653Y490000D02*
X450496Y470157D01*
X440552Y490000D02*
X448952Y481601D01*
X408003Y457500D02*
X440503Y490000D01*
X391055D02*
X423555Y457500D01*
X427802D02*
X449746Y479445D01*
X398500Y457500D02*
X429500D01*
Y439399D02*
X465547Y475447D01*
X410854Y490000D02*
X462654Y438200D01*
X400954Y490000D02*
X452754Y438200D01*
X446750D02*
Y439250D01*
X448099Y438200D02*
X465560Y455661D01*
X439250Y439250D02*
X465568Y465568D01*
X429500Y451555D02*
X441805Y439250D01*
X429500Y438000D02*
Y457500D01*
X398500Y415500D02*
Y457500D01*
X434250Y439250D02*
X440250D01*
X429500Y441655D02*
X433155Y438000D01*
X440750Y439250D02*
X446750D01*
Y438200D02*
X466129D01*
X440250Y439250D02*
X440750D01*
X446750Y433800D02*
X466129D01*
X440750Y432750D02*
X446750D01*
X440250D02*
X440750D01*
X440250Y439250D02*
X440750D01*
X434250Y438000D02*
Y439250D01*
X429500Y438000D02*
X434250D01*
X440250Y432750D02*
X440750D01*
X429500Y434000D02*
X434250D01*
X457154Y433800D02*
X465593Y425361D01*
X447255Y433800D02*
X465578Y415477D01*
X446750Y432750D02*
Y433800D01*
X438406Y432750D02*
X465566Y405589D01*
X404241Y364643D02*
X465548Y425950D01*
X404189Y374491D02*
X463498Y433800D01*
X434250Y432750D02*
Y434000D01*
X429500Y429500D02*
X434000Y434000D01*
X429500Y415500D02*
Y434000D01*
X434250Y432750D02*
X440250D01*
X429500Y419601D02*
X442649Y432750D01*
X400339Y390440D02*
X425399Y415500D01*
X404127Y384328D02*
X453599Y433800D01*
X398500Y415500D02*
X429500D01*
X400486Y381574D02*
X402174Y379886D01*
X390432Y390432D02*
X415500Y415500D01*
X393886Y388174D02*
X395574Y386486D01*
X394051Y384152D02*
X395560Y385661D01*
X390339Y380440D02*
X391848Y381949D01*
X400245Y380446D02*
X401672Y381873D01*
X390576Y381585D02*
X392428Y379732D01*
X400149Y370450D02*
X401509Y371811D01*
X400576Y371585D02*
X402428Y369732D01*
X400050Y360453D02*
X401357Y361759D01*
X393467Y368794D02*
X395597Y366664D01*
X393733Y378428D02*
X395585Y376576D01*
X394127Y374328D02*
X395554Y375755D01*
X390245Y370446D02*
X391672Y371873D01*
X394189Y364491D02*
X395550Y365851D01*
X390664Y371597D02*
X392794Y369467D01*
X425957Y415500D02*
X490000Y351457D01*
X416057Y415500D02*
X490000Y341558D01*
X406158Y415500D02*
X490000Y331658D01*
X482282Y294192D02*
X490000Y301910D01*
X467407Y289216D02*
X490000Y311809D01*
X437649Y289157D02*
X490000Y341508D01*
X480161Y292000D02*
Y294550D01*
Y292000D02*
X482711D01*
X477610D02*
X480161D01*
Y289450D02*
Y292000D01*
X465250Y287059D02*
X467800D01*
X452374Y284083D02*
X490000Y321709D01*
Y185500D02*
Y488000D01*
X444549Y286157D02*
X490000Y331608D01*
X462700Y287059D02*
X465250D01*
X482317Y289843D02*
X490000Y282161D01*
X465250Y287059D02*
Y289609D01*
X435492Y287000D02*
Y289550D01*
X465250Y284509D02*
Y287059D01*
X404398Y315302D02*
X490000Y400905D01*
X404415Y305420D02*
X490000Y391005D01*
X404377Y325181D02*
X480819Y401623D01*
X403997Y387963D02*
X490000Y301959D01*
X404453Y295558D02*
X490000Y381106D01*
X403886Y378174D02*
X490000Y292060D01*
X404321Y344924D02*
X465550Y406153D01*
X404351Y335055D02*
X470945Y401649D01*
X404284Y354787D02*
X465548Y416050D01*
X403732Y368428D02*
X478004Y294157D01*
X400751Y351611D02*
X463120Y289242D01*
X402487Y283693D02*
X490000Y371206D01*
X403467Y358794D02*
X490000Y272261D01*
X402427Y273733D02*
X490000Y361307D01*
X402365Y263773D02*
X490000Y351407D01*
X404453Y206463D02*
X490000Y292010D01*
X400836Y341626D02*
X490000Y252462D01*
X401083Y311681D02*
X490000Y222764D01*
X404453Y298411D02*
X490000Y212864D01*
X400919Y331643D02*
X447343Y285219D01*
X402543Y214453D02*
X477969Y289879D01*
X401417Y291547D02*
X490000Y202965D01*
X446950Y283063D02*
X449500D01*
X459250Y281059D02*
X463093Y284903D01*
X454450Y279000D02*
X457000D01*
Y281550D01*
X449500Y283063D02*
X452050D01*
X442392Y284000D02*
Y286550D01*
X449500Y283063D02*
Y285613D01*
X442392Y284000D02*
X444942D01*
X449500Y280513D02*
Y283063D01*
X442392Y281450D02*
Y284000D01*
X467433Y284929D02*
X490000Y262362D01*
X456584Y275978D02*
X490000Y242563D01*
X442887Y185500D02*
X490000Y232613D01*
X472585Y185500D02*
X490000Y202915D01*
X482485Y185500D02*
X490000Y193015D01*
X462686Y185500D02*
X490000Y212814D01*
X457000Y279000D02*
X459550D01*
X451657Y280906D02*
X453978Y278584D01*
X457000Y276450D02*
Y279000D01*
X452786Y185500D02*
X490000Y222714D01*
X439842Y284000D02*
X442392D01*
X441612Y281051D02*
X490000Y232663D01*
X402176Y233885D02*
X448480Y280188D01*
X404283Y278782D02*
X490000Y193065D01*
X413188Y185500D02*
X490000Y262312D01*
X402111Y223920D02*
X454941Y276750D01*
X435492Y287000D02*
X438042D01*
X435492Y284450D02*
Y287000D01*
X432942D02*
X435492D01*
X437733Y284930D02*
X439443Y283220D01*
X402240Y243848D02*
X440235Y281843D01*
X403289Y185500D02*
X490000Y272211D01*
X404305Y268861D02*
X487666Y185500D01*
X393389D02*
X490000Y282111D01*
X423088Y185500D02*
X490000Y252412D01*
X432987Y185500D02*
X490000Y242513D01*
X404305Y268861D02*
X487666Y185500D01*
X404344Y249022D02*
X467867Y185500D01*
X404362Y239105D02*
X457967Y185500D01*
X404325Y258941D02*
X477766Y185500D01*
X404393Y219275D02*
X438168Y185500D01*
X404378Y229189D02*
X448068Y185500D01*
X400664Y361597D02*
X402794Y359467D01*
X400000Y356000D02*
X403953D01*
X399950Y350452D02*
X401213Y351716D01*
X400000Y356000D02*
Y359953D01*
Y352047D02*
Y356000D01*
X396047D02*
X400000D01*
X399847Y340450D02*
X401076Y341679D01*
X399742Y330445D02*
X400945Y331649D01*
X401002Y321661D02*
X433423Y289240D01*
X401162Y301702D02*
X402411Y300453D01*
X404453Y291547D02*
Y300453D01*
X399634Y320438D02*
X400819Y321623D01*
X399522Y310427D02*
X400698Y311602D01*
X394398Y305302D02*
X395573Y306478D01*
X399448Y300453D02*
X400580Y301585D01*
X394453Y291547D02*
Y300453D01*
X390751Y361611D02*
X395611Y356751D01*
X394241Y354643D02*
X395548Y355950D01*
X390000Y356000D02*
X393953D01*
X394284Y344787D02*
X395548Y346050D01*
X390919Y341643D02*
X395643Y336919D01*
X390836Y351626D02*
X395626Y346836D01*
X390149Y360450D02*
X391509Y361811D01*
X390000Y356000D02*
Y359953D01*
Y352047D02*
Y356000D01*
X390050Y350452D02*
X391357Y351759D01*
X389950Y340453D02*
X391213Y341716D01*
X394321Y334924D02*
X395550Y336153D01*
X394351Y325055D02*
X395555Y326258D01*
X391002Y331661D02*
X395661Y327002D01*
X394377Y315181D02*
X395562Y316367D01*
X391162Y311702D02*
X395702Y307162D01*
X391083Y321681D02*
X395681Y317083D01*
X389847Y330450D02*
X391076Y331679D01*
X389742Y320445D02*
X390945Y321649D01*
X389633Y310438D02*
X390819Y311623D01*
X391241Y301724D02*
X392512Y300453D01*
X389548D02*
X390698Y301602D01*
X395547Y291547D02*
X404453D01*
X402303Y253811D02*
X433336Y284843D01*
X395547Y300453D02*
X404453D01*
X395547Y291547D02*
Y300453D01*
X394453Y295458D02*
X395547Y296552D01*
Y214453D02*
X404453D01*
Y205547D02*
Y214453D01*
X398322Y205547D02*
X418369Y185500D01*
X404453Y209316D02*
X428268Y185500D01*
X395547Y205547D02*
X404453D01*
X397338Y216431D02*
X399316Y214453D01*
X395547Y205547D02*
Y214453D01*
X394453Y205547D02*
Y214453D01*
Y206363D02*
X395547Y207457D01*
X394453Y209416D02*
X395547Y208322D01*
X394305Y278861D02*
X398861Y274305D01*
X394305Y278861D02*
X398861Y274305D01*
X392547Y283652D02*
X400442Y291547D01*
X394344Y259022D02*
X399022Y254344D01*
X394362Y249105D02*
X399105Y244362D01*
X394325Y268941D02*
X398941Y264325D01*
X394453Y298512D02*
X395547Y297417D01*
X392487Y273693D02*
X396307Y277513D01*
X391518Y291547D02*
X398782Y284283D01*
X392427Y263733D02*
X396267Y267573D01*
X392365Y253773D02*
X396227Y257635D01*
X392303Y243811D02*
X396189Y247697D01*
X394378Y239189D02*
X399189Y234378D01*
X392240Y233848D02*
X396152Y237760D01*
X394393Y229275D02*
X399275Y224393D01*
X394407Y219362D02*
X396431Y217338D01*
X388422Y205547D02*
X408469Y185500D01*
X392176Y223885D02*
X396115Y227824D01*
X392643Y214453D02*
X396080Y217889D01*
X387338Y226431D02*
X389362Y224407D01*
X393637Y205547D02*
X394453Y206363D01*
X387653Y216216D02*
X389416Y214453D01*
X351457Y490000D02*
X398500Y442957D01*
X214000Y441688D02*
X262312Y490000D01*
X214000Y451588D02*
X252412Y490000D01*
X371256D02*
X403756Y457500D01*
X381155Y490000D02*
X413656Y457500D01*
X361356Y490000D02*
X398500Y452856D01*
X183166Y490000D02*
X206666Y466500D01*
X189314D02*
X212814Y490000D01*
X183166D02*
X206665Y466500D01*
X209113D02*
X232613Y490000D01*
X214000Y461487D02*
X242513Y490000D01*
X199214Y466500D02*
X222714Y490000D01*
X292060D02*
X392174Y389886D01*
X282161Y490000D02*
X385585Y386576D01*
X262362Y490000D02*
X355705Y396657D01*
X341558Y490000D02*
X398500Y433057D01*
X331658Y490000D02*
X398500Y423158D01*
X301959Y490000D02*
X401963Y389997D01*
X195410Y383500D02*
X301910Y490000D01*
X203155Y381345D02*
X311809Y490000D01*
X185510Y383500D02*
X292010Y490000D01*
X214000Y424500D02*
Y466500D01*
Y431789D02*
X272211Y490000D01*
X163366D02*
X186866Y466500D01*
X173266Y490000D02*
X196766Y466500D01*
X120000Y490000D02*
X488000D01*
X183000Y466500D02*
X214000D01*
X172064Y449250D02*
X183000Y460186D01*
X153467Y490000D02*
X183000Y460467D01*
X132788Y459472D02*
X163317Y490000D01*
X143568D02*
X183000Y450567D01*
X132732Y449516D02*
X173216Y490000D01*
X171750Y449250D02*
X172250D01*
X171750D02*
X172250D01*
X160915Y448000D02*
X202915Y490000D01*
X175611Y383500D02*
X282111Y490000D01*
X151015Y448000D02*
X193015Y490000D01*
X180714Y448000D02*
X183000Y450286D01*
Y448000D02*
Y466500D01*
X141116Y448000D02*
X183116Y490000D01*
X133668D02*
X174418Y449250D01*
X172250D02*
X178250D01*
X123768Y490000D02*
X165750Y448019D01*
X178250Y448000D02*
Y449250D01*
X165750Y448000D02*
Y449250D01*
X178250Y448000D02*
X183000D01*
X178250Y444000D02*
X183000D01*
X171019Y442750D02*
X183000Y430768D01*
Y424500D02*
X186500D01*
X214000D01*
X183000D02*
X186500D01*
X178250Y442750D02*
Y444000D01*
X179668D02*
X183000Y440668D01*
X172250Y442750D02*
X178250D01*
X171750D02*
X172250D01*
X171750D02*
X172250D01*
X357951Y397549D02*
X398500Y438098D01*
X350958Y380657D02*
X398500Y428198D01*
X357862Y394500D02*
X360412D01*
X357862D02*
Y397050D01*
X183000Y424500D02*
Y444000D01*
X355312Y394500D02*
X357862D01*
X183000Y424500D02*
Y444000D01*
X357862Y391950D02*
Y394500D01*
X348801Y378500D02*
Y381050D01*
X165750Y449250D02*
X171750D01*
X134453Y401739D02*
X175464Y442750D01*
X133978Y444000D02*
X165750D01*
Y442750D02*
X171750D01*
X163069Y400657D02*
X186912Y424500D01*
X160546Y417933D02*
X183000Y440387D01*
X133978Y448000D02*
X165750D01*
Y442750D02*
Y444000D01*
X133267Y410453D02*
X165750Y442936D01*
X158500Y415671D02*
X161050D01*
X140070Y444000D02*
X200570Y383500D01*
X165711D02*
X206711Y424500D01*
X136013Y383500D02*
X183000Y430487D01*
X155812Y383500D02*
X196812Y424500D01*
X160657Y413514D02*
X190671Y383500D01*
X116000D02*
X201000D01*
X132227Y422144D02*
X170872Y383500D01*
X134453Y410019D02*
X160972Y383500D01*
X132163Y432108D02*
X180771Y383500D01*
X160912Y398500D02*
X163462D01*
X132898Y479380D02*
X143518Y490000D01*
X132844Y469426D02*
X153417Y490000D01*
X122952Y479334D02*
X133618Y490000D01*
X122898Y469380D02*
X126620Y473102D01*
X122844Y459426D02*
X126574Y463156D01*
X122032Y462038D02*
X126038Y458032D01*
X122788Y449472D02*
X126528Y453212D01*
X122098Y452072D02*
X126073Y448098D01*
X131965Y462004D02*
X145969Y448000D01*
X132559Y419644D02*
X156915Y444000D01*
X131897Y471972D02*
X155869Y448000D01*
X132675Y439560D02*
X137116Y444000D01*
X132617Y429602D02*
X147015Y444000D01*
X132098Y442072D02*
X156343Y417827D01*
X132032Y452038D02*
X136070Y448000D01*
X122732Y439516D02*
X126484Y443268D01*
X122163Y442108D02*
X126108Y438163D01*
X109000Y479000D02*
X120000Y490000D01*
X116935Y486935D02*
X125972Y477897D01*
X109000Y475281D02*
X123719Y490000D01*
X120000Y476000D02*
X123953D01*
X121965Y472004D02*
X126004Y467965D01*
X116047Y476000D02*
X120000D01*
Y479953D01*
X111985Y481985D02*
X116004Y477965D01*
X120000Y472047D02*
Y476000D01*
X109000Y475070D02*
X116038Y468032D01*
X109000Y465382D02*
X116666Y473048D01*
X109000Y455482D02*
X116620Y463102D01*
X109000Y445583D02*
X116574Y453156D01*
X109000Y465171D02*
X116072Y458098D01*
X109000Y455271D02*
X116108Y448163D01*
X109000Y390500D02*
Y479000D01*
Y435683D02*
X116528Y443212D01*
X109000Y445372D02*
X116144Y438227D01*
X158500Y415671D02*
Y418221D01*
X155950Y415671D02*
X158500D01*
Y413121D02*
Y415671D01*
X132290Y412182D02*
X134019Y410453D01*
X130000Y416000D02*
Y419953D01*
Y412047D02*
Y416000D01*
X122675Y429560D02*
X126441Y433325D01*
X130000Y416000D02*
X133953D01*
X126047D02*
X130000D01*
X160912Y398500D02*
Y401050D01*
X133025Y401547D02*
X151073Y383500D01*
X126113D02*
X156238Y413625D01*
X158362Y398500D02*
X160912D01*
Y395950D02*
Y398500D01*
X145912Y383500D02*
X158756Y396343D01*
X125547Y410453D02*
X134453D01*
Y401547D02*
Y410453D01*
X125547Y401547D02*
Y410453D01*
X134019D02*
X134453Y410019D01*
X125547Y401547D02*
X134453D01*
X122227Y432144D02*
X126144Y428227D01*
X122617Y419602D02*
X126398Y423383D01*
X122559Y409644D02*
X126356Y413441D01*
X122291Y422182D02*
X126182Y418291D01*
X109000Y425784D02*
X116484Y433268D01*
X109000Y425573D02*
X116220Y418353D01*
X109000Y435472D02*
X116182Y428291D01*
X109000Y415884D02*
X116440Y423325D01*
X122353Y412220D02*
X125547Y409025D01*
X109000Y405774D02*
X131274Y383500D01*
X116214D02*
X134261Y401547D01*
X122414Y402259D02*
X141173Y383500D01*
X111157Y388343D02*
X125547Y402733D01*
X109000Y405985D02*
X116398Y413382D01*
X109000Y396085D02*
X116356Y403441D01*
X109000Y415673D02*
X116259Y408414D01*
X109000Y390500D02*
X116000Y383500D01*
X109000Y395874D02*
X121374Y383500D01*
X322157Y361755D02*
X354813Y394411D01*
X311657Y361154D02*
X398500Y447998D01*
X272261Y490000D02*
X385597Y376664D01*
X360018Y392343D02*
X385611Y366751D01*
X346252Y378500D02*
X348801D01*
X351351D01*
X348801Y375950D02*
Y378500D01*
X336157Y365855D02*
X346645Y376343D01*
X287157Y356453D02*
X420704Y490000D01*
X287157Y356453D02*
X420704Y490000D01*
X276657Y355853D02*
X410804Y490000D01*
X321759D02*
X490000Y321759D01*
X311859Y490000D02*
X490000Y311859D01*
X299260Y358657D02*
X430603Y490000D01*
X252462D02*
X385626Y356836D01*
X266561Y355657D02*
X400905Y490000D01*
X251099Y241200D02*
X385560Y375661D01*
X260999Y241200D02*
X385554Y365755D01*
X212864Y490000D02*
X385702Y317162D01*
X210000Y308995D02*
X391005Y490000D01*
X202965D02*
X385724Y307241D01*
X232663Y490000D02*
X385661Y337002D01*
X222764Y490000D02*
X385681Y327083D01*
X214000Y459166D02*
X388861Y284305D01*
X210000Y338693D02*
X361307Y490000D01*
X210000Y328794D02*
X371206Y490000D01*
X210000Y348593D02*
X351407Y490000D01*
X242563D02*
X385643Y346919D01*
X210000Y318894D02*
X381106Y490000D01*
X214000Y449266D02*
X388941Y274325D01*
X209068Y424500D02*
X389189Y244378D01*
X199168Y424500D02*
X389275Y234393D01*
X220201Y240000D02*
X398500Y418299D01*
X230100Y240000D02*
X405601Y415500D01*
X210000Y374070D02*
X398570Y185500D01*
X214000Y459165D02*
X388861Y284305D01*
X159869Y444000D02*
X386216Y217653D01*
X149969Y444000D02*
X385547Y208422D01*
X240000Y240000D02*
X385568Y385568D01*
X210000Y364171D02*
X388671Y185500D01*
X386047Y356000D02*
X390000D01*
X385547Y300453D02*
X394453D01*
X385547Y291547D02*
Y300453D01*
Y291547D02*
X394453D01*
X383490Y185500D02*
X403537Y205547D01*
X370000Y185500D02*
X490000D01*
X385547Y214453D02*
X394453D01*
X385547Y205547D02*
Y214453D01*
Y205547D02*
X394453D01*
X373590Y185500D02*
X393637Y205547D01*
X299138Y354228D02*
X389022Y264344D01*
X300597Y241200D02*
X385550Y326153D01*
X287636Y355831D02*
X389105Y254362D01*
X317348Y238152D02*
X385562Y306366D01*
X327247Y228253D02*
X390542Y291547D01*
X310496Y241200D02*
X385555Y316258D01*
X323017Y360049D02*
X385547Y297518D01*
X280798Y241200D02*
X385547Y345950D01*
X270898Y241200D02*
X385550Y355851D01*
X322298Y233202D02*
X385547Y296452D01*
X290697Y241200D02*
X385547Y336050D01*
X332197Y223303D02*
X386348Y277453D01*
X337147Y218353D02*
X386307Y267513D01*
X262948Y350820D02*
X386431Y227338D01*
X347046Y208454D02*
X386227Y247635D01*
X351996Y203504D02*
X386189Y237697D01*
X342097Y213403D02*
X386267Y257573D01*
X356946Y198554D02*
X386152Y227760D01*
X315500Y240000D02*
X370000Y185500D01*
X210000Y354271D02*
X378771Y185500D01*
X366845Y188655D02*
X385547Y207357D01*
X361896Y193604D02*
X386115Y217824D01*
X334000Y363699D02*
Y366248D01*
Y363699D02*
X336550D01*
X331450D02*
X334000D01*
Y361149D02*
Y363699D01*
X320000Y359598D02*
X322550D01*
X317450D02*
X320000D01*
Y362148D01*
X309500Y358998D02*
Y361547D01*
Y358998D02*
X312050D01*
X306950D02*
X309500D01*
X320000Y357048D02*
Y359598D01*
X297103Y356500D02*
X299653D01*
X309500Y356448D02*
Y358998D01*
X294553Y356500D02*
X297103D01*
Y359050D01*
X285000Y354296D02*
Y356846D01*
X297103Y353950D02*
Y356500D01*
X285000Y351747D02*
Y354296D01*
X210000Y368392D02*
X331608Y490000D01*
X210000Y358492D02*
X341508Y490000D01*
X208104Y376396D02*
X321709Y490000D01*
X214000Y439366D02*
X294831Y358535D01*
X285000Y354296D02*
X287550D01*
X193065Y490000D02*
X320451Y362614D01*
X214000Y429467D02*
X286535Y356932D01*
X274500Y353696D02*
Y356246D01*
X201000Y383500D02*
X210000Y374500D01*
X282450Y354296D02*
X285000D01*
X271950Y353696D02*
X274500D01*
X213343Y252941D02*
X317843Y357441D01*
X213296Y242994D02*
X331843Y361542D01*
X213390Y262887D02*
X307343Y356841D01*
X210000Y269397D02*
X294946Y354343D01*
X210000Y264453D02*
Y374500D01*
X189269Y424500D02*
X261724Y352044D01*
X274500Y351146D02*
Y353696D01*
X264405Y353500D02*
Y356050D01*
X274500Y353696D02*
X277050D01*
X264405Y353500D02*
X266955D01*
X261855D02*
X264405D01*
Y350950D02*
Y353500D01*
X257056Y336252D02*
X272343Y351539D01*
X242500Y241200D02*
X312500D01*
X255000Y334000D02*
Y336550D01*
Y334000D02*
X257550D01*
X255000Y331450D02*
Y334000D01*
X252450D02*
X255000D01*
X314059Y240552D02*
X314611Y240000D01*
X315500D01*
X214357Y250919D02*
X225276Y240000D01*
X214381Y260794D02*
X235176Y240000D01*
X214327Y241049D02*
X215377Y240000D01*
X240389D02*
X240940Y240552D01*
X214453Y240000D02*
X240389D01*
X210000Y299095D02*
X262248Y351343D01*
X210000Y279296D02*
X282843Y352140D01*
X210000Y279296D02*
X282843Y352140D01*
X210000Y289196D02*
X252748Y331943D01*
X210000Y254453D02*
Y255547D01*
Y265176D02*
X210794Y264381D01*
X210000Y255276D02*
X210919Y254357D01*
X210000Y334472D02*
X303272Y241200D01*
X210000Y324573D02*
X293373Y241200D01*
X210000Y344372D02*
X313337Y241035D01*
X210000Y304774D02*
X273574Y241200D01*
X210000Y294874D02*
X263674Y241200D01*
X210000Y314673D02*
X283473Y241200D01*
X210000Y244453D02*
Y245547D01*
Y275075D02*
X243875Y241200D01*
X210000Y284975D02*
X253775Y241200D01*
X210000Y245377D02*
X211049Y244327D01*
X121000Y180500D02*
X128000D01*
X111500Y190000D02*
X121000Y180500D01*
X111500Y190000D02*
Y234000D01*
X117000Y239500D01*
X168000D01*
X291500Y189000D02*
X292000Y188500D01*
X291500Y189000D02*
Y235000D01*
X298795Y182795D02*
Y186500D01*
X296500Y180500D02*
X298795Y182795D01*
X265000Y197000D02*
Y228000D01*
Y197000D02*
X281500Y180500D01*
X296500D01*
X312500Y175000D02*
Y180000D01*
X308000Y170500D02*
X312500Y175000D01*
X246000Y170500D02*
X308000D01*
X222000Y194500D02*
X246000Y170500D01*
X205500Y194500D02*
X222000D01*
X200000Y200000D02*
X205500Y194500D01*
X130000Y446000D02*
X169000D01*
X175000D02*
X185000D01*
X427000Y436000D02*
X437500D01*
X388671Y174171D02*
Y185500D01*
X200000Y290000D02*
Y300000D01*
X210000D01*
D17*
X298915Y211000D02*
D03*
X291435D02*
D03*
D18*
X437500Y436000D02*
D03*
X443500D02*
D03*
X175000Y446000D02*
D03*
X169000D02*
D03*
D25*
X443500Y436000D02*
X470000D01*
X179500Y276000D02*
X190500Y265000D01*
X179500Y276000D02*
Y293000D01*
X175000Y297500D02*
X179500Y293000D01*
X156500Y297500D02*
X175000D01*
X150500Y291500D02*
X156500Y297500D01*
X124000Y291500D02*
X150500D01*
X114500D02*
X124000D01*
X111000Y295000D02*
X114500Y291500D01*
X111000Y295000D02*
Y333500D01*
X114000Y336500D01*
X124000D01*
X190500Y231000D02*
Y237000D01*
Y231000D02*
X196500Y225000D01*
X228500D01*
X242500Y239000D01*
X312500D01*
X190500Y231000D02*
Y265000D01*
X372000Y166000D02*
Y179500D01*
X312500Y239000D02*
X372000Y179500D01*
D26*
X169500Y215000D02*
X223500D01*
D29*
X124000Y336500D02*
D03*
Y291500D02*
D03*
X120000Y223500D02*
D03*
X428000Y153500D02*
D03*
D30*
X124000Y350279D02*
D03*
Y364059D02*
D03*
Y305279D02*
D03*
Y319059D02*
D03*
X120000Y209720D02*
D03*
X428000Y139720D02*
D03*
X291280Y112000D02*
D03*
X322280D02*
D03*
D31*
X400000Y316000D02*
D03*
Y386000D02*
D03*
Y376000D02*
D03*
Y366000D02*
D03*
Y356000D02*
D03*
Y346000D02*
D03*
Y336000D02*
D03*
Y326000D02*
D03*
Y306000D02*
D03*
X390000Y316000D02*
D03*
Y386000D02*
D03*
Y376000D02*
D03*
Y366000D02*
D03*
X390000Y356000D02*
D03*
X390000Y346000D02*
D03*
Y336000D02*
D03*
Y326000D02*
D03*
X390000Y306000D02*
D03*
X200000Y290000D02*
D03*
Y300000D02*
D03*
Y310000D02*
D03*
Y320000D02*
D03*
Y330000D02*
D03*
Y340000D02*
D03*
Y350000D02*
D03*
X190000Y290000D02*
D03*
Y300000D02*
D03*
Y310000D02*
D03*
Y320000D02*
D03*
Y330000D02*
D03*
Y340000D02*
D03*
Y350000D02*
D03*
X178000Y254500D02*
D03*
X210000Y260000D02*
D03*
X200000Y250000D02*
D03*
X210000D02*
D03*
X200000Y240000D02*
D03*
X210000Y240000D02*
D03*
X200000Y230000D02*
D03*
X210000D02*
D03*
X200000Y220000D02*
D03*
X210000D02*
D03*
X200000Y210000D02*
D03*
X210000D02*
D03*
X200000Y200000D02*
D03*
X210000D02*
D03*
X200000Y190000D02*
D03*
X210000Y190000D02*
D03*
X200000Y180000D02*
D03*
X210000D02*
D03*
X200000Y170000D02*
D03*
X210000D02*
D03*
X178000Y239500D02*
D03*
X400000Y220000D02*
D03*
Y230000D02*
D03*
Y240000D02*
D03*
Y250000D02*
D03*
Y260000D02*
D03*
Y270000D02*
D03*
Y280000D02*
D03*
X390000Y220000D02*
D03*
Y230000D02*
D03*
Y240000D02*
D03*
Y250000D02*
D03*
Y260000D02*
D03*
Y270000D02*
D03*
Y280000D02*
D03*
X255000Y228000D02*
D03*
X265000D02*
D03*
X120000Y476000D02*
D03*
X130000Y476000D02*
D03*
X120000Y466000D02*
D03*
X130000D02*
D03*
X120000Y456000D02*
D03*
X130000D02*
D03*
X120000Y446000D02*
D03*
X130000D02*
D03*
X120000Y436000D02*
D03*
X130000D02*
D03*
X120000Y426000D02*
D03*
X130000Y426000D02*
D03*
X120000Y416000D02*
D03*
X130000D02*
D03*
X120000Y406000D02*
D03*
X480000D02*
D03*
X470000Y406000D02*
D03*
X480000Y416000D02*
D03*
X470000D02*
D03*
X480000Y426000D02*
D03*
X470000D02*
D03*
X480000Y436000D02*
D03*
X470000D02*
D03*
X480000Y446000D02*
D03*
X470000D02*
D03*
X480000Y456000D02*
D03*
X470000Y456000D02*
D03*
X480000Y466000D02*
D03*
X470000D02*
D03*
X480000Y476000D02*
D03*
X342500Y161500D02*
D03*
D32*
X400000Y296000D02*
D03*
X390000D02*
D03*
X200000Y280000D02*
D03*
X190000D02*
D03*
X178000Y264500D02*
D03*
X200000Y260000D02*
D03*
X400000Y210000D02*
D03*
X390000D02*
D03*
X130000Y406000D02*
D03*
X470000Y476000D02*
D03*
X342500Y171500D02*
D03*
D33*
X168000Y239500D02*
D03*
X245000Y228000D02*
D03*
D34*
X120000Y248000D02*
D03*
D35*
X129800D02*
D03*
D36*
X148000Y190500D02*
D03*
X128000Y180500D02*
D03*
D37*
X178000D02*
D03*
D38*
X277500Y112000D02*
D03*
X308500D02*
D03*
D39*
X435492Y287000D02*
D03*
X442392Y284000D02*
D03*
X449500Y283063D02*
D03*
X457000Y279000D02*
D03*
X465250Y287059D02*
D03*
X480161Y292000D02*
D03*
X452000Y481500D02*
D03*
X452653Y468000D02*
D03*
X357862Y394500D02*
D03*
X348801Y378500D02*
D03*
X334000Y363699D02*
D03*
X320000Y359598D02*
D03*
X309500Y358998D02*
D03*
X297103Y356500D02*
D03*
X285000Y354296D02*
D03*
X274500Y353696D02*
D03*
X264405Y353500D02*
D03*
X255000Y334000D02*
D03*
X158500Y415671D02*
D03*
X160912Y398500D02*
D03*
X405000Y120000D02*
D03*
X401500D02*
D03*
X398000D02*
D03*
X394500D02*
D03*
X391000D02*
D03*
X387500D02*
D03*
X384000D02*
D03*
X380500D02*
D03*
X312500Y180000D02*
D03*
X292000Y188500D02*
D03*
X298795Y186500D02*
D03*
X291500Y235000D02*
D03*
X301354Y164000D02*
D03*
X144500Y270000D02*
D03*
X158000Y281500D02*
D03*
X295000Y154500D02*
D03*
X300000D02*
D03*
X304500D02*
D03*
X305500Y206000D02*
D03*
X372000Y166000D02*
D03*
X223500Y215000D02*
D03*
X169500D02*
D03*
X148240Y342500D02*
D03*
Y298500D02*
D03*
X112733Y276233D02*
D03*
D40*
X291638Y203500D02*
D03*
X298331D02*
D03*
D41*
X184750Y436000D02*
D03*
D42*
X198500Y445500D02*
D03*
X414000Y436500D02*
D03*
M02*
