G04 Layer_Color=8150272*
%FSLAX25Y25*%
%MOIN*%
G70*
G01*
G75*
%ADD48R,0.04300X0.04300*%
%ADD51R,0.05918X0.06706*%
%ADD60R,0.06706X0.06706*%
%ADD61C,0.06706*%
%ADD62R,0.06706X0.06706*%
%ADD63C,0.10300*%
%ADD64R,0.10300X0.10300*%
%ADD65R,0.10300X0.10300*%
%ADD66R,0.06800X0.06800*%
%ADD67C,0.06800*%
%ADD68C,0.05600*%
%ADD69R,0.05600X0.05600*%
%ADD70C,0.03900*%
%ADD71R,0.05131X0.04737*%
D48*
X169000Y446000D02*
D03*
X175000D02*
D03*
X443500Y436000D02*
D03*
X437500D02*
D03*
D51*
X291435Y211000D02*
D03*
X298915D02*
D03*
D60*
X342500Y171500D02*
D03*
X390000Y210000D02*
D03*
X400000D02*
D03*
X200000Y260000D02*
D03*
X178000Y264500D02*
D03*
X190000Y280000D02*
D03*
X200000D02*
D03*
X390000Y296000D02*
D03*
X400000D02*
D03*
D61*
X342500Y161500D02*
D03*
X408000Y483000D02*
D03*
X418000Y473000D02*
D03*
Y483000D02*
D03*
X428000Y473000D02*
D03*
X428000Y483000D02*
D03*
X438000Y473000D02*
D03*
Y483000D02*
D03*
X448000Y473000D02*
D03*
Y483000D02*
D03*
X458000Y473000D02*
D03*
Y483000D02*
D03*
X468000Y473000D02*
D03*
Y483000D02*
D03*
X478000Y473000D02*
D03*
X478000Y483000D02*
D03*
X122000D02*
D03*
X132000Y473000D02*
D03*
Y483000D02*
D03*
X142000Y473000D02*
D03*
X142000Y483000D02*
D03*
X152000Y473000D02*
D03*
Y483000D02*
D03*
X162000Y473000D02*
D03*
Y483000D02*
D03*
X172000Y473000D02*
D03*
Y483000D02*
D03*
X182000Y473000D02*
D03*
Y483000D02*
D03*
X192000Y473000D02*
D03*
X192000Y483000D02*
D03*
X265000Y228000D02*
D03*
X255000D02*
D03*
X390000Y280000D02*
D03*
Y270000D02*
D03*
Y260000D02*
D03*
Y250000D02*
D03*
Y240000D02*
D03*
Y230000D02*
D03*
Y220000D02*
D03*
X400000Y280000D02*
D03*
Y270000D02*
D03*
Y260000D02*
D03*
Y250000D02*
D03*
Y240000D02*
D03*
Y230000D02*
D03*
Y220000D02*
D03*
X178000Y239500D02*
D03*
X210000Y170000D02*
D03*
X200000D02*
D03*
X210000Y180000D02*
D03*
X200000D02*
D03*
X210000Y190000D02*
D03*
X200000Y190000D02*
D03*
X210000Y200000D02*
D03*
X200000D02*
D03*
X210000Y210000D02*
D03*
X200000D02*
D03*
X210000Y220000D02*
D03*
X200000D02*
D03*
X210000Y230000D02*
D03*
X200000D02*
D03*
X210000Y240000D02*
D03*
X200000Y240000D02*
D03*
X210000Y250000D02*
D03*
X200000D02*
D03*
X210000Y260000D02*
D03*
X178000Y254500D02*
D03*
X190000Y350000D02*
D03*
Y340000D02*
D03*
Y330000D02*
D03*
Y320000D02*
D03*
Y310000D02*
D03*
Y300000D02*
D03*
Y290000D02*
D03*
X200000Y350000D02*
D03*
Y340000D02*
D03*
Y330000D02*
D03*
Y320000D02*
D03*
Y310000D02*
D03*
Y300000D02*
D03*
Y290000D02*
D03*
X390000Y306000D02*
D03*
X390000Y326000D02*
D03*
Y336000D02*
D03*
Y346000D02*
D03*
X390000Y356000D02*
D03*
X390000Y366000D02*
D03*
Y376000D02*
D03*
Y386000D02*
D03*
Y316000D02*
D03*
X400000Y306000D02*
D03*
Y326000D02*
D03*
Y336000D02*
D03*
Y346000D02*
D03*
Y356000D02*
D03*
Y366000D02*
D03*
Y376000D02*
D03*
Y386000D02*
D03*
Y316000D02*
D03*
D62*
X408000Y473000D02*
D03*
X122000D02*
D03*
X245000Y228000D02*
D03*
X168000Y239500D02*
D03*
D63*
X322280Y112000D02*
D03*
X291280D02*
D03*
X428000Y139720D02*
D03*
X120000Y209720D02*
D03*
X124000Y319059D02*
D03*
Y305279D02*
D03*
Y364059D02*
D03*
Y350279D02*
D03*
D64*
X308500Y112000D02*
D03*
X277500D02*
D03*
D65*
X428000Y153500D02*
D03*
X120000Y223500D02*
D03*
X124000Y291500D02*
D03*
Y336500D02*
D03*
D66*
X178000Y180500D02*
D03*
D67*
X128000D02*
D03*
X148000Y190500D02*
D03*
D68*
X129800Y248000D02*
D03*
D69*
X120000D02*
D03*
D70*
X112733Y276233D02*
D03*
X148240Y298500D02*
D03*
Y342500D02*
D03*
X169500Y215000D02*
D03*
X223500D02*
D03*
X372000Y166000D02*
D03*
X305500Y206000D02*
D03*
X304500Y154500D02*
D03*
X300000D02*
D03*
X295000D02*
D03*
X158000Y281500D02*
D03*
X144500Y270000D02*
D03*
X301354Y164000D02*
D03*
X291500Y235000D02*
D03*
X298795Y186500D02*
D03*
X292000Y188500D02*
D03*
X312500Y180000D02*
D03*
X380500Y120000D02*
D03*
X384000D02*
D03*
X387500D02*
D03*
X391000D02*
D03*
X394500D02*
D03*
X398000D02*
D03*
X401500D02*
D03*
X405000D02*
D03*
X160912Y398500D02*
D03*
X158500Y412500D02*
D03*
X255000Y334000D02*
D03*
X264405Y353500D02*
D03*
X274500Y353696D02*
D03*
X285000Y354296D02*
D03*
X297103Y356500D02*
D03*
X309500Y358998D02*
D03*
X320000Y359598D02*
D03*
X334000Y363699D02*
D03*
X348801Y378500D02*
D03*
X357862Y394500D02*
D03*
X480161Y292000D02*
D03*
X465250Y287059D02*
D03*
X457000Y279000D02*
D03*
X449500Y283063D02*
D03*
X442392Y284000D02*
D03*
X435492Y287000D02*
D03*
X160000Y387000D02*
D03*
D71*
X298331Y203500D02*
D03*
X291638D02*
D03*
M02*
