M48
;Layer_Color=6321
;FILE_FORMAT=2:5
INCH,LZ
;TYPE=PLATED
T1F00S00C0.01600
T2F00S00C0.02900
T3F00S00C0.03000
T4F00S00C0.03543
T5F00S00C0.04400
%
T01
X0295Y01545
X03
X03045
X03805Y012
X0384
X03875
X0391
X03945
X0398
X04015
X0405
X0480161Y0292
X046525Y0287059
X0457Y0279
X04495Y0283063
X0442392Y0284
X0435492Y0287
X0372Y0166
X03125Y018
X0298795Y01865
X0292Y01885
X03055Y0206
X02915Y0235
X0301354Y0164
X02235Y0215
X01695
X0158Y02815
X01445Y027
X014824Y02985
X0112733Y0276233
X014824Y03425
X016Y0387
X0160912Y03985
X01585Y04125
X0264405Y03535
X02745Y0353696
X0285Y0354296
X0297103Y03565
X03095Y0358998
X0255Y0334
X032Y0359598
X0334Y0363699
X0348801Y03785
X0357862Y03945
T02
X012Y0248
X01298
T03
X0178Y01805
X0148Y01905
X0128Y01805
T04
X03425Y01615
Y01715
X039Y021
X04
Y022
X039
Y023
Y024
X04
Y023
Y025
Y026
Y027
Y028
X039
Y027
Y026
Y025
Y0296
X04
Y0306
X039
X02Y031
Y03
X019
Y031
Y029
X02
Y028
X019
X0178Y02645
Y02545
X0178Y02395
X0168
X02Y024
Y023
X021
Y024
Y025
Y026
X02
Y025
Y022
X021
Y021
X02
Y02
Y019
X021Y019
Y02
Y018
X02
Y017
X021
X0245Y0228
X0255
X0265
X02Y032
Y033
Y034
Y035
X019
Y034
Y033
Y032
X039Y0316
Y0326
X04
Y0316
Y0336
Y0346
Y0356
Y0366
X039
X039Y0356
X039Y0346
Y0336
Y0376
X04
Y0386
X039
X0478Y0473
X0478Y0483
X0468
Y0473
X0458
Y0483
X0448
Y0473
X0438
X0428
X0428Y0483
X0438
X0418
Y0473
X0408
Y0483
X0192
X0182
Y0473
X0192
X0172
Y0483
X0162
Y0473
X0152
X0142
X0142Y0483
X0152
X0132
Y0473
X0122
Y0483
T05
X02775Y0112
X029128
X03085
X032228
X0428Y013972
Y01535
X012Y020972
Y02235
X0124Y02915
Y0305279
Y0319059
Y03365
Y0350279
Y0364059
M30
