G04 Layer_Physical_Order=1*
G04 Layer_Color=255*
%FSLAX25Y25*%
%MOIN*%
G70*
G01*
G75*
%ADD10C,0.01000*%
%ADD11R,0.03500X0.03500*%
%ADD12R,0.07087X0.06299*%
%ADD13O,0.02362X0.08661*%
%ADD14R,0.02362X0.08661*%
%ADD15R,0.01772X0.06890*%
%ADD16O,0.01772X0.06890*%
%ADD17R,0.05118X0.05906*%
%ADD18R,0.03500X0.03500*%
%ADD19R,0.03937X0.04331*%
%ADD20R,0.03543X0.02559*%
%ADD21R,0.05906X0.05118*%
%ADD22R,0.05512X0.11811*%
%ADD23R,0.23622X0.25590*%
%ADD24R,0.04724X0.02362*%
%ADD25C,0.01400*%
%ADD26C,0.01800*%
%ADD27C,0.02400*%
%ADD28C,0.01600*%
%ADD29R,0.09500X0.09500*%
%ADD30C,0.09500*%
%ADD31C,0.05906*%
%ADD32R,0.05906X0.05906*%
%ADD33R,0.05906X0.05906*%
%ADD34R,0.04800X0.04800*%
%ADD35C,0.04800*%
%ADD36C,0.06000*%
%ADD37R,0.06000X0.06000*%
%ADD38R,0.09500X0.09500*%
%ADD39C,0.03100*%
G36*
X428000Y139720D02*
Y115500D01*
X357500D01*
X354000Y119000D01*
Y135000D01*
X359500Y140500D01*
X428000Y139720D01*
D02*
G37*
D10*
X213978Y242000D02*
G03*
X210000Y244453I-3978J-2000D01*
G01*
Y245547D02*
G03*
X213978Y248000I0J4453D01*
G01*
Y252000D02*
G03*
X210000Y254453I-3978J-2000D01*
G01*
Y255547D02*
G03*
X213978Y258000I0J4453D01*
G01*
Y262000D02*
G03*
X210000Y264453I-3978J-2000D01*
G01*
X222000Y258000D02*
G03*
X223417Y258589I0J2000D01*
G01*
X222000Y258000D02*
G03*
X223414Y258586I0J2000D01*
G01*
X225000Y248000D02*
G03*
X226414Y248586I0J2000D01*
G01*
X225000Y248000D02*
G03*
X226417Y248589I0J2000D01*
G01*
X236914Y259086D02*
G03*
X237500Y260500I-1414J1414D01*
G01*
X236911Y259083D02*
G03*
X237500Y260500I-1411J1417D01*
G01*
X227414Y262586D02*
G03*
X228000Y264000I-1414J1414D01*
G01*
X227411Y262583D02*
G03*
X228000Y264000I-1411J1417D01*
G01*
X242411Y250583D02*
G03*
X243000Y252000I-1411J1417D01*
G01*
X242414Y250586D02*
G03*
X243000Y252000I-1414J1414D01*
G01*
X248000Y305500D02*
G03*
X248589Y304083I2000J0D01*
G01*
X248000Y305500D02*
G03*
X248586Y304086I2000J0D01*
G01*
X274083Y278589D02*
G03*
X275500Y278000I1417J1411D01*
G01*
X274086Y278586D02*
G03*
X275500Y278000I1414J1414D01*
G01*
X257500Y312000D02*
G03*
X258089Y310583I2000J0D01*
G01*
X257500Y312000D02*
G03*
X258086Y310586I2000J0D01*
G01*
X267000Y316500D02*
G03*
X267586Y315086I2000J0D01*
G01*
X267000Y316500D02*
G03*
X267589Y315083I2000J0D01*
G01*
X118000Y396500D02*
G03*
X118586Y395086I2000J0D01*
G01*
X118000Y396500D02*
G03*
X118589Y395083I2000J0D01*
G01*
X123083Y390589D02*
G03*
X124500Y390000I1417J1411D01*
G01*
X123086Y390586D02*
G03*
X124500Y390000I1414J1414D01*
G01*
X205917Y393411D02*
G03*
X204500Y394000I-1417J-1411D01*
G01*
X205914Y393414D02*
G03*
X204500Y394000I-1414J-1414D01*
G01*
X228000Y370500D02*
G03*
X227414Y371914I-2000J0D01*
G01*
X228000Y370500D02*
G03*
X227411Y371917I-2000J0D01*
G01*
X237500Y373000D02*
G03*
X236911Y374417I-2000J0D01*
G01*
X237500Y373000D02*
G03*
X236914Y374414I-2000J0D01*
G01*
X243000Y378500D02*
G03*
X242411Y379917I-2000J0D01*
G01*
X243000Y378500D02*
G03*
X242414Y379914I-2000J0D01*
G01*
X252000Y389000D02*
G03*
X251414Y390414I-2000J0D01*
G01*
X252000Y389000D02*
G03*
X251411Y390417I-2000J0D01*
G01*
X261500Y392500D02*
G03*
X260914Y393914I-2000J0D01*
G01*
X261500Y392500D02*
G03*
X260911Y393917I-2000J0D01*
G01*
X271000Y395000D02*
G03*
X270411Y396417I-2000J0D01*
G01*
X271000Y395000D02*
G03*
X270414Y396414I-2000J0D01*
G01*
X284086Y284586D02*
G03*
X285500Y284000I1414J1414D01*
G01*
X284083Y284589D02*
G03*
X285500Y284000I1417J1411D01*
G01*
X288083Y294589D02*
G03*
X289500Y294000I1417J1411D01*
G01*
X288086Y294586D02*
G03*
X289500Y294000I1414J1414D01*
G01*
X277000Y326500D02*
G03*
X277589Y325083I2000J0D01*
G01*
X277000Y326500D02*
G03*
X277586Y325086I2000J0D01*
G01*
X288500Y331000D02*
G03*
X289086Y329586I2000J0D01*
G01*
X288500Y331000D02*
G03*
X289089Y329583I2000J0D01*
G01*
X303083Y299589D02*
G03*
X304500Y299000I1417J1411D01*
G01*
X303086Y299586D02*
G03*
X304500Y299000I1414J1414D01*
G01*
X314086Y304586D02*
G03*
X315500Y304000I1414J1414D01*
G01*
X314083Y304589D02*
G03*
X315500Y304000I1417J1411D01*
G01*
X330083Y309589D02*
G03*
X331500Y309000I1417J1411D01*
G01*
X330086Y309586D02*
G03*
X331500Y309000I1414J1414D01*
G01*
X345086Y314586D02*
G03*
X346500Y314000I1414J1414D01*
G01*
X345083Y314589D02*
G03*
X346500Y314000I1417J1411D01*
G01*
X358083Y319589D02*
G03*
X359500Y319000I1417J1411D01*
G01*
X358086Y319586D02*
G03*
X359500Y319000I1414J1414D01*
G01*
X301000Y339500D02*
G03*
X301586Y338086I2000J0D01*
G01*
X301000Y339500D02*
G03*
X301589Y338083I2000J0D01*
G01*
X312500Y348000D02*
G03*
X313089Y346583I2000J0D01*
G01*
X312500Y348000D02*
G03*
X313086Y346586I2000J0D01*
G01*
X281000Y400500D02*
G03*
X280411Y401917I-2000J0D01*
G01*
X281000Y400500D02*
G03*
X280414Y401914I-2000J0D01*
G01*
X341500Y353000D02*
G03*
X342086Y351586I2000J0D01*
G01*
X325000Y353500D02*
G03*
X325589Y352083I2000J0D01*
G01*
X325000Y353500D02*
G03*
X325586Y352086I2000J0D01*
G01*
X341500Y353000D02*
G03*
X342089Y351583I2000J0D01*
G01*
X351000Y352000D02*
G03*
X351586Y350586I2000J0D01*
G01*
X351000Y352000D02*
G03*
X351589Y350583I2000J0D01*
G01*
X122000Y402022D02*
G03*
X124453Y406000I-2000J3978D01*
G01*
D02*
G03*
X118000Y402022I-4453J0D01*
G01*
X123586Y409586D02*
G03*
X125000Y409000I1414J1414D01*
G01*
X123583Y409589D02*
G03*
X125000Y409000I1417J1411D01*
G01*
X124453Y416000D02*
G03*
X121399Y411773I-4453J0D01*
G01*
X124227Y414601D02*
G03*
X124453Y416000I-4227J1399D01*
G01*
X123586Y419586D02*
G03*
X125000Y419000I1414J1414D01*
G01*
X123583Y419589D02*
G03*
X125000Y419000I1417J1411D01*
G01*
X126709D02*
G03*
X126709Y413000I3290J-3000D01*
G01*
X134453Y416000D02*
G03*
X133291Y419000I-4453J0D01*
G01*
Y413000D02*
G03*
X134453Y416000I-3290J3000D01*
G01*
X124453Y426000D02*
G03*
X121399Y421773I-4453J0D01*
G01*
X123583Y429589D02*
G03*
X125000Y429000I1417J1411D01*
G01*
X124227Y424601D02*
G03*
X124453Y426000I-4227J1399D01*
G01*
X123586Y429586D02*
G03*
X125000Y429000I1414J1414D01*
G01*
X123583Y439589D02*
G03*
X125000Y439000I1417J1411D01*
G01*
X124453Y436000D02*
G03*
X121399Y431773I-4453J0D01*
G01*
X124227Y434601D02*
G03*
X124453Y436000I-4227J1399D01*
G01*
X123586Y439586D02*
G03*
X125000Y439000I1414J1414D01*
G01*
X126709Y429000D02*
G03*
X126710Y423000I3291J-3000D01*
G01*
X133290D02*
G03*
X133978Y424000I-3290J3000D01*
G01*
Y428000D02*
G03*
X133291Y429000I-3978J-2000D01*
G01*
X126709Y439000D02*
G03*
X126709Y433000I3290J-3000D01*
G01*
X133291D02*
G03*
X133978Y434000I-3290J3000D01*
G01*
Y438000D02*
G03*
X133291Y439000I-3978J-2000D01*
G01*
X203914Y407414D02*
G03*
X202500Y408000I-1414J-1414D01*
G01*
X203917Y407411D02*
G03*
X202500Y408000I-1417J-1411D01*
G01*
X123586Y449586D02*
G03*
X125000Y449000I1414J1414D01*
G01*
X123583Y449589D02*
G03*
X125000Y449000I1417J1411D01*
G01*
X124227Y444601D02*
G03*
X124453Y446000I-4227J1399D01*
G01*
D02*
G03*
X121399Y441773I-4453J0D01*
G01*
X124453Y456000D02*
G03*
X121399Y451773I-4453J0D01*
G01*
X124227Y454601D02*
G03*
X124453Y456000I-4227J1399D01*
G01*
X126709Y449000D02*
G03*
X126709Y443000I3290J-3000D01*
G01*
X133291D02*
G03*
X133978Y444000I-3290J3000D01*
G01*
Y448000D02*
G03*
X133291Y449000I-3978J-2000D01*
G01*
X126709Y459000D02*
G03*
X126709Y453000I3290J-3000D01*
G01*
X133291D02*
G03*
X133978Y454000I-3290J3000D01*
G01*
Y458000D02*
G03*
X133291Y459000I-3978J-2000D01*
G01*
X124453Y466000D02*
G03*
X121399Y461773I-4453J0D01*
G01*
X123583Y459589D02*
G03*
X125000Y459000I1417J1411D01*
G01*
X123586Y459586D02*
G03*
X125000Y459000I1414J1414D01*
G01*
X124227Y464601D02*
G03*
X124453Y466000I-4227J1399D01*
G01*
Y476000D02*
G03*
X124453Y476000I-4453J0D01*
G01*
X133978Y468000D02*
G03*
X126709Y463000I-3978J-2000D01*
G01*
X133291D02*
G03*
X133978Y464000I-3290J3000D01*
G01*
Y478000D02*
G03*
X133978Y474000I-3978J-2000D01*
G01*
X209914Y412414D02*
G03*
X208500Y413000I-1414J-1414D01*
G01*
X209917Y412411D02*
G03*
X208500Y413000I-1417J-1411D01*
G01*
X219414Y422414D02*
G03*
X218000Y423000I-1414J-1414D01*
G01*
X219417Y422411D02*
G03*
X218000Y423000I-1417J-1411D01*
G01*
X227417Y427411D02*
G03*
X226000Y428000I-1417J-1411D01*
G01*
X227414Y427414D02*
G03*
X226000Y428000I-1414J-1414D01*
G01*
X234414Y432414D02*
G03*
X233000Y433000I-1414J-1414D01*
G01*
X234417Y432411D02*
G03*
X233000Y433000I-1417J-1411D01*
G01*
X244914Y437414D02*
G03*
X243500Y438000I-1414J-1414D01*
G01*
X244917Y437411D02*
G03*
X243500Y438000I-1417J-1411D01*
G01*
X254917Y442411D02*
G03*
X253500Y443000I-1417J-1411D01*
G01*
X292500Y404000D02*
G03*
X291914Y405414I-2000J0D01*
G01*
X292500Y404000D02*
G03*
X291911Y405417I-2000J0D01*
G01*
X305000Y409500D02*
G03*
X304414Y410914I-2000J0D01*
G01*
X305000Y409500D02*
G03*
X304411Y410917I-2000J0D01*
G01*
X345500Y408500D02*
G03*
X344911Y409917I-2000J0D01*
G01*
X329000Y412500D02*
G03*
X328414Y413914I-2000J0D01*
G01*
X345500Y408500D02*
G03*
X344914Y409914I-2000J0D01*
G01*
X329000Y412500D02*
G03*
X328411Y413917I-2000J0D01*
G01*
X355000Y411000D02*
G03*
X354414Y412414I-2000J0D01*
G01*
X355000Y411000D02*
G03*
X354411Y412417I-2000J0D01*
G01*
X316500Y414500D02*
G03*
X315914Y415914I-2000J0D01*
G01*
X316500Y414500D02*
G03*
X315911Y415917I-2000J0D01*
G01*
X254914Y442414D02*
G03*
X253500Y443000I-1414J-1414D01*
G01*
X267914Y447414D02*
G03*
X266500Y448000I-1414J-1414D01*
G01*
X267917Y447411D02*
G03*
X266500Y448000I-1417J-1411D01*
G01*
X279417Y452411D02*
G03*
X278000Y453000I-1417J-1411D01*
G01*
X279414Y452414D02*
G03*
X278000Y453000I-1414J-1414D01*
G01*
X284917Y457411D02*
G03*
X283500Y458000I-1417J-1411D01*
G01*
X284914Y457414D02*
G03*
X283500Y458000I-1414J-1414D01*
G01*
X292417Y462411D02*
G03*
X291000Y463000I-1417J-1411D01*
G01*
X292414Y462414D02*
G03*
X291000Y463000I-1414J-1414D01*
G01*
X299414Y467414D02*
G03*
X298000Y468000I-1414J-1414D01*
G01*
X299417Y467411D02*
G03*
X298000Y468000I-1417J-1411D01*
G01*
X302914Y477414D02*
G03*
X301500Y478000I-1414J-1414D01*
G01*
X302917Y477411D02*
G03*
X301500Y478000I-1417J-1411D01*
G01*
X395500Y217500D02*
G03*
X394083Y216911I0J-2000D01*
G01*
X391399Y224227D02*
G03*
X394453Y220000I-1399J-4227D01*
G01*
X391399Y234227D02*
G03*
X394453Y230000I-1399J-4227D01*
G01*
Y220000D02*
G03*
X394227Y221399I-4453J0D01*
G01*
X394453Y230000D02*
G03*
X394227Y231399I-4453J0D01*
G01*
X395000Y227000D02*
G03*
X393583Y226411I0J-2000D01*
G01*
X395000Y227000D02*
G03*
X393586Y226414I0J-2000D01*
G01*
X395500Y217500D02*
G03*
X394086Y216914I0J-2000D01*
G01*
X396709Y223000D02*
G03*
X396315Y217500I3290J-3000D01*
G01*
X396709Y233000D02*
G03*
X396710Y227000I3291J-3000D01*
G01*
X391399Y244227D02*
G03*
X394453Y240000I-1399J-4227D01*
G01*
X395000Y237000D02*
G03*
X393583Y236411I0J-2000D01*
G01*
X395000Y237000D02*
G03*
X393586Y236414I0J-2000D01*
G01*
X395000Y247000D02*
G03*
X393583Y246411I0J-2000D01*
G01*
X394453Y240000D02*
G03*
X394227Y241399I-4453J0D01*
G01*
X394453Y250000D02*
G03*
X394227Y251399I-4453J0D01*
G01*
X395000Y247000D02*
G03*
X393586Y246414I0J-2000D01*
G01*
X391399Y254227D02*
G03*
X394453Y250000I-1399J-4227D01*
G01*
X391399Y264227D02*
G03*
X394453Y260000I-1399J-4227D01*
G01*
X395000Y267000D02*
G03*
X393583Y266411I0J-2000D01*
G01*
X395000Y257000D02*
G03*
X393586Y256414I0J-2000D01*
G01*
X395000Y257000D02*
G03*
X393583Y256411I0J-2000D01*
G01*
X394453Y260000D02*
G03*
X394227Y261399I-4453J0D01*
G01*
X395000Y267000D02*
G03*
X393586Y266414I0J-2000D01*
G01*
X394453Y270000D02*
G03*
X394227Y271399I-4453J0D01*
G01*
X396709Y243000D02*
G03*
X396709Y237000I3290J-3000D01*
G01*
Y253000D02*
G03*
X396709Y247000I3290J-3000D01*
G01*
Y263000D02*
G03*
X396709Y257000I3290J-3000D01*
G01*
Y273000D02*
G03*
X396709Y267000I3290J-3000D01*
G01*
X403685Y217500D02*
G03*
X403978Y218000I-3685J2500D01*
G01*
Y222000D02*
G03*
X403291Y223000I-3978J-2000D01*
G01*
X403290Y227000D02*
G03*
X403978Y228000I-3290J3000D01*
G01*
Y232000D02*
G03*
X403291Y233000I-3978J-2000D01*
G01*
X403291Y237000D02*
G03*
X403978Y238000I-3290J3000D01*
G01*
Y242000D02*
G03*
X403291Y243000I-3978J-2000D01*
G01*
X413500D02*
G03*
X414914Y243586I0J2000D01*
G01*
X413500Y243000D02*
G03*
X414917Y243589I0J2000D01*
G01*
X403978Y252000D02*
G03*
X403291Y253000I-3978J-2000D01*
G01*
Y247000D02*
G03*
X403978Y248000I-3290J3000D01*
G01*
X403291Y257000D02*
G03*
X403978Y258000I-3290J3000D01*
G01*
Y262000D02*
G03*
X403291Y263000I-3978J-2000D01*
G01*
Y267000D02*
G03*
X403978Y268000I-3290J3000D01*
G01*
X407000D02*
G03*
X407871Y268200I0J2000D01*
G01*
X409000Y253000D02*
G03*
X410417Y253589I0J2000D01*
G01*
X412000Y248000D02*
G03*
X413414Y248586I0J2000D01*
G01*
X412000Y248000D02*
G03*
X413417Y248589I0J2000D01*
G01*
X409000Y253000D02*
G03*
X410414Y253586I0J2000D01*
G01*
X407500Y258000D02*
G03*
X408917Y258589I0J2000D01*
G01*
X407000Y268000D02*
G03*
X407871Y268200I0J2000D01*
G01*
X407500Y258000D02*
G03*
X408914Y258586I0J2000D01*
G01*
X391399Y274227D02*
G03*
X394453Y270000I-1399J-4227D01*
G01*
X386022Y278000D02*
G03*
X394453Y280000I3978J2000D01*
G01*
D02*
G03*
X391956Y284000I-4453J0D01*
G01*
X388044D02*
G03*
X386022Y282000I1956J-4000D01*
G01*
X386022Y304000D02*
G03*
X386710Y303000I3978J2000D01*
G01*
X369086Y324586D02*
G03*
X370500Y324000I1414J1414D01*
G01*
X369083Y324589D02*
G03*
X370500Y324000I1417J1411D01*
G01*
X386022Y314000D02*
G03*
X386710Y313000I3978J2000D01*
G01*
Y309000D02*
G03*
X386022Y308000I3290J-3000D01*
G01*
X393290Y313000D02*
G03*
X394453Y316000I-3290J3000D01*
G01*
X386709Y319000D02*
G03*
X386022Y318000I3291J-3000D01*
G01*
X394453Y316000D02*
G03*
X393290Y319000I-4453J0D01*
G01*
X386022Y324000D02*
G03*
X386709Y323000I3978J2000D01*
G01*
X393290D02*
G03*
X394453Y326000I-3290J3000D01*
G01*
D02*
G03*
X393290Y329000I-4453J0D01*
G01*
X395000Y277000D02*
G03*
X393586Y276414I0J-2000D01*
G01*
X395000Y277000D02*
G03*
X393583Y276411I0J-2000D01*
G01*
X395417Y287411D02*
G03*
X394000Y288000I-1417J-1411D01*
G01*
X395773Y281399D02*
G03*
X396709Y277000I4227J-1399D01*
G01*
X403000Y283290D02*
G03*
X398601Y284227I-3000J-3290D01*
G01*
X395414Y287414D02*
G03*
X394000Y288000I-1414J-1414D01*
G01*
X403178Y273119D02*
G03*
X403917Y273589I-678J1881D01*
G01*
X403978Y272000D02*
G03*
X403178Y273118I-3978J-2000D01*
G01*
X403178Y273119D02*
G03*
X403914Y273586I-678J1881D01*
G01*
X406411Y276083D02*
G03*
X407000Y277500I-1411J1417D01*
G01*
X406414Y276086D02*
G03*
X407000Y277500I-1414J1414D01*
G01*
X393290Y303000D02*
G03*
X394453Y306000I-3290J3000D01*
G01*
D02*
G03*
X393290Y309000I-4453J0D01*
G01*
X396414Y302414D02*
G03*
X395000Y303000I-1414J-1414D01*
G01*
X396417Y302411D02*
G03*
X395000Y303000I-1417J-1411D01*
G01*
X396417Y312411D02*
G03*
X395000Y313000I-1417J-1411D01*
G01*
X396414Y312414D02*
G03*
X395000Y313000I-1414J-1414D01*
G01*
X396414Y322414D02*
G03*
X395000Y323000I-1414J-1414D01*
G01*
X396417Y322411D02*
G03*
X395000Y323000I-1417J-1411D01*
G01*
X395773Y307399D02*
G03*
X403000Y302710I4227J-1399D01*
G01*
Y309291D02*
G03*
X398601Y310227I-3000J-3290D01*
G01*
X403000Y319290D02*
G03*
X398601Y320227I-3000J-3290D01*
G01*
X395773Y317399D02*
G03*
X403000Y312710I4227J-1399D01*
G01*
X395773Y327399D02*
G03*
X403000Y322709I4227J-1399D01*
G01*
X430000Y228000D02*
G03*
X431414Y228586I0J2000D01*
G01*
X430000Y228000D02*
G03*
X431417Y228589I0J2000D01*
G01*
X437000Y223000D02*
G03*
X438414Y223586I0J2000D01*
G01*
X437000Y223000D02*
G03*
X438417Y223589I0J2000D01*
G01*
X418000Y238000D02*
G03*
X419414Y238586I0J2000D01*
G01*
X418000Y238000D02*
G03*
X419417Y238589I0J2000D01*
G01*
X422500Y233000D02*
G03*
X423914Y233586I0J2000D01*
G01*
X422500Y233000D02*
G03*
X423917Y233589I0J2000D01*
G01*
X428914Y257586D02*
G03*
X429500Y259000I-1414J1414D01*
G01*
X428911Y257583D02*
G03*
X429500Y259000I-1411J1417D01*
G01*
X433411Y252583D02*
G03*
X434000Y254000I-1411J1417D01*
G01*
X433414Y252586D02*
G03*
X434000Y254000I-1414J1414D01*
G01*
X452000Y213500D02*
G03*
X453414Y214086I0J2000D01*
G01*
X461500Y208000D02*
G03*
X462914Y208586I0J2000D01*
G01*
X461500Y208000D02*
G03*
X462917Y208589I0J2000D01*
G01*
X452000Y213500D02*
G03*
X453417Y214089I0J2000D01*
G01*
X444000Y218000D02*
G03*
X445414Y218586I0J2000D01*
G01*
X444000Y218000D02*
G03*
X445417Y218589I0J2000D01*
G01*
X447411Y244583D02*
G03*
X448000Y246000I-1411J1417D01*
G01*
X454914Y240086D02*
G03*
X455500Y241500I-1414J1414D01*
G01*
X454911Y240083D02*
G03*
X455500Y241500I-1411J1417D01*
G01*
X447414Y244586D02*
G03*
X448000Y246000I-1414J1414D01*
G01*
X440411Y250083D02*
G03*
X441000Y251500I-1411J1417D01*
G01*
X440414Y250086D02*
G03*
X441000Y251500I-1414J1414D01*
G01*
X461914Y235086D02*
G03*
X462500Y236500I-1414J1414D01*
G01*
X461911Y235083D02*
G03*
X462500Y236500I-1411J1417D01*
G01*
X471414Y232086D02*
G03*
X472000Y233500I-1414J1414D01*
G01*
X471411Y232083D02*
G03*
X472000Y233500I-1411J1417D01*
G01*
X488914Y234586D02*
G03*
X489500Y236000I-1414J1414D01*
G01*
X488911Y234583D02*
G03*
X489500Y236000I-1411J1417D01*
G01*
X424911Y260083D02*
G03*
X425500Y261500I-1411J1417D01*
G01*
X424914Y260086D02*
G03*
X425500Y261500I-1414J1414D01*
G01*
X419914Y263086D02*
G03*
X420500Y264500I-1414J1414D01*
G01*
X419911Y263083D02*
G03*
X420500Y264500I-1411J1417D01*
G01*
X372586Y329586D02*
G03*
X374000Y329000I1414J1414D01*
G01*
X372583Y329589D02*
G03*
X374000Y329000I1417J1411D01*
G01*
X377586Y334586D02*
G03*
X379000Y334000I1414J1414D01*
G01*
X377583Y334589D02*
G03*
X379000Y334000I1417J1411D01*
G01*
X386709Y329000D02*
G03*
X386022Y328000I3290J-3000D01*
G01*
X403000Y329291D02*
G03*
X398601Y330227I-3000J-3290D01*
G01*
X396414Y332414D02*
G03*
X395000Y333000I-1414J-1414D01*
G01*
X396417Y332411D02*
G03*
X395000Y333000I-1417J-1411D01*
G01*
X386022Y334000D02*
G03*
X386709Y333000I3978J2000D01*
G01*
X394453Y336000D02*
G03*
X386022Y338000I-4453J0D01*
G01*
X394453Y346000D02*
G03*
X394453Y346000I-4453J0D01*
G01*
X393290Y333000D02*
G03*
X394453Y336000I-3290J3000D01*
G01*
X403000Y339290D02*
G03*
X403000Y332710I-3000J-3290D01*
G01*
Y349290D02*
G03*
X403000Y342709I-3000J-3290D01*
G01*
X359500Y353500D02*
G03*
X360086Y352086I2000J0D01*
G01*
X359500Y353500D02*
G03*
X360089Y352083I2000J0D01*
G01*
X394453Y356000D02*
G03*
X394453Y356000I-4453J0D01*
G01*
X403000Y359290D02*
G03*
X403000Y352710I-3000J-3290D01*
G01*
X394453Y376000D02*
G03*
X394453Y376000I-4453J0D01*
G01*
Y366000D02*
G03*
X394453Y366000I-4453J0D01*
G01*
Y386000D02*
G03*
X394453Y386000I-4453J0D01*
G01*
X403000Y379291D02*
G03*
X403000Y372709I-3000J-3290D01*
G01*
Y369290D02*
G03*
X403000Y362709I-3000J-3290D01*
G01*
Y389290D02*
G03*
X403000Y382710I-3000J-3290D01*
G01*
X363500Y416000D02*
G03*
X362914Y417414I-2000J0D01*
G01*
X363500Y416000D02*
G03*
X362911Y417417I-2000J0D01*
G01*
X421700Y436871D02*
G03*
X421500Y436000I1800J-871D01*
G01*
X421700Y436871D02*
G03*
X421500Y436000I1800J-871D01*
G01*
X408086Y455414D02*
G03*
X407500Y454000I1414J-1414D01*
G01*
X408089Y455417D02*
G03*
X407500Y454000I1411J-1417D01*
G01*
X403586Y461914D02*
G03*
X403000Y460500I1414J-1414D01*
G01*
X403589Y461917D02*
G03*
X403000Y460500I1411J-1417D01*
G01*
X430000Y463000D02*
G03*
X428586Y462414I0J-2000D01*
G01*
X430000Y463000D02*
G03*
X428583Y462411I0J-2000D01*
G01*
X430000Y487500D02*
G03*
X428586Y486914I0J-2000D01*
G01*
X430000Y487500D02*
G03*
X428583Y486911I0J-2000D01*
G01*
X430586Y424914D02*
G03*
X430000Y423500I1414J-1414D01*
G01*
X430589Y424917D02*
G03*
X430000Y423500I1411J-1417D01*
G01*
X437586Y424914D02*
G03*
X437000Y423500I1414J-1414D01*
G01*
X437589Y424917D02*
G03*
X437000Y423500I1411J-1417D01*
G01*
X444589Y420917D02*
G03*
X444000Y419500I1411J-1417D01*
G01*
X444586Y420914D02*
G03*
X444000Y419500I1414J-1414D01*
G01*
X446500Y433000D02*
G03*
X445083Y432411I0J-2000D01*
G01*
X444500Y438000D02*
G03*
X443086Y437414I0J-2000D01*
G01*
X446500Y433000D02*
G03*
X445086Y432414I0J-2000D01*
G01*
X444500Y438000D02*
G03*
X443083Y437411I0J-2000D01*
G01*
X433000Y453000D02*
G03*
X431583Y452411I0J-2000D01*
G01*
X433500Y448000D02*
G03*
X432629Y447800I0J-2000D01*
G01*
X432000Y458000D02*
G03*
X430586Y457414I0J-2000D01*
G01*
X433000Y453000D02*
G03*
X431586Y452414I0J-2000D01*
G01*
X432000Y458000D02*
G03*
X430583Y457411I0J-2000D01*
G01*
X433500Y448000D02*
G03*
X432629Y447800I0J-2000D01*
G01*
X431000Y477500D02*
G03*
X429583Y476911I0J-2000D01*
G01*
X431000Y477500D02*
G03*
X429586Y476914I0J-2000D01*
G01*
X452086Y415414D02*
G03*
X451500Y414000I1414J-1414D01*
G01*
X452089Y415417D02*
G03*
X451500Y414000I1411J-1417D01*
G01*
X452500Y428000D02*
G03*
X451083Y427411I0J-2000D01*
G01*
X452500Y428000D02*
G03*
X451086Y427414I0J-2000D01*
G01*
X459086Y413414D02*
G03*
X458500Y412000I1414J-1414D01*
G01*
X459089Y413417D02*
G03*
X458500Y412000I1411J-1417D01*
G01*
X464500Y418000D02*
G03*
X463083Y417411I0J-2000D01*
G01*
X460500Y423000D02*
G03*
X459083Y422411I0J-2000D01*
G01*
X460500Y423000D02*
G03*
X459086Y422414I0J-2000D01*
G01*
X472000Y402022D02*
G03*
X474453Y406000I-2000J3978D01*
G01*
D02*
G03*
X468000Y402022I-4453J0D01*
G01*
X484453Y406000D02*
G03*
X484453Y406000I-4453J0D01*
G01*
X466022Y414000D02*
G03*
X474453Y416000I3978J2000D01*
G01*
X464500Y418000D02*
G03*
X463086Y417414I0J-2000D01*
G01*
X466710Y419000D02*
G03*
X466022Y418000I3290J-3000D01*
G01*
X474453Y416000D02*
G03*
X473290Y419000I-4453J0D01*
G01*
X466022Y424000D02*
G03*
X466710Y423000I3978J2000D01*
G01*
Y429000D02*
G03*
X466022Y428000I3290J-3000D01*
G01*
X473290Y423000D02*
G03*
X474453Y426000I-3290J3000D01*
G01*
D02*
G03*
X473290Y429000I-4453J0D01*
G01*
X489500Y408500D02*
G03*
X488914Y409914I-2000J0D01*
G01*
X489500Y408500D02*
G03*
X488911Y409917I-2000J0D01*
G01*
X484227Y414601D02*
G03*
X484453Y416000I-4227J1399D01*
G01*
X475000Y419000D02*
G03*
X476414Y419586I0J2000D01*
G01*
X484453Y416000D02*
G03*
X481399Y411773I-4453J0D01*
G01*
X475000Y429000D02*
G03*
X476414Y429586I0J2000D01*
G01*
X475000Y419000D02*
G03*
X476417Y419589I0J2000D01*
G01*
X478601Y421773D02*
G03*
X484453Y426000I1399J4227D01*
G01*
X466022Y434000D02*
G03*
X466710Y433000I3978J2000D01*
G01*
Y439000D02*
G03*
X466022Y438000I3290J-3000D01*
G01*
X466710Y449000D02*
G03*
X466022Y448000I3290J-3000D01*
G01*
Y444000D02*
G03*
X466710Y443000I3978J2000D01*
G01*
X466022Y454000D02*
G03*
X466710Y453000I3978J2000D01*
G01*
X474453Y456000D02*
G03*
X473290Y459000I-4453J0D01*
G01*
X466710D02*
G03*
X466022Y458000I3290J-3000D01*
G01*
X474453Y466000D02*
G03*
X466710Y463000I-4453J0D01*
G01*
X473290Y433000D02*
G03*
X474453Y436000I-3290J3000D01*
G01*
D02*
G03*
X473290Y439000I-4453J0D01*
G01*
X475000Y429000D02*
G03*
X476417Y429589I0J2000D01*
G01*
X475000Y439000D02*
G03*
X476414Y439586I0J2000D01*
G01*
X475000Y439000D02*
G03*
X476417Y439589I0J2000D01*
G01*
X473290Y443000D02*
G03*
X474453Y446000I-3290J3000D01*
G01*
D02*
G03*
X473290Y449000I-4453J0D01*
G01*
X475000D02*
G03*
X476414Y449586I0J2000D01*
G01*
X475000Y449000D02*
G03*
X476417Y449589I0J2000D01*
G01*
X484453Y426000D02*
G03*
X475773Y424601I-4453J0D01*
G01*
X478601Y431773D02*
G03*
X484453Y436000I1399J4227D01*
G01*
D02*
G03*
X475773Y434601I-4453J0D01*
G01*
X484453Y446000D02*
G03*
X475773Y444601I-4453J0D01*
G01*
X478601Y441773D02*
G03*
X484453Y446000I1399J4227D01*
G01*
X478601Y451773D02*
G03*
X484453Y456000I1399J4227D01*
G01*
X473290Y453000D02*
G03*
X474453Y456000I-3291J3000D01*
G01*
X475000Y459000D02*
G03*
X476414Y459586I0J2000D01*
G01*
X475000Y459000D02*
G03*
X476417Y459589I0J2000D01*
G01*
X473290Y463000D02*
G03*
X474453Y466000I-3290J3000D01*
G01*
X476417Y486911D02*
G03*
X475000Y487500I-1417J-1411D01*
G01*
X476414Y486914D02*
G03*
X475000Y487500I-1414J-1414D01*
G01*
X484453Y456000D02*
G03*
X475773Y454601I-4453J0D01*
G01*
X478601Y461773D02*
G03*
X484453Y466000I1399J4227D01*
G01*
D02*
G03*
X475773Y464601I-4453J0D01*
G01*
X477800Y479871D02*
G03*
X484453Y476000I2200J-3871D01*
G01*
X482000Y480500D02*
G03*
X481411Y481917I-2000J0D01*
G01*
X484453Y476000D02*
G03*
X482000Y479978I-4453J0D01*
G01*
Y480500D02*
G03*
X481414Y481914I-2000J0D01*
G01*
X140760Y278260D02*
Y292500D01*
X424512Y128988D02*
X471500D01*
X345500Y119988D02*
X356488D01*
X236000Y179000D02*
X287000D01*
X218000Y161000D02*
X236000Y179000D01*
X130000Y406000D02*
X143500D01*
X120000Y396500D02*
Y406000D01*
Y396500D02*
X124500Y392000D01*
X204500D01*
X226000Y370500D01*
X120000Y416000D02*
X125000Y411000D01*
X120000Y426000D02*
X125000Y421000D01*
X275500Y280000D02*
X390000D01*
X394000Y286000D02*
X400000Y280000D01*
X120000Y436000D02*
X125000Y431000D01*
X289500Y296000D02*
X390000D01*
X395000Y301000D02*
X400000Y296000D01*
X120000Y446000D02*
X125000Y441000D01*
X253500D01*
X290500Y404000D01*
Y331000D02*
Y404000D01*
Y331000D02*
X315500Y306000D01*
X390000D01*
X130000Y446000D02*
X266500D01*
X395000Y311000D02*
X400000Y306000D01*
X120000Y456000D02*
X125000Y451000D01*
X278000D01*
X395500Y320500D02*
X400000Y316000D01*
X395500Y320500D02*
X395500D01*
X395000Y321000D02*
X395500Y320500D01*
X343500Y353000D02*
Y408500D01*
X291000Y461000D02*
X343500Y408500D01*
X125000Y461000D02*
X291000D01*
X120000Y466000D02*
X125000Y461000D01*
X130000Y466000D02*
X298000D01*
X353000Y411000D01*
X343500Y353000D02*
X370500Y326000D01*
X390000D01*
X353000Y352000D02*
Y411000D01*
Y352000D02*
X374000Y331000D01*
X395000D01*
X400000Y326000D01*
X379000Y336000D02*
X390000D01*
X361500Y353500D02*
X379000Y336000D01*
X361500Y353500D02*
Y416000D01*
X301500Y476000D02*
X361500Y416000D01*
X130000Y476000D02*
X301500D01*
X400000Y210000D02*
X461500D01*
X487500Y236000D01*
Y408500D01*
X480000Y416000D02*
X487500Y408500D01*
X470000Y233500D02*
Y406000D01*
X452000Y215500D02*
X470000Y233500D01*
X395500Y215500D02*
X452000D01*
X390000Y210000D02*
X395500Y215500D01*
X475000Y421000D02*
X480000Y426000D01*
X400000Y220000D02*
X444000D01*
X390000D02*
X395000Y225000D01*
X452500Y426000D02*
X470000D01*
X446000Y419500D02*
X452500Y426000D01*
X475000Y431000D02*
X480000Y436000D01*
X446500Y431000D02*
X475000D01*
X390000Y230000D02*
X395000Y235000D01*
X400000Y240000D02*
X418000D01*
X475000Y441000D02*
X480000Y446000D01*
X433000Y441000D02*
X475000D01*
X395000Y245000D02*
X413500D01*
X390000Y240000D02*
X395000Y245000D01*
X400000Y250000D02*
X412000D01*
X433500Y446000D02*
X470000D01*
X475000Y451000D02*
X480000Y456000D01*
X395000Y255000D02*
X409000D01*
X390000Y250000D02*
X395000Y255000D01*
X475000Y461000D02*
X480000Y466000D01*
X400000Y260000D02*
X407500D01*
X395000Y265000D02*
X407500D01*
X390000Y260000D02*
X395000Y265000D01*
X445500Y476000D02*
X470000D01*
X480000D02*
Y480500D01*
X475000Y485500D02*
X480000Y480500D01*
X430000Y485500D02*
X475000D01*
X405000Y460500D02*
X430000Y485500D01*
X400000Y270000D02*
X407000D01*
X409500Y272500D01*
X405000Y277500D02*
Y460500D01*
X402500Y275000D02*
X405000Y277500D01*
X395000Y275000D02*
X402500D01*
X390000Y270000D02*
X395000Y275000D01*
X161500Y330000D02*
X190000D01*
Y340000D02*
X195000Y335000D01*
Y327000D02*
Y335000D01*
X193000Y325000D02*
X195000Y327000D01*
X164654Y284000D02*
X171500D01*
X120000Y223500D02*
Y248000D01*
X129800D02*
X139000D01*
X146500Y240500D01*
X153000D01*
X155500Y238000D01*
Y229972D02*
Y238000D01*
Y229972D02*
X165528D01*
X170653Y224847D01*
X178500D01*
Y218154D02*
X185153D01*
X185500Y224500D02*
Y232000D01*
X178000Y239500D02*
X185500Y232000D01*
X161500Y260740D02*
X165260D01*
X171500Y254500D01*
X178000D01*
X161500Y264480D02*
X177980D01*
X171500Y277000D02*
Y284000D01*
Y277000D02*
X177980Y270520D01*
Y264480D02*
Y270520D01*
X144653Y257000D02*
X152051D01*
Y264480D02*
Y271949D01*
X150500Y201000D02*
Y209500D01*
X148000Y198500D02*
X150500Y201000D01*
X148000Y190500D02*
Y198500D01*
X145500Y209500D02*
Y217000D01*
X146500Y218000D01*
X154000D01*
X155500Y216500D01*
X155654Y209653D02*
X162000D01*
X155500Y209500D02*
Y216500D01*
X162000Y186500D02*
Y209653D01*
Y186500D02*
X168000Y180500D01*
X178000D01*
X150500Y224000D02*
Y229972D01*
Y224000D02*
X152000Y222500D01*
X160500D01*
X162000Y221000D01*
Y216347D02*
Y221000D01*
X154000Y249000D02*
Y252500D01*
X156500Y255000D01*
Y263000D01*
X155020Y264480D02*
X156500Y263000D01*
X152051Y264480D02*
X155020D01*
X160000Y249000D02*
Y252000D01*
X161500Y253500D01*
Y257000D01*
X168000Y239500D02*
Y246500D01*
X165500Y249000D02*
X168000Y246500D01*
X160000Y249000D02*
X165500D01*
X200000Y320000D02*
X204500D01*
X207500Y317000D01*
Y269500D02*
Y317000D01*
X205000Y267000D02*
X207500Y269500D01*
X205000Y237000D02*
Y267000D01*
Y237000D02*
X207000Y235000D01*
X202500Y161000D02*
X218000D01*
X200000Y163500D02*
X202500Y161000D01*
X200000Y163500D02*
Y170000D01*
X221500Y175000D02*
X228500Y182000D01*
X205000Y175000D02*
X221500D01*
X200000Y180000D02*
X205000Y175000D01*
X200000Y190000D02*
X205000Y185000D01*
X228500Y182000D02*
X288500D01*
X205000Y185000D02*
X290500D01*
X310500Y180000D02*
X312500D01*
X309032Y178532D02*
X310500Y180000D01*
X309032Y171346D02*
Y178532D01*
X298795Y171346D02*
Y186500D01*
X293677Y171346D02*
Y181823D01*
X290500Y185000D02*
X293677Y181823D01*
X287000Y179000D02*
X288559Y177441D01*
Y171346D02*
Y177441D01*
X291118Y171346D02*
Y179382D01*
X288500Y182000D02*
X291118Y179382D01*
X296236Y171346D02*
Y184264D01*
X292000Y188500D02*
X296236Y184264D01*
X217500Y205000D02*
X230500Y192000D01*
X205000Y205000D02*
X217500D01*
X200000Y210000D02*
X205000Y205000D01*
X200000Y220000D02*
X205000Y215000D01*
X214500D01*
X234500Y195000D01*
X302500D01*
X306472Y191028D01*
Y171346D02*
Y191028D01*
X303913Y171346D02*
Y186587D01*
X298500Y192000D02*
X303913Y186587D01*
X230500Y192000D02*
X298500D01*
X207000Y235000D02*
X291500D01*
X265000Y217000D02*
Y228000D01*
X200000Y230000D02*
X205000Y225000D01*
X234500D01*
X238000Y221500D01*
X253000D01*
X255000Y223500D01*
Y228000D01*
X301354Y163646D02*
Y171346D01*
X171500Y290000D02*
Y313500D01*
X183000Y325000D01*
X193000D01*
X136500Y274000D02*
X140760Y278260D01*
X136500Y261653D02*
Y274000D01*
Y261653D02*
X141000Y257154D01*
X144500D01*
Y263846D02*
Y270000D01*
X160346Y290846D02*
X164500D01*
X158000Y288500D02*
X160346Y290846D01*
X158000Y272000D02*
Y288500D01*
X259000Y212500D02*
Y217000D01*
Y212500D02*
X265500Y206000D01*
X305500D01*
X162000Y216347D02*
X164654D01*
X166000Y215000D01*
X169500D01*
X125000Y431000D02*
X233000D01*
X130000Y436000D02*
X243500D01*
X304500Y301000D02*
X395000D01*
X331500Y311000D02*
X395000D01*
X303000Y339500D02*
X331500Y311000D01*
X303000Y339500D02*
Y409500D01*
X266500Y446000D02*
X303000Y409500D01*
X279000Y326500D02*
X304500Y301000D01*
X279000Y326500D02*
Y400500D01*
X243500Y436000D02*
X279000Y400500D01*
X269000Y316500D02*
X289500Y296000D01*
X269000Y316500D02*
Y395000D01*
X233000Y431000D02*
X269000Y395000D01*
X259500Y312000D02*
X285500Y286000D01*
X394000D01*
X130000Y426000D02*
X226000D01*
X259500Y392500D01*
Y312000D02*
Y392500D01*
X278000Y451000D02*
X314500Y414500D01*
Y348000D02*
Y414500D01*
Y348000D02*
X346500Y316000D01*
X390000D01*
X359500Y321000D02*
X395000D01*
X327000Y353500D02*
X359500Y321000D01*
X130000Y456000D02*
X283500D01*
X327000Y412500D01*
Y353500D02*
Y412500D01*
X210000Y240000D02*
X229000D01*
X210000Y260000D02*
X222000D01*
X226000Y264000D01*
Y370500D01*
X210000Y250000D02*
X225000D01*
X235500Y260500D01*
X229000Y240000D02*
X241000Y252000D01*
X250000Y305500D02*
X275500Y280000D01*
X149500Y406000D02*
X202500D01*
X235500Y373000D01*
Y260500D02*
Y373000D01*
X409500Y272500D02*
Y454000D01*
X431000Y475500D01*
X439500D01*
X464500Y416000D02*
X470000D01*
X444000Y220000D02*
X460500Y236500D01*
Y412000D01*
X464500Y416000D01*
X395000Y225000D02*
X437000D01*
X460500Y421000D02*
X475000D01*
X437000Y225000D02*
X453500Y241500D01*
Y414000D01*
X460500Y421000D01*
X439000Y423500D02*
X446500Y431000D01*
X444500Y436000D02*
X470000D01*
X418000Y240000D02*
X432000Y254000D01*
Y423500D01*
X444500Y436000D01*
X395000Y235000D02*
X422500D01*
X439000Y251500D01*
Y423500D01*
X400000Y230000D02*
X430000D01*
X446000Y246000D01*
Y419500D01*
X413500Y245000D02*
X427500Y259000D01*
Y435500D01*
X433000Y441000D01*
X412000Y250000D02*
X423500Y261500D01*
Y436000D01*
X433500Y446000D01*
X409000Y255000D02*
X418500Y264500D01*
Y436500D01*
X433000Y451000D01*
X475000D01*
X432000Y456000D02*
X470000D01*
X407500Y260000D02*
X415000Y267500D01*
Y439000D01*
X432000Y456000D01*
X430000Y461000D02*
X475000D01*
X407500Y265000D02*
X412500Y270000D01*
Y443500D01*
X430000Y461000D01*
X125000Y411000D02*
X208500D01*
X241000Y378500D01*
Y252000D02*
Y378500D01*
X250000Y305500D02*
Y389000D01*
X125000Y421000D02*
X218000D01*
X250000Y389000D01*
X210000Y245377D02*
X211049Y244327D01*
X210000Y244453D02*
Y245547D01*
X213296Y242994D02*
X218302Y248000D01*
X217276D02*
X223276Y242000D01*
X210000Y255276D02*
X210919Y254357D01*
X213978Y248000D02*
X225000D01*
X213978Y252000D02*
X224172D01*
X210000Y254453D02*
Y255547D01*
X213343Y252941D02*
X218402Y258000D01*
X213978D02*
X222000D01*
X217176D02*
X223176Y252000D01*
X213978Y262000D02*
X221172D01*
X224000Y264828D01*
X213978Y242000D02*
X228172D01*
X222201D02*
X239000Y258799D01*
X226502Y248674D02*
X230674Y244502D01*
X233502Y241674D02*
X235176Y240000D01*
X231828D02*
X242411Y250583D01*
X231452Y253623D02*
X235623Y249452D01*
X228172Y242000D02*
X239000Y252828D01*
X236402Y258573D02*
X239000Y255975D01*
X222302Y252000D02*
X233500Y263198D01*
X226417Y248589D02*
X236911Y259083D01*
X223417Y258589D02*
X227411Y262583D01*
X224952Y260123D02*
X228623Y256452D01*
X224172Y252000D02*
X233500Y261328D01*
X228000Y266975D02*
X233500Y261475D01*
X210000Y265176D02*
X210794Y264381D01*
X210000Y275075D02*
X222123Y262952D01*
X210000Y279296D02*
X224000Y293297D01*
X210000Y269397D02*
X224000Y283397D01*
X210000Y284975D02*
X224000Y270975D01*
X210000Y279296D02*
X224000Y293297D01*
X213390Y262887D02*
X224000Y273498D01*
X210000Y304774D02*
X224000Y290774D01*
X210000Y294874D02*
X224000Y280874D01*
X210000Y289196D02*
X224000Y303196D01*
X210000Y328794D02*
X224000Y342794D01*
X210000Y334472D02*
X224000Y320472D01*
X210000Y354271D02*
X224000Y340271D01*
X210000Y344372D02*
X224000Y330372D01*
X210000Y338693D02*
X224000Y352693D01*
X210000Y314673D02*
X224000Y300673D01*
X210000Y299095D02*
X224000Y313095D01*
X210000Y318894D02*
X224000Y332894D01*
X210000Y308995D02*
X224000Y322995D01*
X210000Y324573D02*
X224000Y310573D01*
X228000Y276874D02*
X233500Y271374D01*
X228000Y267598D02*
X233500Y273098D01*
X228000Y287397D02*
X233500Y292897D01*
X228000Y277498D02*
X233500Y282997D01*
X228000Y286774D02*
X233500Y281274D01*
X228000Y296673D02*
X233500Y291173D01*
X237500Y277274D02*
X239000Y275774D01*
X228000Y306573D02*
X233500Y301073D01*
X228000Y297297D02*
X233500Y302797D01*
X228000Y297297D02*
X233500Y302797D01*
X228000Y336894D02*
X233500Y342394D01*
X228000Y336271D02*
X233500Y330771D01*
X228000Y356070D02*
X233500Y350570D01*
X228000Y346171D02*
X233500Y340671D01*
X228000Y346794D02*
X233500Y352294D01*
X228000Y316472D02*
X233500Y310972D01*
X228000Y307196D02*
X233500Y312696D01*
X228000Y326995D02*
X233500Y332495D01*
X228000Y317095D02*
X233500Y322595D01*
X228000Y326372D02*
X233500Y320872D01*
X237500Y267198D02*
X239000Y268699D01*
X237500Y267374D02*
X239000Y265874D01*
X237500Y297073D02*
X239000Y295573D01*
X237500Y277098D02*
X239000Y278598D01*
X237500Y286998D02*
X239000Y288497D01*
X238452Y246623D02*
X245075Y240000D01*
X243000Y251975D02*
X254975Y240000D01*
X237500Y287173D02*
X239000Y285673D01*
X237500Y296897D02*
X239000Y298397D01*
X243000Y292497D02*
X251587Y301084D01*
X237500Y306797D02*
X239000Y308296D01*
X237500Y306972D02*
X239000Y305472D01*
X237500Y306797D02*
X239000Y308296D01*
X243000Y302397D02*
X248000Y307397D01*
X243000Y312297D02*
X248000Y317297D01*
X243000Y311372D02*
X248000Y306372D01*
X243000Y261874D02*
X264874Y240000D01*
X243000Y271774D02*
X274774Y240000D01*
X243000Y282598D02*
X256537Y296135D01*
X243000Y252900D02*
X271386Y281286D01*
X243000Y262799D02*
X266436Y286235D01*
X243000Y272698D02*
X261487Y291185D01*
X264315Y294014D02*
X269486Y299185D01*
X269265Y289064D02*
X274436Y294235D01*
X248589Y304083D02*
X274083Y278589D01*
X252000Y306328D02*
X276328Y282000D01*
X252000Y311397D02*
X257500Y316897D01*
X254415Y303913D02*
X259587Y309085D01*
X259365Y298963D02*
X264537Y304135D01*
X272315Y302013D02*
X276486Y306185D01*
X267365Y306963D02*
X271537Y311135D01*
X262416Y311913D02*
X267000Y316497D01*
X237500Y316872D02*
X239000Y315372D01*
X243000Y312297D02*
X248000Y317297D01*
X237500Y326595D02*
X239000Y328095D01*
X237500Y316696D02*
X239000Y318196D01*
X237500Y326771D02*
X239000Y325271D01*
X243000Y321271D02*
X248000Y316271D01*
X252000Y322171D02*
X257500Y316671D01*
X243000Y331171D02*
X248000Y326171D01*
X252000Y321297D02*
X257500Y326797D01*
X243000Y322196D02*
X248000Y327196D01*
X237500Y336495D02*
X239000Y337995D01*
X237500Y336671D02*
X239000Y335171D01*
X237500Y356469D02*
X239000Y354970D01*
X237500Y346570D02*
X239000Y345070D01*
X237500Y346394D02*
X239000Y347894D01*
X243000Y332095D02*
X248000Y337095D01*
X252000Y332070D02*
X257500Y326570D01*
X243000Y350970D02*
X248000Y345970D01*
X243000Y341070D02*
X248000Y336070D01*
X243000Y341995D02*
X248000Y346995D01*
X261500Y320897D02*
X267000Y326397D01*
X261500Y322570D02*
X267000Y317070D01*
X252000Y321297D02*
X257500Y326797D01*
X261500Y332470D02*
X267000Y326970D01*
X252000Y331196D02*
X257500Y336696D01*
X261500Y330797D02*
X267000Y336297D01*
X271000Y332869D02*
X277000Y326869D01*
X261500Y330797D02*
X267000Y336297D01*
X252000Y341969D02*
X257500Y336470D01*
X261500Y342369D02*
X267000Y336869D01*
X252000Y351869D02*
X257500Y346369D01*
X261500Y340696D02*
X267000Y346196D01*
X252000Y341095D02*
X257500Y346595D01*
X271000Y340297D02*
X277000Y346297D01*
X271000Y342769D02*
X277000Y336769D01*
X261500Y350595D02*
X267000Y356095D01*
X261500Y352269D02*
X267000Y346768D01*
X271000Y352668D02*
X277000Y346668D01*
X126113Y383500D02*
X132613Y390000D01*
X134673D02*
X141173Y383500D01*
X115000Y384500D02*
X116000Y383500D01*
X201000D01*
X124774Y390000D02*
X131274Y383500D01*
X154472Y390000D02*
X160972Y383500D01*
X184171Y390000D02*
X190671Y383500D01*
X136013D02*
X142513Y390000D01*
X145912Y383500D02*
X152412Y390000D01*
X144573D02*
X151073Y383500D01*
X155812D02*
X162312Y390000D01*
X164372D02*
X170872Y383500D01*
X109000Y390500D02*
X115000Y384500D01*
X116214Y383500D02*
X123197Y390483D01*
X109000Y395874D02*
X121374Y383500D01*
X185510D02*
X192010Y390000D01*
X194070D02*
X200570Y383500D01*
X165711D02*
X172211Y390000D01*
X175611Y383500D02*
X182111Y390000D01*
X174271D02*
X180771Y383500D01*
X210000Y358492D02*
X222590Y371082D01*
X210000Y364171D02*
X224000Y350171D01*
X203155Y381345D02*
X207740Y385931D01*
X208104Y376396D02*
X212690Y380981D01*
X201000Y383500D02*
X210000Y374500D01*
Y264453D02*
Y374500D01*
Y348593D02*
X224000Y362593D01*
X210000Y368392D02*
X217640Y376032D01*
X210000Y374070D02*
X224000Y360070D01*
X215518Y383810D02*
X218690Y386982D01*
X203672Y390000D02*
X224000Y369672D01*
X199869Y404000D02*
X233500Y370369D01*
X195410Y383500D02*
X201910Y390000D01*
X201672Y404000D02*
X233500Y372172D01*
X203917Y407411D02*
X236911Y374417D01*
X205917Y393411D02*
X227411Y371917D01*
X204768Y409000D02*
X239000Y374768D01*
X207672Y409000D02*
X239000Y377672D01*
X209917Y412411D02*
X242411Y379917D01*
X204668Y419000D02*
X248000Y375668D01*
X109000Y390500D02*
Y394500D01*
X111157Y388343D02*
X118285Y395471D01*
X118589Y395083D02*
X123083Y390589D01*
X122000Y397328D02*
X125328Y394000D01*
X125547Y401547D02*
X134453D01*
X126714Y394000D02*
X134261Y401547D01*
X109000Y394500D02*
Y479000D01*
Y396085D02*
X116356Y403441D01*
X118000Y396500D02*
Y402022D01*
X122000Y399186D02*
X125547Y402733D01*
X109000Y405774D02*
X118000Y396774D01*
X122414Y402259D02*
X130673Y394000D01*
X133025Y401547D02*
X140573Y394000D01*
X122000Y397328D02*
Y402022D01*
X136613Y394000D02*
X145363Y402750D01*
X134453Y401547D02*
Y404000D01*
X124500Y390000D02*
X203672D01*
X125328Y394000D02*
X204500D01*
X141722Y402750D02*
X150472Y394000D01*
X196010D02*
X203841Y401831D01*
X151622Y402750D02*
X160372Y394000D01*
X210569Y388760D02*
X213740Y391931D01*
X205588Y393678D02*
X208791Y396881D01*
X211619Y399709D02*
X214291Y402381D01*
X166312Y394000D02*
X176312Y404000D01*
X170171D02*
X180171Y394000D01*
X146513D02*
X156513Y404000D01*
X160271D02*
X170271Y394000D01*
X156412D02*
X166412Y404000D01*
X189970D02*
X199969Y394000D01*
X214567Y419000D02*
X248000Y385567D01*
X176211Y394000D02*
X186211Y404000D01*
X186111Y394000D02*
X196111Y404000D01*
X180070D02*
X190070Y394000D01*
X224000Y264828D02*
Y369672D01*
X228000Y264000D02*
Y370500D01*
Y356693D02*
X233500Y362193D01*
X228000Y365969D02*
X233500Y360470D01*
X243000Y360869D02*
X248000Y355869D01*
X243000Y351894D02*
X248000Y356894D01*
X237500Y366193D02*
X239000Y367693D01*
X237500Y356294D02*
X239000Y357794D01*
X237500Y366369D02*
X239000Y364869D01*
X228000Y366593D02*
X233500Y372093D01*
Y261328D02*
Y372172D01*
X225418Y373910D02*
X228590Y377082D01*
X239000Y252828D02*
Y377672D01*
X243000Y252000D02*
Y378500D01*
X237500Y260500D02*
Y373000D01*
X243000Y371693D02*
X248000Y376693D01*
X252000Y361769D02*
X257500Y356269D01*
X252000Y350995D02*
X257500Y356495D01*
X243000Y361794D02*
X248000Y366794D01*
X243000Y370768D02*
X248000Y365769D01*
X252000Y371668D02*
X257500Y366168D01*
X261500Y362168D02*
X267000Y356668D01*
X271000Y362567D02*
X277000Y356568D01*
X252000Y360894D02*
X257500Y366394D01*
X261500Y360495D02*
X267000Y365995D01*
X271000Y360095D02*
X277000Y366095D01*
X248000Y305500D02*
Y388172D01*
X252000Y306328D02*
Y389000D01*
X257500Y312000D02*
Y391672D01*
X261500Y372067D02*
X267000Y366567D01*
X252000Y370794D02*
X257500Y376294D01*
X261500Y312828D02*
Y392500D01*
X267000Y316500D02*
Y394172D01*
X261500Y370394D02*
X267000Y375894D01*
X271000Y317328D02*
Y395000D01*
X277000Y326500D02*
Y399672D01*
X220468Y378860D02*
X223640Y382032D01*
X236368Y374961D02*
X239000Y377593D01*
X226468Y384860D02*
X229140Y387532D01*
X231418Y379910D02*
X234090Y382582D01*
X236918Y385410D02*
X243840Y392332D01*
X241868Y380461D02*
X248000Y386593D01*
X221518Y389810D02*
X224190Y392481D01*
X217172Y419000D02*
X248000Y388172D01*
X216569Y394760D02*
X219240Y397431D01*
X222069Y400260D02*
X228990Y407181D01*
X219417Y422411D02*
X251411Y390417D01*
X231968Y390360D02*
X238890Y397282D01*
X251603Y390196D02*
X255289Y393882D01*
X227018Y395310D02*
X233940Y402232D01*
X246668Y395160D02*
X250340Y398832D01*
X241718Y400110D02*
X245390Y403782D01*
X252000Y381568D02*
X257500Y376067D01*
X261500Y380294D02*
X267000Y385794D01*
X252000Y380693D02*
X257500Y386193D01*
X261500Y381967D02*
X267000Y376467D01*
X271000Y379894D02*
X277000Y385894D01*
X261500Y390193D02*
X266239Y394933D01*
X261500Y391866D02*
X267000Y386367D01*
X271000Y392266D02*
X277000Y386266D01*
X225172Y424000D02*
X257500Y391672D01*
X219467Y424000D02*
X257500Y385967D01*
X227417Y427411D02*
X260911Y393917D01*
X232172Y429000D02*
X267000Y394172D01*
X234417Y432411D02*
X270411Y396417D01*
X271000Y389794D02*
X277000Y395794D01*
X258118Y396711D02*
X261289Y399882D01*
X269068Y397761D02*
X273989Y402682D01*
X240000Y240000D02*
X278000Y278000D01*
X243000Y281673D02*
X284673Y240000D01*
X282000Y282000D02*
X284358Y284358D01*
X259799Y240000D02*
X297799Y278000D01*
X249899Y240000D02*
X287899Y278000D01*
X300070Y284000D02*
X302070Y282000D01*
X301799D02*
X303799Y284000D01*
X291899Y282000D02*
X293899Y284000D01*
X290171D02*
X292171Y282000D01*
X252000Y312271D02*
X282271Y282000D01*
X243000Y291573D02*
X294573Y240000D01*
X274214Y284114D02*
X279386Y289286D01*
X258089Y310583D02*
X284083Y284589D01*
X261500Y312828D02*
X286328Y288000D01*
X288000D02*
X294000Y294000D01*
X282214Y292114D02*
X286386Y296286D01*
X297899Y288000D02*
X303899Y294000D01*
X290070D02*
X296070Y288000D01*
X269698Y240000D02*
X307698Y278000D01*
X231828Y240000D02*
X315500D01*
X276372Y278000D02*
X314372Y240000D01*
X275500Y278000D02*
X386022D01*
X279598Y240000D02*
X317598Y278000D01*
X296171D02*
X388671Y185500D01*
X306070Y278000D02*
X398570Y185500D01*
X289497Y240000D02*
X327497Y278000D01*
X309296Y240000D02*
X347296Y278000D01*
X299397Y240000D02*
X337397Y278000D01*
X243000Y301472D02*
X304472Y240000D01*
X286271Y278000D02*
X378771Y185500D01*
X276328Y282000D02*
X386022D01*
X285500Y284000D02*
X388044D01*
X286328Y288000D02*
X394000D01*
X309969Y284000D02*
X311969Y282000D01*
X311698D02*
X313698Y284000D01*
X299970Y294000D02*
X305970Y288000D01*
X309869Y294000D02*
X315869Y288000D01*
X307799D02*
X313799Y294000D01*
X277265Y297064D02*
X281436Y301235D01*
X267589Y315083D02*
X288083Y294589D01*
X279315Y309014D02*
X286487Y316185D01*
X284265Y304064D02*
X291436Y311235D01*
X271000Y317328D02*
X290328Y298000D01*
X289214Y299114D02*
X296386Y306286D01*
X298000Y298000D02*
X301336Y301336D01*
X294265Y314064D02*
X299436Y319235D01*
X274365Y313963D02*
X281537Y321135D01*
X271000Y322970D02*
X295970Y298000D01*
X271000Y320497D02*
X277000Y326498D01*
X289315Y319014D02*
X294486Y324185D01*
X277589Y325083D02*
X303083Y299589D01*
X284365Y323963D02*
X289537Y329135D01*
X290328Y298000D02*
X385547D01*
X289500Y294000D02*
X385547D01*
X304500Y299000D02*
X385547D01*
X304869D02*
X305869Y298000D01*
X307899D02*
X308899Y299000D01*
X312899Y303000D02*
X314300Y304400D01*
X314769Y299000D02*
X315769Y298000D01*
X305328Y303000D02*
X386710D01*
X281000Y327328D02*
X305328Y303000D01*
X289089Y329583D02*
X314083Y304589D01*
X299214Y309114D02*
X304386Y314286D01*
X302265Y322064D02*
X309936Y329735D01*
X292500Y331828D02*
X316328Y308000D01*
X304164Y304164D02*
X309336Y309336D01*
X312164Y312164D02*
X319836Y319836D01*
X307214Y317114D02*
X314886Y324786D01*
X319869Y284000D02*
X321869Y282000D01*
X321598D02*
X323598Y284000D01*
X317698Y288000D02*
X323698Y294000D01*
X329768Y284000D02*
X331768Y282000D01*
X327598Y288000D02*
X333598Y294000D01*
X349568Y284000D02*
X351568Y282000D01*
X351296D02*
X353296Y284000D01*
X331497Y282000D02*
X333497Y284000D01*
X341397Y282000D02*
X343397Y284000D01*
X339668D02*
X341668Y282000D01*
X319769Y294000D02*
X325768Y288000D01*
X329668Y294000D02*
X335668Y288000D01*
X317799Y298000D02*
X318799Y299000D01*
X334567D02*
X335567Y298000D01*
X324668Y299000D02*
X325668Y298000D01*
X337497Y288000D02*
X343497Y294000D01*
X339567D02*
X345567Y288000D01*
X337598Y298000D02*
X338598Y299000D01*
X347497Y298000D02*
X348497Y299000D01*
X344467D02*
X345467Y298000D01*
X315500Y240000D02*
X370000Y185500D01*
X332197Y223303D02*
X386348Y277453D01*
X317348Y238152D02*
X357196Y278000D01*
X327247Y228253D02*
X376995Y278000D01*
X322298Y233202D02*
X367095Y278000D01*
X356946Y198554D02*
X386152Y227760D01*
X351996Y203504D02*
X386189Y237697D01*
X347046Y208454D02*
X386227Y247635D01*
X342097Y213403D02*
X386267Y257573D01*
X337147Y218353D02*
X386307Y267513D01*
X315969Y278000D02*
X385547Y208422D01*
X325869Y278000D02*
X386216Y217653D01*
X347397Y288000D02*
X353397Y294000D01*
X345668Y278000D02*
X389275Y234393D01*
X335769Y278000D02*
X386431Y227338D01*
X349467Y294000D02*
X355467Y288000D01*
X355568Y278000D02*
X389189Y244378D01*
X354366Y299000D02*
X355366Y298000D01*
X357296Y288000D02*
X363296Y294000D01*
X357397Y298000D02*
X358397Y299000D01*
X322799Y303000D02*
X323799Y304000D01*
X327698Y298000D02*
X328698Y299000D01*
X319668Y304000D02*
X320668Y303000D01*
X332698D02*
X333698Y304000D01*
X329568D02*
X330568Y303000D01*
X339467Y304000D02*
X340467Y303000D01*
X342598D02*
X343598Y304000D01*
X334467Y309000D02*
X335467Y308000D01*
X344367Y309000D02*
X345367Y308000D01*
X337698D02*
X338698Y309000D01*
X317899Y308000D02*
X324785Y314886D01*
X327799Y308000D02*
X329735Y309936D01*
X322664Y322664D02*
X329836Y329836D01*
X327614Y317715D02*
X334786Y324886D01*
X332799Y313000D02*
X339735Y319936D01*
X342698Y313000D02*
X344685Y314987D01*
X316328Y308000D02*
X386022D01*
X315500Y304000D02*
X386022D01*
X347598Y308000D02*
X348598Y309000D01*
X331500D02*
X386710D01*
X332328Y313000D02*
X386710D01*
X349366Y304000D02*
X350366Y303000D01*
X352497D02*
X353497Y304000D01*
X352598Y313000D02*
X353598Y314000D01*
X357497Y308000D02*
X358497Y309000D01*
X354266D02*
X355266Y308000D01*
X349266Y314000D02*
X350266Y313000D01*
X346500Y314000D02*
X386022D01*
X342564Y322765D02*
X348735Y328936D01*
X347328Y318000D02*
X386022D01*
X347698D02*
X353685Y323987D01*
X357598Y318000D02*
X358746Y319148D01*
X359166Y314000D02*
X360166Y313000D01*
X356513Y326815D02*
X361685Y331987D01*
X271000Y330397D02*
X277000Y336397D01*
X281000Y330498D02*
X288500Y337998D01*
X271000Y350196D02*
X277000Y356196D01*
X281000Y342668D02*
X288500Y335168D01*
X271000Y340297D02*
X277000Y346297D01*
X281000Y340397D02*
X288500Y347897D01*
X292500Y332098D02*
X301000Y340598D01*
X281000Y352568D02*
X288500Y345068D01*
X292500Y341998D02*
X301000Y350498D01*
X292500Y350967D02*
X301000Y342467D01*
X281000Y327328D02*
Y400500D01*
Y350296D02*
X288500Y357797D01*
X281000Y360196D02*
X288500Y367696D01*
X281000Y350296D02*
X288500Y357797D01*
X281000Y362467D02*
X288500Y354967D01*
Y331000D02*
Y403172D01*
X292500Y331828D02*
Y404000D01*
Y361796D02*
X301000Y370297D01*
X292500Y360866D02*
X301000Y352366D01*
Y339500D02*
Y408672D01*
X281000Y332769D02*
X310769Y303000D01*
X292500Y341068D02*
X325568Y308000D01*
X297315Y327013D02*
X304987Y334685D01*
X301589Y338083D02*
X330083Y309589D01*
X305000Y340328D02*
X332328Y313000D01*
X312765Y332564D02*
X319936Y339735D01*
X307815Y337513D02*
X314986Y344685D01*
X305000Y344598D02*
X312500Y352098D01*
X305000Y348366D02*
X340367Y313000D01*
X292500Y351897D02*
X301000Y360397D01*
X305000Y358266D02*
X312500Y350766D01*
X305000Y354498D02*
X312500Y361998D01*
X305000Y340328D02*
Y409500D01*
Y368166D02*
X312500Y360666D01*
X305000Y368165D02*
X312500Y360665D01*
Y348000D02*
Y413672D01*
X271000Y372467D02*
X277000Y366467D01*
X281000Y372366D02*
X288500Y364866D01*
X271000Y369995D02*
X277000Y375995D01*
X281000Y370095D02*
X288500Y377595D01*
X271000Y382366D02*
X277000Y376366D01*
X281000Y382266D02*
X288500Y374766D01*
X292500Y380666D02*
X301000Y372166D01*
X281000Y392166D02*
X288500Y384666D01*
X281000Y379995D02*
X288500Y387495D01*
X281000Y392165D02*
X288500Y384665D01*
X239165Y434000D02*
X277000Y396165D01*
X244065Y439000D02*
X288500Y394565D01*
X239166Y434000D02*
X277000Y396166D01*
X242672Y434000D02*
X277000Y399672D01*
X281000Y389894D02*
X288500Y397394D01*
X292500Y400465D02*
X301000Y391965D01*
X281000Y399794D02*
X286439Y405233D01*
X292500Y401394D02*
X300389Y409283D01*
X292500Y370766D02*
X301000Y362266D01*
X292500Y361796D02*
X301000Y370297D01*
X292500Y381595D02*
X301000Y390095D01*
X292500Y371696D02*
X301000Y380196D01*
X292500Y380665D02*
X301000Y372165D01*
X305000Y378065D02*
X312500Y370565D01*
X305000Y364397D02*
X312500Y371897D01*
X305000Y387965D02*
X312500Y380465D01*
X305000Y374296D02*
X312500Y381797D01*
X305000Y374296D02*
X312500Y381797D01*
X292500Y390565D02*
X301000Y382065D01*
X292060Y490000D02*
X392174Y389886D01*
X292500Y391495D02*
X301000Y399995D01*
X283462Y459000D02*
X341500Y400962D01*
X301959Y490000D02*
X401963Y389997D01*
X305000Y397864D02*
X312500Y390364D01*
X305000Y384196D02*
X312500Y391696D01*
X305000Y394095D02*
X312500Y401595D01*
X305000Y407764D02*
X312500Y400264D01*
X311859Y490000D02*
X403000Y398859D01*
X313089Y346583D02*
X345083Y314589D01*
X316500Y348828D02*
X347328Y318000D01*
X317714Y327614D02*
X324886Y334786D01*
X327714Y337614D02*
X333886Y343786D01*
X322765Y342564D02*
X328936Y348735D01*
X332664Y332664D02*
X338836Y338836D01*
X337614Y327714D02*
X343786Y333886D01*
X336714Y346614D02*
X341900Y351800D01*
X341664Y341664D02*
X346836Y346836D01*
X316500Y348828D02*
Y414500D01*
X317815Y347514D02*
X325000Y354698D01*
Y353500D02*
Y411672D01*
X331765Y351564D02*
X341500Y361299D01*
X329000Y354328D02*
Y412500D01*
X341500Y353000D02*
Y407672D01*
X345500Y353828D02*
Y408500D01*
X325589Y352083D02*
X358083Y319589D01*
X342089Y351583D02*
X369083Y324589D01*
X349664Y349664D02*
X351177Y351177D01*
X346614Y336715D02*
X351785Y341886D01*
X351564Y331765D02*
X356735Y336936D01*
X351589Y350583D02*
X372583Y329589D01*
X354614Y344714D02*
X356035Y346136D01*
X358864Y348965D02*
X361035Y351136D01*
X316500Y356665D02*
X355166Y318000D01*
X316500Y356666D02*
X355166Y318000D01*
X329000Y354328D02*
X360328Y323000D01*
X345500Y353828D02*
X371328Y328000D01*
X329000Y363965D02*
X369965Y323000D01*
X345500Y357364D02*
X351005Y351859D01*
X355000Y352828D02*
X374828Y333000D01*
X351000Y352000D02*
Y410172D01*
X355000Y357764D02*
X359516Y353248D01*
X355000Y352828D02*
Y411000D01*
X316500Y366565D02*
X325000Y358065D01*
X316500Y356098D02*
X325000Y364598D01*
X316500Y375897D02*
X325000Y384397D01*
X316500Y365998D02*
X325000Y374498D01*
X316500Y376465D02*
X325000Y367965D01*
X329000Y373864D02*
X341500Y361364D01*
X329000Y358699D02*
X341500Y371199D01*
X316500Y386364D02*
X325000Y377864D01*
X329000Y368598D02*
X341500Y381098D01*
X329000Y383764D02*
X341500Y371264D01*
X316500Y385796D02*
X325000Y394297D01*
X316500Y385796D02*
X325000Y394297D01*
X316500Y406163D02*
X325000Y397663D01*
X316500Y396264D02*
X325000Y387764D01*
X316500Y395696D02*
X325000Y404196D01*
X329000Y393663D02*
X341500Y381163D01*
X329000Y378498D02*
X341500Y390998D01*
X329000Y398296D02*
X339938Y409234D01*
X329000Y403563D02*
X341500Y391063D01*
X329000Y398296D02*
X339938Y409234D01*
X345500Y367264D02*
X351000Y361764D01*
X345500Y355399D02*
X351000Y360899D01*
X345500Y375199D02*
X351000Y380698D01*
X345500Y365299D02*
X351000Y370799D01*
X345500Y377163D02*
X351000Y371663D01*
X355000Y367663D02*
X359500Y363163D01*
X355000Y355000D02*
X359500Y359500D01*
X355000Y374799D02*
X359500Y379299D01*
X355000Y364899D02*
X359500Y369399D01*
X355000Y377563D02*
X359500Y373063D01*
X345500Y385098D02*
X351000Y390598D01*
X345500Y387063D02*
X351000Y381563D01*
X329000Y388397D02*
X341500Y400897D01*
X345500Y396962D02*
X351000Y391462D01*
X345500Y406862D02*
X351000Y401362D01*
X355000Y384699D02*
X359500Y389198D01*
X355000Y387462D02*
X359500Y382962D01*
X345500Y394998D02*
X351000Y400497D01*
X355000Y397362D02*
X359500Y392862D01*
X355000Y394598D02*
X359500Y399098D01*
X109000Y405985D02*
X116398Y413382D01*
X122559Y409644D02*
X123043Y410128D01*
X121399Y411773D02*
X123583Y409589D01*
X125547Y401547D02*
Y409000D01*
X125000D02*
X125547D01*
X125915Y413000D02*
X126356Y413441D01*
X109000Y415673D02*
X116259Y408414D01*
X109000Y425573D02*
X116220Y418353D01*
X121399Y421773D02*
X123583Y419589D01*
X109000Y415884D02*
X116440Y423325D01*
X124227Y414601D02*
X125828Y413000D01*
X125472Y419000D02*
X126182Y418291D01*
X134453Y401739D02*
X136714Y404000D01*
X134453D02*
X140250D01*
X125828Y413000D02*
X126709D01*
X134453Y408000D02*
X140250D01*
X134453D02*
Y409000D01*
X140250Y402750D02*
Y404000D01*
Y402750D02*
X146250D01*
X135472Y409000D02*
X136472Y408000D01*
X134453Y409000D02*
X140250D01*
Y408000D02*
Y409000D01*
X126047Y416000D02*
X130000D01*
X125000Y419000D02*
X126709D01*
X130000Y416000D02*
X133953D01*
X145271Y419000D02*
X151271Y413000D01*
X145714D02*
X151714Y419000D01*
X135814Y413000D02*
X141814Y419000D01*
X135372D02*
X141372Y413000D01*
X122617Y419602D02*
X123093Y420078D01*
X122675Y429560D02*
X123144Y430028D01*
X121399Y431773D02*
X123583Y429589D01*
X124227Y424601D02*
X125828Y423000D01*
X126015D02*
X126398Y423383D01*
X125372Y429000D02*
X126144Y428227D01*
X109000Y435472D02*
X116182Y428291D01*
X109000Y425784D02*
X116484Y433268D01*
X122732Y439516D02*
X123194Y439978D01*
X124227Y434601D02*
X125828Y433000D01*
X126116D02*
X126441Y433325D01*
X125271Y439000D02*
X126108Y438163D01*
X125828Y423000D02*
X126710D01*
X125000Y429000D02*
X126709D01*
X135915Y423000D02*
X136915Y424000D01*
X140271D02*
X141271Y423000D01*
X135271Y429000D02*
X136271Y428000D01*
X145171Y429000D02*
X146171Y428000D01*
X140915D02*
X141915Y429000D01*
X125828Y433000D02*
X126709D01*
X125000Y439000D02*
X126709D01*
X136015Y433000D02*
X137015Y434000D01*
X140171D02*
X141171Y433000D01*
X135171Y439000D02*
X136171Y438000D01*
X145070Y439000D02*
X146070Y438000D01*
X141015D02*
X142015Y439000D01*
X146250Y402750D02*
X146750D01*
X146250D02*
X146750D01*
X146250Y409000D02*
X146750D01*
Y402750D02*
X152750D01*
Y404000D01*
X170412Y408000D02*
X171412Y409000D01*
X175070D02*
X176070Y408000D01*
X152750D02*
Y409000D01*
X160513Y408000D02*
X161513Y409000D01*
X155271D02*
X156271Y408000D01*
X155171Y419000D02*
X161171Y413000D01*
X155613D02*
X161613Y419000D01*
X150171Y424000D02*
X151171Y423000D01*
X160070Y424000D02*
X161070Y423000D01*
X155714D02*
X156714Y424000D01*
X165171Y409000D02*
X166171Y408000D01*
X165070Y419000D02*
X171070Y413000D01*
X165613Y423000D02*
X166613Y424000D01*
X165513Y413000D02*
X171513Y419000D01*
X169969Y424000D02*
X170969Y423000D01*
X152750Y404000D02*
X201672D01*
X152750Y408000D02*
X202500D01*
X180312D02*
X181312Y409000D01*
X184969D02*
X185969Y408000D01*
X175412Y413000D02*
X181412Y419000D01*
X190211Y408000D02*
X191211Y409000D01*
X200111Y408000D02*
X201111Y409000D01*
X194869D02*
X195869Y408000D01*
X174969Y419000D02*
X180970Y413000D01*
X184869Y419000D02*
X190869Y413000D01*
X175513Y423000D02*
X176513Y424000D01*
X185312Y413000D02*
X191312Y419000D01*
X189769Y424000D02*
X190769Y423000D01*
X194769Y419000D02*
X200768Y413000D01*
X195211D02*
X201211Y419000D01*
X195312Y423000D02*
X196312Y424000D01*
X205211Y423000D02*
X206211Y424000D01*
X199668D02*
X200668Y423000D01*
X145814D02*
X146814Y424000D01*
X150814Y428000D02*
X151814Y429000D01*
X155070D02*
X156070Y428000D01*
X159969Y434000D02*
X160969Y433000D01*
X155814D02*
X156814Y434000D01*
X160714Y428000D02*
X161714Y429000D01*
X164970D02*
X165970Y428000D01*
X170613D02*
X171613Y429000D01*
X174869D02*
X175869Y428000D01*
X175613Y433000D02*
X176613Y434000D01*
X145915Y433000D02*
X146915Y434000D01*
X150070D02*
X151070Y433000D01*
X150915Y438000D02*
X151915Y439000D01*
X160814Y438000D02*
X161814Y439000D01*
X154970D02*
X155970Y438000D01*
X165714Y433000D02*
X166714Y434000D01*
X169869D02*
X170869Y433000D01*
X164869Y439000D02*
X165869Y438000D01*
X174768Y439000D02*
X175768Y438000D01*
X170714D02*
X171714Y439000D01*
X179869Y424000D02*
X180869Y423000D01*
X185412D02*
X186412Y424000D01*
X180513Y428000D02*
X181513Y429000D01*
X184768D02*
X185768Y428000D01*
X185513Y433000D02*
X186513Y434000D01*
X200312Y428000D02*
X201312Y429000D01*
X204568D02*
X205568Y428000D01*
X189668Y434000D02*
X190668Y433000D01*
X194668Y429000D02*
X195668Y428000D01*
X190412D02*
X191412Y429000D01*
X179769Y434000D02*
X180769Y433000D01*
X180613Y438000D02*
X181613Y439000D01*
X184668D02*
X185668Y438000D01*
X194568Y439000D02*
X195568Y438000D01*
X190513D02*
X191513Y439000D01*
X195412Y433000D02*
X196412Y434000D01*
X199567D02*
X200568Y433000D01*
X200412Y438000D02*
X201412Y439000D01*
X205312Y433000D02*
X206312Y434000D01*
X204467Y439000D02*
X205467Y438000D01*
X109000Y445372D02*
X116144Y438227D01*
X109000Y435683D02*
X116528Y443212D01*
X121399Y441773D02*
X123583Y439589D01*
X124227Y444601D02*
X125828Y443000D01*
X126709D01*
X126216D02*
X126484Y443268D01*
X125171Y449000D02*
X126073Y448098D01*
X109000Y445583D02*
X116574Y453156D01*
X109000Y455271D02*
X116108Y448163D01*
X109000Y455482D02*
X116620Y463102D01*
X122788Y449472D02*
X123244Y449927D01*
X121399Y451773D02*
X123583Y449589D01*
X124227Y454601D02*
X125828Y453000D01*
X125070Y459000D02*
X126038Y458032D01*
X125000Y449000D02*
X126709D01*
X135070D02*
X136070Y448000D01*
X136116Y443000D02*
X137116Y444000D01*
X140070D02*
X141070Y443000D01*
X141116Y448000D02*
X142116Y449000D01*
X146015Y443000D02*
X147015Y444000D01*
X144969Y449000D02*
X145969Y448000D01*
X125828Y453000D02*
X126709D01*
X134969Y459000D02*
X135969Y458000D01*
X136216Y453000D02*
X137216Y454000D01*
X139970D02*
X140970Y453000D01*
X141216Y458000D02*
X142216Y459000D01*
X146116Y453000D02*
X147116Y454000D01*
X144869Y459000D02*
X145869Y458000D01*
X109000Y465171D02*
X116072Y458098D01*
X121399Y461773D02*
X123583Y459589D01*
X109000Y465382D02*
X116666Y473048D01*
X121965Y472004D02*
X126004Y467965D01*
X122844Y459426D02*
X123294Y459877D01*
X124227Y464601D02*
X125828Y463000D01*
X109000Y475070D02*
X116038Y468032D01*
X111985Y481985D02*
X116004Y477965D01*
X109000Y475281D02*
X123719Y490000D01*
X109000Y479000D02*
X120000Y490000D01*
X116047Y476000D02*
X120000D01*
Y472047D02*
Y476000D01*
Y479953D01*
Y476000D02*
X123953D01*
X116935Y486935D02*
X125972Y477897D01*
X125000Y459000D02*
X126709D01*
X122898Y469380D02*
X126620Y473102D01*
X125828Y463000D02*
X126709D01*
X131897Y471972D02*
X135869Y468000D01*
X139869Y464000D02*
X140869Y463000D01*
X146216D02*
X147216Y464000D01*
X136317Y463000D02*
X137317Y464000D01*
X132844Y469426D02*
X137417Y474000D01*
X123768Y490000D02*
X135768Y478000D01*
X122952Y479334D02*
X133618Y490000D01*
X133668D02*
X145668Y478000D01*
X132898Y479380D02*
X143518Y490000D01*
X139769Y474000D02*
X145768Y468000D01*
X141317D02*
X147317Y474000D01*
X141417Y478000D02*
X153417Y490000D01*
X149668Y474000D02*
X155668Y468000D01*
X143568Y490000D02*
X155568Y478000D01*
X149969Y444000D02*
X150970Y443000D01*
X155915D02*
X156915Y444000D01*
X151015Y448000D02*
X152015Y449000D01*
X159869Y444000D02*
X160869Y443000D01*
X154869Y449000D02*
X155869Y448000D01*
X165814Y443000D02*
X166814Y444000D01*
X169769D02*
X170768Y443000D01*
X160915Y448000D02*
X161915Y449000D01*
X175714Y443000D02*
X176714Y444000D01*
X174668Y449000D02*
X175668Y448000D01*
X156015Y453000D02*
X157015Y454000D01*
X164769Y449000D02*
X165769Y448000D01*
X149869Y454000D02*
X150869Y453000D01*
X165915D02*
X166915Y454000D01*
X159768D02*
X160768Y453000D01*
X169668Y454000D02*
X170668Y453000D01*
X170814Y448000D02*
X171814Y449000D01*
X170915Y458000D02*
X171915Y459000D01*
X175814Y453000D02*
X176814Y454000D01*
X174567Y459000D02*
X175567Y458000D01*
X179668Y444000D02*
X180668Y443000D01*
X185613D02*
X186613Y444000D01*
X180714Y448000D02*
X181714Y449000D01*
X189567Y444000D02*
X190568Y443000D01*
X184567Y449000D02*
X185567Y448000D01*
X199467Y444000D02*
X200467Y443000D01*
X205412D02*
X206412Y444000D01*
X190613Y448000D02*
X191613Y449000D01*
X195513Y443000D02*
X196513Y444000D01*
X194467Y449000D02*
X195467Y448000D01*
X179568Y454000D02*
X180568Y453000D01*
X185714D02*
X186714Y454000D01*
X189467D02*
X190467Y453000D01*
X195613D02*
X196613Y454000D01*
X194367Y459000D02*
X195367Y458000D01*
X200513Y448000D02*
X201513Y449000D01*
X204366D02*
X205366Y448000D01*
X199366Y454000D02*
X200366Y453000D01*
X204266Y459000D02*
X205266Y458000D01*
X200613D02*
X201613Y459000D01*
X151116Y458000D02*
X152116Y459000D01*
X154769D02*
X155769Y458000D01*
X149768Y464000D02*
X150768Y463000D01*
X159668Y464000D02*
X160668Y463000D01*
X156116D02*
X157116Y464000D01*
X161015Y458000D02*
X162015Y459000D01*
X164668D02*
X165668Y458000D01*
X166015Y463000D02*
X167015Y464000D01*
X179467D02*
X180467Y463000D01*
X175915D02*
X176915Y464000D01*
X151216Y468000D02*
X157216Y474000D01*
X159567D02*
X165568Y468000D01*
X151317Y478000D02*
X163317Y490000D01*
X161116Y468000D02*
X167116Y474000D01*
X153467Y490000D02*
X165467Y478000D01*
X169568Y464000D02*
X170568Y463000D01*
X169467Y474000D02*
X175467Y468000D01*
X161216Y478000D02*
X173216Y490000D01*
X171015Y468000D02*
X177015Y474000D01*
X163366Y490000D02*
X175366Y478000D01*
X180814Y458000D02*
X181814Y459000D01*
X184467D02*
X185467Y458000D01*
X179367Y474000D02*
X185366Y468000D01*
X185814Y463000D02*
X186814Y464000D01*
X180915Y468000D02*
X186915Y474000D01*
X189366Y464000D02*
X190366Y463000D01*
X190714Y458000D02*
X191714Y459000D01*
X195714Y463000D02*
X196714Y464000D01*
X199266D02*
X200266Y463000D01*
X199165Y474000D02*
X205166Y468000D01*
X183166Y490000D02*
X195166Y478000D01*
X183166Y490000D02*
X195166Y478000D01*
X171116D02*
X183116Y490000D01*
X181015Y478000D02*
X193015Y490000D01*
X173266D02*
X185266Y478000D01*
X189266Y474000D02*
X195266Y468000D01*
X190814D02*
X196814Y474000D01*
X190915Y478000D02*
X202915Y490000D01*
X199166Y474000D02*
X205166Y468000D01*
X193065Y490000D02*
X205065Y478000D01*
X152750Y409000D02*
X207672D01*
X206669Y404659D02*
X209341Y407331D01*
X133291Y413000D02*
X208500D01*
X133291Y419000D02*
X217172D01*
X205111Y413000D02*
X211111Y419000D01*
X212169Y410159D02*
X219091Y417081D01*
X217119Y405209D02*
X224041Y412131D01*
X209567Y424000D02*
X210567Y423000D01*
X133290D02*
X218000D01*
X210211Y428000D02*
X211211Y429000D01*
X133978Y424000D02*
X225172D01*
X214467Y429000D02*
X215467Y428000D01*
X221919Y419909D02*
X225591Y423581D01*
X215111Y423000D02*
X216111Y424000D01*
X224366Y429000D02*
X225366Y428000D01*
X220111D02*
X221111Y429000D01*
X231819Y410010D02*
X235490Y413681D01*
X236769Y405060D02*
X240440Y408732D01*
X226869Y414959D02*
X230541Y418631D01*
X238319Y416510D02*
X241490Y419681D01*
X233369Y421459D02*
X236541Y424631D01*
X248218Y406610D02*
X251390Y409782D01*
X253168Y401660D02*
X256340Y404832D01*
X243268Y411560D02*
X246440Y414732D01*
X249269Y417560D02*
X254190Y422481D01*
X244319Y422510D02*
X249240Y427431D01*
X228419Y426409D02*
X231010Y429000D01*
X133978Y428000D02*
X226000D01*
X133291Y429000D02*
X232172D01*
X244917Y437411D02*
X280411Y401917D01*
X252672Y439000D02*
X288500Y403172D01*
X234419Y432409D02*
X236010Y434000D01*
X239369Y427459D02*
X244291Y432381D01*
X252069Y430260D02*
X256740Y434931D01*
X209467Y434000D02*
X210467Y433000D01*
X133291D02*
X233000D01*
X210312Y438000D02*
X211312Y439000D01*
X215211Y433000D02*
X216211Y434000D01*
X214367Y439000D02*
X215367Y438000D01*
X219367Y434000D02*
X220367Y433000D01*
X225111D02*
X226111Y434000D01*
X220211Y438000D02*
X221211Y439000D01*
X229266Y434000D02*
X230266Y433000D01*
X230111Y438000D02*
X231111Y439000D01*
X209366Y444000D02*
X210367Y443000D01*
X215312D02*
X216312Y444000D01*
X210412Y448000D02*
X211412Y449000D01*
X219266Y444000D02*
X220266Y443000D01*
X214266Y449000D02*
X215266Y448000D01*
X224266Y439000D02*
X225266Y438000D01*
X225211Y443000D02*
X226211Y444000D01*
X229166D02*
X230166Y443000D01*
X229166Y444000D02*
X230166Y443000D01*
X230211Y448000D02*
X231211Y449000D01*
X133978Y434000D02*
X242672D01*
X133978Y438000D02*
X243500D01*
X133291Y439000D02*
X252672D01*
X234166D02*
X235166Y438000D01*
X240010D02*
X241010Y439000D01*
X234166D02*
X235166Y438000D01*
X235111Y443000D02*
X236111Y444000D01*
X133291Y443000D02*
X253500D01*
X234065Y449000D02*
X235065Y448000D01*
X133978Y444000D02*
X265672D01*
X133978Y448000D02*
X266500D01*
X247119Y435209D02*
X250910Y439000D01*
X239065Y444000D02*
X240065Y443000D01*
X248965Y444000D02*
X249965Y443000D01*
X245010D02*
X246010Y444000D01*
X264118Y402711D02*
X269039Y407632D01*
X276817Y405511D02*
X281489Y410183D01*
X259168Y407660D02*
X264090Y412582D01*
X289267Y408061D02*
X295439Y414233D01*
X271868Y410461D02*
X276539Y415132D01*
X305000Y403995D02*
X312500Y411495D01*
X254917Y442411D02*
X291911Y405417D01*
X258864Y444000D02*
X301000Y401864D01*
X254218Y412610D02*
X259140Y417532D01*
X266918Y415410D02*
X271590Y420082D01*
X265672Y444000D02*
X301000Y408672D01*
X267917Y447411D02*
X304411Y410917D01*
X303217Y412111D02*
X308639Y417533D01*
X279368Y417961D02*
X285539Y424132D01*
X284317Y413011D02*
X290489Y419182D01*
X298267Y417061D02*
X303689Y422483D01*
X316500Y405595D02*
X323788Y412884D01*
X355000Y404497D02*
X359500Y408997D01*
X355000Y407261D02*
X359500Y402761D01*
X345500Y404897D02*
X350887Y410284D01*
X329000Y408196D02*
X334988Y414184D01*
X316324Y415319D02*
X318838Y417833D01*
X326617Y415712D02*
X330038Y419134D01*
X342766Y412062D02*
X345938Y415234D01*
X342766Y412062D02*
X345938Y415234D01*
X337816Y417012D02*
X340988Y420184D01*
X353716Y413113D02*
X357637Y417034D01*
X348766Y418062D02*
X352688Y421984D01*
X261968Y420360D02*
X266640Y425032D01*
X274418Y422910D02*
X280590Y429082D01*
X257018Y425310D02*
X261690Y429982D01*
X269468Y427860D02*
X275640Y434032D01*
X264518Y432810D02*
X270690Y438981D01*
X288368Y426961D02*
X293789Y432382D01*
X293318Y422011D02*
X298739Y427432D01*
X278468Y436860D02*
X283890Y442282D01*
X283418Y431910D02*
X288840Y437332D01*
X296618Y435211D02*
X299039Y437632D01*
X259569Y437760D02*
X265740Y443931D01*
X254588Y442678D02*
X255910Y444000D01*
X263764Y449000D02*
X264764Y448000D01*
X273518Y441810D02*
X278940Y447231D01*
X291668Y440160D02*
X294090Y442582D01*
X286718Y445110D02*
X289140Y447532D01*
X268569Y446760D02*
X270809Y449000D01*
X311467Y420361D02*
X313889Y422783D01*
X321667Y420662D02*
X325088Y424083D01*
X301568Y430261D02*
X303989Y432683D01*
X306517Y425311D02*
X308939Y427733D01*
X316717Y425611D02*
X320139Y429033D01*
X332867Y421962D02*
X336038Y425134D01*
X348766Y418062D02*
X352688Y421984D01*
X327917Y426912D02*
X331088Y430083D01*
X343816Y423012D02*
X347738Y426934D01*
X338866Y427962D02*
X342788Y431883D01*
X306818Y435511D02*
X310239Y438933D01*
X311767Y430561D02*
X315189Y433983D01*
X296918Y445410D02*
X300340Y448832D01*
X301868Y440461D02*
X305289Y443882D01*
X313068Y441761D02*
X316239Y444933D01*
X322967Y431861D02*
X326139Y435033D01*
X333917Y432912D02*
X337838Y436833D01*
X318017Y436811D02*
X321189Y439983D01*
X328967Y437861D02*
X332889Y441783D01*
X324017Y442811D02*
X327939Y446733D01*
X219165Y454000D02*
X220165Y453000D01*
X219166Y454000D02*
X220166Y453000D01*
X205513D02*
X206513Y454000D01*
X215412Y453000D02*
X216412Y454000D01*
X209266D02*
X210266Y453000D01*
X220312Y448000D02*
X221312Y449000D01*
X224166D02*
X225166Y448000D01*
X224166Y449000D02*
X225166Y448000D01*
X229065Y454000D02*
X230065Y453000D01*
X225312D02*
X226312Y454000D01*
X214165Y459000D02*
X215165Y458000D01*
X214166Y459000D02*
X215166Y458000D01*
X205613Y463000D02*
X206613Y464000D01*
X210513Y458000D02*
X211513Y459000D01*
X209166Y464000D02*
X210166Y463000D01*
X230312Y458000D02*
X231312Y459000D01*
X233965D02*
X234965Y458000D01*
X215513Y463000D02*
X216513Y464000D01*
X224065Y459000D02*
X225065Y458000D01*
X220412D02*
X221412Y459000D01*
X240111Y448000D02*
X241111Y449000D01*
X133291D02*
X277172D01*
X235211Y453000D02*
X236211Y454000D01*
X133291Y453000D02*
X278000D01*
X133978Y454000D02*
X282672D01*
X243965Y449000D02*
X244965Y448000D01*
X250010D02*
X251010Y449000D01*
X245111Y453000D02*
X246111Y454000D01*
X253864Y449000D02*
X254864Y448000D01*
X248864Y454000D02*
X249864Y453000D01*
X238965Y454000D02*
X239965Y453000D01*
X133978Y458000D02*
X283500D01*
X240211D02*
X241211Y459000D01*
X133291D02*
X290172D01*
X243864D02*
X244864Y458000D01*
X255010Y453000D02*
X256010Y454000D01*
X258764D02*
X259764Y453000D01*
X245211Y463000D02*
X246211Y464000D01*
X253764Y459000D02*
X254764Y458000D01*
X250111D02*
X251111Y459000D01*
X209166Y464000D02*
X210166Y463000D01*
X209065Y474000D02*
X215065Y468000D01*
X200714D02*
X206714Y474000D01*
X218965D02*
X224965Y468000D01*
X210613D02*
X216613Y474000D01*
X235312Y463000D02*
X236312Y464000D01*
X238864D02*
X239864Y463000D01*
X219065Y464000D02*
X220065Y463000D01*
X228965Y464000D02*
X229965Y463000D01*
X225412D02*
X226412Y464000D01*
X210714Y478000D02*
X222714Y490000D01*
X212864D02*
X224864Y478000D01*
X120000Y490000D02*
X209500D01*
X202965D02*
X214965Y478000D01*
X200814D02*
X212814Y490000D01*
X220513Y468000D02*
X226513Y474000D01*
X228864D02*
X234864Y468000D01*
X220613Y478000D02*
X232613Y490000D01*
X230412Y468000D02*
X236412Y474000D01*
X222764Y490000D02*
X234764Y478000D01*
X133291Y463000D02*
X291000D01*
X133978Y464000D02*
X297172D01*
X238764Y474000D02*
X244764Y468000D01*
X133978D02*
X298000D01*
X240312D02*
X246312Y474000D01*
X248764Y464000D02*
X249764Y463000D01*
X255111D02*
X256111Y464000D01*
X248663Y474000D02*
X254663Y468000D01*
X258663Y464000D02*
X259663Y463000D01*
X250211Y468000D02*
X256211Y474000D01*
X133978D02*
X300672D01*
X133978Y478000D02*
X301500D01*
X230513D02*
X242513Y490000D01*
X209500D02*
X488000D01*
X232663D02*
X244663Y478000D01*
X252462Y490000D02*
X264462Y478000D01*
X258563Y474000D02*
X264563Y468000D01*
X240412Y478000D02*
X252412Y490000D01*
X250312Y478000D02*
X262312Y490000D01*
X242563D02*
X254563Y478000D01*
X277172Y449000D02*
X312500Y413672D01*
X273663Y449000D02*
X312500Y410163D01*
X259910Y448000D02*
X260910Y449000D01*
X308118Y446711D02*
X311289Y449882D01*
X279417Y452411D02*
X315911Y415917D01*
X281768Y450060D02*
X284190Y452482D01*
X319068Y447761D02*
X322989Y451683D01*
X291968Y450360D02*
X295390Y453782D01*
X282672Y454000D02*
X325000Y411672D01*
X278563Y454000D02*
X325000Y407563D01*
X264910Y453000D02*
X265910Y454000D01*
X274809Y453000D02*
X275809Y454000D01*
X268663D02*
X269663Y453000D01*
X303168Y451660D02*
X306340Y454832D01*
X314118Y452711D02*
X318039Y456632D01*
X287018Y455310D02*
X290440Y458732D01*
X298218Y456610D02*
X301390Y459782D01*
X290172Y459000D02*
X341500Y407672D01*
X292417Y462411D02*
X344911Y409917D01*
X284917Y457411D02*
X328411Y413917D01*
X297172Y464000D02*
X351000Y410172D01*
X298161Y474000D02*
X359500Y412661D01*
X299417Y467411D02*
X354411Y412417D01*
X300672Y474000D02*
X359500Y415172D01*
X325817Y454511D02*
X361307Y490000D01*
X302917Y477411D02*
X362911Y417417D01*
X330767Y449561D02*
X371206Y490000D01*
X331658D02*
X403000Y418658D01*
X321759Y490000D02*
X403000Y408758D01*
X335717Y444611D02*
X381106Y490000D01*
X341558D02*
X403000Y428557D01*
X340667Y439662D02*
X391005Y490000D01*
X355516Y424812D02*
X420704Y490000D01*
X355516Y424812D02*
X420704Y490000D01*
X345617Y434712D02*
X400905Y490000D01*
X350566Y429762D02*
X410804Y490000D01*
X351457D02*
X403000Y438457D01*
X260010Y458000D02*
X261010Y459000D01*
X263663D02*
X264663Y458000D01*
X265010Y463000D02*
X266010Y464000D01*
X269910Y458000D02*
X270910Y459000D01*
X268563Y464000D02*
X269563Y463000D01*
X273563Y459000D02*
X274563Y458000D01*
X274910Y463000D02*
X275910Y464000D01*
X279809Y458000D02*
X280809Y459000D01*
X284809Y463000D02*
X285809Y464000D01*
X260111Y468000D02*
X266111Y474000D01*
X268462D02*
X274462Y468000D01*
X260211Y478000D02*
X272211Y490000D01*
X270010Y468000D02*
X276010Y474000D01*
X262362Y490000D02*
X274362Y478000D01*
X278462Y464000D02*
X279462Y463000D01*
X278362Y474000D02*
X284362Y468000D01*
X270111Y478000D02*
X282111Y490000D01*
X279910Y468000D02*
X285910Y474000D01*
X272261Y490000D02*
X284261Y478000D01*
X293268Y461560D02*
X295709Y464000D01*
X288362D02*
X289362Y463000D01*
X288261Y474000D02*
X294261Y468000D01*
X304218Y462610D02*
X308140Y466532D01*
X309168Y457660D02*
X313090Y461582D01*
X299261Y467552D02*
X303190Y471482D01*
X282161Y490000D02*
X294161Y478000D01*
X289809Y468000D02*
X295809Y474000D01*
X280010Y478000D02*
X292010Y490000D01*
X299809Y478000D02*
X311809Y490000D01*
X289910Y478000D02*
X301910Y490000D01*
X310968Y469360D02*
X331608Y490000D01*
X320868Y459461D02*
X351407Y490000D01*
X315918Y464410D02*
X341508Y490000D01*
X306018Y474310D02*
X321709Y490000D01*
X366845Y188655D02*
X385547Y207357D01*
X373590Y185500D02*
X393637Y205547D01*
X385547D02*
Y214453D01*
Y205547D02*
X394453D01*
X385547Y214453D02*
X391624D01*
X394453Y205547D02*
Y211624D01*
X393637Y205547D02*
X394453Y206363D01*
X387653Y216216D02*
X389416Y214453D01*
X391624D02*
X394083Y216911D01*
X361896Y193604D02*
X386115Y217824D01*
X387338Y226431D02*
X389362Y224407D01*
X391399Y234227D02*
X393583Y236411D01*
X391399Y224227D02*
X393583Y226411D01*
X383490Y185500D02*
X403537Y205547D01*
X388422D02*
X408469Y185500D01*
X394453Y206363D02*
X395547Y207457D01*
X393389Y185500D02*
X415889Y208000D01*
X395547Y205547D02*
Y212719D01*
Y205547D02*
X404453D01*
X394453Y209416D02*
X395547Y208322D01*
X394453Y211624D02*
X395547Y212719D01*
X395500Y217500D02*
X396315D01*
X394227Y221399D02*
X395828Y223000D01*
X394407Y219362D02*
X396269Y217500D01*
X394227Y231399D02*
X395828Y233000D01*
X395000Y227000D02*
X396710D01*
X394393Y229275D02*
X396668Y227000D01*
X395691Y217500D02*
X396080Y217889D01*
X395291Y227000D02*
X396115Y227824D01*
X395828Y233000D02*
X396709D01*
X391399Y244227D02*
X393583Y246411D01*
X394227Y241399D02*
X395828Y243000D01*
X394227Y251399D02*
X395828Y253000D01*
X391399Y254227D02*
X393583Y256411D01*
X391399Y264227D02*
X393583Y266411D01*
X394378Y239189D02*
X396568Y237000D01*
X395000D02*
X396709D01*
X394362Y249105D02*
X396467Y247000D01*
X395000D02*
X396709D01*
X395000Y257000D02*
X396709D01*
X395392Y237000D02*
X396152Y237760D01*
X395492Y247000D02*
X396189Y247697D01*
X395828Y253000D02*
X396709D01*
X394227Y261399D02*
X395828Y263000D01*
X394344Y259022D02*
X396367Y257000D01*
X394227Y271399D02*
X395828Y273000D01*
X395000Y267000D02*
X396709D01*
X394325Y268941D02*
X396266Y267000D01*
X395593Y257000D02*
X396227Y257635D01*
X395693Y267000D02*
X396267Y267573D01*
X395828Y263000D02*
X396709D01*
X404453Y205547D02*
Y208000D01*
X395828Y223000D02*
X396709D01*
X404453Y212000D02*
Y213500D01*
Y206463D02*
X405990Y208000D01*
X405590Y217500D02*
X406090Y218000D01*
X405668D02*
X406168Y217500D01*
X410090Y222000D02*
X411090Y223000D01*
X405191Y227000D02*
X406191Y228000D01*
X395828Y243000D02*
X396709D01*
X405291Y237000D02*
X406291Y238000D01*
X405568Y228000D02*
X406567Y227000D01*
X405367Y248000D02*
X406366Y247000D01*
X405467Y238000D02*
X406467Y237000D01*
X405392Y247000D02*
X406392Y248000D01*
X409990Y212000D02*
X411490Y213500D01*
X398322Y205547D02*
X418369Y185500D01*
X410191Y232000D02*
X411191Y233000D01*
X410168Y213500D02*
X411668Y212000D01*
X410467Y233000D02*
X411467Y232000D01*
X415490Y217500D02*
X415990Y218000D01*
X415567D02*
X416068Y217500D01*
X410568Y223000D02*
X411567Y222000D01*
X415467Y228000D02*
X416467Y227000D01*
X415090D02*
X416090Y228000D01*
X403978Y242000D02*
X417172D01*
X403978Y238000D02*
X418000D01*
X410291Y242000D02*
X411291Y243000D01*
X403291D02*
X413500D01*
X403291Y247000D02*
X412672D01*
X415191Y237000D02*
X416191Y238000D01*
X415367D02*
X416366Y237000D01*
X410366Y243000D02*
X411367Y242000D01*
X403291Y263000D02*
X407500D01*
X405266Y258000D02*
X406266Y257000D01*
X405492D02*
X406492Y258000D01*
X403978Y262000D02*
X406672D01*
X403978Y258000D02*
X407500D01*
X406672Y262000D02*
X407680Y263008D01*
X403291Y267000D02*
X406672D01*
X395828Y273000D02*
X396709D01*
X403978Y268000D02*
X407000D01*
X403978Y272000D02*
X406172D01*
X405165Y268000D02*
X406166Y267000D01*
X405166Y268000D02*
X406166Y267000D01*
X405593D02*
X406593Y268000D01*
X406672Y267000D02*
X407871Y268200D01*
X403978Y252000D02*
X411172D01*
X403978Y248000D02*
X412000D01*
X403291Y257000D02*
X408172D01*
X403291Y253000D02*
X409000D01*
X414047Y249219D02*
X414469Y248797D01*
X409999Y253267D02*
X411219Y252047D01*
X408172Y257000D02*
X416500Y265328D01*
X408917Y258589D02*
X416411Y266083D01*
X414997Y258169D02*
X416168Y256997D01*
X414997Y258169D02*
X416169Y256997D01*
X411747Y261419D02*
X412169Y260997D01*
X411747Y261419D02*
X412169Y260997D01*
X416500Y265328D02*
Y266177D01*
X359467Y284000D02*
X361467Y282000D01*
X361196D02*
X363196Y284000D01*
X359366Y294000D02*
X365367Y288000D01*
X369266Y294000D02*
X375266Y288000D01*
X367196D02*
X373196Y294000D01*
X369367Y284000D02*
X371367Y282000D01*
X371095D02*
X373095Y284000D01*
X379266D02*
X381266Y282000D01*
X380995D02*
X382995Y284000D01*
X377095Y288000D02*
X383095Y294000D01*
X364266Y299000D02*
X365266Y298000D01*
X367296D02*
X368296Y299000D01*
X359266Y304000D02*
X360266Y303000D01*
X369165Y304000D02*
X370165Y303000D01*
X362397D02*
X363397Y304000D01*
X374166Y299000D02*
X375166Y298000D01*
X374166Y299000D02*
X375166Y298000D01*
X369166Y304000D02*
X370166Y303000D01*
X377196Y298000D02*
X378196Y299000D01*
X379065Y304000D02*
X380065Y303000D01*
X375366Y278000D02*
X389022Y264344D01*
X365467Y278000D02*
X389105Y254362D01*
X385266Y278000D02*
X388941Y274325D01*
X391399Y274227D02*
X393583Y276411D01*
X392547Y283652D02*
X392894Y284000D01*
X393172D02*
X395773Y281399D01*
X391956Y284000D02*
X393172D01*
X379166Y294000D02*
X385166Y288000D01*
X379166Y294000D02*
X385166Y288000D01*
X384065Y299000D02*
X385065Y298000D01*
X385547Y291547D02*
X394453D01*
X385547D02*
Y294000D01*
X391518Y291547D02*
X398782Y284283D01*
X385547Y298000D02*
Y299000D01*
X386995Y288000D02*
X390542Y291547D01*
X364166Y309000D02*
X365166Y308000D01*
X367397D02*
X368397Y309000D01*
X359166Y314000D02*
X360166Y313000D01*
X364165Y309000D02*
X365165Y308000D01*
X362497Y313000D02*
X363497Y314000D01*
X372296Y303000D02*
X373296Y304000D01*
X374065Y309000D02*
X375065Y308000D01*
X369065Y314000D02*
X370065Y313000D01*
X377296Y308000D02*
X378296Y309000D01*
X372397Y313000D02*
X373397Y314000D01*
X364065Y319000D02*
X365065Y318000D01*
X367497D02*
X368497Y319000D01*
X362598Y323000D02*
X366635Y327037D01*
X373965Y319000D02*
X374965Y318000D01*
X378965Y314000D02*
X379965Y313000D01*
X372497Y323000D02*
X373497Y324000D01*
X377397Y318000D02*
X378397Y319000D01*
X378864Y324000D02*
X379864Y323000D01*
X382196Y303000D02*
X383196Y304000D01*
X383965Y309000D02*
X384965Y308000D01*
X382296Y313000D02*
X383296Y314000D01*
X359500Y319000D02*
X386709D01*
X393290Y313000D02*
X395000D01*
X383864Y319000D02*
X384864Y318000D01*
X360328Y323000D02*
X386709D01*
X382397D02*
X383397Y324000D01*
X370500D02*
X386022D01*
X383764Y329000D02*
X384764Y328000D01*
X393290Y319000D02*
X394172D01*
X393290Y323000D02*
X395000D01*
X394305Y278861D02*
X396165Y277000D01*
X394305Y278861D02*
X396166Y277000D01*
X395000D02*
X396709D01*
X395794D02*
X396307Y277513D01*
X395417Y287411D02*
X398601Y284227D01*
X394453Y291547D02*
Y298719D01*
X395547Y297624D01*
X394453Y295458D02*
X395547Y296552D01*
X394453Y298512D02*
X395547Y297417D01*
X395861Y286967D02*
X400442Y291547D01*
X403000Y283290D02*
Y291547D01*
X395547D02*
Y297624D01*
X401162Y301702D02*
X402411Y300453D01*
X396417Y302411D02*
X398376Y300453D01*
X402487Y283693D02*
X403000Y284206D01*
X403917Y273589D02*
X406411Y276083D01*
X406668Y276397D02*
X407500Y275565D01*
X406172Y272000D02*
X407500Y273328D01*
X407000Y278307D02*
X407500Y278807D01*
X401417Y291547D02*
X403000Y289965D01*
X407000Y285965D02*
X407500Y285465D01*
X403000Y300453D02*
Y302710D01*
X395547Y291547D02*
X403000D01*
X398376Y300453D02*
X403000D01*
X407000Y277500D02*
Y459672D01*
X407500Y273328D02*
Y454000D01*
X407000Y298106D02*
X407500Y298606D01*
X407000Y288206D02*
X407500Y288706D01*
X407000Y295864D02*
X407500Y295364D01*
X393290Y303000D02*
X395000D01*
X393290Y309000D02*
X394172D01*
X393864D02*
X395702Y307162D01*
X394398Y305302D02*
X395573Y306478D01*
X394172Y309000D02*
X395773Y307399D01*
X393764Y319000D02*
X395681Y317083D01*
X394172Y319000D02*
X395773Y317399D01*
X394351Y325055D02*
X395555Y326258D01*
X394172Y329000D02*
X395773Y327399D01*
X393663Y329000D02*
X395661Y327002D01*
X394377Y315181D02*
X395562Y316367D01*
X396417Y322411D02*
X396909Y321919D01*
X399448Y300453D02*
X400580Y301585D01*
X396417Y312411D02*
X398601Y310227D01*
X399522Y310427D02*
X400698Y311602D01*
X407000Y308005D02*
X407500Y308505D01*
X407000Y305764D02*
X407500Y305264D01*
X403000Y309291D02*
Y312710D01*
X401083Y311681D02*
X403000Y309764D01*
X407000Y315663D02*
X407500Y315163D01*
X396917Y321911D02*
X398601Y320227D01*
X399634Y320438D02*
X400819Y321623D01*
X403000Y319290D02*
Y322709D01*
X407000Y317905D02*
X407500Y318405D01*
X401002Y321661D02*
X403000Y319663D01*
X407000Y325563D02*
X407500Y325063D01*
X407000Y327804D02*
X407500Y328304D01*
X403289Y185500D02*
X425789Y208000D01*
X405768D02*
X428268Y185500D01*
X419889Y212000D02*
X421389Y213500D01*
X413188Y185500D02*
X435688Y208000D01*
X420068Y213500D02*
X421567Y212000D01*
X429789D02*
X431289Y213500D01*
X429967D02*
X431467Y212000D01*
X425389Y217500D02*
X425889Y218000D01*
X435366D02*
X435866Y217500D01*
X435289D02*
X435789Y218000D01*
X419990Y222000D02*
X420990Y223000D01*
X420467D02*
X421467Y222000D01*
X424990Y227000D02*
X425990Y228000D01*
X403978D02*
X430000D01*
X425366D02*
X426367Y227000D01*
X425467Y218000D02*
X425967Y217500D01*
X429889Y222000D02*
X430889Y223000D01*
X430367D02*
X431366Y222000D01*
X404453Y208000D02*
X461500D01*
X370000Y185500D02*
X490000D01*
X403685Y217500D02*
X451172D01*
X404453Y212000D02*
X460672D01*
X404453Y213500D02*
X452000D01*
X432987Y185500D02*
X455487Y208000D01*
X435467D02*
X457967Y185500D01*
X415668Y208000D02*
X438168Y185500D01*
X425567Y208000D02*
X448068Y185500D01*
X423088D02*
X445588Y208000D01*
X403978Y222000D02*
X443172D01*
X403978Y218000D02*
X444000D01*
X403290Y227000D02*
X436172D01*
X403291Y223000D02*
X437000D01*
X433047Y230219D02*
X436219Y227047D01*
X436172Y227000D02*
X451500Y242328D01*
X438417Y223589D02*
X454911Y240083D01*
X434889Y227000D02*
X451500Y243611D01*
X403291Y237000D02*
X421672D01*
X403291Y233000D02*
X422500D01*
X417297Y245969D02*
X419219Y244047D01*
X420090Y232000D02*
X421090Y233000D01*
X420366D02*
X421367Y232000D01*
X422047Y241219D02*
X423969Y239297D01*
X412672Y247000D02*
X425500Y259828D01*
X414917Y243589D02*
X428911Y257583D01*
X418997Y254169D02*
X419418Y253747D01*
X422247Y250919D02*
X424168Y248997D01*
X418997Y254169D02*
X419419Y253747D01*
X426997Y246168D02*
X428919Y244247D01*
X426997Y246169D02*
X428919Y244247D01*
X422247Y250919D02*
X424169Y248997D01*
X427197Y255868D02*
X429118Y253947D01*
X423947Y259118D02*
X424368Y258697D01*
X403978Y232000D02*
X429172D01*
X431417Y228589D02*
X447411Y244583D01*
X426797Y236469D02*
X430219Y233047D01*
X429172Y232000D02*
X444000Y246828D01*
X423917Y233589D02*
X440411Y250083D01*
X437997Y235169D02*
X441168Y231997D01*
X437997Y235169D02*
X441169Y231997D01*
X431747Y241419D02*
X435169Y237997D01*
X431747Y241419D02*
X435169Y237997D01*
X436697Y246368D02*
X440118Y242947D01*
X419417Y238589D02*
X433411Y252583D01*
X421672Y237000D02*
X437000Y252328D01*
X417172Y242000D02*
X430000Y254828D01*
X431947Y251118D02*
X433868Y249197D01*
X434000Y255809D02*
X437000Y258809D01*
X434000Y258965D02*
X437000Y255965D01*
X439688Y212000D02*
X441188Y213500D01*
X439866D02*
X441366Y212000D01*
X449588D02*
X451088Y213500D01*
X449766D02*
X451266Y212000D01*
X456247Y216918D02*
X460919Y212247D01*
X456247Y216919D02*
X460919Y212247D01*
X439047Y224219D02*
X441266Y222000D01*
X443172D02*
X458500Y237328D01*
X439789Y222000D02*
X458500Y240711D01*
X444999Y218267D02*
X445766Y217500D01*
X461197Y221868D02*
X465868Y217197D01*
X449997Y223168D02*
X453418Y219747D01*
X449997Y223169D02*
X453419Y219747D01*
X445417Y218589D02*
X461911Y235083D01*
X463747Y209419D02*
X487666Y185500D01*
X462686D02*
X490000Y212814D01*
X445366Y208000D02*
X467867Y185500D01*
X455266Y208000D02*
X477766Y185500D01*
X452786D02*
X490000Y222714D01*
X463747Y209419D02*
X487666Y185500D01*
X472585D02*
X490000Y202915D01*
X473646Y219318D02*
X490000Y202965D01*
X482485Y185500D02*
X490000Y193015D01*
X468697Y214368D02*
X490000Y193065D01*
X459487Y212000D02*
X485500Y238013D01*
X442887Y185500D02*
X490000Y232613D01*
X451172Y217500D02*
X468000Y234328D01*
X453417Y214089D02*
X471411Y232083D01*
X445188Y217500D02*
X468000Y240312D01*
X460672Y212000D02*
X485500Y236828D01*
X462917Y208589D02*
X488911Y234583D01*
X466147Y226818D02*
X470818Y222147D01*
X478596Y224268D02*
X490000Y212864D01*
X483546Y229218D02*
X490000Y222764D01*
X443997Y229169D02*
X447168Y225997D01*
X443997Y229169D02*
X447169Y225997D01*
X442947Y240118D02*
X446118Y236947D01*
X447812Y245153D02*
X451068Y241897D01*
X448947Y234118D02*
X452118Y230947D01*
X454947Y228118D02*
X458368Y224697D01*
X453897Y239068D02*
X457068Y235896D01*
X441000Y251965D02*
X444000Y248965D01*
X441000Y252910D02*
X444000Y255910D01*
X455500Y247611D02*
X458500Y250611D01*
X455500Y247364D02*
X458500Y244364D01*
X448000Y250010D02*
X451500Y253510D01*
X448000Y254864D02*
X451500Y251364D01*
X455500Y257264D02*
X458500Y254264D01*
X459897Y233068D02*
X463318Y229646D01*
X471096Y231768D02*
X475768Y227096D01*
X462500Y240364D02*
X468000Y234864D01*
X488496Y234167D02*
X490000Y232663D01*
X472000Y240764D02*
X480718Y232046D01*
X472000Y234412D02*
X485500Y247912D01*
X462500Y250264D02*
X468000Y244764D01*
X462500Y244711D02*
X468000Y250211D01*
X472000Y244312D02*
X485500Y257812D01*
X472000Y250663D02*
X485500Y237163D01*
X489500Y242013D02*
X490000Y242513D01*
X489500Y252962D02*
X490000Y252462D01*
X489500Y243063D02*
X490000Y242563D01*
X489500Y251912D02*
X490000Y252412D01*
X410392Y252000D02*
X421500Y263108D01*
X413417Y248589D02*
X424911Y260083D01*
X410417Y253589D02*
X419911Y263083D01*
X411172Y252000D02*
X421500Y262328D01*
X419946Y263119D02*
X421118Y261947D01*
X425500Y259828D02*
Y261500D01*
X429500Y261209D02*
X430000Y261709D01*
X429500Y263465D02*
X430000Y262965D01*
X420500Y282364D02*
X421500Y281364D01*
X420500Y272465D02*
X421500Y271465D01*
X420500Y272008D02*
X421500Y273008D01*
X425500Y261500D02*
Y435172D01*
X429500Y259000D02*
Y434672D01*
X420500Y264500D02*
Y435672D01*
X425500Y261500D02*
Y435172D01*
X421500Y262328D02*
Y436000D01*
X434000Y268864D02*
X437000Y265864D01*
X434000Y265709D02*
X437000Y268709D01*
X429500Y271108D02*
X430000Y271608D01*
X429500Y273364D02*
X430000Y272864D01*
X434000Y275608D02*
X437000Y278608D01*
X441000Y261864D02*
X444000Y258864D01*
X448000Y259910D02*
X451500Y263410D01*
X441000Y272709D02*
X444000Y275709D01*
X441000Y262809D02*
X444000Y265809D01*
X441000Y271764D02*
X444000Y268764D01*
X434000Y254000D02*
Y422672D01*
X437000Y252328D02*
Y423500D01*
X430000Y254828D02*
Y423500D01*
X434000Y278764D02*
X437000Y275764D01*
X429500Y281008D02*
X430000Y281508D01*
X444000Y246828D02*
Y419500D01*
X448000Y246000D02*
Y418672D01*
X441000Y251500D02*
Y422672D01*
Y281663D02*
X444000Y278663D01*
X448000Y279709D02*
X451500Y283209D01*
X420500Y292264D02*
X421500Y291264D01*
X420500Y281907D02*
X421500Y282907D01*
X420500Y301706D02*
X421500Y302706D01*
X420500Y291807D02*
X421500Y292807D01*
X420500Y302163D02*
X421500Y301163D01*
X429500Y290907D02*
X430000Y291407D01*
X429500Y283264D02*
X430000Y282764D01*
X429500Y293163D02*
X430000Y292663D01*
X434000Y295407D02*
X437000Y298407D01*
X429500Y300807D02*
X430000Y301307D01*
X420500Y312063D02*
X421500Y311063D01*
X429500Y303063D02*
X430000Y302563D01*
X420500Y321505D02*
X421500Y322505D01*
X420500Y311606D02*
X421500Y312606D01*
X420500Y321962D02*
X421500Y320962D01*
X429500Y312962D02*
X430000Y312462D01*
X429500Y310706D02*
X430000Y311206D01*
X429500Y320606D02*
X430000Y321106D01*
X429500Y322862D02*
X430000Y322362D01*
X434000Y328261D02*
X437000Y325261D01*
X434000Y285508D02*
X437000Y288508D01*
X441000Y282608D02*
X444000Y285608D01*
X434000Y288663D02*
X437000Y285663D01*
X441000Y291563D02*
X444000Y288563D01*
X434000Y298563D02*
X437000Y295563D01*
X448000Y294462D02*
X451500Y290962D01*
X448000Y289608D02*
X451500Y293108D01*
X441000Y302407D02*
X444000Y305407D01*
X441000Y292508D02*
X444000Y295508D01*
X441000Y301462D02*
X444000Y298462D01*
X434000Y308462D02*
X437000Y305462D01*
X434000Y305307D02*
X437000Y308307D01*
X434000Y325106D02*
X437000Y328106D01*
X434000Y315206D02*
X437000Y318206D01*
X434000Y318362D02*
X437000Y315362D01*
X441000Y312307D02*
X444000Y315307D01*
X441000Y311362D02*
X444000Y308362D01*
X441000Y321261D02*
X444000Y318261D01*
X448000Y319307D02*
X451500Y322807D01*
X441000Y322206D02*
X444000Y325206D01*
X448000Y264764D02*
X451500Y261264D01*
X455500Y267163D02*
X458500Y264163D01*
X448000Y274663D02*
X451500Y271163D01*
X455500Y267410D02*
X458500Y270410D01*
X448000Y269809D02*
X451500Y273309D01*
X462500Y260163D02*
X468000Y254663D01*
X462500Y254611D02*
X468000Y260111D01*
X455500Y257510D02*
X458500Y260510D01*
X462500Y264510D02*
X468000Y270010D01*
X462500Y270063D02*
X468000Y264563D01*
X451500Y242328D02*
Y414000D01*
X455500Y277063D02*
X458500Y274063D01*
X448000Y284563D02*
X451500Y281063D01*
X455500Y277309D02*
X458500Y280309D01*
X455500Y286962D02*
X458500Y283962D01*
X462500Y236500D02*
Y411172D01*
X468000Y234328D02*
Y402022D01*
X455500Y241500D02*
Y413172D01*
X462500Y274410D02*
X468000Y279910D01*
X458500Y237328D02*
Y412000D01*
X472000Y254211D02*
X485500Y267711D01*
X472000Y260563D02*
X485500Y247063D01*
X462500Y279962D02*
X468000Y274462D01*
X472000Y270462D02*
X485500Y256962D01*
X472000Y280362D02*
X485500Y266862D01*
X489500Y262862D02*
X490000Y262362D01*
X489500Y261812D02*
X490000Y262312D01*
X472000Y264111D02*
X485500Y277611D01*
X489500Y271711D02*
X490000Y272211D01*
X489500Y272761D02*
X490000Y272261D01*
X472000Y233500D02*
Y402022D01*
Y274010D02*
X485500Y287510D01*
X462500Y284309D02*
X468000Y289809D01*
X472000Y290261D02*
X485500Y276761D01*
X472000Y283910D02*
X485500Y297410D01*
X489500Y236000D02*
Y408500D01*
X490000Y185500D02*
Y488000D01*
X485500Y236828D02*
Y407672D01*
X489500Y281611D02*
X490000Y282111D01*
X489500Y282661D02*
X490000Y282161D01*
X455500Y296862D02*
X458500Y293862D01*
X455500Y287209D02*
X458500Y290209D01*
X448000Y304362D02*
X451500Y300862D01*
X455500Y297108D02*
X458500Y300108D01*
X448000Y299508D02*
X451500Y303008D01*
X462500Y299761D02*
X468000Y294261D01*
X462500Y294209D02*
X468000Y299709D01*
X455500Y306761D02*
X458500Y303761D01*
X462500Y304108D02*
X468000Y309608D01*
X462500Y309661D02*
X468000Y304161D01*
X448000Y314261D02*
X451500Y310761D01*
X448000Y309407D02*
X451500Y312907D01*
X448000Y324161D02*
X451500Y320661D01*
X455500Y316661D02*
X458500Y313661D01*
X455500Y326807D02*
X458500Y329807D01*
X455500Y316907D02*
X458500Y319907D01*
X455500Y307008D02*
X458500Y310008D01*
X455500Y326560D02*
X458500Y323560D01*
X462500Y323907D02*
X468000Y329407D01*
X462500Y329460D02*
X468000Y323959D01*
X462500Y289862D02*
X468000Y284362D01*
X472000Y300161D02*
X485500Y286661D01*
X472000Y310060D02*
X485500Y296560D01*
X489500Y291510D02*
X490000Y292010D01*
X472000Y293809D02*
X485500Y307309D01*
X489500Y301410D02*
X490000Y301910D01*
X489500Y292560D02*
X490000Y292060D01*
X489500Y312359D02*
X490000Y311859D01*
X489500Y302460D02*
X490000Y301959D01*
X489500Y311309D02*
X490000Y311809D01*
X472000Y319959D02*
X485500Y306459D01*
X472000Y303709D02*
X485500Y317209D01*
X462500Y314008D02*
X468000Y319508D01*
X462500Y319560D02*
X468000Y314060D01*
X472000Y323508D02*
X485500Y337008D01*
X472000Y329859D02*
X485500Y316359D01*
X472000Y313608D02*
X485500Y327108D01*
X472000Y339758D02*
X485500Y326258D01*
X489500Y321209D02*
X490000Y321709D01*
X489500Y322258D02*
X490000Y321759D01*
X373859Y329005D02*
X374864Y328000D01*
X371328D02*
X386022D01*
X369463Y329865D02*
X370885Y331287D01*
X377497Y328000D02*
X378497Y329000D01*
X378748Y334016D02*
X379764Y333000D01*
X379000Y334000D02*
X386022D01*
X382497Y333000D02*
X383497Y334000D01*
X364513Y334815D02*
X365935Y336237D01*
X360089Y352083D02*
X377583Y334589D01*
X359564Y339765D02*
X360985Y341186D01*
X363500Y354328D02*
X379828Y338000D01*
X363500Y359163D02*
X384663Y338000D01*
X373713Y334115D02*
X375885Y336287D01*
X368763Y339065D02*
X370935Y341237D01*
X379828Y338000D02*
X386022D01*
X378713Y339115D02*
X385547Y345950D01*
X374000Y329000D02*
X386709D01*
X374828Y333000D02*
X386709D01*
X393290Y329000D02*
X394172D01*
X393290Y333000D02*
X395000D01*
X396417Y332411D02*
X398601Y330227D01*
X399742Y330445D02*
X400945Y331649D01*
X389950Y340453D02*
X391213Y341716D01*
X390919Y341643D02*
X395643Y336919D01*
X394321Y334924D02*
X395550Y336153D01*
X399847Y340450D02*
X401076Y341679D01*
X363814Y344015D02*
X365985Y346186D01*
X373763Y344065D02*
X385550Y355851D01*
X386047Y356000D02*
X390000D01*
Y352047D02*
Y356000D01*
X390050Y350452D02*
X391357Y351759D01*
X390000Y356000D02*
Y359953D01*
Y356000D02*
X393953D01*
X390149Y360450D02*
X391509Y361811D01*
X363864Y353964D02*
X385560Y375661D01*
X363500Y369063D02*
X385643Y346919D01*
X363500Y363500D02*
X385568Y385568D01*
X363500Y378962D02*
X385626Y356836D01*
X363500Y388862D02*
X385611Y366751D01*
X368814Y349015D02*
X385554Y365755D01*
X390664Y371597D02*
X392794Y369467D01*
X390245Y370446D02*
X391672Y371873D01*
X390576Y381585D02*
X392428Y379732D01*
X390339Y380440D02*
X391848Y381949D01*
X390836Y351626D02*
X395626Y346836D01*
X394189Y364491D02*
X395550Y365851D01*
X390751Y361611D02*
X395611Y356751D01*
X393467Y368794D02*
X395597Y366664D01*
X394284Y344787D02*
X395548Y346050D01*
X399950Y350452D02*
X401213Y351716D01*
X394241Y354643D02*
X395548Y355950D01*
X396047Y356000D02*
X400000D01*
X393733Y378428D02*
X395585Y376576D01*
X393886Y388174D02*
X395574Y386486D01*
X394127Y374328D02*
X395554Y375755D01*
X394051Y384152D02*
X395560Y385661D01*
X400919Y331643D02*
X403000Y329563D01*
Y329291D02*
Y332710D01*
X400836Y341626D02*
X403000Y339462D01*
X407000Y335462D02*
X407500Y334962D01*
X403000Y339290D02*
Y342709D01*
X407000Y337704D02*
X407500Y338204D01*
X420500Y331405D02*
X421500Y332405D01*
X407000Y345362D02*
X407500Y344862D01*
X420500Y341761D02*
X421500Y340761D01*
X420500Y341304D02*
X421500Y342304D01*
X400751Y351611D02*
X403000Y349362D01*
Y349290D02*
Y352710D01*
X400000Y352047D02*
Y356000D01*
Y359953D01*
X403000Y359290D02*
Y362709D01*
X407000Y347603D02*
X407500Y348103D01*
X420500Y351661D02*
X421500Y350661D01*
X407000Y357503D02*
X407500Y358003D01*
X420500Y351204D02*
X421500Y352204D01*
X407000Y355261D02*
X407500Y354761D01*
X420500Y331862D02*
X421500Y330862D01*
X429500Y330505D02*
X430000Y331005D01*
X429500Y342661D02*
X430000Y342161D01*
X429500Y332761D02*
X430000Y332261D01*
X429500Y340405D02*
X430000Y340905D01*
X441000Y332106D02*
X444000Y335106D01*
X441000Y331161D02*
X444000Y328161D01*
X434000Y335005D02*
X437000Y338005D01*
X434000Y338161D02*
X437000Y335161D01*
X441000Y341060D02*
X444000Y338060D01*
X434000Y348060D02*
X437000Y345060D01*
X434000Y344905D02*
X437000Y347905D01*
X429500Y350304D02*
X430000Y350804D01*
X429500Y352560D02*
X430000Y352060D01*
X434000Y357960D02*
X437000Y354960D01*
X441000Y350959D02*
X444000Y347959D01*
X441000Y342005D02*
X444000Y345005D01*
X434000Y354804D02*
X437000Y357804D01*
X441000Y351905D02*
X444000Y354905D01*
X441000Y360859D02*
X444000Y357859D01*
X400050Y360453D02*
X401357Y361759D01*
X400664Y361597D02*
X402794Y359467D01*
X400149Y370450D02*
X401509Y371811D01*
X407000Y365161D02*
X407500Y364661D01*
X400576Y371585D02*
X402428Y369732D01*
X420500Y361103D02*
X421500Y362103D01*
X420500Y361560D02*
X421500Y360560D01*
X407000Y367402D02*
X407500Y367902D01*
X420500Y371460D02*
X421500Y370460D01*
X420500Y371003D02*
X421500Y372003D01*
X403000Y369290D02*
Y372709D01*
X407000Y377302D02*
X407500Y377802D01*
X400245Y380446D02*
X401672Y381873D01*
X400486Y381574D02*
X402174Y379886D01*
X403000Y379291D02*
Y382710D01*
X407000Y375060D02*
X407500Y374560D01*
X420500Y381359D02*
X421500Y380359D01*
X407000Y387201D02*
X407500Y387701D01*
X420500Y380902D02*
X421500Y381902D01*
X407000Y384960D02*
X407500Y384459D01*
X429500Y362459D02*
X430000Y361960D01*
X429500Y360204D02*
X430000Y360704D01*
X429500Y372359D02*
X430000Y371859D01*
X434000Y364704D02*
X437000Y367704D01*
X429500Y370103D02*
X430000Y370603D01*
X434000Y367859D02*
X437000Y364859D01*
X441000Y361804D02*
X444000Y364804D01*
X434000Y374603D02*
X437000Y377603D01*
X441000Y370759D02*
X444000Y367758D01*
X441000Y371704D02*
X444000Y374704D01*
X429500Y380003D02*
X430000Y380503D01*
X434000Y377759D02*
X437000Y374759D01*
X420500Y391259D02*
X421500Y390259D01*
X429500Y382259D02*
X430000Y381758D01*
X429500Y389902D02*
X430000Y390402D01*
X441000Y381603D02*
X444000Y384603D01*
X441000Y380658D02*
X444000Y377658D01*
X434000Y384503D02*
X437000Y387503D01*
X434000Y387658D02*
X437000Y384658D01*
X441000Y390558D02*
X444000Y387558D01*
X359500Y353500D02*
Y415172D01*
X363500Y373399D02*
X403000Y412899D01*
X363500Y408661D02*
X385585Y386576D01*
X363500Y398761D02*
X385597Y376664D01*
X390432Y390432D02*
X403000Y403000D01*
X400339Y390440D02*
X403000Y393101D01*
X407000Y394859D02*
X407500Y394359D01*
X407000Y407000D02*
X407500Y407500D01*
X407000Y397101D02*
X407500Y397601D01*
X407000Y404759D02*
X407500Y404258D01*
X363500Y354328D02*
Y416000D01*
Y383299D02*
X403000Y422799D01*
X363500Y412997D02*
X403000Y452497D01*
X363500Y393198D02*
X403000Y432698D01*
Y389290D02*
Y460500D01*
X363500Y403098D02*
X403000Y442598D01*
X407000Y424557D02*
X407500Y424057D01*
X407000Y426799D02*
X407500Y427299D01*
X420500Y400701D02*
X421500Y401701D01*
X420500Y390802D02*
X421500Y391802D01*
X407000Y416899D02*
X407500Y417400D01*
X420500Y411058D02*
X421500Y410057D01*
X407000Y414658D02*
X407500Y414158D01*
X420500Y410601D02*
X421500Y411601D01*
X420500Y401158D02*
X421500Y400158D01*
X420500Y430857D02*
X421500Y429856D01*
X420500Y420957D02*
X421500Y419957D01*
X420500Y420500D02*
X421500Y421500D01*
X407000Y434457D02*
X407500Y433957D01*
X360466Y419863D02*
X430603Y490000D01*
X407000Y436698D02*
X407500Y437198D01*
X417000Y437823D02*
Y438172D01*
X432828Y454000D01*
X420500Y430400D02*
X421500Y431399D01*
X420500Y435672D02*
X421700Y436871D01*
X417089Y437917D02*
X431583Y452411D01*
X407000Y446598D02*
X407500Y447098D01*
X407000Y444356D02*
X407500Y443856D01*
X407000Y454256D02*
X407500Y453756D01*
X414500Y441328D02*
Y442672D01*
X416542Y444714D02*
X417214Y444042D01*
X411500Y445328D02*
Y453172D01*
Y449756D02*
X413714Y447542D01*
X414742Y456414D02*
X418664Y452492D01*
X371256Y490000D02*
X403000Y458256D01*
X361356Y490000D02*
X403000Y448356D01*
X381155Y490000D02*
X406414Y464742D01*
X400954Y490000D02*
X416313Y474641D01*
X391055Y490000D02*
X411363Y469692D01*
X409242Y461913D02*
X411913Y459242D01*
X414192Y466863D02*
X416863Y464192D01*
X410854Y490000D02*
X421263Y479591D01*
X414500Y441328D02*
X430583Y457411D01*
X414500Y442672D02*
X430828Y459000D01*
X419141Y471813D02*
X421813Y469141D01*
X419692Y461363D02*
X423613Y457442D01*
X411500Y445328D02*
X428583Y462411D01*
X421492Y449663D02*
X422163Y448992D01*
X426442Y454613D02*
X427113Y453942D01*
X424641Y466313D02*
X428563Y462391D01*
X408089Y455417D02*
X429583Y476911D01*
X411500Y453172D02*
X431828Y473500D01*
X403589Y461917D02*
X428583Y486911D01*
X407000Y456497D02*
X434002Y483500D01*
X407000Y459672D02*
X430828Y483500D01*
X424091Y476763D02*
X426763Y474091D01*
X411500Y451098D02*
X433902Y473500D01*
X420753Y490000D02*
X426213Y484541D01*
X429500Y399802D02*
X430000Y400302D01*
X429500Y392158D02*
X430000Y391658D01*
X429500Y411957D02*
X430000Y411457D01*
X429500Y402058D02*
X430000Y401557D01*
X429500Y409701D02*
X430000Y410201D01*
X434000Y397557D02*
X437000Y394557D01*
X434000Y394402D02*
X437000Y397402D01*
X434000Y414201D02*
X437000Y417201D01*
X434000Y404302D02*
X437000Y407302D01*
X434000Y407457D02*
X437000Y404457D01*
X429500Y421856D02*
X430000Y421356D01*
X429500Y419601D02*
X430000Y420101D01*
X429500Y431756D02*
X433464Y427792D01*
X429500Y434672D02*
X433828Y439000D01*
X434000Y417356D02*
X437000Y414357D01*
X436292Y424964D02*
X437108Y424148D01*
X441000Y400457D02*
X444000Y397457D01*
X441000Y391503D02*
X444000Y394503D01*
X441000Y411302D02*
X444000Y414302D01*
X441000Y401402D02*
X444000Y404402D01*
X441000Y410357D02*
X444000Y407357D01*
X441000Y420256D02*
X444000Y417256D01*
X444742Y426413D02*
X447413Y423742D01*
X441000Y422672D02*
X447328Y429000D01*
X430589Y424917D02*
X443083Y437411D01*
X434000Y422672D02*
X445328Y434000D01*
X432992Y438164D02*
X438413Y432742D01*
X437589Y424917D02*
X445083Y432411D01*
X429500Y429500D02*
X439000Y439000D01*
X441242Y429914D02*
X441914Y429242D01*
X432629Y447800D02*
X433828Y449000D01*
X433328Y443000D02*
X434328Y444000D01*
X436954Y454000D02*
X437954Y453000D01*
X433201D02*
X434201Y454000D01*
X429591Y471263D02*
X437854Y463000D01*
X429041Y481712D02*
X433253Y477500D01*
X430653Y490000D02*
X433153Y487500D01*
X431954Y459000D02*
X432954Y458000D01*
X436250Y472750D02*
Y473500D01*
Y477500D02*
Y479250D01*
X431828Y473500D02*
X436250D01*
X431000Y477500D02*
X436250D01*
X437055Y444000D02*
X438055Y443000D01*
X438100Y448000D02*
X439101Y449000D01*
X438201Y458000D02*
X439201Y459000D01*
X441854D02*
X442854Y458000D01*
X436250Y472750D02*
X442250D01*
X442055Y439000D02*
X443391Y437664D01*
X443000Y443000D02*
X444000Y444000D01*
X442250Y472750D02*
X442750D01*
X441954Y449000D02*
X442954Y448000D01*
X443101Y453000D02*
X444101Y454000D01*
X433301Y463000D02*
X443051Y472750D01*
X438003D02*
X447753Y463000D01*
X438002Y487500D02*
X440503Y490000D01*
X436250Y479250D02*
X442250D01*
X437153Y483500D02*
X441403Y479250D01*
X442250Y472750D02*
X442750D01*
X439652Y479250D02*
X443902Y483500D01*
X442250Y479250D02*
X442750D01*
X442250D02*
X442750D01*
X440552Y490000D02*
X443052Y487500D01*
X448000Y334060D02*
X451500Y330560D01*
X448000Y329206D02*
X451500Y332706D01*
X448000Y349005D02*
X451500Y352505D01*
X448000Y339106D02*
X451500Y342606D01*
X448000Y343959D02*
X451500Y340459D01*
X455500Y336706D02*
X458500Y339706D01*
X455500Y336459D02*
X458500Y333459D01*
X448000Y353859D02*
X451500Y350359D01*
X455500Y346359D02*
X458500Y343359D01*
X455500Y346606D02*
X458500Y349606D01*
X448000Y378704D02*
X451500Y382204D01*
X448000Y373658D02*
X451500Y370158D01*
X448000Y393457D02*
X451500Y389957D01*
X448000Y383558D02*
X451500Y380058D01*
X448000Y388603D02*
X451500Y392103D01*
X455500Y356505D02*
X458500Y359505D01*
X455500Y356259D02*
X458500Y353258D01*
X448000Y368804D02*
X451500Y372304D01*
X448000Y358905D02*
X451500Y362405D01*
X448000Y363758D02*
X451500Y360259D01*
X462500Y343706D02*
X468000Y349206D01*
X462500Y333807D02*
X468000Y339307D01*
X455500Y366405D02*
X458500Y369405D01*
X462500Y349258D02*
X468000Y343759D01*
X455500Y366158D02*
X458500Y363158D01*
X462500Y353606D02*
X468000Y359106D01*
X462500Y339359D02*
X468000Y333859D01*
X462500Y369057D02*
X468000Y363558D01*
X462500Y359158D02*
X468000Y353658D01*
X462500Y363505D02*
X468000Y369005D01*
X455500Y376304D02*
X458500Y379304D01*
X455500Y376058D02*
X458500Y373058D01*
X455500Y395856D02*
X458500Y392857D01*
X455500Y385957D02*
X458500Y382957D01*
X455500Y386204D02*
X458500Y389204D01*
X462500Y378957D02*
X468000Y373457D01*
X462500Y373405D02*
X468000Y378905D01*
X462500Y393204D02*
X468000Y398704D01*
X462500Y383304D02*
X468000Y388804D01*
X462500Y388857D02*
X468000Y383356D01*
X448000Y403357D02*
X451500Y399856D01*
X448000Y398503D02*
X451500Y402003D01*
X448000Y408402D02*
X451500Y411902D01*
X448000Y413256D02*
X451500Y409756D01*
X455500Y405756D02*
X458500Y402756D01*
X455500Y396103D02*
X458500Y399103D01*
X455500Y406003D02*
X458500Y409003D01*
X456742Y414413D02*
X458583Y412572D01*
X448000Y418302D02*
X453698Y424000D01*
X450242Y420914D02*
X453913Y417242D01*
X441000Y421201D02*
X448799Y429000D01*
X448000Y418672D02*
X453328Y424000D01*
X444589Y420917D02*
X451083Y427411D01*
X457055Y424000D02*
X458863Y422192D01*
X457698Y428000D02*
X458698Y429000D01*
X452055D02*
X453055Y428000D01*
X455500Y413172D02*
X461328Y419000D01*
X459089Y413417D02*
X463083Y417411D01*
X462055Y419000D02*
X463391Y417664D01*
X462500Y403103D02*
X465550Y406153D01*
X462500Y398756D02*
X468000Y393256D01*
X462500Y408656D02*
X465566Y405589D01*
X462500Y411172D02*
X465328Y414000D01*
X452089Y415417D02*
X459083Y422411D01*
X453328Y424000D02*
X466022D01*
X452500Y428000D02*
X466022D01*
X447328Y429000D02*
X466710D01*
X461328Y419000D02*
X466710D01*
X461954Y429000D02*
X462954Y428000D01*
X460500Y423000D02*
X466710D01*
X462598D02*
X463598Y424000D01*
X472000Y379357D02*
X485500Y365857D01*
X472000Y363106D02*
X485500Y376606D01*
X472000Y382905D02*
X485500Y396405D01*
X472000Y373005D02*
X485500Y386505D01*
X472000Y389256D02*
X485500Y375756D01*
X472000Y343307D02*
X485500Y356807D01*
X472000Y333407D02*
X485500Y346907D01*
X472000Y369457D02*
X485500Y355957D01*
X472000Y359558D02*
X485500Y346058D01*
X472000Y353206D02*
X485500Y366706D01*
X472000Y392804D02*
X480819Y401623D01*
X474351Y405055D02*
X475555Y406258D01*
X474405Y406650D02*
X475578Y405477D01*
X479477Y401578D02*
X485500Y395555D01*
X476047Y406000D02*
X480000D01*
Y402047D02*
Y406000D01*
Y409953D01*
X489500Y332158D02*
X490000Y331658D01*
X489500Y331108D02*
X490000Y331608D01*
X472000Y349658D02*
X485500Y336158D01*
X489500Y341008D02*
X490000Y341508D01*
X489500Y342057D02*
X490000Y341558D01*
X489500Y351957D02*
X490000Y351457D01*
X489500Y350907D02*
X490000Y351407D01*
X489500Y370706D02*
X490000Y371206D01*
X489500Y360807D02*
X490000Y361307D01*
X489500Y361857D02*
X490000Y361356D01*
X489500Y381656D02*
X490000Y381155D01*
X489500Y371756D02*
X490000Y371256D01*
X484421Y406534D02*
X485500Y405454D01*
X472000Y399155D02*
X485500Y385655D01*
X484377Y405181D02*
X485500Y406304D01*
X489500Y390505D02*
X490000Y391005D01*
X489500Y380606D02*
X490000Y381106D01*
X489500Y401454D02*
X490000Y400954D01*
X489500Y391555D02*
X490000Y391055D01*
X489500Y400405D02*
X490000Y400905D01*
X465328Y414000D02*
X466022D01*
X464500Y418000D02*
X466022D01*
X469477Y411578D02*
X470650Y410405D01*
X469847Y410450D02*
X471076Y411679D01*
X474321Y414924D02*
X475550Y416153D01*
X474421Y416534D02*
X475593Y415361D01*
X473290Y423000D02*
X474172D01*
X473290Y429000D02*
X475000D01*
X473290Y419000D02*
X475000D01*
X474172Y423000D02*
X475773Y424601D01*
X474284Y424787D02*
X475548Y426050D01*
X474433Y426421D02*
X475612Y425242D01*
X480000Y406000D02*
X483953D01*
X481399Y411773D02*
X485500Y407672D01*
X479361Y411593D02*
X480534Y410421D01*
X479742Y410445D02*
X480945Y411649D01*
X484227Y414601D02*
X488911Y409917D01*
X489009Y409813D02*
X490000Y410804D01*
X484433Y416421D02*
X490000Y410854D01*
X476417Y419589D02*
X478601Y421773D01*
X479242Y421612D02*
X480421Y420433D01*
X484351Y415055D02*
X490000Y420704D01*
X479847Y420450D02*
X481076Y421679D01*
X484442Y426312D02*
X490000Y420753D01*
X447055Y434000D02*
X448055Y433000D01*
X452799D02*
X453799Y434000D01*
X446954Y444000D02*
X447954Y443000D01*
X451954Y439000D02*
X452954Y438000D01*
X447899D02*
X448899Y439000D01*
X456954Y434000D02*
X457954Y433000D01*
X461854Y439000D02*
X462854Y438000D01*
X452899Y443000D02*
X453899Y444000D01*
X457799Y438000D02*
X458799Y439000D01*
X456854Y444000D02*
X457854Y443000D01*
X448000Y448000D02*
X449000Y449000D01*
X451854D02*
X452854Y448000D01*
X446854Y454000D02*
X447854Y453000D01*
X451753Y459000D02*
X452753Y458000D01*
X448101D02*
X449100Y459000D01*
X457899Y448000D02*
X458899Y449000D01*
X461753D02*
X462753Y448000D01*
X453000Y453000D02*
X454000Y454000D01*
X456753D02*
X457753Y453000D01*
X458000Y458000D02*
X459000Y459000D01*
X444500Y438000D02*
X466022D01*
X445328Y434000D02*
X466022D01*
X434328Y444000D02*
X466022D01*
X433828Y439000D02*
X466710D01*
X433328Y443000D02*
X466710D01*
X462698Y433000D02*
X463698Y434000D01*
X446500Y433000D02*
X466710D01*
X462799Y443000D02*
X463799Y444000D01*
X433500Y448000D02*
X466022D01*
X433828Y449000D02*
X466710D01*
X462899Y453000D02*
X463899Y454000D01*
X433000Y453000D02*
X466710D01*
X432828Y454000D02*
X466022D01*
X443201Y463000D02*
X454201Y474000D01*
X447903Y472750D02*
X457653Y463000D01*
X442750Y472750D02*
X448750D01*
Y474000D02*
X465547D01*
X448750Y472750D02*
Y474000D01*
X461653Y459000D02*
X462653Y458000D01*
X453100Y463000D02*
X464101Y474000D01*
X448750Y478000D02*
Y479250D01*
X465547Y471547D02*
Y474000D01*
X448750Y478000D02*
X465547D01*
X447052Y483500D02*
X452552Y478000D01*
X448750Y478448D02*
X453801Y483500D01*
X442750Y479250D02*
X448750D01*
X450452Y490000D02*
X452952Y487500D01*
X447902D02*
X450402Y490000D01*
X456952Y483500D02*
X462452Y478000D01*
X458201D02*
X463701Y483500D01*
X457801Y487500D02*
X460301Y490000D01*
X465547Y478000D02*
Y480453D01*
X460351Y490000D02*
X462851Y487500D01*
X432000Y458000D02*
X466022D01*
X430828Y459000D02*
X466710D01*
X463000Y463000D02*
X465568Y465568D01*
X430000Y463000D02*
X466710D01*
X466047Y466000D02*
X470000D01*
X473290Y459000D02*
X475000D01*
X468905Y471547D02*
X469999Y470453D01*
X470000Y466000D02*
X473953D01*
X470000D02*
Y469953D01*
X456552Y474000D02*
X465697Y464856D01*
X465547Y471547D02*
X474453D01*
X430828Y483500D02*
X474172D01*
X465547Y480453D02*
X474453D01*
X430000Y487500D02*
X475000D01*
X466851Y483500D02*
X469899Y480453D01*
X470432Y470432D02*
X471547Y471547D01*
X467701Y487500D02*
X470201Y490000D01*
X470553Y480453D02*
X473600Y483500D01*
X470251Y490000D02*
X472751Y487500D01*
X473290Y433000D02*
X474172D01*
X475773Y434601D01*
X473290Y439000D02*
X475000D01*
X474241Y434643D02*
X475548Y435950D01*
X474442Y436312D02*
X475635Y435118D01*
X473290Y443000D02*
X474172D01*
X475773Y444601D01*
X473290Y449000D02*
X475000D01*
X474189Y444491D02*
X475550Y445851D01*
X476417Y439589D02*
X478601Y441773D01*
X474448Y446205D02*
X475663Y444989D01*
X476417Y429589D02*
X478601Y431773D01*
X478990Y441663D02*
X480205Y440448D01*
X479118Y431636D02*
X480312Y430442D01*
X484321Y424924D02*
X490000Y430603D01*
X479950Y430452D02*
X481213Y431716D01*
X484448Y436205D02*
X490000Y430653D01*
X484284Y434787D02*
X490000Y440503D01*
X476417Y449589D02*
X478601Y451773D01*
X478856Y451697D02*
X480101Y450452D01*
X480050Y440452D02*
X481357Y441759D01*
X484452Y446101D02*
X490000Y440552D01*
X480149Y450450D02*
X481509Y451811D01*
X484241Y444643D02*
X490000Y450402D01*
X484453Y455999D02*
X490000Y450452D01*
X473290Y453000D02*
X474172D01*
X473290Y463000D02*
X474172D01*
X474127Y454328D02*
X475554Y455755D01*
X474172Y463000D02*
X475773Y464601D01*
X474452Y456101D02*
X475697Y454856D01*
X474172Y453000D02*
X475773Y454601D01*
X476417Y459589D02*
X478601Y461773D01*
X474051Y464151D02*
X475560Y465661D01*
X474453Y474453D02*
X475568Y475568D01*
X474453Y465999D02*
X475737Y464715D01*
X474172Y483500D02*
X477800Y479871D01*
X474453Y471547D02*
Y480453D01*
X478567Y471784D02*
X479900Y470452D01*
X474453Y475899D02*
X475784Y474567D01*
X480245Y460446D02*
X481672Y461873D01*
X478715Y461737D02*
X479999Y460453D01*
X484452Y465900D02*
X490000Y460351D01*
X484189Y454491D02*
X490000Y460302D01*
X480339Y470440D02*
X481848Y471949D01*
X484127Y464328D02*
X490000Y470201D01*
X484448Y475803D02*
X490000Y470251D01*
X480150Y490000D02*
X490000Y480150D01*
X476714Y486614D02*
X480100Y490000D01*
X476417Y486911D02*
X481411Y481917D01*
X482000Y479978D02*
Y480500D01*
X484051Y474152D02*
X490000Y480101D01*
X481642Y481642D02*
X489000Y489000D01*
X488000Y490000D02*
X490000Y488000D01*
X124000Y350279D02*
X131280D01*
X136760Y355760D01*
X158087D01*
X150520Y322520D02*
X162500D01*
X148240Y320240D02*
X150520Y322520D01*
X148240Y292500D02*
Y320240D01*
X151000Y347500D02*
Y352020D01*
X148240Y344740D02*
X151000Y347500D01*
X148240Y337000D02*
Y344740D01*
D11*
X471500Y153500D02*
D03*
Y147500D02*
D03*
X345500Y144500D02*
D03*
Y138500D02*
D03*
X171500Y284000D02*
D03*
Y290000D02*
D03*
X185500Y218500D02*
D03*
Y224500D02*
D03*
X140500Y300500D02*
D03*
Y306500D02*
D03*
X141000Y350000D02*
D03*
Y356000D02*
D03*
D12*
X471500Y140012D02*
D03*
Y128988D02*
D03*
X345500Y131012D02*
D03*
Y119988D02*
D03*
D13*
X140500Y209500D02*
D03*
D14*
X155500Y229972D02*
D03*
X150500D02*
D03*
X145500D02*
D03*
X140500D02*
D03*
X155500Y209500D02*
D03*
X150500D02*
D03*
X145500D02*
D03*
D15*
X314150Y171346D02*
D03*
X311591D02*
D03*
X309032D02*
D03*
X306472D02*
D03*
X303913D02*
D03*
X301354D02*
D03*
X298795D02*
D03*
X296236D02*
D03*
X293677D02*
D03*
X291118D02*
D03*
X288559D02*
D03*
X286000D02*
D03*
X314150Y143000D02*
D03*
X311591D02*
D03*
X309032D02*
D03*
X306472D02*
D03*
X303913D02*
D03*
X301354D02*
D03*
X298795D02*
D03*
X296236D02*
D03*
X293677D02*
D03*
X291118D02*
D03*
X288559D02*
D03*
D16*
X286000D02*
D03*
D17*
X148240Y292500D02*
D03*
X140760D02*
D03*
X148240Y337000D02*
D03*
X140760D02*
D03*
X317740Y132000D02*
D03*
X310260D02*
D03*
X289240D02*
D03*
X281760D02*
D03*
D18*
X149500Y406000D02*
D03*
X143500D02*
D03*
X439500Y476000D02*
D03*
X445500D02*
D03*
X152000Y272000D02*
D03*
X158000D02*
D03*
X160000Y249000D02*
D03*
X154000D02*
D03*
X259000Y217000D02*
D03*
X265000Y217000D02*
D03*
X358500Y171500D02*
D03*
X352500D02*
D03*
D19*
X144500Y257154D02*
D03*
Y263846D02*
D03*
X164500Y284154D02*
D03*
Y290846D02*
D03*
X162000Y216347D02*
D03*
Y209653D02*
D03*
X332500Y171346D02*
D03*
Y164654D02*
D03*
X178500Y224847D02*
D03*
Y218154D02*
D03*
X411500Y153847D02*
D03*
Y147153D02*
D03*
D20*
X161500Y257000D02*
D03*
Y260740D02*
D03*
Y264480D02*
D03*
X152051D02*
D03*
Y257000D02*
D03*
D21*
X325500Y163760D02*
D03*
Y171240D02*
D03*
X372000Y146760D02*
D03*
Y154240D02*
D03*
D22*
X382945Y154000D02*
D03*
X401000D02*
D03*
D23*
X392000Y129394D02*
D03*
D24*
X162500Y330000D02*
D03*
Y322520D02*
D03*
X169587Y326260D02*
D03*
X151000Y359500D02*
D03*
Y352020D02*
D03*
X158087Y355760D02*
D03*
D25*
X124000Y291500D02*
X139760D01*
X345500Y131012D02*
Y138500D01*
Y144500D02*
X352000D01*
X361740Y154240D01*
X372000D01*
Y138500D02*
Y146760D01*
X124000Y336500D02*
X140260D01*
X372240Y154000D02*
X382945D01*
X372000Y154240D02*
Y166000D01*
X140760Y337000D02*
Y349760D01*
X184000Y350000D02*
X190000D01*
X174500Y359500D02*
X184000Y350000D01*
X151000Y359500D02*
X174500D01*
X124000Y305279D02*
X132909D01*
X134130Y306500D01*
X144760Y326260D02*
X169587D01*
X140500Y322000D02*
X144760Y326260D01*
X140500Y306500D02*
Y322000D01*
X134130Y306500D02*
X140500D01*
Y292760D02*
Y300500D01*
D26*
X471500Y140012D02*
Y147500D01*
X428000Y153500D02*
X471500D01*
X411500Y137000D02*
Y147153D01*
X336240Y163760D02*
X338500Y161500D01*
X342500D01*
X325500Y163760D02*
X336240D01*
X358500Y171500D02*
Y184500D01*
X344000Y199000D02*
X358500Y184500D01*
X239500Y199000D02*
X344000D01*
X223500Y215000D02*
X239500Y199000D01*
X115633Y319059D02*
X124000D01*
X112733Y316159D02*
X115633Y319059D01*
X112733Y276233D02*
Y316159D01*
D27*
X401500Y153500D02*
X428000D01*
X286000Y143000D02*
X287500D01*
X289240Y132000D02*
X294500D01*
X297500Y135000D01*
Y143000D01*
X281760Y132000D02*
Y140760D01*
X284000Y143000D01*
X286000D01*
X305500Y132000D02*
X309260D01*
X302500Y135000D02*
X305500Y132000D01*
X302500Y135000D02*
Y143500D01*
X312500Y143000D02*
X314150D01*
X316000D01*
X317740Y141260D01*
Y132000D02*
Y141260D01*
X281760Y124760D02*
Y132000D01*
X277500Y120500D02*
X281760Y124760D01*
X277500Y112000D02*
Y120500D01*
X289240Y122760D02*
Y132000D01*
Y122760D02*
X291280Y120721D01*
Y112000D02*
Y120721D01*
X308500Y112000D02*
Y122000D01*
X310260Y123760D01*
Y132000D01*
X317740Y124760D02*
Y132000D01*
Y124760D02*
X322280Y120220D01*
Y112000D02*
Y120220D01*
X312000Y171346D02*
X314150D01*
X352153D01*
X358500Y171500D02*
X422500D01*
X428000Y166000D01*
Y153500D02*
Y166000D01*
X292398Y151898D02*
X295000Y154500D01*
X292398Y143000D02*
Y151898D01*
X295000Y154500D02*
X304500D01*
X307752Y151248D01*
Y143000D02*
Y151248D01*
D28*
X286000Y163500D02*
Y171346D01*
X311591Y163091D02*
Y171346D01*
X286000Y163500D02*
X289500Y160000D01*
X308500D01*
X311591Y163091D01*
D29*
X124000Y336500D02*
D03*
Y291500D02*
D03*
X120000Y223500D02*
D03*
X428000Y153500D02*
D03*
D30*
X124000Y350279D02*
D03*
Y364059D02*
D03*
Y305279D02*
D03*
Y319059D02*
D03*
X120000Y209720D02*
D03*
X428000Y139720D02*
D03*
X291280Y112000D02*
D03*
X322280D02*
D03*
D31*
X400000Y316000D02*
D03*
Y386000D02*
D03*
Y376000D02*
D03*
Y366000D02*
D03*
Y356000D02*
D03*
Y346000D02*
D03*
Y336000D02*
D03*
Y326000D02*
D03*
Y306000D02*
D03*
X390000Y316000D02*
D03*
Y386000D02*
D03*
Y376000D02*
D03*
Y366000D02*
D03*
X390000Y356000D02*
D03*
X390000Y346000D02*
D03*
Y336000D02*
D03*
Y326000D02*
D03*
X390000Y306000D02*
D03*
X200000Y290000D02*
D03*
Y300000D02*
D03*
Y310000D02*
D03*
Y320000D02*
D03*
Y330000D02*
D03*
Y340000D02*
D03*
Y350000D02*
D03*
X190000Y290000D02*
D03*
Y300000D02*
D03*
Y310000D02*
D03*
Y320000D02*
D03*
Y330000D02*
D03*
Y340000D02*
D03*
Y350000D02*
D03*
X178000Y254500D02*
D03*
X210000Y260000D02*
D03*
X200000Y250000D02*
D03*
X210000D02*
D03*
X200000Y240000D02*
D03*
X210000Y240000D02*
D03*
X200000Y230000D02*
D03*
X210000D02*
D03*
X200000Y220000D02*
D03*
X210000D02*
D03*
X200000Y210000D02*
D03*
X210000D02*
D03*
X200000Y200000D02*
D03*
X210000D02*
D03*
X200000Y190000D02*
D03*
X210000Y190000D02*
D03*
X200000Y180000D02*
D03*
X210000D02*
D03*
X200000Y170000D02*
D03*
X210000D02*
D03*
X178000Y239500D02*
D03*
X400000Y220000D02*
D03*
Y230000D02*
D03*
Y240000D02*
D03*
Y250000D02*
D03*
Y260000D02*
D03*
Y270000D02*
D03*
Y280000D02*
D03*
X390000Y220000D02*
D03*
Y230000D02*
D03*
Y240000D02*
D03*
Y250000D02*
D03*
Y260000D02*
D03*
Y270000D02*
D03*
Y280000D02*
D03*
X255000Y228000D02*
D03*
X265000D02*
D03*
X120000Y476000D02*
D03*
X130000Y476000D02*
D03*
X120000Y466000D02*
D03*
X130000D02*
D03*
X120000Y456000D02*
D03*
X130000D02*
D03*
X120000Y446000D02*
D03*
X130000D02*
D03*
X120000Y436000D02*
D03*
X130000D02*
D03*
X120000Y426000D02*
D03*
X130000Y426000D02*
D03*
X120000Y416000D02*
D03*
X130000D02*
D03*
X120000Y406000D02*
D03*
X480000D02*
D03*
X470000Y406000D02*
D03*
X480000Y416000D02*
D03*
X470000D02*
D03*
X480000Y426000D02*
D03*
X470000D02*
D03*
X480000Y436000D02*
D03*
X470000D02*
D03*
X480000Y446000D02*
D03*
X470000D02*
D03*
X480000Y456000D02*
D03*
X470000Y456000D02*
D03*
X480000Y466000D02*
D03*
X470000D02*
D03*
X480000Y476000D02*
D03*
X342500Y161500D02*
D03*
D32*
X400000Y296000D02*
D03*
X390000D02*
D03*
X200000Y280000D02*
D03*
X190000D02*
D03*
X178000Y264500D02*
D03*
X200000Y260000D02*
D03*
X400000Y210000D02*
D03*
X390000D02*
D03*
X130000Y406000D02*
D03*
X470000Y476000D02*
D03*
X342500Y171500D02*
D03*
D33*
X168000Y239500D02*
D03*
X245000Y228000D02*
D03*
D34*
X120000Y248000D02*
D03*
D35*
X129800D02*
D03*
D36*
X148000Y190500D02*
D03*
X128000Y180500D02*
D03*
D37*
X178000D02*
D03*
D38*
X277500Y112000D02*
D03*
X308500D02*
D03*
D39*
X435492Y287000D02*
D03*
X442392Y284000D02*
D03*
X449500Y283063D02*
D03*
X457000Y279000D02*
D03*
X465250Y287059D02*
D03*
X480161Y292000D02*
D03*
X452000Y481500D02*
D03*
X452653Y468000D02*
D03*
X357862Y394500D02*
D03*
X348801Y378500D02*
D03*
X334000Y363699D02*
D03*
X320000Y359598D02*
D03*
X309500Y358998D02*
D03*
X297103Y356500D02*
D03*
X285000Y354296D02*
D03*
X274500Y353696D02*
D03*
X264405Y353500D02*
D03*
X255000Y334000D02*
D03*
X158500Y415671D02*
D03*
X160912Y398500D02*
D03*
X405000Y120000D02*
D03*
X401500D02*
D03*
X398000D02*
D03*
X394500D02*
D03*
X391000D02*
D03*
X387500D02*
D03*
X384000D02*
D03*
X380500D02*
D03*
X312500Y180000D02*
D03*
X292000Y188500D02*
D03*
X298795Y186500D02*
D03*
X291500Y235000D02*
D03*
X301354Y164000D02*
D03*
X144500Y270000D02*
D03*
X158000Y281500D02*
D03*
X295000Y154500D02*
D03*
X300000D02*
D03*
X304500D02*
D03*
X305500Y206000D02*
D03*
X372000Y166000D02*
D03*
X223500Y215000D02*
D03*
X169500D02*
D03*
X148240Y342500D02*
D03*
Y298500D02*
D03*
X112733Y276233D02*
D03*
M02*
