G04 Layer_Physical_Order=2*
G04 Layer_Color=16711680*
%FSLAX25Y25*%
%MOIN*%
G70*
G01*
G75*
%ADD10C,0.01000*%
%ADD30C,0.01800*%
%ADD31C,0.01400*%
%ADD32C,0.05906*%
%ADD33R,0.05906X0.05906*%
%ADD34O,0.19500X0.17500*%
%ADD35R,0.09500X0.09500*%
%ADD36C,0.09500*%
%ADD37R,0.04800X0.04800*%
%ADD38C,0.04800*%
%ADD39C,0.06000*%
%ADD40R,0.06000X0.06000*%
%ADD41R,0.09500X0.09500*%
%ADD42C,0.22000*%
%ADD43C,0.03100*%
G36*
X114063Y293063D02*
X114493Y292775D01*
X115000Y292674D01*
X118650D01*
Y288650D01*
X129350D01*
Y292674D01*
X182500D01*
Y162529D01*
X180133D01*
X171687Y170976D01*
X171692Y171000D01*
X171525Y171839D01*
X171050Y172550D01*
X170339Y173025D01*
X169500Y173192D01*
X168661Y173025D01*
X167950Y172550D01*
X167475Y171839D01*
X167308Y171000D01*
X167475Y170161D01*
X167950Y169450D01*
X168661Y168975D01*
X169500Y168808D01*
X169524Y168813D01*
X178419Y159919D01*
X178915Y159587D01*
X179500Y159471D01*
X185529D01*
X187500Y157500D01*
X247879D01*
Y138836D01*
X247450Y138550D01*
X246975Y137839D01*
X246808Y137000D01*
X246975Y136161D01*
X247450Y135450D01*
X248161Y134975D01*
X249000Y134808D01*
X249839Y134975D01*
X250550Y135450D01*
X251025Y136161D01*
X251192Y137000D01*
X251025Y137839D01*
X250550Y138550D01*
X250121Y138836D01*
Y170535D01*
X256465Y176878D01*
X274000D01*
X274000Y176878D01*
X274429Y176964D01*
X274793Y177207D01*
X280465Y182878D01*
X296295D01*
X296295Y182878D01*
X296725Y182964D01*
X297088Y183207D01*
X298290Y184408D01*
X298795Y184308D01*
X299634Y184475D01*
X300345Y184950D01*
X300820Y185661D01*
X300987Y186500D01*
X300820Y187339D01*
X300345Y188050D01*
X299634Y188525D01*
X298795Y188692D01*
X297956Y188525D01*
X297245Y188050D01*
X296770Y187339D01*
X296603Y186500D01*
X296704Y185995D01*
X295831Y185122D01*
X280000D01*
X280000Y185122D01*
X279571Y185036D01*
X279207Y184793D01*
X279207Y184793D01*
X273535Y179122D01*
X256000D01*
X255571Y179036D01*
X255207Y178793D01*
X255207Y178793D01*
X250462Y174048D01*
X250000Y174239D01*
Y200471D01*
X259936D01*
X259950Y200450D01*
X260661Y199975D01*
X261500Y199808D01*
X262339Y199975D01*
X263050Y200450D01*
X263525Y201161D01*
X263692Y202000D01*
X263525Y202839D01*
X263050Y203550D01*
X262339Y204025D01*
X261500Y204192D01*
X260661Y204025D01*
X259950Y203550D01*
X259936Y203529D01*
X250000D01*
Y214674D01*
X317500D01*
Y180000D01*
X320000Y177500D01*
X370674D01*
Y167700D01*
X370450Y167550D01*
X369975Y166839D01*
X369808Y166000D01*
X369975Y165161D01*
X370450Y164450D01*
X371161Y163975D01*
X372000Y163808D01*
X372839Y163975D01*
X373550Y164450D01*
X374025Y165161D01*
X374192Y166000D01*
X374025Y166839D01*
X373550Y167550D01*
X373325Y167700D01*
Y177146D01*
X373679Y177500D01*
X407440Y177500D01*
X407466Y177466D01*
X408208Y176897D01*
X409073Y176539D01*
X410000Y176417D01*
X410927Y176539D01*
X411792Y176897D01*
X412534Y177466D01*
X412560Y177500D01*
X417440D01*
X417466Y177466D01*
X418208Y176897D01*
X419072Y176539D01*
X420000Y176417D01*
X420927Y176539D01*
X421792Y176897D01*
X422534Y177466D01*
X422560Y177500D01*
X438502D01*
X438771Y177000D01*
X438020Y175595D01*
X437485Y173833D01*
X437305Y172000D01*
X437485Y170167D01*
X438020Y168405D01*
X438888Y166780D01*
X440057Y165357D01*
X441480Y164188D01*
X443105Y163320D01*
X444867Y162785D01*
X446700Y162605D01*
X448700D01*
X450533Y162785D01*
X452295Y163320D01*
X453849Y164151D01*
X454442Y163558D01*
X454321Y163073D01*
X454251Y163051D01*
X452557Y162146D01*
X451072Y160928D01*
X449854Y159443D01*
X448949Y157749D01*
X448391Y155911D01*
X448252Y154500D01*
X459000D01*
Y153500D01*
X448252D01*
X448391Y152089D01*
X448949Y150251D01*
X449854Y148557D01*
X451072Y147072D01*
X452557Y145854D01*
X454251Y144949D01*
X456089Y144391D01*
X458000Y144203D01*
X458646D01*
X459000Y143849D01*
X459000Y125017D01*
X443983Y110000D01*
X346000Y110000D01*
X337500D01*
X332500Y115000D01*
Y125000D01*
X330000Y127500D01*
X115000D01*
X110000Y132500D01*
Y286668D01*
X110500Y286935D01*
X111005Y286598D01*
X111500Y286500D01*
Y289000D01*
Y291500D01*
X111005Y291402D01*
X110500Y291065D01*
X110000Y291332D01*
Y296418D01*
X110500Y296625D01*
X114063Y293063D01*
D02*
G37*
G36*
X182500Y367500D02*
Y358622D01*
X165000D01*
X164571Y358536D01*
X164207Y358293D01*
X164207Y358293D01*
X157207Y351293D01*
X156964Y350929D01*
X156878Y350500D01*
X156878Y350500D01*
Y311836D01*
X156450Y311550D01*
X155975Y310839D01*
X155808Y310000D01*
X155975Y309161D01*
X156450Y308450D01*
X157161Y307975D01*
X158000Y307808D01*
X158839Y307975D01*
X159550Y308450D01*
X160025Y309161D01*
X160192Y310000D01*
X160025Y310839D01*
X159550Y311550D01*
X159122Y311836D01*
Y350035D01*
X165465Y356379D01*
X182500D01*
Y341122D01*
X181000D01*
X180571Y341036D01*
X180207Y340793D01*
X180207Y340793D01*
X174707Y335293D01*
X174464Y334929D01*
X174378Y334500D01*
X174378Y334500D01*
Y300836D01*
X173950Y300550D01*
X173475Y299839D01*
X173308Y299000D01*
X173475Y298161D01*
X173950Y297450D01*
X174661Y296975D01*
X175500Y296808D01*
X176339Y296975D01*
X177050Y297450D01*
X177525Y298161D01*
X177692Y299000D01*
X177525Y299839D01*
X177050Y300550D01*
X176622Y300836D01*
Y334035D01*
X181465Y338878D01*
X182500D01*
Y295325D01*
X129350D01*
Y299350D01*
X118650D01*
Y295325D01*
X115549D01*
X112326Y298549D01*
Y332951D01*
X116049Y336674D01*
X118650D01*
Y332650D01*
X129350D01*
Y343350D01*
X118650D01*
Y339325D01*
X115500D01*
X114993Y339225D01*
X114563Y338937D01*
X110500Y334875D01*
X110000Y335082D01*
Y367500D01*
X115000Y372500D01*
X177500D01*
X182500Y367500D01*
D02*
G37*
G36*
X216500Y320000D02*
X215000Y318500D01*
Y321500D01*
X216500Y320000D01*
D02*
G37*
G36*
X174152Y115000D02*
X173837D01*
Y116014D01*
X173833Y116092D01*
X173829Y116158D01*
X173821Y116217D01*
X173809Y116268D01*
X173801Y116306D01*
X173794Y116334D01*
X173790Y116353D01*
X173786Y116357D01*
X173762Y116400D01*
X173739Y116443D01*
X173708Y116474D01*
X173680Y116505D01*
X173653Y116525D01*
X173634Y116544D01*
X173618Y116552D01*
X173614Y116556D01*
X173567Y116579D01*
X173521Y116599D01*
X173474Y116611D01*
X173435Y116622D01*
X173400Y116626D01*
X173372Y116630D01*
X173349D01*
X173283Y116626D01*
X173228Y116615D01*
X173177Y116595D01*
X173138Y116576D01*
X173107Y116556D01*
X173084Y116537D01*
X173068Y116525D01*
X173064Y116521D01*
X173029Y116474D01*
X173002Y116420D01*
X172986Y116365D01*
X172971Y116310D01*
X172963Y116256D01*
X172959Y116217D01*
Y116201D01*
Y116190D01*
Y116182D01*
Y116178D01*
Y115000D01*
X172643D01*
Y116174D01*
X172647Y116271D01*
X172655Y116353D01*
X172663Y116427D01*
X172674Y116486D01*
X172690Y116533D01*
X172698Y116564D01*
X172705Y116583D01*
X172709Y116591D01*
X172737Y116642D01*
X172772Y116689D01*
X172807Y116728D01*
X172842Y116759D01*
X172877Y116782D01*
X172904Y116802D01*
X172920Y116814D01*
X172928Y116817D01*
X172986Y116845D01*
X173049Y116864D01*
X173107Y116880D01*
X173162Y116888D01*
X173209Y116895D01*
X173248Y116899D01*
X173283D01*
X173345Y116895D01*
X173404Y116888D01*
X173458Y116876D01*
X173509Y116860D01*
X173606Y116817D01*
X173645Y116798D01*
X173684Y116774D01*
X173720Y116747D01*
X173751Y116728D01*
X173774Y116704D01*
X173798Y116685D01*
X173813Y116669D01*
X173825Y116657D01*
X173833Y116650D01*
X173837Y116646D01*
Y117562D01*
X174152D01*
Y115000D01*
D02*
G37*
G36*
X176403D02*
X176067D01*
X175689Y116427D01*
X175615Y116108D01*
X175322Y115000D01*
X174999D01*
X174414Y116856D01*
X174718D01*
X175042Y115780D01*
X175147Y115421D01*
X175237Y115776D01*
X175517Y116856D01*
X175837D01*
X176134Y115768D01*
X176149Y115706D01*
X176165Y115651D01*
X176177Y115601D01*
X176188Y115558D01*
X176196Y115523D01*
X176204Y115491D01*
X176212Y115464D01*
X176216Y115445D01*
X176219Y115425D01*
X176223Y115413D01*
X176227Y115398D01*
X176231Y115390D01*
Y115386D01*
X176336Y115784D01*
X176629Y116856D01*
X176960D01*
X176403Y115000D01*
D02*
G37*
G36*
X181504D02*
X181188D01*
Y115737D01*
X180970Y115948D01*
X180353Y115000D01*
X179963D01*
X180743Y116166D01*
X180034Y116856D01*
X180443D01*
X181188Y116104D01*
Y117562D01*
X181504D01*
Y115000D01*
D02*
G37*
G36*
X178934Y116895D02*
X179000Y116888D01*
X179055Y116872D01*
X179105Y116856D01*
X179144Y116841D01*
X179176Y116825D01*
X179195Y116817D01*
X179203Y116814D01*
X179254Y116782D01*
X179300Y116743D01*
X179339Y116708D01*
X179371Y116673D01*
X179398Y116642D01*
X179417Y116619D01*
X179429Y116603D01*
X179433Y116595D01*
Y116856D01*
X179714D01*
Y115000D01*
X179398D01*
Y115963D01*
X179394Y116053D01*
X179390Y116131D01*
X179382Y116197D01*
X179371Y116252D01*
X179363Y116295D01*
X179355Y116326D01*
X179351Y116342D01*
X179347Y116349D01*
X179324Y116396D01*
X179300Y116439D01*
X179273Y116474D01*
X179246Y116505D01*
X179222Y116525D01*
X179203Y116544D01*
X179187Y116552D01*
X179183Y116556D01*
X179140Y116579D01*
X179098Y116595D01*
X179055Y116611D01*
X179020Y116619D01*
X178984Y116622D01*
X178961Y116626D01*
X178938D01*
X178875Y116622D01*
X178825Y116611D01*
X178782Y116591D01*
X178747Y116576D01*
X178719Y116556D01*
X178704Y116537D01*
X178692Y116525D01*
X178688Y116521D01*
X178661Y116478D01*
X178641Y116427D01*
X178630Y116377D01*
X178618Y116322D01*
X178614Y116279D01*
X178610Y116240D01*
Y116225D01*
Y116213D01*
Y116209D01*
Y116205D01*
Y115000D01*
X178294D01*
Y116076D01*
X178290Y116178D01*
X178275Y116264D01*
X178255Y116334D01*
X178228Y116392D01*
X178205Y116439D01*
X178185Y116470D01*
X178169Y116486D01*
X178165Y116494D01*
X178115Y116537D01*
X178056Y116572D01*
X178002Y116595D01*
X177951Y116611D01*
X177908Y116619D01*
X177869Y116626D01*
X177838D01*
X177799Y116622D01*
X177764Y116619D01*
X177729Y116611D01*
X177701Y116603D01*
X177682Y116591D01*
X177666Y116583D01*
X177655Y116579D01*
X177651Y116576D01*
X177623Y116556D01*
X177600Y116533D01*
X177580Y116509D01*
X177565Y116490D01*
X177553Y116470D01*
X177545Y116455D01*
X177538Y116443D01*
Y116439D01*
X177526Y116404D01*
X177518Y116361D01*
X177510Y116271D01*
X177506Y116232D01*
Y116197D01*
Y116174D01*
Y116170D01*
Y116166D01*
Y115000D01*
X177190D01*
Y116271D01*
Y116330D01*
X177198Y116384D01*
X177214Y116482D01*
X177237Y116560D01*
X177265Y116626D01*
X177296Y116677D01*
X177319Y116716D01*
X177335Y116735D01*
X177343Y116743D01*
X177405Y116794D01*
X177471Y116833D01*
X177541Y116860D01*
X177612Y116880D01*
X177670Y116892D01*
X177698Y116895D01*
X177721D01*
X177740Y116899D01*
X177768D01*
X177834Y116895D01*
X177892Y116884D01*
X177951Y116868D01*
X178006Y116849D01*
X178107Y116794D01*
X178150Y116767D01*
X178189Y116735D01*
X178224Y116704D01*
X178255Y116677D01*
X178282Y116650D01*
X178306Y116622D01*
X178322Y116603D01*
X178333Y116587D01*
X178341Y116576D01*
X178345Y116572D01*
X178368Y116626D01*
X178396Y116677D01*
X178427Y116716D01*
X178458Y116751D01*
X178485Y116778D01*
X178509Y116798D01*
X178524Y116810D01*
X178532Y116814D01*
X178583Y116841D01*
X178637Y116864D01*
X178696Y116880D01*
X178747Y116888D01*
X178793Y116895D01*
X178832Y116899D01*
X178867D01*
X178934Y116895D01*
D02*
G37*
%LPC*%
G36*
X343000Y165421D02*
Y162000D01*
X346421D01*
X346351Y162532D01*
X345953Y163493D01*
X345319Y164319D01*
X344493Y164953D01*
X343532Y165351D01*
X343000Y165421D01*
D02*
G37*
G36*
X410000Y173583D02*
X409073Y173461D01*
X408208Y173103D01*
X407466Y172534D01*
X406897Y171792D01*
X406539Y170927D01*
X406417Y170000D01*
X406539Y169073D01*
X406897Y168208D01*
X407466Y167466D01*
X408208Y166897D01*
X409073Y166539D01*
X410000Y166417D01*
X410927Y166539D01*
X411792Y166897D01*
X412534Y167466D01*
X413103Y168208D01*
X413461Y169073D01*
X413583Y170000D01*
X413461Y170927D01*
X413103Y171792D01*
X412534Y172534D01*
X411792Y173103D01*
X410927Y173461D01*
X410000Y173583D01*
D02*
G37*
G36*
X120500Y171454D02*
Y166220D01*
X125734D01*
X125602Y167221D01*
X125023Y168620D01*
X124101Y169821D01*
X122900Y170743D01*
X121501Y171323D01*
X120500Y171454D01*
D02*
G37*
G36*
X119500D02*
X118499Y171323D01*
X117100Y170743D01*
X115899Y169821D01*
X114977Y168620D01*
X114398Y167221D01*
X114266Y166220D01*
X119500D01*
Y171454D01*
D02*
G37*
G36*
X272500Y167692D02*
X271661Y167525D01*
X270950Y167050D01*
X270475Y166339D01*
X270308Y165500D01*
X270475Y164661D01*
X270950Y163950D01*
X271661Y163475D01*
X272500Y163308D01*
X273006Y163408D01*
X276207Y160207D01*
X276207Y160207D01*
X276571Y159964D01*
X277000Y159878D01*
X277000Y159878D01*
X311164D01*
X311450Y159450D01*
X312161Y158975D01*
X313000Y158808D01*
X313839Y158975D01*
X314550Y159450D01*
X315025Y160161D01*
X315192Y161000D01*
X315025Y161839D01*
X314550Y162550D01*
X313839Y163025D01*
X313000Y163192D01*
X312161Y163025D01*
X311450Y162550D01*
X311164Y162122D01*
X277465D01*
X274592Y164995D01*
X274692Y165500D01*
X274525Y166339D01*
X274050Y167050D01*
X273339Y167525D01*
X272500Y167692D01*
D02*
G37*
G36*
X346421Y161000D02*
X343000D01*
Y157579D01*
X343532Y157649D01*
X344493Y158047D01*
X345319Y158681D01*
X345953Y159507D01*
X346351Y160468D01*
X346421Y161000D01*
D02*
G37*
G36*
X342000D02*
X338579D01*
X338649Y160468D01*
X339047Y159507D01*
X339681Y158681D01*
X340507Y158047D01*
X341468Y157649D01*
X342000Y157579D01*
Y161000D01*
D02*
G37*
G36*
Y165421D02*
X341468Y165351D01*
X340507Y164953D01*
X339681Y164319D01*
X339047Y163493D01*
X338649Y162532D01*
X338579Y162000D01*
X342000D01*
Y165421D01*
D02*
G37*
G36*
X125734Y165220D02*
X120500D01*
Y159987D01*
X121501Y160118D01*
X122900Y160698D01*
X124101Y161619D01*
X125023Y162821D01*
X125602Y164219D01*
X125734Y165220D01*
D02*
G37*
G36*
X119500D02*
X114266D01*
X114398Y164219D01*
X114977Y162821D01*
X115899Y161619D01*
X117100Y160698D01*
X118499Y160118D01*
X119500Y159987D01*
Y165220D01*
D02*
G37*
G36*
X420000Y173583D02*
X419072Y173461D01*
X418208Y173103D01*
X417466Y172534D01*
X416897Y171792D01*
X416539Y170927D01*
X416417Y170000D01*
X416539Y169073D01*
X416897Y168208D01*
X417466Y167466D01*
X418208Y166897D01*
X419072Y166539D01*
X420000Y166417D01*
X420927Y166539D01*
X421792Y166897D01*
X422534Y167466D01*
X423103Y168208D01*
X423461Y169073D01*
X423583Y170000D01*
X423461Y170927D01*
X423103Y171792D01*
X422534Y172534D01*
X421792Y173103D01*
X420927Y173461D01*
X420000Y173583D01*
D02*
G37*
G36*
X129800Y207026D02*
X129017Y206923D01*
X128287Y206621D01*
X127660Y206140D01*
X127180Y205513D01*
X126877Y204783D01*
X126774Y204000D01*
X126877Y203217D01*
X127180Y202487D01*
X127660Y201860D01*
X128287Y201379D01*
X129017Y201077D01*
X129800Y200974D01*
X130583Y201077D01*
X131313Y201379D01*
X131940Y201860D01*
X132421Y202487D01*
X132723Y203217D01*
X132826Y204000D01*
X132723Y204783D01*
X132421Y205513D01*
X131940Y206140D01*
X131313Y206621D01*
X130583Y206923D01*
X129800Y207026D01*
D02*
G37*
G36*
X284500Y208192D02*
X283661Y208025D01*
X282950Y207550D01*
X282475Y206839D01*
X282308Y206000D01*
X282475Y205161D01*
X282950Y204450D01*
X283379Y204164D01*
Y196000D01*
X283378Y196000D01*
X283464Y195571D01*
X283707Y195207D01*
X289908Y189005D01*
X289808Y188500D01*
X289975Y187661D01*
X290450Y186950D01*
X291161Y186475D01*
X292000Y186308D01*
X292839Y186475D01*
X293550Y186950D01*
X294025Y187661D01*
X294192Y188500D01*
X294025Y189339D01*
X293550Y190050D01*
X292839Y190525D01*
X292000Y190692D01*
X291494Y190592D01*
X285622Y196465D01*
Y204164D01*
X286050Y204450D01*
X286525Y205161D01*
X286692Y206000D01*
X286525Y206839D01*
X286050Y207550D01*
X285339Y208025D01*
X284500Y208192D01*
D02*
G37*
G36*
X123000Y207000D02*
X117000D01*
Y201000D01*
X123000D01*
Y207000D01*
D02*
G37*
G36*
X308000Y205500D02*
X306000D01*
Y203500D01*
X306495Y203598D01*
X307339Y204162D01*
X307902Y205005D01*
X308000Y205500D01*
D02*
G37*
G36*
X305000D02*
X302999D01*
X303098Y205005D01*
X303661Y204162D01*
X304505Y203598D01*
X305000Y203500D01*
Y205500D01*
D02*
G37*
G36*
X303000Y182501D02*
Y180500D01*
X305000D01*
X304902Y180995D01*
X304339Y181838D01*
X303495Y182402D01*
X303000Y182501D01*
D02*
G37*
G36*
X125350Y184850D02*
X114650D01*
Y174150D01*
X125350D01*
Y184850D01*
D02*
G37*
G36*
X346053Y175053D02*
X338947D01*
Y167947D01*
X346053D01*
Y175053D01*
D02*
G37*
G36*
X302000Y179500D02*
X299999D01*
X300098Y179005D01*
X300661Y178162D01*
X301505Y177598D01*
X302000Y177499D01*
Y179500D01*
D02*
G37*
G36*
Y182501D02*
X301505Y182402D01*
X300661Y181838D01*
X300098Y180995D01*
X299999Y180500D01*
X302000D01*
Y182501D01*
D02*
G37*
G36*
X305000Y179500D02*
X303000D01*
Y177499D01*
X303495Y177598D01*
X304339Y178162D01*
X304902Y179005D01*
X305000Y179500D01*
D02*
G37*
G36*
X304000Y153500D02*
X303505Y153402D01*
X302661Y152838D01*
X302375Y152410D01*
X301875D01*
X301589Y152838D01*
X300745Y153402D01*
X300250Y153500D01*
Y151000D01*
Y148500D01*
X300745Y148598D01*
X301589Y149162D01*
X301875Y149590D01*
X302375D01*
X302661Y149162D01*
X303505Y148598D01*
X304000Y148500D01*
Y151000D01*
Y153500D01*
D02*
G37*
G36*
X394000Y122501D02*
X393505Y122402D01*
X392750Y121898D01*
X391995Y122402D01*
X391500Y122501D01*
Y120000D01*
Y117499D01*
X391995Y117598D01*
X392750Y118102D01*
X393505Y117598D01*
X394000Y117499D01*
Y120000D01*
Y122501D01*
D02*
G37*
G36*
X390500D02*
X390005Y122402D01*
X389250Y121898D01*
X388495Y122402D01*
X388000Y122501D01*
Y120000D01*
Y117499D01*
X388495Y117598D01*
X389250Y118102D01*
X390005Y117598D01*
X390500Y117499D01*
Y120000D01*
Y122501D01*
D02*
G37*
G36*
X397500D02*
X397005Y122402D01*
X396250Y121898D01*
X395495Y122402D01*
X395000Y122501D01*
Y120000D01*
Y117499D01*
X395495Y117598D01*
X396250Y118102D01*
X397005Y117598D01*
X397500Y117499D01*
Y120000D01*
Y122501D01*
D02*
G37*
G36*
X404500D02*
X404005Y122402D01*
X403250Y121898D01*
X402495Y122402D01*
X402000Y122501D01*
Y120000D01*
Y117499D01*
X402495Y117598D01*
X403250Y118102D01*
X404005Y117598D01*
X404500Y117499D01*
Y120000D01*
Y122501D01*
D02*
G37*
G36*
X401000D02*
X400505Y122402D01*
X399750Y121898D01*
X398995Y122402D01*
X398500Y122501D01*
Y120000D01*
Y117499D01*
X398995Y117598D01*
X399750Y118102D01*
X400505Y117598D01*
X401000Y117499D01*
Y120000D01*
Y122501D01*
D02*
G37*
G36*
X387000D02*
X386505Y122402D01*
X385750Y121898D01*
X384995Y122402D01*
X384500Y122501D01*
Y120000D01*
Y117499D01*
X384995Y117598D01*
X385750Y118102D01*
X386505Y117598D01*
X387000Y117499D01*
Y120000D01*
Y122501D01*
D02*
G37*
G36*
X407501Y119500D02*
X405500D01*
Y117499D01*
X405995Y117598D01*
X406839Y118162D01*
X407402Y119005D01*
X407501Y119500D01*
D02*
G37*
G36*
X380000D02*
X377999D01*
X378098Y119005D01*
X378661Y118162D01*
X379505Y117598D01*
X380000Y117499D01*
Y119500D01*
D02*
G37*
G36*
Y122501D02*
X379505Y122402D01*
X378661Y121838D01*
X378098Y120995D01*
X377999Y120500D01*
X380000D01*
Y122501D01*
D02*
G37*
G36*
X383500D02*
X383005Y122402D01*
X382250Y121898D01*
X381495Y122402D01*
X381000Y122501D01*
Y120000D01*
Y117499D01*
X381495Y117598D01*
X382250Y118102D01*
X383005Y117598D01*
X383500Y117499D01*
Y120000D01*
Y122501D01*
D02*
G37*
G36*
X405500D02*
Y120500D01*
X407501D01*
X407402Y120995D01*
X406839Y121838D01*
X405995Y122402D01*
X405500Y122501D01*
D02*
G37*
G36*
X307000Y150500D02*
X305000D01*
Y148500D01*
X305495Y148598D01*
X306339Y149162D01*
X306902Y150005D01*
X307000Y150500D01*
D02*
G37*
G36*
X294500D02*
X292499D01*
X292598Y150005D01*
X293162Y149162D01*
X294005Y148598D01*
X294500Y148500D01*
Y150500D01*
D02*
G37*
G36*
Y153500D02*
X294005Y153402D01*
X293162Y152838D01*
X292598Y151995D01*
X292499Y151500D01*
X294500D01*
Y153500D01*
D02*
G37*
G36*
X299250D02*
X298755Y153402D01*
X297912Y152838D01*
X297625Y152410D01*
X297125D01*
X296838Y152838D01*
X295995Y153402D01*
X295500Y153500D01*
Y151000D01*
Y148500D01*
X295995Y148598D01*
X296838Y149162D01*
X297125Y149590D01*
X297625D01*
X297912Y149162D01*
X298755Y148598D01*
X299250Y148500D01*
Y151000D01*
Y153500D01*
D02*
G37*
G36*
X305000D02*
Y151500D01*
X307000D01*
X306902Y151995D01*
X306339Y152838D01*
X305495Y153402D01*
X305000Y153500D01*
D02*
G37*
G36*
X437500Y163395D02*
X435500D01*
X433667Y163215D01*
X431905Y162680D01*
X430280Y161812D01*
X428857Y160643D01*
X427688Y159220D01*
X426820Y157595D01*
X426285Y155833D01*
X426105Y154000D01*
X426285Y152167D01*
X426820Y150405D01*
X427688Y148780D01*
X428857Y147357D01*
X430280Y146188D01*
X431905Y145320D01*
X433667Y144785D01*
X435500Y144605D01*
X437500D01*
X439333Y144785D01*
X441095Y145320D01*
X442720Y146188D01*
X444143Y147357D01*
X445312Y148780D01*
X446180Y150405D01*
X446715Y152167D01*
X446895Y154000D01*
X446715Y155833D01*
X446180Y157595D01*
X445312Y159220D01*
X444143Y160643D01*
X442720Y161812D01*
X441095Y162680D01*
X439333Y163215D01*
X437500Y163395D01*
D02*
G37*
G36*
X182000Y136000D02*
X178500D01*
Y132500D01*
X182000D01*
Y136000D01*
D02*
G37*
G36*
X177500D02*
X174000D01*
Y132500D01*
X177500D01*
Y136000D01*
D02*
G37*
G36*
Y140500D02*
X174000D01*
Y137000D01*
X177500D01*
Y140500D01*
D02*
G37*
G36*
X148000Y150131D02*
X147060Y150007D01*
X146185Y149645D01*
X145432Y149068D01*
X144855Y148316D01*
X144493Y147440D01*
X144369Y146500D01*
X144493Y145560D01*
X144855Y144685D01*
X145432Y143932D01*
X146185Y143355D01*
X147060Y142993D01*
X148000Y142869D01*
X148940Y142993D01*
X149815Y143355D01*
X150568Y143932D01*
X151145Y144685D01*
X151507Y145560D01*
X151631Y146500D01*
X151507Y147440D01*
X151145Y148316D01*
X150568Y149068D01*
X149815Y149645D01*
X148940Y150007D01*
X148000Y150131D01*
D02*
G37*
G36*
X182000Y140500D02*
X178500D01*
Y137000D01*
X182000D01*
Y140500D01*
D02*
G37*
G36*
X305000Y208501D02*
X304505Y208402D01*
X303661Y207839D01*
X303098Y206995D01*
X302999Y206500D01*
X305000D01*
Y208501D01*
D02*
G37*
G36*
X147500Y302501D02*
X147005Y302402D01*
X146162Y301838D01*
X145598Y300995D01*
X145500Y300500D01*
X147500D01*
Y302501D01*
D02*
G37*
G36*
X150501Y299500D02*
X148500D01*
Y297499D01*
X148995Y297598D01*
X149838Y298162D01*
X150402Y299005D01*
X150501Y299500D01*
D02*
G37*
G36*
X147500D02*
X145500D01*
X145598Y299005D01*
X146162Y298162D01*
X147005Y297598D01*
X147500Y297499D01*
Y299500D01*
D02*
G37*
G36*
X129734Y321059D02*
X124500D01*
Y315825D01*
X125501Y315957D01*
X126900Y316536D01*
X128101Y317458D01*
X129023Y318659D01*
X129602Y320058D01*
X129734Y321059D01*
D02*
G37*
G36*
X123500D02*
X118266D01*
X118398Y320058D01*
X118977Y318659D01*
X119899Y317458D01*
X121100Y316536D01*
X122499Y315957D01*
X123500Y315825D01*
Y321059D01*
D02*
G37*
G36*
X148500Y302501D02*
Y300500D01*
X150501D01*
X150402Y300995D01*
X149838Y301838D01*
X148995Y302402D01*
X148500Y302501D01*
D02*
G37*
G36*
X116000Y270083D02*
X115073Y269961D01*
X114208Y269603D01*
X113466Y269034D01*
X112897Y268292D01*
X112539Y267427D01*
X112417Y266500D01*
X112539Y265573D01*
X112897Y264708D01*
X113466Y263966D01*
X114208Y263397D01*
X115073Y263039D01*
X116000Y262917D01*
X116927Y263039D01*
X117792Y263397D01*
X118534Y263966D01*
X119103Y264708D01*
X119461Y265573D01*
X119583Y266500D01*
X119461Y267427D01*
X119103Y268292D01*
X118534Y269034D01*
X117792Y269603D01*
X116927Y269961D01*
X116000Y270083D01*
D02*
G37*
G36*
X125000Y258000D02*
Y256000D01*
X127000D01*
X126902Y256495D01*
X126338Y257339D01*
X125495Y257902D01*
X125000Y258000D01*
D02*
G37*
G36*
X124000D02*
X123505Y257902D01*
X122662Y257339D01*
X122098Y256495D01*
X122000Y256000D01*
X124000D01*
Y258000D01*
D02*
G37*
G36*
X112500Y291500D02*
Y289500D01*
X114500D01*
X114402Y289995D01*
X113838Y290839D01*
X112995Y291402D01*
X112500Y291500D01*
D02*
G37*
G36*
X114500Y288500D02*
X112500D01*
Y286500D01*
X112995Y286598D01*
X113838Y287161D01*
X114402Y288005D01*
X114500Y288500D01*
D02*
G37*
G36*
X116000Y280083D02*
X115073Y279961D01*
X114208Y279603D01*
X113466Y279034D01*
X112897Y278292D01*
X112539Y277427D01*
X112417Y276500D01*
X112539Y275573D01*
X112897Y274708D01*
X113466Y273966D01*
X114208Y273397D01*
X115073Y273039D01*
X116000Y272917D01*
X116927Y273039D01*
X117792Y273397D01*
X118534Y273966D01*
X119103Y274708D01*
X119461Y275573D01*
X119583Y276500D01*
X119461Y277427D01*
X119103Y278292D01*
X118534Y279034D01*
X117792Y279603D01*
X116927Y279961D01*
X116000Y280083D01*
D02*
G37*
G36*
X123500Y365059D02*
X118266D01*
X118398Y364058D01*
X118977Y362659D01*
X119899Y361458D01*
X121100Y360536D01*
X122499Y359957D01*
X123500Y359825D01*
Y365059D01*
D02*
G37*
G36*
X124000Y357176D02*
X122603Y356992D01*
X121302Y356453D01*
X120184Y355595D01*
X119327Y354478D01*
X118788Y353176D01*
X118604Y351780D01*
X118788Y350383D01*
X119327Y349081D01*
X120184Y347964D01*
X121302Y347106D01*
X122603Y346567D01*
X124000Y346383D01*
X125397Y346567D01*
X126698Y347106D01*
X127816Y347964D01*
X128673Y349081D01*
X129212Y350383D01*
X129396Y351780D01*
X129212Y353176D01*
X128673Y354478D01*
X127816Y355595D01*
X126698Y356453D01*
X125397Y356992D01*
X124000Y357176D01*
D02*
G37*
G36*
X148500Y346500D02*
Y344500D01*
X150501D01*
X150402Y344995D01*
X149838Y345838D01*
X148995Y346402D01*
X148500Y346500D01*
D02*
G37*
G36*
X124500Y371293D02*
Y366059D01*
X129734D01*
X129602Y367060D01*
X129023Y368459D01*
X128101Y369660D01*
X126900Y370582D01*
X125501Y371161D01*
X124500Y371293D01*
D02*
G37*
G36*
X123500Y371293D02*
X122499Y371161D01*
X121100Y370582D01*
X119899Y369660D01*
X118977Y368459D01*
X118398Y367060D01*
X118266Y366059D01*
X123500D01*
Y371293D01*
D02*
G37*
G36*
X129734Y365059D02*
X124500D01*
Y359825D01*
X125501Y359957D01*
X126900Y360536D01*
X128101Y361458D01*
X129023Y362659D01*
X129602Y364058D01*
X129734Y365059D01*
D02*
G37*
G36*
X124500Y327293D02*
Y322059D01*
X129734D01*
X129602Y323060D01*
X129023Y324459D01*
X128101Y325660D01*
X126900Y326582D01*
X125501Y327161D01*
X124500Y327293D01*
D02*
G37*
G36*
X123500D02*
X122499Y327161D01*
X121100Y326582D01*
X119899Y325660D01*
X118977Y324459D01*
X118398Y323060D01*
X118266Y322059D01*
X123500D01*
Y327293D01*
D02*
G37*
G36*
X146500Y320192D02*
X145661Y320025D01*
X144950Y319550D01*
X144664Y319122D01*
X141500D01*
X141500Y319122D01*
X141071Y319036D01*
X140707Y318793D01*
X140707Y318793D01*
X130815Y308901D01*
X129248D01*
X129212Y309176D01*
X128673Y310478D01*
X127816Y311595D01*
X126698Y312453D01*
X125397Y312992D01*
X124000Y313176D01*
X122603Y312992D01*
X121302Y312453D01*
X120184Y311595D01*
X119327Y310478D01*
X118788Y309176D01*
X118604Y307780D01*
X118788Y306383D01*
X119327Y305081D01*
X120184Y303964D01*
X121302Y303106D01*
X122603Y302567D01*
X124000Y302383D01*
X125397Y302567D01*
X126698Y303106D01*
X127816Y303964D01*
X128673Y305081D01*
X129212Y306383D01*
X129248Y306658D01*
X131280D01*
X131280Y306658D01*
X131709Y306743D01*
X132073Y306986D01*
X141965Y316879D01*
X144664D01*
X144950Y316450D01*
X145661Y315975D01*
X146500Y315808D01*
X147339Y315975D01*
X148050Y316450D01*
X148525Y317161D01*
X148692Y318000D01*
X148525Y318839D01*
X148050Y319550D01*
X147339Y320025D01*
X146500Y320192D01*
D02*
G37*
G36*
X147500Y346500D02*
X147005Y346402D01*
X146162Y345838D01*
X145598Y344995D01*
X145500Y344500D01*
X147500D01*
Y346500D01*
D02*
G37*
G36*
X150501Y343500D02*
X148500D01*
Y341499D01*
X148995Y341598D01*
X149838Y342161D01*
X150402Y343005D01*
X150501Y343500D01*
D02*
G37*
G36*
X147500D02*
X145500D01*
X145598Y343005D01*
X146162Y342161D01*
X147005Y341598D01*
X147500Y341499D01*
Y343500D01*
D02*
G37*
G36*
X127000Y255000D02*
X125000D01*
Y252999D01*
X125495Y253098D01*
X126338Y253661D01*
X126902Y254505D01*
X127000Y255000D01*
D02*
G37*
G36*
X144000Y225500D02*
X141999D01*
X142098Y225005D01*
X142662Y224162D01*
X143505Y223598D01*
X144000Y223499D01*
Y225500D01*
D02*
G37*
G36*
X119553Y230053D02*
X112447D01*
Y222947D01*
X119553D01*
Y230053D01*
D02*
G37*
G36*
X181553Y224053D02*
X174447D01*
Y216947D01*
X181553D01*
Y224053D01*
D02*
G37*
G36*
X145000Y228501D02*
Y226500D01*
X147001D01*
X146902Y226995D01*
X146338Y227838D01*
X145495Y228402D01*
X145000Y228501D01*
D02*
G37*
G36*
X144000D02*
X143505Y228402D01*
X142662Y227838D01*
X142098Y226995D01*
X141999Y226500D01*
X144000D01*
Y228501D01*
D02*
G37*
G36*
X147001Y225500D02*
X145000D01*
Y223499D01*
X145495Y223598D01*
X146338Y224162D01*
X146902Y225005D01*
X147001Y225500D01*
D02*
G37*
G36*
X181921Y210000D02*
X178500D01*
Y206579D01*
X179032Y206649D01*
X179993Y207047D01*
X180819Y207681D01*
X181453Y208507D01*
X181851Y209468D01*
X181921Y210000D01*
D02*
G37*
G36*
X177500D02*
X174079D01*
X174149Y209468D01*
X174547Y208507D01*
X175181Y207681D01*
X176007Y207047D01*
X176968Y206649D01*
X177500Y206579D01*
Y210000D01*
D02*
G37*
G36*
X306000Y208501D02*
Y206500D01*
X308000D01*
X307902Y206995D01*
X307339Y207839D01*
X306495Y208402D01*
X306000Y208501D01*
D02*
G37*
G36*
X178500Y214421D02*
Y211000D01*
X181921D01*
X181851Y211532D01*
X181453Y212493D01*
X180819Y213319D01*
X179993Y213953D01*
X179032Y214351D01*
X178500Y214421D01*
D02*
G37*
G36*
X177500D02*
X176968Y214351D01*
X176007Y213953D01*
X175181Y213319D01*
X174547Y212493D01*
X174149Y211532D01*
X174079Y211000D01*
X177500D01*
Y214421D01*
D02*
G37*
G36*
X161500Y211192D02*
X160661Y211025D01*
X159950Y210550D01*
X159664Y210121D01*
X156000D01*
X156000Y210122D01*
X155571Y210036D01*
X155207Y209793D01*
X155207Y209793D01*
X136707Y191293D01*
X136464Y190929D01*
X136378Y190500D01*
X136378Y190500D01*
Y141965D01*
X132035Y137622D01*
X131432D01*
X131145Y138315D01*
X130568Y139068D01*
X129815Y139645D01*
X128940Y140007D01*
X128000Y140131D01*
X127060Y140007D01*
X126184Y139645D01*
X125432Y139068D01*
X124855Y138315D01*
X124493Y137440D01*
X124369Y136500D01*
X124493Y135560D01*
X124855Y134685D01*
X125432Y133932D01*
X126184Y133355D01*
X127060Y132993D01*
X128000Y132869D01*
X128940Y132993D01*
X129815Y133355D01*
X130568Y133932D01*
X131145Y134685D01*
X131432Y135378D01*
X132500D01*
X132500Y135378D01*
X132929Y135464D01*
X133293Y135707D01*
X138293Y140707D01*
X138293Y140707D01*
X138536Y141071D01*
X138622Y141500D01*
X138622Y141500D01*
Y190035D01*
X156465Y207878D01*
X159664D01*
X159950Y207450D01*
X160661Y206975D01*
X161500Y206808D01*
X162339Y206975D01*
X163050Y207450D01*
X163525Y208161D01*
X163692Y209000D01*
X163525Y209839D01*
X163050Y210550D01*
X162339Y211025D01*
X161500Y211192D01*
D02*
G37*
G36*
X116000Y250083D02*
X115073Y249961D01*
X114208Y249603D01*
X113466Y249034D01*
X112897Y248292D01*
X112539Y247427D01*
X112417Y246500D01*
X112539Y245573D01*
X112897Y244708D01*
X113466Y243966D01*
X114208Y243397D01*
X115073Y243039D01*
X116000Y242917D01*
X116927Y243039D01*
X117792Y243397D01*
X118534Y243966D01*
X119103Y244708D01*
X119461Y245573D01*
X119583Y246500D01*
X119461Y247427D01*
X119103Y248292D01*
X118534Y249034D01*
X117792Y249603D01*
X116927Y249961D01*
X116000Y250083D01*
D02*
G37*
G36*
X158500Y240001D02*
Y238000D01*
X160501D01*
X160402Y238495D01*
X159838Y239338D01*
X158995Y239902D01*
X158500Y240001D01*
D02*
G37*
G36*
X157500D02*
X157005Y239902D01*
X156162Y239338D01*
X155598Y238495D01*
X155499Y238000D01*
X157500D01*
Y240001D01*
D02*
G37*
G36*
X124000Y255000D02*
X122000D01*
X122098Y254505D01*
X122662Y253661D01*
X123505Y253098D01*
X124000Y252999D01*
Y255000D01*
D02*
G37*
G36*
X116000Y260083D02*
X115073Y259961D01*
X114208Y259603D01*
X113466Y259034D01*
X112897Y258292D01*
X112539Y257427D01*
X112417Y256500D01*
X112539Y255573D01*
X112897Y254708D01*
X113466Y253966D01*
X114208Y253397D01*
X115073Y253039D01*
X116000Y252917D01*
X116927Y253039D01*
X117792Y253397D01*
X118534Y253966D01*
X119103Y254708D01*
X119461Y255573D01*
X119583Y256500D01*
X119461Y257427D01*
X119103Y258292D01*
X118534Y259034D01*
X117792Y259603D01*
X116927Y259961D01*
X116000Y260083D01*
D02*
G37*
G36*
X177000Y266692D02*
X176161Y266525D01*
X175450Y266050D01*
X174975Y265339D01*
X174808Y264500D01*
X174975Y263661D01*
X175450Y262950D01*
X175878Y262664D01*
Y247836D01*
X175450Y247550D01*
X174975Y246839D01*
X174808Y246000D01*
X174975Y245161D01*
X175450Y244450D01*
X176161Y243975D01*
X177000Y243808D01*
X177839Y243975D01*
X178550Y244450D01*
X179025Y245161D01*
X179192Y246000D01*
X179025Y246839D01*
X178550Y247550D01*
X178122Y247836D01*
Y262664D01*
X178550Y262950D01*
X179025Y263661D01*
X179192Y264500D01*
X179025Y265339D01*
X178550Y266050D01*
X177839Y266525D01*
X177000Y266692D01*
D02*
G37*
G36*
X157500Y237000D02*
X155499D01*
X155598Y236505D01*
X156162Y235662D01*
X157005Y235098D01*
X157500Y234999D01*
Y237000D01*
D02*
G37*
G36*
X119921Y236000D02*
X116500D01*
Y232579D01*
X117032Y232649D01*
X117993Y233047D01*
X118819Y233681D01*
X119453Y234507D01*
X119851Y235468D01*
X119921Y236000D01*
D02*
G37*
G36*
X115500D02*
X112079D01*
X112149Y235468D01*
X112547Y234507D01*
X113181Y233681D01*
X114007Y233047D01*
X114968Y232649D01*
X115500Y232579D01*
Y236000D01*
D02*
G37*
G36*
X116500Y240421D02*
Y237000D01*
X119921D01*
X119851Y237532D01*
X119453Y238493D01*
X118819Y239319D01*
X117993Y239953D01*
X117032Y240351D01*
X116500Y240421D01*
D02*
G37*
G36*
X115500D02*
X114968Y240351D01*
X114007Y239953D01*
X113181Y239319D01*
X112547Y238493D01*
X112149Y237532D01*
X112079Y237000D01*
X115500D01*
Y240421D01*
D02*
G37*
G36*
X160501Y237000D02*
X158500D01*
Y234999D01*
X158995Y235098D01*
X159838Y235662D01*
X160402Y236505D01*
X160501Y237000D01*
D02*
G37*
%LPD*%
D10*
X484053Y476000D02*
G03*
X484053Y476000I-4053J0D01*
G01*
Y466000D02*
G03*
X484053Y466000I-4053J0D01*
G01*
Y456000D02*
G03*
X484053Y456000I-4053J0D01*
G01*
Y446000D02*
G03*
X484053Y446000I-4053J0D01*
G01*
X474453Y466000D02*
G03*
X474453Y466000I-4453J0D01*
G01*
X474053Y456000D02*
G03*
X474053Y456000I-4053J0D01*
G01*
Y446000D02*
G03*
X474053Y446000I-4053J0D01*
G01*
X484053Y436000D02*
G03*
X484053Y436000I-4053J0D01*
G01*
Y426000D02*
G03*
X484053Y426000I-4053J0D01*
G01*
Y416000D02*
G03*
X484053Y416000I-4053J0D01*
G01*
X484453Y406000D02*
G03*
X484453Y406000I-4453J0D01*
G01*
X474053Y436000D02*
G03*
X474053Y436000I-4053J0D01*
G01*
Y426000D02*
G03*
X474053Y426000I-4053J0D01*
G01*
Y416000D02*
G03*
X474053Y416000I-4053J0D01*
G01*
Y406000D02*
G03*
X474053Y406000I-4053J0D01*
G01*
X455550Y466000D02*
G03*
X455550Y466000I-3050J0D01*
G01*
X424053Y386000D02*
G03*
X424053Y386000I-4053J0D01*
G01*
X402550Y410500D02*
G03*
X402550Y410500I-3050J0D01*
G01*
X414053Y386000D02*
G03*
X414053Y386000I-4053J0D01*
G01*
X376550Y396000D02*
G03*
X376550Y396000I-3050J0D01*
G01*
X354550Y381199D02*
G03*
X354550Y381199I-3050J0D01*
G01*
X424053Y376000D02*
G03*
X424053Y376000I-4053J0D01*
G01*
Y366000D02*
G03*
X424053Y366000I-4053J0D01*
G01*
Y346000D02*
G03*
X424053Y346000I-4053J0D01*
G01*
X424453Y356000D02*
G03*
X424453Y356000I-4453J0D01*
G01*
X424053Y336000D02*
G03*
X424053Y336000I-4053J0D01*
G01*
X414053Y376000D02*
G03*
X414053Y376000I-4053J0D01*
G01*
Y366000D02*
G03*
X414053Y366000I-4053J0D01*
G01*
X339550Y366500D02*
G03*
X339550Y366500I-3050J0D01*
G01*
X414053Y346000D02*
G03*
X414053Y346000I-4053J0D01*
G01*
X414453Y356000D02*
G03*
X414453Y356000I-4453J0D01*
G01*
X414053Y336000D02*
G03*
X414053Y336000I-4053J0D01*
G01*
X442550Y286500D02*
G03*
X442550Y286500I-3050J0D01*
G01*
X455050Y274500D02*
G03*
X455050Y274500I-3050J0D01*
G01*
X448050Y281000D02*
G03*
X448050Y281000I-3050J0D01*
G01*
X424053Y306000D02*
G03*
X424053Y306000I-4053J0D01*
G01*
Y270000D02*
G03*
X424053Y270000I-4053J0D01*
G01*
X475550Y257500D02*
G03*
X475550Y257500I-3050J0D01*
G01*
X466550Y265000D02*
G03*
X466550Y265000I-3050J0D01*
G01*
X458550Y227500D02*
G03*
X458550Y227500I-3050J0D01*
G01*
X424053Y250000D02*
G03*
X424053Y250000I-4053J0D01*
G01*
Y260000D02*
G03*
X424053Y260000I-4053J0D01*
G01*
Y326000D02*
G03*
X424053Y326000I-4053J0D01*
G01*
Y316000D02*
G03*
X424053Y316000I-4053J0D01*
G01*
Y280000D02*
G03*
X424053Y280000I-4053J0D01*
G01*
X414053Y316000D02*
G03*
X414053Y316000I-4053J0D01*
G01*
X414053Y306000D02*
G03*
X414053Y306000I-4053J0D01*
G01*
X414053Y326000D02*
G03*
X414053Y326000I-4053J0D01*
G01*
Y280000D02*
G03*
X414053Y280000I-4053J0D01*
G01*
Y260000D02*
G03*
X414053Y260000I-4053J0D01*
G01*
Y250000D02*
G03*
X414053Y250000I-4053J0D01*
G01*
Y270000D02*
G03*
X414053Y270000I-4053J0D01*
G01*
X424053Y240000D02*
G03*
X424053Y240000I-4053J0D01*
G01*
Y230000D02*
G03*
X424053Y230000I-4053J0D01*
G01*
Y220000D02*
G03*
X424053Y220000I-4053J0D01*
G01*
Y200000D02*
G03*
X424053Y200000I-4053J0D01*
G01*
Y190000D02*
G03*
X424053Y190000I-4053J0D01*
G01*
X414053Y240000D02*
G03*
X414053Y240000I-4053J0D01*
G01*
Y230000D02*
G03*
X414053Y230000I-4053J0D01*
G01*
Y220000D02*
G03*
X414053Y220000I-4053J0D01*
G01*
Y190000D02*
G03*
X414053Y190000I-4053J0D01*
G01*
X313050Y363000D02*
G03*
X313050Y363000I-3050J0D01*
G01*
X325050Y361500D02*
G03*
X325050Y361500I-3050J0D01*
G01*
X280050Y356500D02*
G03*
X280050Y356500I-3050J0D01*
G01*
X224053Y350000D02*
G03*
X216600Y352206I-4053J0D01*
G01*
Y353500D02*
G03*
X216131Y354631I-1600J0D01*
G01*
X216600Y347794D02*
G03*
X224053Y350000I3400J2206D01*
G01*
X216600Y337794D02*
G03*
X224053Y340000I3400J2206D01*
G01*
D02*
G03*
X216600Y342206I-4053J0D01*
G01*
Y327794D02*
G03*
X224053Y330000I3400J2206D01*
G01*
D02*
G03*
X216600Y332206I-4053J0D01*
G01*
Y353500D02*
G03*
X216130Y354633I-1600J0D01*
G01*
X213400Y352206D02*
G03*
X210000Y354053I-3400J-2206D01*
G01*
Y345947D02*
G03*
X213400Y347794I0J4053D01*
G01*
X212131Y358631D02*
G03*
X211000Y359100I-1131J-1131D01*
G01*
X212133Y358630D02*
G03*
X211000Y359100I-1133J-1130D01*
G01*
X213400Y342206D02*
G03*
X210000Y344053I-3400J-2206D01*
G01*
X213400Y332206D02*
G03*
X210000Y334053I-3400J-2206D01*
G01*
Y325947D02*
G03*
X213400Y327794I0J4053D01*
G01*
X210000Y335947D02*
G03*
X213400Y337794I0J4053D01*
G01*
X134053Y476000D02*
G03*
X134053Y476000I-4053J0D01*
G01*
Y466000D02*
G03*
X134053Y466000I-4053J0D01*
G01*
Y456000D02*
G03*
X134053Y456000I-4053J0D01*
G01*
Y446000D02*
G03*
X134053Y446000I-4053J0D01*
G01*
Y436000D02*
G03*
X134053Y436000I-4053J0D01*
G01*
X124453Y476000D02*
G03*
X124453Y476000I-4453J0D01*
G01*
X124053Y466000D02*
G03*
X124053Y466000I-4053J0D01*
G01*
Y456000D02*
G03*
X124053Y456000I-4053J0D01*
G01*
Y446000D02*
G03*
X124053Y446000I-4053J0D01*
G01*
Y436000D02*
G03*
X124053Y436000I-4053J0D01*
G01*
X171050Y415500D02*
G03*
X171050Y415500I-3050J0D01*
G01*
X134053Y426000D02*
G03*
X134053Y426000I-4053J0D01*
G01*
X176050Y401000D02*
G03*
X176050Y401000I-3050J0D01*
G01*
X134453Y416000D02*
G03*
X134453Y416000I-4453J0D01*
G01*
X124053Y426000D02*
G03*
X124053Y426000I-4053J0D01*
G01*
Y416000D02*
G03*
X124053Y416000I-4053J0D01*
G01*
Y406000D02*
G03*
X124053Y406000I-4053J0D01*
G01*
X264550Y293000D02*
G03*
X264550Y293000I-3050J0D01*
G01*
X255050D02*
G03*
X255050Y293000I-3050J0D01*
G01*
X224453Y290000D02*
G03*
X216600Y292875I-4453J0D01*
G01*
X236633Y236130D02*
G03*
X235500Y236600I-1133J-1130D01*
G01*
X236631Y236131D02*
G03*
X235500Y236600I-1131J-1131D01*
G01*
X233525Y228000D02*
G03*
X234053Y230000I-3525J2000D01*
G01*
Y260000D02*
G03*
X234053Y260000I-4053J0D01*
G01*
Y250000D02*
G03*
X234053Y250000I-4053J0D01*
G01*
Y240000D02*
G03*
X227794Y236600I-4053J0D01*
G01*
X232206D02*
G03*
X234053Y240000I-2206J3400D01*
G01*
Y230000D02*
G03*
X232206Y233400I-4053J0D01*
G01*
X227794D02*
G03*
X226475Y228000I2206J-3400D01*
G01*
X216600Y317794D02*
G03*
X224053Y320000I3400J2206D01*
G01*
D02*
G03*
X216600Y322206I-4053J0D01*
G01*
Y307794D02*
G03*
X224053Y310000I3400J2206D01*
G01*
X224453Y300000D02*
G03*
X216600Y302875I-4453J0D01*
G01*
X224053Y310000D02*
G03*
X216600Y312206I-4053J0D01*
G01*
Y297125D02*
G03*
X224453Y300000I3400J2875D01*
G01*
X216600Y287125D02*
G03*
X224453Y290000I3400J2875D01*
G01*
X213400Y322206D02*
G03*
X210000Y324053I-3400J-2206D01*
G01*
X213400Y312206D02*
G03*
X210000Y314053I-3400J-2206D01*
G01*
X213400Y302206D02*
G03*
X210000Y304053I-3400J-2206D01*
G01*
Y315947D02*
G03*
X213400Y317794I0J4053D01*
G01*
X210000Y305947D02*
G03*
X213400Y307794I0J4053D01*
G01*
X210000Y295947D02*
G03*
X213400Y297794I0J4053D01*
G01*
Y292206D02*
G03*
X210000Y294053I-3400J-2206D01*
G01*
Y285947D02*
G03*
X213400Y287794I0J4053D01*
G01*
X216131Y268869D02*
G03*
X216600Y270000I-1131J1131D01*
G01*
X216130Y268867D02*
G03*
X216600Y270000I-1130J1133D01*
G01*
X224053Y250000D02*
G03*
X224053Y250000I-4053J0D01*
G01*
Y240000D02*
G03*
X217794Y236600I-4053J0D01*
G01*
X222206D02*
G03*
X224053Y240000I-2206J3400D01*
G01*
X223525Y228000D02*
G03*
X224053Y230000I-3525J2000D01*
G01*
D02*
G03*
X222206Y233400I-4053J0D01*
G01*
X217794D02*
G03*
X216475Y228000I2206J-3400D01*
G01*
X211369Y233869D02*
G03*
X212500Y233400I1131J1131D01*
G01*
X211367Y233870D02*
G03*
X212500Y233400I1133J1130D01*
G01*
X488000Y490000D02*
X490000Y488000D01*
X480150Y490000D02*
X490000Y480150D01*
X480052Y480052D02*
X489000Y489000D01*
X484048Y476203D02*
X490000Y470251D01*
X479952Y470052D02*
X490000Y480101D01*
X474053Y474053D02*
X475948Y475948D01*
X474053Y476299D02*
X476690Y473661D01*
X474053Y471947D02*
Y480053D01*
X477661Y472690D02*
X480310Y470041D01*
X474453Y465999D02*
X476507Y463945D01*
X484041Y466311D02*
X490000Y460351D01*
X483156Y453458D02*
X490000Y460302D01*
X479849Y460050D02*
X490000Y470201D01*
X484031Y456421D02*
X490000Y450452D01*
X484017Y446535D02*
X490000Y440552D01*
X483414Y443816D02*
X490000Y450402D01*
X477945Y462507D02*
X480421Y460031D01*
X479743Y450045D02*
X482542Y452844D01*
X478167Y452386D02*
X480535Y450017D01*
X479634Y440036D02*
X482184Y442586D01*
X470153Y480053D02*
X480100Y490000D01*
X470251D02*
X480203Y480048D01*
X465947Y471947D02*
X474053D01*
X474051Y464151D02*
X475948Y466048D01*
X474017Y456535D02*
X476385Y454167D01*
X465947Y480053D02*
X474053D01*
X470432Y470432D02*
X471947Y471947D01*
X460351Y490000D02*
X470299Y480053D01*
X470000Y466000D02*
X473953D01*
X469952Y460052D02*
X471848Y461949D01*
X468856Y461697D02*
X470535Y460017D01*
X371256Y490000D02*
X490000Y371256D01*
X361356Y490000D02*
X490000Y361356D01*
X341558Y490000D02*
X490000Y341558D01*
X474000Y446653D02*
X476295Y444358D01*
X473156Y443458D02*
X475955Y446257D01*
X351457Y490000D02*
X490000Y351457D01*
X469849Y450050D02*
X475950Y456151D01*
X376532Y396331D02*
X470201Y490000D01*
X468358Y452295D02*
X470653Y450000D01*
X469743Y440045D02*
X472542Y442843D01*
X483559Y434062D02*
X490000Y440503D01*
X484000Y436653D02*
X490000Y430653D01*
X483978Y426776D02*
X490000Y420753D01*
X483743Y414447D02*
X490000Y420704D01*
X483663Y424266D02*
X490000Y430603D01*
X479522Y430024D02*
X481938Y432441D01*
X478530Y432223D02*
X480776Y429978D01*
X478358Y442295D02*
X480653Y440000D01*
X479406Y420009D02*
X481734Y422337D01*
X478689Y422165D02*
X480903Y419951D01*
X483951Y416903D02*
X490000Y410854D01*
X484377Y405181D02*
X490000Y410804D01*
X484421Y406534D02*
X490000Y400954D01*
X479477Y401578D02*
X490000Y391055D01*
X479742Y410445D02*
X481553Y412257D01*
X480000Y406000D02*
Y409953D01*
X478837Y412118D02*
X480534Y410421D01*
X480000Y406000D02*
X483953D01*
X480000Y402047D02*
Y406000D01*
X476047D02*
X480000D01*
X473978Y436776D02*
X476223Y434530D01*
X473414Y433816D02*
X475964Y436366D01*
X473951Y426903D02*
X476165Y424689D01*
X473918Y417036D02*
X476118Y414837D01*
X473559Y424062D02*
X475976Y426478D01*
X469634Y430036D02*
X472184Y432586D01*
X468689Y432165D02*
X470903Y429951D01*
X468530Y442223D02*
X470776Y439978D01*
X469522Y420024D02*
X471938Y422441D01*
X468837Y422118D02*
X471036Y419918D01*
X473878Y407177D02*
X475578Y405477D01*
X473743Y404447D02*
X475555Y406258D01*
X473663Y414266D02*
X475991Y416594D01*
X469109Y402046D02*
X490000Y381155D01*
X423860Y334765D02*
X490000Y400905D01*
X423807Y344612D02*
X480819Y401623D01*
X469406Y410009D02*
X471734Y412337D01*
X468976Y412079D02*
X471177Y409878D01*
X424351Y355055D02*
X471553Y402257D01*
X465947Y471947D02*
Y480053D01*
X455488Y465387D02*
X465947Y475847D01*
X450452Y490000D02*
X465947Y474505D01*
X468505Y471947D02*
X469999Y470453D01*
X470000Y466000D02*
Y469953D01*
X466047Y466000D02*
X470000D01*
X452500D02*
Y468550D01*
X440552Y490000D02*
X465697Y464856D01*
X430653Y490000D02*
X451708Y468945D01*
X452500Y466000D02*
X455050D01*
X452500Y463450D02*
Y466000D01*
X449950D02*
X452500D01*
X470000Y462047D02*
Y466000D01*
X420753Y490000D02*
X466223Y444530D01*
X410854Y490000D02*
X466165Y434689D01*
X455445Y465208D02*
X466295Y454358D01*
X423663Y364266D02*
X465991Y406594D01*
X423559Y374062D02*
X465976Y416478D01*
X423414Y383816D02*
X465964Y426366D01*
X419743Y390045D02*
X465955Y436257D01*
X419634Y380036D02*
X422184Y382586D01*
X413157Y383458D02*
X415955Y386257D01*
X400954Y490000D02*
X466118Y424837D01*
X391055Y490000D02*
X466079Y414976D01*
X381155Y490000D02*
X466046Y405109D01*
X402136Y412035D02*
X453113Y463012D01*
X399500Y410500D02*
X402050D01*
X399500D02*
Y413050D01*
Y407950D02*
Y410500D01*
X396950D02*
X399500D01*
X373500Y396000D02*
X376050D01*
X373500D02*
Y398550D01*
X370950Y396000D02*
X373500D01*
X409849Y390050D02*
X465950Y446151D01*
X376528Y395633D02*
X405953Y366208D01*
X353657Y383355D02*
X460301Y490000D01*
X409743Y380045D02*
X412542Y382843D01*
X410012Y381947D02*
X415947Y376012D01*
X373500Y393450D02*
Y396000D01*
X351500Y381199D02*
X354050D01*
X351500D02*
Y383749D01*
X348950Y381199D02*
X351500D01*
X419522Y370024D02*
X421938Y372441D01*
X420111Y361949D02*
X422174Y359886D01*
X420000Y356000D02*
X423953D01*
X419847Y360450D02*
X421734Y362337D01*
X413414Y373816D02*
X415964Y376366D01*
X413559Y364062D02*
X415976Y366478D01*
X410208Y361953D02*
X412428Y359733D01*
X416047Y356000D02*
X420000D01*
Y359953D01*
X413733Y358428D02*
X415585Y356576D01*
X419286Y349989D02*
X420945Y351649D01*
X419161Y339965D02*
X421388Y342193D01*
X419031Y329935D02*
X421236Y332140D01*
X414321Y354924D02*
X415550Y356153D01*
X420000Y352047D02*
Y356000D01*
X410664Y351597D02*
X415959Y346303D01*
X413743Y344447D02*
X416011Y346714D01*
X413807Y334612D02*
X416035Y336839D01*
X410395Y341967D02*
X415967Y336395D01*
X409634Y370036D02*
X412184Y372586D01*
X351500Y378648D02*
Y381199D01*
X410111Y371949D02*
X415949Y366111D01*
X409950Y360453D02*
X411938Y362441D01*
X338802Y368501D02*
X349343Y379042D01*
X336500Y366500D02*
Y369050D01*
Y366500D02*
X339050D01*
X336500Y363950D02*
Y366500D01*
X333950D02*
X336500D01*
X410000Y356000D02*
X413953D01*
X409286Y339989D02*
X411553Y342257D01*
X409161Y329965D02*
X411388Y332192D01*
X406047Y356000D02*
X410000D01*
Y359953D01*
X353588Y378975D02*
X405988Y326574D01*
X410000Y352047D02*
Y356000D01*
X409406Y350009D02*
X411076Y351679D01*
X447364Y279072D02*
X490000Y321709D01*
X424053Y295359D02*
X490000Y361307D01*
X445000Y281000D02*
X447550D01*
X445000D02*
Y283550D01*
X442450Y281000D02*
X445000D01*
X439500Y286500D02*
Y289050D01*
Y286500D02*
X442050D01*
X424053Y291947D02*
Y300053D01*
X439500Y283950D02*
Y286500D01*
X439198Y283465D02*
X441965Y280698D01*
X436950Y286500D02*
X439500D01*
X465386Y267397D02*
X490000Y292010D01*
Y185500D02*
Y488000D01*
X454474Y276283D02*
X490000Y311809D01*
X452000Y274500D02*
X454550D01*
X475540Y257751D02*
X490000Y272211D01*
X445000Y278450D02*
Y281000D01*
X444698Y277965D02*
X449096Y273567D01*
X452000Y274500D02*
Y277050D01*
Y271950D02*
Y274500D01*
X449450D02*
X452000D01*
X423903Y324908D02*
X490000Y391005D01*
X419911Y381948D02*
X490000Y311859D01*
X402349Y409410D02*
X490000Y321759D01*
X423938Y315044D02*
X490000Y381106D01*
X423968Y305174D02*
X490000Y371206D01*
X420012Y371947D02*
X490000Y301959D01*
X423886Y358174D02*
X490000Y292060D01*
X422074Y283482D02*
X490000Y351407D01*
X420576Y351585D02*
X490000Y282161D01*
X415947Y300053D02*
X424053D01*
Y298610D02*
X436465Y286198D01*
X422011Y273519D02*
X490000Y341508D01*
X420395Y331966D02*
X490000Y262362D01*
X420302Y341959D02*
X490000Y272261D01*
X421946Y263555D02*
X490000Y331608D01*
X423914Y278950D02*
X490000Y212864D01*
X420486Y321976D02*
X490000Y252462D01*
X421747Y233657D02*
X490000Y301910D01*
X420816Y291947D02*
X490000Y222764D01*
X420574Y311988D02*
X464807Y267756D01*
X421881Y253590D02*
X446928Y278637D01*
X421942Y214053D02*
X490000Y282111D01*
X472500Y257500D02*
Y260050D01*
Y257500D02*
X475050D01*
X472500Y254950D02*
Y257500D01*
X475516Y257047D02*
X490000Y242563D01*
X469950Y257500D02*
X472500D01*
X463500Y265000D02*
Y267550D01*
X466256Y266307D02*
X472047Y260516D01*
X463500Y265000D02*
X466050D01*
X463500Y262450D02*
Y265000D01*
X460950D02*
X463500D01*
X457495Y229807D02*
X490000Y262312D01*
X457689Y225376D02*
X490000Y193065D01*
X451067Y271596D02*
X490000Y232663D01*
X462686Y185500D02*
X490000Y212814D01*
X482485Y185500D02*
X490000Y193015D01*
X452786Y185500D02*
X490000Y222714D01*
X455500Y227500D02*
Y230050D01*
Y227500D02*
X458050D01*
X455500Y224950D02*
Y227500D01*
X472585Y185500D02*
X490000Y202915D01*
X452950Y227500D02*
X455500D01*
X421815Y243624D02*
X450217Y272026D01*
X423935Y269030D02*
X490000Y202965D01*
X421679Y223689D02*
X461103Y263114D01*
X423954Y259111D02*
X453376Y229689D01*
X424053Y206264D02*
X472249Y254460D01*
X421466Y193778D02*
X453193Y225505D01*
X415947Y214053D02*
X424053D01*
Y205947D02*
Y214053D01*
X424043Y189725D02*
X428268Y185500D01*
X423736Y205947D02*
X424053Y206264D01*
X423972Y249194D02*
X487666Y185500D01*
X423972Y249194D02*
X487666Y185500D01*
X423088D02*
X490000Y252412D01*
X432987Y185500D02*
X490000Y242513D01*
X442887Y185500D02*
X490000Y232613D01*
X370000Y185500D02*
X490000D01*
X424003Y229364D02*
X467867Y185500D01*
X424016Y219451D02*
X457967Y185500D01*
X423988Y239278D02*
X477766Y185500D01*
X424053Y209515D02*
X448068Y185500D01*
X424036Y199632D02*
X438168Y185500D01*
X418894Y319899D02*
X421092Y322097D01*
X418847Y300053D02*
X420826Y302032D01*
X420661Y302002D02*
X422610Y300053D01*
X418749Y309855D02*
X420956Y312062D01*
X413903Y314908D02*
X416101Y317106D01*
X413938Y305044D02*
X416145Y307251D01*
X413860Y324764D02*
X416065Y326970D01*
X414053Y298711D02*
X415947Y296816D01*
X414053Y295259D02*
X415947Y297153D01*
X414053Y291947D02*
Y300053D01*
X415947Y291947D02*
X424053D01*
X412137Y283444D02*
X420641Y291947D01*
X413972Y259194D02*
X419194Y253972D01*
X413988Y249278D02*
X419278Y243988D01*
X413972Y259194D02*
X419194Y253972D01*
X415947Y291947D02*
Y300053D01*
X413935Y279030D02*
X419030Y273935D01*
X412074Y273482D02*
X416518Y277926D01*
X413954Y269111D02*
X419111Y263954D01*
X412011Y263519D02*
X416481Y267989D01*
X411946Y253555D02*
X416445Y258053D01*
X410486Y331976D02*
X415976Y326486D01*
X410574Y321988D02*
X415988Y316574D01*
X410662Y312002D02*
X416002Y306662D01*
X405947Y300053D02*
X414053D01*
X409030Y319935D02*
X411236Y322140D01*
X338588Y364277D02*
X405947Y296917D01*
X408947Y300053D02*
X410956Y302062D01*
X410747Y302017D02*
X412711Y300053D01*
X408894Y309899D02*
X411092Y312097D01*
X405947Y291947D02*
X414053D01*
X410917D02*
X418950Y283914D01*
X405947Y291947D02*
Y300053D01*
X337147Y218353D02*
X410741Y291947D01*
X332197Y223303D02*
X405947Y297053D01*
X347046Y208454D02*
X406518Y267926D01*
X351996Y203504D02*
X406481Y257989D01*
X342097Y213403D02*
X406556Y277863D01*
X414015Y229451D02*
X419452Y224015D01*
X415947Y205947D02*
X424053D01*
X414027Y219541D02*
X419515Y214053D01*
X414003Y239364D02*
X419364Y234002D01*
X415947Y205947D02*
Y214053D01*
X412043D02*
X416311Y218321D01*
X414053Y209615D02*
X415947Y207721D01*
X414053Y206164D02*
X415947Y208058D01*
X414053Y205947D02*
Y214053D01*
X417721Y205947D02*
X419632Y204036D01*
X421538Y203749D02*
X423736Y205947D01*
X414053Y199716D02*
X419725Y194043D01*
X414049Y189820D02*
X418369Y185500D01*
X413836Y205947D02*
X414053Y206164D01*
Y195947D02*
Y204053D01*
X411942D02*
X413836Y205947D01*
X414053Y196264D02*
X416251Y198462D01*
X413736Y195947D02*
X414053Y196264D01*
X413188Y185500D02*
X416222Y188534D01*
X411881Y243590D02*
X416410Y248119D01*
X411815Y233624D02*
X416376Y238185D01*
X411747Y223657D02*
X416343Y228253D01*
X405947Y214053D02*
X414053D01*
X405947Y205947D02*
Y214053D01*
X356946Y198554D02*
X406445Y248054D01*
X405947Y205947D02*
X414053D01*
X407821D02*
X409716Y204053D01*
X405947D02*
X414053D01*
X405947Y195947D02*
X414053D01*
X366845Y188655D02*
X406376Y228185D01*
X361896Y193604D02*
X406410Y238119D01*
X407922Y195947D02*
X409820Y194049D01*
X411538Y193749D02*
X413736Y195947D01*
X405947D02*
Y204053D01*
X383490Y185500D02*
X405947Y207958D01*
X373590Y185500D02*
X406343Y218253D01*
X403289Y185500D02*
X406250Y188462D01*
X393389Y185500D02*
X405947Y198058D01*
X321759Y490000D02*
X398410Y413349D01*
X301959Y490000D02*
X405947Y386012D01*
X292060Y490000D02*
X405949Y376111D01*
X324107Y363705D02*
X450402Y490000D01*
X313010Y362508D02*
X440503Y490000D01*
X311859D02*
X415948Y385911D01*
X282161Y490000D02*
X373133Y399028D01*
X310000Y363000D02*
Y365550D01*
X242563Y490000D02*
X349276Y383286D01*
X310000Y363000D02*
X312550D01*
X322000Y361500D02*
X324550D01*
X307450Y363000D02*
X310000D01*
X272261Y490000D02*
X405597Y356664D01*
X262362Y490000D02*
X405967Y346395D01*
X223365Y332259D02*
X381106Y490000D01*
X279303Y358499D02*
X410804Y490000D01*
X331658D02*
X490000Y331658D01*
X252462Y490000D02*
X405976Y336486D01*
X223444Y352137D02*
X361307Y490000D01*
X223405Y342198D02*
X371206Y490000D01*
X322000Y361500D02*
Y364050D01*
X310000Y360450D02*
Y363000D01*
X175611Y383500D02*
X282111Y490000D01*
X185510Y383500D02*
X292010Y490000D01*
X165711Y383500D02*
X272211Y490000D01*
X195410Y383500D02*
X301910Y490000D01*
X203155Y381345D02*
X311809Y490000D01*
X120000D02*
X488000D01*
X132867Y410053D02*
X212814Y490000D01*
X126113Y383500D02*
X232613Y490000D01*
X116214Y383500D02*
X222714Y490000D01*
X170163Y417650D02*
X242513Y490000D01*
X175307Y402995D02*
X262312Y490000D01*
X145912Y383500D02*
X252412Y490000D01*
X208104Y376396D02*
X321709Y490000D01*
X210000Y368392D02*
X331608Y490000D01*
X193065D02*
X319637Y363428D01*
X212864Y490000D02*
X334277Y368588D01*
X216085Y354678D02*
X351407Y490000D01*
X210608Y359100D02*
X341508Y490000D01*
X183166D02*
X307928Y365238D01*
X183166Y490000D02*
X307928Y365238D01*
X143568Y490000D02*
X274877Y358690D01*
X210000Y359100D02*
Y374500D01*
Y364171D02*
X220120Y354051D01*
X201000Y383500D02*
X210000Y374500D01*
X319450Y361500D02*
X322000D01*
Y358950D02*
Y361500D01*
X277000Y356500D02*
X279550D01*
X277000D02*
Y359050D01*
X274450Y356500D02*
X277000D01*
Y353950D02*
Y356500D01*
X216600Y347671D02*
X217050Y347221D01*
X216600Y352206D02*
Y353500D01*
X217727Y336645D02*
X220333Y334039D01*
X217993Y326479D02*
X220444Y324028D01*
X217221Y347050D02*
X220224Y344046D01*
X216600Y342206D02*
Y347794D01*
Y345293D02*
X217863Y346556D01*
X216600Y335394D02*
X217801Y336595D01*
X216600Y325494D02*
X217741Y326635D01*
X216600Y332206D02*
Y337794D01*
X212133Y358630D02*
X216130Y354633D01*
X210337Y355900D02*
X213400Y352837D01*
Y352206D02*
Y352837D01*
X210000Y359100D02*
X211000D01*
X210000Y355900D02*
X210337D01*
X210000Y354271D02*
X210225Y354047D01*
X210000Y354053D02*
Y355900D01*
X213400Y342206D02*
Y347794D01*
Y332206D02*
Y337794D01*
X210000Y344372D02*
X210332Y344039D01*
X210000Y334053D02*
Y335947D01*
Y344053D02*
Y345947D01*
Y324053D02*
Y325947D01*
Y334472D02*
X210444Y334028D01*
X132560Y469142D02*
X153417Y490000D01*
X132504Y459187D02*
X163317Y490000D01*
X132447Y449231D02*
X173216Y490000D01*
X132615Y479097D02*
X143518Y490000D01*
X122952Y479334D02*
X133618Y490000D01*
X122615Y469097D02*
X126903Y473385D01*
X121965Y472004D02*
X126305Y467665D01*
X122559Y459142D02*
X126858Y463441D01*
X121733Y462337D02*
X126337Y457733D01*
X132389Y439274D02*
X183116Y490000D01*
X132559Y419644D02*
X202915Y490000D01*
X132331Y429316D02*
X193015Y490000D01*
X131733Y452337D02*
X166147Y417923D01*
X131801Y442369D02*
X170930Y403240D01*
X122504Y449187D02*
X126813Y453496D01*
X122447Y439231D02*
X126769Y443553D01*
X121801Y452369D02*
X126370Y447801D01*
X122389Y429274D02*
X126726Y433611D01*
X121868Y442403D02*
X126403Y437868D01*
X116935Y486935D02*
X126274Y477595D01*
X109000Y475281D02*
X123719Y490000D01*
X120000Y476000D02*
X123953D01*
X120000D02*
Y479953D01*
X111985Y481985D02*
X116004Y477965D01*
X120000Y472047D02*
Y476000D01*
X109000Y479000D02*
X120000Y490000D01*
X116047Y476000D02*
X120000D01*
X109000Y475070D02*
X116337Y467733D01*
X109000Y465382D02*
X116666Y473048D01*
X109000Y455482D02*
X116903Y463385D01*
X109000Y445583D02*
X116858Y453441D01*
X109000Y435683D02*
X116813Y443496D01*
X109000Y465171D02*
X116369Y457801D01*
X109000Y455271D02*
X116403Y447868D01*
X109000Y390500D02*
Y479000D01*
Y435472D02*
X116474Y427998D01*
X109000Y425784D02*
X116769Y433553D01*
X109000Y445372D02*
X116438Y437933D01*
X168000Y415500D02*
Y418050D01*
Y415500D02*
X170550D01*
X168000Y412950D02*
Y415500D01*
X170450Y401000D02*
X173000D01*
X165450Y415500D02*
X168000D01*
X130000Y416000D02*
Y419953D01*
Y416000D02*
X133953D01*
X130000Y412047D02*
Y416000D01*
X134053Y401947D02*
Y410053D01*
X126047Y416000D02*
X130000D01*
X170423Y413647D02*
X200570Y383500D01*
X131868Y432403D02*
X180771Y383500D01*
X173000Y401000D02*
X175550D01*
X175240Y398930D02*
X190671Y383500D01*
X173000Y398450D02*
Y401000D01*
X132290Y412182D02*
X160972Y383500D01*
X136013D02*
X165850Y413337D01*
X131933Y422438D02*
X170872Y383500D01*
X173000Y401000D02*
Y403550D01*
X155812Y383500D02*
X171005Y398693D01*
X132625Y401947D02*
X151073Y383500D01*
X122331Y419315D02*
X126684Y423669D01*
X121998Y422474D02*
X126182Y418291D01*
X121933Y432438D02*
X126438Y427933D01*
X125947Y410053D02*
X134053D01*
X122271Y409356D02*
X126356Y413441D01*
X109000Y425573D02*
X116511Y418062D01*
X109000Y415884D02*
X116727Y423611D01*
X122062Y412511D02*
X125947Y408625D01*
X109000Y415673D02*
X116549Y408124D01*
X125947Y401947D02*
Y410053D01*
X111157Y388343D02*
X125947Y403133D01*
X109000Y405774D02*
X131274Y383500D01*
X125947Y401947D02*
X134053D01*
X122124Y402549D02*
X141173Y383500D01*
X116000D02*
X201000D01*
X109000Y405985D02*
X116684Y413669D01*
X109000Y396085D02*
X116644Y403729D01*
X109000Y390500D02*
X116000Y383500D01*
X109000Y395874D02*
X121374Y383500D01*
X232964Y252764D02*
X373169Y392968D01*
X232915Y242815D02*
X397965Y407865D01*
X232663Y490000D02*
X406002Y316662D01*
X323928Y359137D02*
X409111Y273954D01*
X312238Y360928D02*
X409194Y263972D01*
X312238Y360928D02*
X409194Y263972D01*
X264360Y294059D02*
X334499Y364198D01*
X254741Y294339D02*
X319795Y359393D01*
X252000Y293000D02*
Y295550D01*
X261500Y293000D02*
Y295550D01*
X241331Y231432D02*
X465947Y456048D01*
X279190Y354377D02*
X409541Y224027D01*
X236353Y236353D02*
X465568Y465568D01*
X317095Y228000D02*
X406065Y316969D01*
X326995Y228000D02*
X406101Y307106D01*
X307196Y228000D02*
X406035Y326839D01*
X257698Y228000D02*
X405955Y376257D01*
X267598Y228000D02*
X405964Y366366D01*
X247799Y228000D02*
X405950Y386151D01*
X287397Y228000D02*
X405991Y346594D01*
X297296Y228000D02*
X406011Y336714D01*
X277497Y228000D02*
X405548Y356050D01*
X223282Y312378D02*
X400905Y490000D01*
X222764D02*
X406017Y306747D01*
X202965Y490000D02*
X409030Y283935D01*
X223481Y292777D02*
X420704Y490000D01*
X224053Y283450D02*
X430603Y490000D01*
X223481Y292777D02*
X420704Y490000D01*
X223324Y322319D02*
X391005Y490000D01*
X223525Y302721D02*
X275001Y354197D01*
X210000Y259497D02*
X310492Y359990D01*
X224039Y330332D02*
X259280Y295092D01*
X224028Y320444D02*
X249596Y294877D01*
X163366Y490000D02*
X409364Y244003D01*
X153467Y490000D02*
X409451Y234015D01*
X133668Y490000D02*
X409615Y214053D01*
X173266Y490000D02*
X409278Y253988D01*
X131665Y462305D02*
X408469Y185500D01*
X123768Y490000D02*
X405947Y207821D01*
X210000Y374070D02*
X398570Y185500D01*
X224051Y350120D02*
X388671Y185500D01*
X131595Y472274D02*
X405947Y197922D01*
X224447Y300226D02*
X296673Y228000D01*
X224046Y340225D02*
X378771Y185500D01*
X224014Y310559D02*
X306573Y228000D01*
X261500Y293000D02*
X264050D01*
X261500Y290450D02*
Y293000D01*
X258950D02*
X261500D01*
X252000D02*
X254550D01*
X244763Y228000D02*
X327500D01*
X233013Y262711D02*
X260441Y290140D01*
X249450Y293000D02*
X252000D01*
Y290450D02*
Y293000D01*
X232866Y232866D02*
X233400Y233400D01*
X232206Y236600D02*
X235500D01*
X253876Y290596D02*
X316472Y228000D01*
X263592Y290780D02*
X326372Y228000D01*
X233911Y261064D02*
X266975Y228000D01*
X233869Y251206D02*
X257075Y228000D01*
X327500D02*
X370000Y185500D01*
X233819Y241357D02*
X247176Y228000D01*
X234837Y233400D02*
X240237Y228000D01*
X236633Y236130D02*
X244763Y228000D01*
X233757Y231519D02*
X237276Y228000D01*
X237899D02*
X239068Y229169D01*
X233525Y228000D02*
X240237D01*
X229004Y256072D02*
X231206Y253869D01*
X224053Y263651D02*
X250661Y290259D01*
X229135Y246041D02*
X231357Y243819D01*
X224053Y261022D02*
X226072Y259003D01*
X223012Y252711D02*
X227289Y256988D01*
X219027Y275947D02*
X231064Y263911D01*
X223819Y251357D02*
X226041Y249135D01*
X223757Y241519D02*
X226015Y239261D01*
X222965Y242763D02*
X227237Y247036D01*
X224440Y290333D02*
X286774Y228000D01*
X224053Y280821D02*
X276874Y228000D01*
X232206Y233400D02*
X234837D01*
X222206Y236600D02*
X227794D01*
X226700D02*
X227185Y237085D01*
X222206Y233400D02*
X227794D01*
X223681Y231696D02*
X225995Y229382D01*
X223525Y228000D02*
X226475D01*
X218207Y316365D02*
X220559Y314014D01*
X216600Y315595D02*
X217681Y316676D01*
X216600Y312206D02*
Y317794D01*
Y322206D02*
Y327794D01*
Y305695D02*
X217622Y306718D01*
X218394Y306279D02*
X220226Y304447D01*
X216600Y302875D02*
Y307794D01*
X220000Y300000D02*
X223953D01*
X220000D02*
Y303953D01*
X219143Y295631D02*
X220333Y294440D01*
X220000Y290000D02*
X223953D01*
X220000Y296047D02*
Y300000D01*
Y290000D02*
Y293953D01*
X216600Y295796D02*
X217279Y296475D01*
X220000Y286047D02*
Y290000D01*
X216600Y284053D02*
Y287125D01*
Y285896D02*
X217223Y286519D01*
X213400Y322206D02*
Y327794D01*
Y312206D02*
Y317794D01*
X210000Y314053D02*
Y315947D01*
Y314673D02*
X210677Y313996D01*
X210000Y324573D02*
X210559Y324014D01*
X210000Y304053D02*
Y305947D01*
Y304774D02*
X210801Y303973D01*
X213400Y302206D02*
Y307794D01*
X216600Y292875D02*
Y297125D01*
Y285896D02*
X217223Y286519D01*
X213400Y284053D02*
Y287794D01*
X210000Y294053D02*
Y295947D01*
X213400Y292206D02*
Y297794D01*
X210000Y294874D02*
X210929Y293945D01*
X210000Y284053D02*
Y285947D01*
X216600Y284053D02*
X224053D01*
Y275947D02*
Y284053D01*
X216600Y275947D02*
X224053D01*
X216168Y268907D02*
X221022Y264053D01*
X224053Y255947D02*
Y264053D01*
X215947D02*
X224053D01*
X219266Y285608D02*
X220821Y284053D01*
X216600Y270000D02*
Y275947D01*
X213400Y270663D02*
Y275947D01*
X215947Y255947D02*
Y264053D01*
Y255947D02*
X224053D01*
X219228D02*
X221357Y253819D01*
X219261Y246015D02*
X221519Y243757D01*
X216801Y236600D02*
X217236Y237035D01*
X222916Y232815D02*
X223500Y233400D01*
X213163Y236600D02*
X217794D01*
X210000Y269397D02*
X213400Y272797D01*
X210000Y262737D02*
X216130Y268867D01*
X210000Y275075D02*
X213400Y271675D01*
X211219Y263956D02*
X215947Y259228D01*
X210000Y249598D02*
X216349Y255947D01*
X210000Y255276D02*
X216015Y249261D01*
X210000Y284053D02*
X213400D01*
X210000Y267263D02*
Y275947D01*
Y284975D02*
X210922Y284053D01*
X210000Y267263D02*
X213400Y270663D01*
X210000Y239763D02*
Y262737D01*
Y275947D02*
X213400D01*
X210032Y239731D02*
X217289Y246988D01*
X211996Y233482D02*
X215978Y229499D01*
X210000Y245377D02*
X215995Y239382D01*
X212500Y233400D02*
X217794D01*
X210000Y229799D02*
X213601Y233400D01*
X210000Y228000D02*
X216475D01*
X210000Y235237D02*
X211367Y233870D01*
X210000Y228000D02*
Y235237D01*
Y239763D02*
X213163Y236600D01*
X181500Y178500D02*
X187500D01*
X165000Y357500D02*
X188000D01*
X158000Y350500D02*
X165000Y357500D01*
X158000Y310000D02*
Y350500D01*
X124000Y307780D02*
X131280D01*
X141500Y318000D01*
X146500D01*
X156000Y209000D02*
X161500D01*
X137500Y190500D02*
X156000Y209000D01*
X272500Y165500D02*
X277000Y161000D01*
X313000D01*
X249000Y171000D02*
X256000Y178000D01*
X249000Y137000D02*
Y171000D01*
X274000Y178000D02*
X280000Y184000D01*
X256000Y178000D02*
X274000D01*
X388671Y174171D02*
Y185500D01*
X212500Y235000D02*
X235500D01*
X247500Y223000D01*
X287500D01*
X175500Y299000D02*
Y334500D01*
X181000Y340000D01*
X210000D01*
X284500Y196000D02*
X292000Y188500D01*
X284500Y196000D02*
Y206000D01*
X137500Y141500D02*
Y190500D01*
X132500Y136500D02*
X137500Y141500D01*
X128000Y136500D02*
X132500D01*
X191000Y300000D02*
Y322500D01*
X207000Y262000D02*
X215000Y270000D01*
X207000Y240500D02*
Y262000D01*
X177000Y246000D02*
Y264500D01*
X207000Y240500D02*
X212500Y235000D01*
X215000Y270000D02*
Y320000D01*
Y353500D01*
Y320000D02*
X220000D01*
X211000Y357500D02*
X215000Y353500D01*
X188000Y357500D02*
X211000D01*
X280000Y184000D02*
X296295D01*
X298795Y186500D01*
X220000Y290000D02*
Y300000D01*
D30*
X169500Y171000D02*
X179500Y161000D01*
X236000D01*
X244000Y169000D01*
Y197500D01*
X248500Y202000D01*
X261500D01*
D31*
X335500Y216000D02*
X372000Y179500D01*
X249500Y216000D02*
X335500D01*
X240500Y225000D02*
X249500Y216000D01*
X209000Y225000D02*
X240500D01*
X202000Y232000D02*
X209000Y225000D01*
X202000Y232000D02*
Y287500D01*
X195500Y294000D02*
X202000Y287500D01*
X124000Y294000D02*
X195500D01*
X115000D02*
X124000D01*
X122500Y338000D02*
X124000Y336500D01*
X111000Y298000D02*
X115000Y294000D01*
X111000Y298000D02*
Y333500D01*
X115500Y338000D02*
X122500D01*
X111000Y333500D02*
X115500Y338000D01*
X372000Y166000D02*
Y179500D01*
D32*
X420000Y170000D02*
D03*
X410000D02*
D03*
X420000Y180000D02*
D03*
X410000Y180000D02*
D03*
X420000Y190000D02*
D03*
X410000D02*
D03*
X420000Y200000D02*
D03*
X116000Y236500D02*
D03*
Y246500D02*
D03*
Y256500D02*
D03*
Y266500D02*
D03*
Y276500D02*
D03*
X420000Y316000D02*
D03*
Y386000D02*
D03*
Y376000D02*
D03*
Y366000D02*
D03*
Y356000D02*
D03*
Y346000D02*
D03*
Y336000D02*
D03*
Y326000D02*
D03*
Y306000D02*
D03*
X410000Y316000D02*
D03*
Y386000D02*
D03*
Y376000D02*
D03*
Y366000D02*
D03*
X410000Y356000D02*
D03*
X410000Y346000D02*
D03*
Y336000D02*
D03*
Y326000D02*
D03*
X410000Y306000D02*
D03*
X220000Y290000D02*
D03*
Y300000D02*
D03*
Y310000D02*
D03*
Y320000D02*
D03*
Y330000D02*
D03*
Y340000D02*
D03*
Y350000D02*
D03*
X210000Y290000D02*
D03*
Y300000D02*
D03*
Y310000D02*
D03*
Y320000D02*
D03*
Y330000D02*
D03*
Y340000D02*
D03*
Y350000D02*
D03*
X178000Y210500D02*
D03*
X230000Y260000D02*
D03*
X220000Y250000D02*
D03*
X230000D02*
D03*
X220000Y240000D02*
D03*
X230000Y240000D02*
D03*
X220000Y230000D02*
D03*
X230000D02*
D03*
X220000Y220000D02*
D03*
X230000D02*
D03*
X220000Y210000D02*
D03*
X230000D02*
D03*
X220000Y200000D02*
D03*
X230000D02*
D03*
X220000Y190000D02*
D03*
X230000Y190000D02*
D03*
X220000Y180000D02*
D03*
X230000D02*
D03*
X220000Y170000D02*
D03*
X230000D02*
D03*
X420000Y220000D02*
D03*
Y230000D02*
D03*
Y240000D02*
D03*
Y250000D02*
D03*
Y260000D02*
D03*
Y270000D02*
D03*
Y280000D02*
D03*
X410000Y220000D02*
D03*
Y230000D02*
D03*
Y240000D02*
D03*
Y250000D02*
D03*
Y260000D02*
D03*
Y270000D02*
D03*
Y280000D02*
D03*
X200000Y200500D02*
D03*
Y190500D02*
D03*
X120000Y476000D02*
D03*
X130000Y476000D02*
D03*
X120000Y466000D02*
D03*
X130000D02*
D03*
X120000Y456000D02*
D03*
X130000D02*
D03*
X120000Y446000D02*
D03*
X130000D02*
D03*
X120000Y436000D02*
D03*
X130000D02*
D03*
X120000Y426000D02*
D03*
X130000Y426000D02*
D03*
X120000Y416000D02*
D03*
X130000D02*
D03*
X120000Y406000D02*
D03*
X480000D02*
D03*
X470000Y406000D02*
D03*
X480000Y416000D02*
D03*
X470000D02*
D03*
X480000Y426000D02*
D03*
X470000D02*
D03*
X480000Y436000D02*
D03*
X470000D02*
D03*
X480000Y446000D02*
D03*
X470000D02*
D03*
X480000Y456000D02*
D03*
X470000Y456000D02*
D03*
X480000Y466000D02*
D03*
X470000D02*
D03*
X480000Y476000D02*
D03*
X342500Y161500D02*
D03*
D33*
X410000Y200000D02*
D03*
X116000Y226500D02*
D03*
X420000Y296000D02*
D03*
X410000D02*
D03*
X220000Y280000D02*
D03*
X210000D02*
D03*
X178000Y220500D02*
D03*
X220000Y260000D02*
D03*
X420000Y210000D02*
D03*
X410000D02*
D03*
X200000Y210500D02*
D03*
X130000Y406000D02*
D03*
X470000Y476000D02*
D03*
X342500Y171500D02*
D03*
D34*
X436500Y154000D02*
D03*
X459000D02*
D03*
X447700Y172000D02*
D03*
D35*
X124000Y338000D02*
D03*
Y294000D02*
D03*
X120000Y179500D02*
D03*
D36*
X124000Y351780D02*
D03*
Y365559D02*
D03*
Y307780D02*
D03*
Y321559D02*
D03*
X120000Y165720D02*
D03*
X291280Y112000D02*
D03*
X322280D02*
D03*
D37*
X120000Y204000D02*
D03*
D38*
X129800D02*
D03*
D39*
X148000Y146500D02*
D03*
X128000Y136500D02*
D03*
D40*
X178000D02*
D03*
D41*
X277500Y112000D02*
D03*
X308500D02*
D03*
D42*
X121000Y114000D02*
D03*
X479000D02*
D03*
D43*
X455500Y227500D02*
D03*
X187500Y178500D02*
D03*
X463500Y265000D02*
D03*
X146500Y318000D02*
D03*
X161500Y209000D02*
D03*
X313000Y161000D02*
D03*
X272500Y165500D02*
D03*
X249000Y137000D02*
D03*
X295000Y151000D02*
D03*
X302500Y180000D02*
D03*
X287500Y223000D02*
D03*
X177000Y264500D02*
D03*
X175500Y299000D02*
D03*
X191000Y322500D02*
D03*
X148000Y300000D02*
D03*
X191000D02*
D03*
X124500Y255500D02*
D03*
X112000Y289000D02*
D03*
X177000Y246000D02*
D03*
X158000Y310000D02*
D03*
X261500Y202000D02*
D03*
X188000Y357500D02*
D03*
X148000Y344000D02*
D03*
X439500Y286500D02*
D03*
X445000Y281000D02*
D03*
X452000Y274500D02*
D03*
X472500Y257500D02*
D03*
X452500Y466000D02*
D03*
X399500Y410500D02*
D03*
X351500Y381199D02*
D03*
X336500Y366500D02*
D03*
X322000Y361500D02*
D03*
X310000Y363000D02*
D03*
X373500Y396000D02*
D03*
X277000Y356500D02*
D03*
X261500Y293000D02*
D03*
X252000D02*
D03*
X168000Y415500D02*
D03*
X173000Y401000D02*
D03*
X405000Y120000D02*
D03*
X401500D02*
D03*
X398000D02*
D03*
X394500D02*
D03*
X391000D02*
D03*
X387500D02*
D03*
X384000D02*
D03*
X380500D02*
D03*
X292000Y188500D02*
D03*
X298795Y186500D02*
D03*
X284500Y206000D02*
D03*
X144500Y226000D02*
D03*
X158000Y237500D02*
D03*
X299750Y151000D02*
D03*
X304500D02*
D03*
X305500Y206000D02*
D03*
X372000Y166000D02*
D03*
X169500Y171000D02*
D03*
M02*
