G04 Layer_Physical_Order=2*
G04 Layer_Color=16711680*
%FSLAX25Y25*%
%MOIN*%
G70*
G01*
G75*
%ADD10C,0.01000*%
%ADD13R,0.03500X0.03500*%
%ADD16R,0.05118X0.05906*%
%ADD25C,0.01800*%
%ADD26C,0.01400*%
%ADD29R,0.05906X0.05906*%
%ADD30C,0.05906*%
%ADD31R,0.05906X0.05906*%
%ADD32C,0.09500*%
%ADD33R,0.09500X0.09500*%
%ADD34R,0.09500X0.09500*%
%ADD35R,0.06000X0.06000*%
%ADD36C,0.06000*%
%ADD37C,0.04800*%
%ADD38R,0.04800X0.04800*%
%ADD39C,0.03100*%
%ADD40R,0.04331X0.03937*%
%ADD41R,0.28000X0.39000*%
%ADD42R,0.00500X0.20000*%
G36*
X182500Y367500D02*
Y276105D01*
X182038Y275913D01*
X181233Y276718D01*
Y293000D01*
X181101Y293663D01*
X180726Y294226D01*
X176226Y298726D01*
X175663Y299101D01*
X175000Y299233D01*
X156500D01*
X155837Y299101D01*
X155274Y298726D01*
X149782Y293233D01*
X129750D01*
Y297250D01*
X118250D01*
Y293233D01*
X115218D01*
X112733Y295718D01*
Y332782D01*
X114718Y334767D01*
X118250D01*
Y330750D01*
X129750D01*
Y342250D01*
X118250D01*
Y338233D01*
X114000D01*
X113337Y338101D01*
X112774Y337726D01*
X110462Y335413D01*
X110000Y335605D01*
Y367500D01*
X115000Y372500D01*
X177500D01*
X182500Y367500D01*
D02*
G37*
G36*
X177767Y292282D02*
Y276000D01*
X177899Y275337D01*
X178274Y274774D01*
X182500Y270549D01*
Y216937D01*
X171191D01*
X170495Y217402D01*
X169500Y217600D01*
X168505Y217402D01*
X167662Y216839D01*
X167098Y215995D01*
X166900Y215000D01*
X167098Y214005D01*
X167662Y213161D01*
X168505Y212598D01*
X169500Y212400D01*
X170495Y212598D01*
X171191Y213063D01*
X182500D01*
Y162500D01*
X187500Y157500D01*
X250000D01*
Y168500D01*
Y168971D01*
X308000D01*
X308585Y169087D01*
X309081Y169419D01*
X313581Y173919D01*
X313913Y174415D01*
X314029Y175000D01*
Y177955D01*
X314338Y178162D01*
X314902Y179005D01*
X315100Y180000D01*
X314902Y180995D01*
X314338Y181838D01*
X313495Y182402D01*
X312500Y182600D01*
X311505Y182402D01*
X310662Y181838D01*
X310098Y180995D01*
X309900Y180000D01*
X310098Y179005D01*
X310662Y178162D01*
X310971Y177955D01*
Y175634D01*
X307366Y172029D01*
X250000D01*
Y217500D01*
X255000Y222500D01*
X263471D01*
Y197000D01*
X263587Y196415D01*
X263919Y195919D01*
X280419Y179419D01*
X280915Y179087D01*
X281500Y178971D01*
X296500D01*
X297085Y179087D01*
X297581Y179419D01*
X299877Y181714D01*
X300208Y182210D01*
X300325Y182795D01*
Y184455D01*
X300634Y184662D01*
X301197Y185505D01*
X301395Y186500D01*
X301197Y187495D01*
X300634Y188338D01*
X299790Y188902D01*
X298795Y189100D01*
X297800Y188902D01*
X296957Y188338D01*
X296393Y187495D01*
X296195Y186500D01*
X296393Y185505D01*
X296957Y184662D01*
X297266Y184455D01*
Y183429D01*
X295866Y182029D01*
X282134D01*
X266529Y197634D01*
Y222500D01*
X289971D01*
Y214953D01*
X287876D01*
Y207047D01*
X289971D01*
Y206469D01*
X288473D01*
Y200532D01*
X289971D01*
Y190053D01*
X289598Y189495D01*
X289400Y188500D01*
X289598Y187505D01*
X290161Y186662D01*
X291005Y186098D01*
X292000Y185900D01*
X292995Y186098D01*
X293839Y186662D01*
X294402Y187505D01*
X294600Y188500D01*
X294402Y189495D01*
X293839Y190338D01*
X293029Y190879D01*
Y200178D01*
X293383Y200532D01*
X294665D01*
X294803Y200532D01*
X294984D01*
X295165D01*
X295303Y200532D01*
X297831D01*
Y203500D01*
Y206469D01*
X295303D01*
X295165Y206469D01*
X294984D01*
X294803D01*
X294665Y206469D01*
X293511D01*
X293304Y206968D01*
X293383Y207047D01*
X294856D01*
X294994Y207047D01*
X295175D01*
X295356D01*
X295494Y207047D01*
X298415D01*
Y211000D01*
Y214953D01*
X295494D01*
X295356Y214953D01*
X295175D01*
X294994D01*
X294856Y214953D01*
X293029D01*
Y222500D01*
X315000D01*
X317500Y220000D01*
Y215000D01*
Y180000D01*
X320000Y177500D01*
X370267D01*
Y167909D01*
X370162Y167838D01*
X369598Y166995D01*
X369400Y166000D01*
X369598Y165005D01*
X370162Y164162D01*
X371005Y163598D01*
X372000Y163400D01*
X372995Y163598D01*
X373838Y164162D01*
X374402Y165005D01*
X374600Y166000D01*
X374402Y166995D01*
X373838Y167838D01*
X373733Y167909D01*
Y177500D01*
X427500D01*
X430000Y175000D01*
Y159250D01*
X422250D01*
Y147750D01*
X430000D01*
Y145566D01*
X429584Y145288D01*
X429501Y145323D01*
X428500Y145454D01*
Y139720D01*
Y133987D01*
X429501Y134118D01*
X429584Y134153D01*
X430000Y133875D01*
Y112500D01*
X427500Y110000D01*
X337500D01*
X332500Y115000D01*
Y125000D01*
X330000Y127500D01*
X115000D01*
X110000Y132500D01*
Y188645D01*
X110182Y188764D01*
X110500Y188837D01*
X119919Y179419D01*
X120415Y179087D01*
X121000Y178971D01*
X124304D01*
X124506Y178483D01*
X125147Y177647D01*
X125983Y177006D01*
X126956Y176603D01*
X128000Y176465D01*
X129044Y176603D01*
X130017Y177006D01*
X130853Y177647D01*
X131494Y178483D01*
X131897Y179456D01*
X132035Y180500D01*
X131897Y181544D01*
X131494Y182517D01*
X130853Y183353D01*
X130017Y183994D01*
X129044Y184397D01*
X128000Y184535D01*
X126956Y184397D01*
X125983Y183994D01*
X125147Y183353D01*
X124506Y182517D01*
X124304Y182029D01*
X121634D01*
X113029Y190633D01*
Y233366D01*
X117633Y237971D01*
X164047D01*
Y235547D01*
X171953D01*
Y243453D01*
X164047D01*
Y241029D01*
X117000D01*
X116512Y240932D01*
X116415Y240913D01*
X115919Y240581D01*
X110500Y235163D01*
X110182Y235236D01*
X110000Y235355D01*
Y292895D01*
X110462Y293087D01*
X113274Y290274D01*
X113837Y289899D01*
X114500Y289767D01*
X118250D01*
Y285750D01*
X129750D01*
Y289767D01*
X150500D01*
X151163Y289899D01*
X151726Y290274D01*
X157218Y295767D01*
X174282D01*
X177767Y292282D01*
D02*
G37*
%LPC*%
G36*
X305000Y205500D02*
X302999D01*
X303098Y205005D01*
X303661Y204162D01*
X304505Y203598D01*
X305000Y203500D01*
Y205500D01*
D02*
G37*
G36*
X301496Y203000D02*
X298831D01*
Y200532D01*
X301496D01*
Y203000D01*
D02*
G37*
G36*
X119500Y209221D02*
X114266D01*
X114398Y208219D01*
X114977Y206821D01*
X115899Y205620D01*
X117100Y204698D01*
X118499Y204118D01*
X119500Y203987D01*
Y209221D01*
D02*
G37*
G36*
X308000Y205500D02*
X306000D01*
Y203500D01*
X306495Y203598D01*
X307339Y204162D01*
X307902Y205005D01*
X308000Y205500D01*
D02*
G37*
G36*
X148000Y194535D02*
X146956Y194397D01*
X145983Y193994D01*
X145147Y193353D01*
X144506Y192517D01*
X144103Y191544D01*
X143965Y190500D01*
X144103Y189456D01*
X144506Y188483D01*
X145147Y187647D01*
X145983Y187006D01*
X146956Y186603D01*
X148000Y186466D01*
X149044Y186603D01*
X150017Y187006D01*
X150853Y187647D01*
X151494Y188483D01*
X151897Y189456D01*
X152034Y190500D01*
X151897Y191544D01*
X151494Y192517D01*
X150853Y193353D01*
X150017Y193994D01*
X149044Y194397D01*
X148000Y194535D01*
D02*
G37*
G36*
X182000Y180000D02*
X178500D01*
Y176500D01*
X182000D01*
Y180000D01*
D02*
G37*
G36*
X177500Y239000D02*
X174079D01*
X174149Y238468D01*
X174547Y237507D01*
X175181Y236681D01*
X176006Y236047D01*
X176968Y235649D01*
X177500Y235579D01*
Y239000D01*
D02*
G37*
G36*
X182000Y184500D02*
X178500D01*
Y181000D01*
X182000D01*
Y184500D01*
D02*
G37*
G36*
X177500D02*
X174000D01*
Y181000D01*
X177500D01*
Y184500D01*
D02*
G37*
G36*
X119500Y215454D02*
X118499Y215322D01*
X117100Y214743D01*
X115899Y213821D01*
X114977Y212620D01*
X114398Y211222D01*
X114266Y210221D01*
X119500D01*
Y215454D01*
D02*
G37*
G36*
X302474Y210500D02*
X299415D01*
Y207047D01*
X302474D01*
Y210500D01*
D02*
G37*
G36*
X299415Y214953D02*
Y211500D01*
X302474D01*
Y214953D01*
X299415D01*
D02*
G37*
G36*
X120500Y215454D02*
Y210221D01*
X125734D01*
X125602Y211222D01*
X125023Y212620D01*
X124101Y213821D01*
X122900Y214743D01*
X121501Y215322D01*
X120500Y215454D01*
D02*
G37*
G36*
X306000Y208501D02*
Y206500D01*
X308000D01*
X307902Y206995D01*
X307339Y207839D01*
X306495Y208402D01*
X306000Y208501D01*
D02*
G37*
G36*
X125750Y229250D02*
X114250D01*
Y217750D01*
X125750D01*
Y229250D01*
D02*
G37*
G36*
X125734Y209221D02*
X120500D01*
Y203987D01*
X121501Y204118D01*
X122900Y204698D01*
X124101Y205620D01*
X125023Y206821D01*
X125602Y208219D01*
X125734Y209221D01*
D02*
G37*
G36*
X305000Y208501D02*
X304505Y208402D01*
X303661Y207839D01*
X303098Y206995D01*
X302999Y206500D01*
X305000D01*
Y208501D01*
D02*
G37*
G36*
X298831Y206469D02*
Y204000D01*
X301496D01*
Y206469D01*
X298831D01*
D02*
G37*
G36*
X299500Y157001D02*
X299005Y156902D01*
X298162Y156338D01*
X297801Y155798D01*
X297199D01*
X296838Y156338D01*
X295995Y156902D01*
X295500Y157001D01*
Y154500D01*
Y151999D01*
X295995Y152098D01*
X296838Y152662D01*
X297199Y153202D01*
X297801D01*
X298162Y152662D01*
X299005Y152098D01*
X299500Y151999D01*
Y154500D01*
Y157001D01*
D02*
G37*
G36*
X305000D02*
Y155000D01*
X307000D01*
X306902Y155495D01*
X306339Y156338D01*
X305495Y156902D01*
X305000Y157001D01*
D02*
G37*
G36*
X342000Y161000D02*
X338579D01*
X338649Y160468D01*
X339047Y159507D01*
X339681Y158681D01*
X340507Y158047D01*
X341468Y157649D01*
X342000Y157579D01*
Y161000D01*
D02*
G37*
G36*
X304000Y157001D02*
X303505Y156902D01*
X302661Y156338D01*
X302500Y156097D01*
X302000D01*
X301838Y156338D01*
X300995Y156902D01*
X300500Y157001D01*
Y154500D01*
Y151999D01*
X300995Y152098D01*
X301838Y152662D01*
X302000Y152903D01*
X302500D01*
X302661Y152662D01*
X303505Y152098D01*
X304000Y151999D01*
Y154500D01*
Y157001D01*
D02*
G37*
G36*
X294500D02*
X294005Y156902D01*
X293162Y156338D01*
X292598Y155495D01*
X292499Y155000D01*
X294500D01*
Y157001D01*
D02*
G37*
G36*
X427500Y145454D02*
X426499Y145323D01*
X425100Y144743D01*
X423899Y143821D01*
X422977Y142620D01*
X422398Y141221D01*
X422266Y140220D01*
X427500D01*
Y145454D01*
D02*
G37*
G36*
Y139220D02*
X422266D01*
X422398Y138219D01*
X422977Y136821D01*
X423899Y135619D01*
X425100Y134698D01*
X426499Y134118D01*
X427500Y133987D01*
Y139220D01*
D02*
G37*
G36*
X307000Y154000D02*
X305000D01*
Y151999D01*
X305495Y152098D01*
X306339Y152662D01*
X306902Y153505D01*
X307000Y154000D01*
D02*
G37*
G36*
X294500D02*
X292499D01*
X292598Y153505D01*
X293162Y152662D01*
X294005Y152098D01*
X294500Y151999D01*
Y154000D01*
D02*
G37*
G36*
X301854Y166500D02*
Y164500D01*
X303855D01*
X303756Y164995D01*
X303193Y165838D01*
X302349Y166402D01*
X301854Y166500D01*
D02*
G37*
G36*
X300854D02*
X300359Y166402D01*
X299516Y165838D01*
X298952Y164995D01*
X298854Y164500D01*
X300854D01*
Y166500D01*
D02*
G37*
G36*
X177500Y180000D02*
X174000D01*
Y176500D01*
X177500D01*
Y180000D01*
D02*
G37*
G36*
X346453Y175453D02*
X338547D01*
Y167547D01*
X346453D01*
Y175453D01*
D02*
G37*
G36*
X343000Y165421D02*
Y162000D01*
X346421D01*
X346351Y162532D01*
X345953Y163493D01*
X345319Y164319D01*
X344493Y164953D01*
X343532Y165351D01*
X343000Y165421D01*
D02*
G37*
G36*
X300854Y163500D02*
X298854D01*
X298952Y163005D01*
X299516Y162162D01*
X300359Y161598D01*
X300854Y161500D01*
Y163500D01*
D02*
G37*
G36*
X346421Y161000D02*
X343000D01*
Y157579D01*
X343532Y157649D01*
X344493Y158047D01*
X345319Y158681D01*
X345953Y159507D01*
X346351Y160468D01*
X346421Y161000D01*
D02*
G37*
G36*
X342000Y165421D02*
X341468Y165351D01*
X340507Y164953D01*
X339681Y164319D01*
X339047Y163493D01*
X338649Y162532D01*
X338579Y162000D01*
X342000D01*
Y165421D01*
D02*
G37*
G36*
X303855Y163500D02*
X301854D01*
Y161500D01*
X302349Y161598D01*
X303193Y162162D01*
X303756Y163005D01*
X303855Y163500D01*
D02*
G37*
G36*
X129734Y318559D02*
X124500D01*
Y313325D01*
X125501Y313457D01*
X126900Y314036D01*
X128101Y314958D01*
X129023Y316159D01*
X129602Y317558D01*
X129734Y318559D01*
D02*
G37*
G36*
X123500D02*
X118266D01*
X118398Y317558D01*
X118977Y316159D01*
X119899Y314958D01*
X121100Y314036D01*
X122499Y313457D01*
X123500Y313325D01*
Y318559D01*
D02*
G37*
G36*
X124500Y324793D02*
Y319559D01*
X129734D01*
X129602Y320560D01*
X129023Y321959D01*
X128101Y323160D01*
X126900Y324082D01*
X125501Y324661D01*
X124500Y324793D01*
D02*
G37*
G36*
X123500D02*
X122499Y324661D01*
X121100Y324082D01*
X119899Y323160D01*
X118977Y321959D01*
X118398Y320560D01*
X118266Y319559D01*
X123500D01*
Y324793D01*
D02*
G37*
G36*
X124000Y311079D02*
X122499Y310881D01*
X121100Y310302D01*
X119899Y309381D01*
X118977Y308179D01*
X118398Y306781D01*
X118200Y305279D01*
X118398Y303779D01*
X118977Y302380D01*
X119899Y301179D01*
X121100Y300257D01*
X122499Y299677D01*
X124000Y299480D01*
X125501Y299677D01*
X126900Y300257D01*
X128101Y301179D01*
X129023Y302380D01*
X129602Y303779D01*
X129800Y305279D01*
X129602Y306781D01*
X129023Y308179D01*
X128101Y309381D01*
X126900Y310302D01*
X125501Y310881D01*
X124000Y311079D01*
D02*
G37*
G36*
X150741Y298000D02*
X148740D01*
Y296000D01*
X149235Y296098D01*
X150079Y296661D01*
X150642Y297505D01*
X150741Y298000D01*
D02*
G37*
G36*
X147740D02*
X145740D01*
X145838Y297505D01*
X146402Y296661D01*
X147245Y296098D01*
X147740Y296000D01*
Y298000D01*
D02*
G37*
G36*
X148740Y301000D02*
Y299000D01*
X150741D01*
X150642Y299495D01*
X150079Y300339D01*
X149235Y300902D01*
X148740Y301000D01*
D02*
G37*
G36*
X147740D02*
X147245Y300902D01*
X146402Y300339D01*
X145838Y299495D01*
X145740Y299000D01*
X147740D01*
Y301000D01*
D02*
G37*
G36*
X129734Y363559D02*
X124500D01*
Y358325D01*
X125501Y358457D01*
X126900Y359036D01*
X128101Y359958D01*
X129023Y361159D01*
X129602Y362558D01*
X129734Y363559D01*
D02*
G37*
G36*
X123500D02*
X118266D01*
X118398Y362558D01*
X118977Y361159D01*
X119899Y359958D01*
X121100Y359036D01*
X122499Y358457D01*
X123500Y358325D01*
Y363559D01*
D02*
G37*
G36*
X124500Y369793D02*
Y364559D01*
X129734D01*
X129602Y365560D01*
X129023Y366959D01*
X128101Y368160D01*
X126900Y369082D01*
X125501Y369661D01*
X124500Y369793D01*
D02*
G37*
G36*
X123500Y369793D02*
X122499Y369661D01*
X121100Y369082D01*
X119899Y368160D01*
X118977Y366959D01*
X118398Y365560D01*
X118266Y364559D01*
X123500D01*
Y369793D01*
D02*
G37*
G36*
X124000Y356079D02*
X122499Y355882D01*
X121100Y355302D01*
X119899Y354380D01*
X118977Y353179D01*
X118398Y351781D01*
X118200Y350279D01*
X118398Y348779D01*
X118977Y347380D01*
X119899Y346179D01*
X121100Y345257D01*
X122499Y344677D01*
X124000Y344480D01*
X125501Y344677D01*
X126900Y345257D01*
X128101Y346179D01*
X129023Y347380D01*
X129602Y348779D01*
X129800Y350279D01*
X129602Y351781D01*
X129023Y353179D01*
X128101Y354380D01*
X126900Y355302D01*
X125501Y355882D01*
X124000Y356079D01*
D02*
G37*
G36*
X150741Y342000D02*
X148740D01*
Y340000D01*
X149235Y340098D01*
X150079Y340662D01*
X150642Y341505D01*
X150741Y342000D01*
D02*
G37*
G36*
X147740D02*
X145740D01*
X145838Y341505D01*
X146402Y340662D01*
X147245Y340098D01*
X147740Y340000D01*
Y342000D01*
D02*
G37*
G36*
X148740Y345001D02*
Y343000D01*
X150741D01*
X150642Y343495D01*
X150079Y344338D01*
X149235Y344902D01*
X148740Y345001D01*
D02*
G37*
G36*
X147740D02*
X147245Y344902D01*
X146402Y344338D01*
X145838Y343495D01*
X145740Y343000D01*
X147740D01*
Y345001D01*
D02*
G37*
G36*
X181921Y254000D02*
X178500D01*
Y250579D01*
X179032Y250649D01*
X179993Y251047D01*
X180819Y251681D01*
X181453Y252507D01*
X181851Y253468D01*
X181921Y254000D01*
D02*
G37*
G36*
X177500D02*
X174079D01*
X174149Y253468D01*
X174547Y252507D01*
X175181Y251681D01*
X176007Y251047D01*
X176968Y250649D01*
X177500Y250579D01*
Y254000D01*
D02*
G37*
G36*
X178500Y258421D02*
Y255000D01*
X181921D01*
X181851Y255532D01*
X181453Y256493D01*
X180819Y257319D01*
X179993Y257953D01*
X179032Y258351D01*
X178500Y258421D01*
D02*
G37*
G36*
X177500D02*
X176968Y258351D01*
X176007Y257953D01*
X175181Y257319D01*
X174547Y256493D01*
X174149Y255532D01*
X174079Y255000D01*
X177500D01*
Y258421D01*
D02*
G37*
G36*
X123400Y251400D02*
X116600D01*
Y244600D01*
X123400D01*
Y251400D01*
D02*
G37*
G36*
X177500Y243421D02*
X176968Y243351D01*
X176006Y242953D01*
X175181Y242319D01*
X174547Y241493D01*
X174149Y240532D01*
X174079Y240000D01*
X177500D01*
Y243421D01*
D02*
G37*
G36*
X181921Y239000D02*
X178500D01*
Y235579D01*
X179032Y235649D01*
X179993Y236047D01*
X180819Y236681D01*
X181453Y237507D01*
X181851Y238468D01*
X181921Y239000D01*
D02*
G37*
G36*
X129800Y251429D02*
X128912Y251312D01*
X128085Y250970D01*
X127375Y250425D01*
X126830Y249715D01*
X126488Y248888D01*
X126371Y248000D01*
X126488Y247112D01*
X126830Y246285D01*
X127375Y245575D01*
X128085Y245030D01*
X128912Y244688D01*
X129800Y244571D01*
X130688Y244688D01*
X131515Y245030D01*
X132225Y245575D01*
X132770Y246285D01*
X133113Y247112D01*
X133229Y248000D01*
X133113Y248888D01*
X132770Y249715D01*
X132225Y250425D01*
X131515Y250970D01*
X130688Y251312D01*
X129800Y251429D01*
D02*
G37*
G36*
X178500Y243421D02*
Y240000D01*
X181921D01*
X181851Y240532D01*
X181453Y241493D01*
X180819Y242319D01*
X179993Y242953D01*
X179032Y243351D01*
X178500Y243421D01*
D02*
G37*
G36*
X160501Y281000D02*
X158500D01*
Y278999D01*
X158995Y279098D01*
X159838Y279661D01*
X160402Y280505D01*
X160501Y281000D01*
D02*
G37*
G36*
X157500D02*
X155499D01*
X155598Y280505D01*
X156162Y279661D01*
X157005Y279098D01*
X157500Y278999D01*
Y281000D01*
D02*
G37*
G36*
X158500Y284000D02*
Y282000D01*
X160501D01*
X160402Y282495D01*
X159838Y283338D01*
X158995Y283902D01*
X158500Y284000D01*
D02*
G37*
G36*
X157500D02*
X157005Y283902D01*
X156162Y283338D01*
X155598Y282495D01*
X155499Y282000D01*
X157500D01*
Y284000D01*
D02*
G37*
G36*
X145000Y272500D02*
Y270500D01*
X147001D01*
X146902Y270995D01*
X146338Y271838D01*
X145495Y272402D01*
X145000Y272500D01*
D02*
G37*
G36*
X144000Y269500D02*
X141999D01*
X142098Y269005D01*
X142662Y268162D01*
X143505Y267598D01*
X144000Y267499D01*
Y269500D01*
D02*
G37*
G36*
X181953Y268453D02*
X174047D01*
Y260547D01*
X181953D01*
Y268453D01*
D02*
G37*
G36*
X144000Y272500D02*
X143505Y272402D01*
X142662Y271838D01*
X142098Y270995D01*
X141999Y270500D01*
X144000D01*
Y272500D01*
D02*
G37*
G36*
X147001Y269500D02*
X145000D01*
Y267499D01*
X145495Y267598D01*
X146338Y268162D01*
X146902Y269005D01*
X147001Y269500D01*
D02*
G37*
%LPD*%
D10*
X214053Y240000D02*
G03*
X210000Y244053I-4053J0D01*
G01*
Y245947D02*
G03*
X214053Y250000I0J4053D01*
G01*
X210000Y255947D02*
G03*
X214053Y260000I0J4053D01*
G01*
Y250000D02*
G03*
X210000Y254053I-4053J0D01*
G01*
X214053Y260000D02*
G03*
X210000Y264053I-4053J0D01*
G01*
X242500Y240800D02*
G03*
X241225Y240270I0J-1800D01*
G01*
X313773Y240273D02*
G03*
X312500Y240800I-1273J-1273D01*
G01*
X242500D02*
G03*
X241227Y240273I0J-1800D01*
G01*
X258050Y334000D02*
G03*
X258050Y334000I-3050J0D01*
G01*
X267455Y353500D02*
G03*
X267455Y353500I-3050J0D01*
G01*
X277550Y353696D02*
G03*
X277550Y353696I-3050J0D01*
G01*
X288050Y354296D02*
G03*
X288050Y354296I-3050J0D01*
G01*
X300153Y356500D02*
G03*
X300153Y356500I-3050J0D01*
G01*
X312550Y358998D02*
G03*
X312550Y358998I-3050J0D01*
G01*
X313775Y240270D02*
G03*
X312500Y240800I-1275J-1270D01*
G01*
X323050Y359598D02*
G03*
X323050Y359598I-3050J0D01*
G01*
X337050Y363699D02*
G03*
X337050Y363699I-3050J0D01*
G01*
X351852Y378500D02*
G03*
X351852Y378500I-3050J0D01*
G01*
X161550Y412500D02*
G03*
X161550Y412500I-3050J0D01*
G01*
X163050Y387000D02*
G03*
X163050Y387000I-3050J0D01*
G01*
X163962Y398500D02*
G03*
X163962Y398500I-3050J0D01*
G01*
X160400Y457500D02*
G03*
X160870Y456367I1600J0D01*
G01*
X160400Y457500D02*
G03*
X160869Y456369I1600J0D01*
G01*
X163600Y469276D02*
G03*
X166053Y473000I-1600J3724D01*
G01*
X136453D02*
G03*
X136453Y473000I-4453J0D01*
G01*
X126053Y483000D02*
G03*
X126053Y483000I-4053J0D01*
G01*
X136053D02*
G03*
X136053Y483000I-4053J0D01*
G01*
X146053Y473000D02*
G03*
X146053Y473000I-4053J0D01*
G01*
X156053D02*
G03*
X156053Y473000I-4053J0D01*
G01*
X166053D02*
G03*
X160400Y469276I-4053J0D01*
G01*
X146053Y483000D02*
G03*
X146053Y483000I-4053J0D01*
G01*
X156053D02*
G03*
X156053Y483000I-4053J0D01*
G01*
X166053D02*
G03*
X166053Y483000I-4053J0D01*
G01*
X170600Y450500D02*
G03*
X170131Y451631I-1600J0D01*
G01*
X170600Y450500D02*
G03*
X170130Y451633I-1600J0D01*
G01*
X360912Y394500D02*
G03*
X360912Y394500I-3050J0D01*
G01*
X176053Y473000D02*
G03*
X176053Y473000I-4053J0D01*
G01*
Y483000D02*
G03*
X176053Y483000I-4053J0D01*
G01*
X186053Y473000D02*
G03*
X186053Y473000I-4053J0D01*
G01*
X196053D02*
G03*
X196053Y473000I-4053J0D01*
G01*
X196453Y483000D02*
G03*
X196453Y483000I-4453J0D01*
G01*
X186053D02*
G03*
X186053Y483000I-4053J0D01*
G01*
X394053Y230000D02*
G03*
X394053Y230000I-4053J0D01*
G01*
Y220000D02*
G03*
X394053Y220000I-4053J0D01*
G01*
Y250000D02*
G03*
X394053Y250000I-4053J0D01*
G01*
Y240000D02*
G03*
X394053Y240000I-4053J0D01*
G01*
Y280000D02*
G03*
X394053Y280000I-4053J0D01*
G01*
Y260000D02*
G03*
X394053Y260000I-4053J0D01*
G01*
Y270000D02*
G03*
X394053Y270000I-4053J0D01*
G01*
X404053Y220000D02*
G03*
X404053Y220000I-4053J0D01*
G01*
Y230000D02*
G03*
X404053Y230000I-4053J0D01*
G01*
Y240000D02*
G03*
X404053Y240000I-4053J0D01*
G01*
Y270000D02*
G03*
X404053Y270000I-4053J0D01*
G01*
Y250000D02*
G03*
X404053Y250000I-4053J0D01*
G01*
Y260000D02*
G03*
X404053Y260000I-4053J0D01*
G01*
X394053Y306000D02*
G03*
X394053Y306000I-4053J0D01*
G01*
X394053Y316000D02*
G03*
X394053Y316000I-4053J0D01*
G01*
Y326000D02*
G03*
X394053Y326000I-4053J0D01*
G01*
Y336000D02*
G03*
X394053Y336000I-4053J0D01*
G01*
Y346000D02*
G03*
X394053Y346000I-4053J0D01*
G01*
X404053Y280000D02*
G03*
X404053Y280000I-4053J0D01*
G01*
Y306000D02*
G03*
X404053Y306000I-4053J0D01*
G01*
Y316000D02*
G03*
X404053Y316000I-4053J0D01*
G01*
Y326000D02*
G03*
X404053Y326000I-4053J0D01*
G01*
Y336000D02*
G03*
X404053Y336000I-4053J0D01*
G01*
Y346000D02*
G03*
X404053Y346000I-4053J0D01*
G01*
X460050Y279000D02*
G03*
X460050Y279000I-3050J0D01*
G01*
X452550Y283063D02*
G03*
X452550Y283063I-3050J0D01*
G01*
X438542Y287000D02*
G03*
X438542Y287000I-3050J0D01*
G01*
X445442Y284000D02*
G03*
X445442Y284000I-3050J0D01*
G01*
X468300Y287059D02*
G03*
X468300Y287059I-3050J0D01*
G01*
X483211Y292000D02*
G03*
X483211Y292000I-3050J0D01*
G01*
X394453Y356000D02*
G03*
X394453Y356000I-4453J0D01*
G01*
X404453Y356000D02*
G03*
X404453Y356000I-4453J0D01*
G01*
X394053Y386000D02*
G03*
X394053Y386000I-4053J0D01*
G01*
Y366000D02*
G03*
X394053Y366000I-4053J0D01*
G01*
Y376000D02*
G03*
X394053Y376000I-4053J0D01*
G01*
X404053Y366000D02*
G03*
X404053Y366000I-4053J0D01*
G01*
Y386000D02*
G03*
X404053Y386000I-4053J0D01*
G01*
Y376000D02*
G03*
X404053Y376000I-4053J0D01*
G01*
X422453Y473000D02*
G03*
X422453Y473000I-4453J0D01*
G01*
X412053Y483000D02*
G03*
X412053Y483000I-4053J0D01*
G01*
X422053D02*
G03*
X422053Y483000I-4053J0D01*
G01*
X432053Y473000D02*
G03*
X432053Y473000I-4053J0D01*
G01*
X432053Y483000D02*
G03*
X432053Y483000I-4053J0D01*
G01*
X446500Y434400D02*
G03*
X447631Y434869I0J1600D01*
G01*
X446500Y434400D02*
G03*
X447633Y434870I0J1600D01*
G01*
X449131Y436369D02*
G03*
X449600Y437500I-1131J1131D01*
G01*
X449130Y436367D02*
G03*
X449600Y437500I-1130J1133D01*
G01*
Y469276D02*
G03*
X452053Y473000I-1600J3724D01*
G01*
X442053D02*
G03*
X442053Y473000I-4053J0D01*
G01*
X452053Y483000D02*
G03*
X452053Y483000I-4053J0D01*
G01*
Y473000D02*
G03*
X446400Y469276I-4053J0D01*
G01*
X462053Y473000D02*
G03*
X462053Y473000I-4053J0D01*
G01*
X442053Y483000D02*
G03*
X442053Y483000I-4053J0D01*
G01*
X462053D02*
G03*
X462053Y483000I-4053J0D01*
G01*
X472053Y473000D02*
G03*
X472053Y473000I-4053J0D01*
G01*
Y483000D02*
G03*
X472053Y483000I-4053J0D01*
G01*
X482053Y473000D02*
G03*
X482053Y473000I-4053J0D01*
G01*
X482453Y483000D02*
G03*
X482453Y483000I-4453J0D01*
G01*
X200000Y300000D02*
X210000D01*
X200000Y290000D02*
Y300000D01*
X388671Y174171D02*
Y185500D01*
X427000Y436000D02*
X437500D01*
X175000Y446000D02*
X185000D01*
X200000Y200000D02*
X205500Y194500D01*
X222000D01*
X246000Y170500D01*
X308000D01*
X312500Y175000D01*
Y180000D01*
X281500Y180500D02*
X296500D01*
X265000Y197000D02*
X281500Y180500D01*
X265000Y197000D02*
Y228000D01*
X296500Y180500D02*
X298795Y182795D01*
Y186500D01*
X291500Y189000D02*
Y235000D01*
Y189000D02*
X292000Y188500D01*
X117000Y239500D02*
X168000D01*
X111500Y234000D02*
X117000Y239500D01*
X111500Y190000D02*
Y234000D01*
Y190000D02*
X121000Y180500D01*
X128000D01*
X448000Y437500D02*
Y473000D01*
X446500Y436000D02*
X448000Y437500D01*
X443500Y436000D02*
X446500D01*
X162000Y457500D02*
Y473000D01*
Y457500D02*
X169000Y450500D01*
Y446000D02*
Y450500D01*
X210000Y245377D02*
X211696Y243681D01*
X210000Y284975D02*
X254175Y240800D01*
X210000Y275075D02*
X244275Y240800D01*
X210000Y244053D02*
Y245947D01*
Y304774D02*
X273974Y240800D01*
X210000Y294874D02*
X264074Y240800D01*
X210000Y334472D02*
X303672Y240800D01*
X210000Y314673D02*
X283873Y240800D01*
X210000Y324573D02*
X293773Y240800D01*
X210000Y255276D02*
X211519Y253757D01*
X210000Y265176D02*
X211357Y263819D01*
X210000Y254053D02*
Y255947D01*
Y289196D02*
X252748Y331943D01*
X210000Y279296D02*
X282843Y352140D01*
X210000Y279296D02*
X282843Y352140D01*
X210000Y299095D02*
X262248Y351343D01*
X214053Y240000D02*
X240954D01*
X241225Y240270D01*
X213681Y241696D02*
X215377Y240000D01*
X213819Y261357D02*
X235176Y240000D01*
X213757Y251519D02*
X225276Y240000D01*
X242500Y240800D02*
X312500D01*
X255000Y331450D02*
Y334000D01*
X252450D02*
X255000D01*
X257550D01*
X255000D02*
Y336550D01*
X264405Y350950D02*
Y353500D01*
X261855D02*
X264405D01*
X257056Y336252D02*
X272343Y351539D01*
X264405Y353500D02*
X266955D01*
X271950Y353696D02*
X274500D01*
X277050D01*
X274500Y351146D02*
Y353696D01*
X285000Y354296D02*
X287550D01*
X109000Y395874D02*
X121374Y383500D01*
X109000Y390500D02*
X116000Y383500D01*
X109000Y475070D02*
X200570Y383500D01*
X109000Y445372D02*
X170872Y383500D01*
X109000Y455271D02*
X180771Y383500D01*
X201000D02*
X210000Y374500D01*
Y264053D02*
Y374500D01*
X116000Y383500D02*
X201000D01*
X188868Y424900D02*
X261724Y352044D01*
X203155Y381345D02*
X311809Y490000D01*
X155812Y383500D02*
X157527Y385215D01*
X160484Y383989D02*
X160972Y383500D01*
X109000Y405774D02*
X131274Y383500D01*
X126113D02*
X155471Y412858D01*
X109000Y425573D02*
X151073Y383500D01*
X136013D02*
X183400Y430887D01*
X165711Y383500D02*
X207111Y424900D01*
X161548Y412623D02*
X190671Y383500D01*
X116214D02*
X175864Y443150D01*
X185510Y383500D02*
X292010Y490000D01*
X175611Y383500D02*
X282111Y490000D01*
X264405Y353500D02*
Y356050D01*
X285000Y351747D02*
Y354296D01*
X274500Y353696D02*
Y356246D01*
X210000Y269397D02*
X294946Y354343D01*
X297103Y353950D02*
Y356500D01*
X282450Y354296D02*
X285000D01*
X213106Y262603D02*
X307343Y356841D01*
X285000Y354296D02*
Y356846D01*
X294553Y356500D02*
X297103D01*
X213600Y439767D02*
X294831Y358535D01*
X297103Y356500D02*
Y359050D01*
X213600Y429867D02*
X286535Y356932D01*
X297103Y356500D02*
X299653D01*
X309500Y356448D02*
Y358998D01*
X306950D02*
X309500D01*
X312050D01*
X309500D02*
Y361547D01*
X314046Y240000D02*
X315500D01*
X370000Y185500D01*
X210000Y344372D02*
X314372Y240000D01*
X313775Y240270D02*
X314046Y240000D01*
X210000Y354271D02*
X378771Y185500D01*
X262948Y350820D02*
X389725Y224043D01*
X210000Y364171D02*
X388671Y185500D01*
X210000Y374070D02*
X398570Y185500D01*
X260599Y240800D02*
X385950Y366151D01*
X213060Y252658D02*
X317843Y357441D01*
X270498Y240800D02*
X385550Y355851D01*
X213013Y242711D02*
X331843Y361542D01*
X250699Y240800D02*
X385947Y376048D01*
X290297Y240800D02*
X385976Y336478D01*
X310096Y240800D02*
X386011Y316714D01*
X300197Y240800D02*
X385991Y326594D01*
X280398Y240800D02*
X385964Y346366D01*
X287636Y355831D02*
X389452Y254015D01*
X299138Y354228D02*
X389364Y264002D01*
X361896Y193604D02*
X386410Y218119D01*
X366845Y188655D02*
X385947Y207756D01*
X322298Y233202D02*
X385947Y296852D01*
X356946Y198554D02*
X386445Y228053D01*
X351996Y203504D02*
X386481Y237989D01*
X342097Y213403D02*
X386556Y257863D01*
X370000Y185500D02*
X490000D01*
X347046Y208454D02*
X386518Y247926D01*
X327247Y228253D02*
X390942Y291947D01*
X337147Y218353D02*
X386595Y267801D01*
X332197Y223303D02*
X386635Y277741D01*
X317450Y359598D02*
X320000D01*
Y357048D02*
Y359598D01*
X322550D01*
X320000D02*
Y362148D01*
X334000Y363699D02*
Y366248D01*
X317348Y238152D02*
X386035Y306839D01*
X323017Y360049D02*
X385947Y297118D01*
X334000Y361149D02*
Y363699D01*
X336550D01*
X331450D02*
X334000D01*
X213600Y459565D02*
X389194Y283972D01*
X213600Y449666D02*
X389278Y273988D01*
X125022Y468947D02*
X385947Y208022D01*
X213600Y459566D02*
X389194Y283972D01*
X202965Y490000D02*
X386052Y306913D01*
X198768Y424900D02*
X389632Y234036D01*
X230100Y240000D02*
X406001Y415900D01*
X220201Y240000D02*
X398900Y418699D01*
X134532Y469337D02*
X389816Y214053D01*
X208667Y424900D02*
X389541Y244027D01*
X210000Y308995D02*
X391005Y490000D01*
X210000Y358492D02*
X341508Y490000D01*
X210000Y348593D02*
X351407Y490000D01*
X193065D02*
X320451Y362614D01*
X210000Y368392D02*
X331608Y490000D01*
X208104Y376396D02*
X321709Y490000D01*
X212864D02*
X386033Y316831D01*
X222764Y490000D02*
X386017Y326747D01*
X232663Y490000D02*
X386002Y336662D01*
X210000Y338693D02*
X361307Y490000D01*
X210000Y318894D02*
X381106Y490000D01*
X210000Y328794D02*
X371206Y490000D01*
X240000Y240000D02*
X385948Y385948D01*
X287157Y356453D02*
X403947Y473244D01*
X242563Y490000D02*
X385988Y346574D01*
X266561Y355657D02*
X400905Y490000D01*
X252462D02*
X385626Y356836D01*
X276657Y355853D02*
X403950Y483146D01*
X287157Y356453D02*
X403947Y473244D01*
X299260Y358657D02*
X409550Y468947D01*
X301959Y490000D02*
X490000Y301959D01*
X311859Y490000D02*
X490000Y311859D01*
X321759Y490000D02*
X490000Y321759D01*
X336157Y365855D02*
X346645Y376343D01*
X348801Y375950D02*
Y378500D01*
X346252D02*
X348801D01*
Y381050D01*
Y378500D02*
X351351D01*
X322157Y361755D02*
X354813Y394411D01*
X360018Y392343D02*
X385966Y366395D01*
X272261Y490000D02*
X385959Y376303D01*
X311657Y361154D02*
X398900Y448397D01*
X350958Y380657D02*
X398900Y428598D01*
X145912Y383500D02*
X158756Y396343D01*
X155950Y412500D02*
X158500D01*
X109000Y465171D02*
X158623Y415548D01*
X109000Y415673D02*
X141173Y383500D01*
X109000Y435472D02*
X156989Y387484D01*
X111157Y388343D02*
X166150Y443336D01*
X109000Y415884D02*
X160400Y467284D01*
X109000Y396085D02*
X165076Y452161D01*
X109000Y405985D02*
X160404Y457389D01*
X109000Y445583D02*
X131965Y468547D01*
X117947Y468947D02*
X126053D01*
X109000Y455482D02*
X122465Y468947D01*
X126053Y472535D02*
X127710Y474192D01*
X128047Y473000D02*
X132000D01*
X109000Y425784D02*
X152167Y468951D01*
X109000Y435683D02*
X142273Y468957D01*
X154121Y469547D02*
X160400Y463268D01*
X132000Y473000D02*
X135953D01*
X144183Y469586D02*
X166150Y447618D01*
X132000Y469047D02*
Y473000D01*
X157450Y387000D02*
X160000D01*
Y384450D02*
Y387000D01*
X158500Y409950D02*
Y412500D01*
X160000Y387000D02*
Y389550D01*
X160912Y395950D02*
Y398500D01*
X160000Y387000D02*
X162550D01*
X158362Y398500D02*
X160912D01*
X163462D01*
X160912D02*
Y401050D01*
X158500Y412500D02*
Y415050D01*
Y412500D02*
X161050D01*
X160400Y457500D02*
Y469276D01*
X166150Y443150D02*
Y448850D01*
X167400D02*
Y449837D01*
X166150Y448850D02*
X167400D01*
X160870Y456367D02*
X167400Y449837D01*
X163600Y458163D02*
Y469276D01*
X109000Y465382D02*
X117947Y474329D01*
Y468947D02*
Y477053D01*
X109000Y390500D02*
Y479000D01*
Y475281D02*
X118246Y484527D01*
X111985Y481985D02*
X117947Y476022D01*
Y477053D02*
X126053D01*
X132000Y473000D02*
Y476953D01*
X124244Y479625D02*
X128337Y475532D01*
X126053Y468947D02*
Y477053D01*
X116935Y486935D02*
X118625Y485244D01*
X120671Y477053D02*
X122612Y478994D01*
X109000Y479000D02*
X120000Y490000D01*
X120473Y486754D02*
X123719Y490000D01*
X126006Y482388D02*
X128323Y484705D01*
X130808Y477290D02*
X132495Y478978D01*
X123768Y490000D02*
X128586Y485183D01*
X133668Y490000D02*
X138547Y485121D01*
X130295Y486677D02*
X133618Y490000D01*
X136453Y473035D02*
X138560Y475143D01*
X134183Y479586D02*
X138585Y475183D01*
X144121Y479547D02*
X148547Y475121D01*
X139857Y476440D02*
X142383Y478965D01*
X146044Y472727D02*
X148787Y475470D01*
X149530Y476213D02*
X152273Y478957D01*
X156049Y472833D02*
X162167Y478951D01*
X154059Y479509D02*
X158509Y475059D01*
X136022Y482505D02*
X138423Y484905D01*
X146035Y482617D02*
X148560Y485143D01*
X143568Y490000D02*
X148509Y485058D01*
X140095Y486577D02*
X143518Y490000D01*
X156044Y482727D02*
X158787Y485470D01*
X149857Y486440D02*
X153417Y490000D01*
X153467D02*
X158472Y484995D01*
X159529Y486213D02*
X163317Y490000D01*
X166150Y443150D02*
X171850D01*
X177850D02*
Y444400D01*
X163600Y460068D02*
X174818Y448850D01*
X172150Y443150D02*
Y448850D01*
X171850Y443150D02*
Y448850D01*
X161785Y389473D02*
X197212Y424900D01*
X163069Y400657D02*
X187312Y424900D01*
X158142Y415529D02*
X183400Y440787D01*
X170618Y443150D02*
X183400Y430369D01*
X172150Y443150D02*
X177850D01*
X170600Y448850D02*
Y450500D01*
Y448850D02*
X171850D01*
X163600Y458163D02*
X170130Y451633D01*
X163600Y460585D02*
X171963Y468947D01*
X172150Y448850D02*
X177850D01*
X171664D02*
X183400Y460586D01*
X164058Y469509D02*
X183400Y450168D01*
X167339Y454424D02*
X181864Y468950D01*
X173995Y469472D02*
X183400Y460067D01*
Y424900D02*
X186100D01*
X213600D01*
X183400D02*
Y444400D01*
X213600Y424900D02*
Y466100D01*
X183400Y424900D02*
Y444400D01*
X355312Y394500D02*
X357862D01*
Y391950D02*
Y394500D01*
X360412D01*
X357862D02*
Y397050D01*
X357951Y397549D02*
X398900Y438498D01*
X177850Y444400D02*
X183400D01*
X179268D02*
X183400Y440268D01*
X177850Y447600D02*
Y448850D01*
X183400Y447600D02*
Y466100D01*
X180314Y447600D02*
X183400Y450686D01*
X177850Y447600D02*
X183400D01*
Y424900D02*
X186100D01*
X183400Y466100D02*
X213600D01*
X183930Y469436D02*
X187267Y466100D01*
X193864Y469402D02*
X197166Y466100D01*
X188914D02*
X191768Y468954D01*
X166052Y472936D02*
X172064Y478948D01*
X163995Y479472D02*
X168472Y474995D01*
X173930Y479436D02*
X178436Y474930D01*
X186050Y473136D02*
X191491Y478576D01*
X176053Y473037D02*
X181963Y478947D01*
X183864Y479402D02*
X188401Y474864D01*
X176052Y482936D02*
X183116Y490000D01*
X163366D02*
X168436Y484930D01*
X166049Y482833D02*
X173216Y490000D01*
X173266D02*
X178402Y484864D01*
X183166Y490000D02*
X188071Y485095D01*
X188047Y483000D02*
X192000D01*
X186053Y483037D02*
X188028Y485013D01*
X120000Y490000D02*
X488000D01*
X183166D02*
X188071Y485095D01*
X189987Y486972D02*
X193015Y490000D01*
X195410Y383500D02*
X301910Y490000D01*
X262362D02*
X355705Y396657D01*
X213600Y451188D02*
X252412Y490000D01*
X213600Y431389D02*
X272211Y490000D01*
X213600Y441288D02*
X262312Y490000D01*
X331658D02*
X398900Y422758D01*
X351457Y490000D02*
X398900Y442557D01*
X361356Y490000D02*
X398900Y452457D01*
X282161Y490000D02*
X385953Y386208D01*
X292060Y490000D02*
X395949Y386111D01*
X341558Y490000D02*
X398900Y432657D01*
X192000Y479047D02*
Y483000D01*
X194095Y479071D02*
X207066Y466100D01*
X192000Y483000D02*
X195953D01*
X192000D02*
Y486953D01*
X196424Y483509D02*
X202915Y490000D01*
X194095Y479071D02*
X207066Y466100D01*
X198814D02*
X222714Y490000D01*
X196046Y473232D02*
X212814Y490000D01*
X208713Y466100D02*
X232613Y490000D01*
X371256D02*
X404156Y457100D01*
X213600Y461087D02*
X242513Y490000D01*
X373590Y185500D02*
X394038Y205947D01*
X385947D02*
X394053D01*
X385947D02*
Y214053D01*
X394053D01*
X383490Y185500D02*
X403937Y205947D01*
X388022D02*
X408469Y185500D01*
X392244Y214053D02*
X396376Y218185D01*
X391881Y223590D02*
X396410Y228119D01*
X391947Y233555D02*
X396445Y238053D01*
X392011Y243519D02*
X396481Y247989D01*
X392074Y253482D02*
X396518Y257926D01*
X392137Y263444D02*
X396556Y267863D01*
X392198Y273405D02*
X396595Y277801D01*
X393972Y279194D02*
X399194Y273972D01*
X394053Y209816D02*
X395947Y207922D01*
X394053Y205962D02*
X395947Y207857D01*
X394043Y219725D02*
X399716Y214053D01*
X395947Y205947D02*
Y214053D01*
X394053Y205947D02*
Y214053D01*
X395947Y205947D02*
X404053D01*
Y209716D02*
X428268Y185500D01*
X397922Y205947D02*
X418369Y185500D01*
X395947Y214053D02*
X404053D01*
Y205947D02*
Y214053D01*
X394016Y249451D02*
X399451Y244016D01*
X394027Y239541D02*
X399541Y234027D01*
X393972Y279194D02*
X399194Y273972D01*
X394003Y259364D02*
X399364Y254002D01*
X393988Y269278D02*
X399278Y263988D01*
X394036Y229632D02*
X399632Y224036D01*
X385947Y291947D02*
Y300053D01*
Y291947D02*
X394053D01*
X389148Y300053D02*
X391235Y302140D01*
X390913Y302051D02*
X392912Y300053D01*
X389161Y309965D02*
X391388Y312193D01*
X391118Y291947D02*
X399111Y283954D01*
X392259Y283365D02*
X400842Y291947D01*
X385947Y300053D02*
X394053D01*
X390831Y312033D02*
X396033Y306831D01*
X389286Y319989D02*
X391553Y322257D01*
X389406Y330009D02*
X391734Y332337D01*
X389522Y340024D02*
X391938Y342441D01*
X390662Y332002D02*
X396002Y326661D01*
X390747Y322017D02*
X396017Y316747D01*
X393663Y334266D02*
X395991Y336594D01*
X390574Y341988D02*
X395988Y336574D01*
X394053Y298912D02*
X395947Y297017D01*
X394053Y295058D02*
X395947Y296952D01*
X394053Y291947D02*
Y300053D01*
X395947Y291947D02*
Y300053D01*
X399048D02*
X401092Y302097D01*
X395947Y300053D02*
X404053D01*
X395947Y291947D02*
X404053D01*
Y300053D01*
X400831Y302033D02*
X402811Y300053D01*
X393860Y304765D02*
X396065Y306969D01*
X399030Y309935D02*
X401236Y312140D01*
X393743Y324447D02*
X396011Y326714D01*
X393808Y314612D02*
X396035Y316839D01*
X399161Y319965D02*
X401388Y322193D01*
X399286Y329989D02*
X401553Y332257D01*
X399406Y340009D02*
X401734Y342337D01*
X404015Y239452D02*
X457967Y185500D01*
X404027Y229541D02*
X448068Y185500D01*
X403972Y269194D02*
X487666Y185500D01*
X404003Y249364D02*
X467867Y185500D01*
X403988Y259278D02*
X477766Y185500D01*
X423088D02*
X490000Y252412D01*
X432987Y185500D02*
X490000Y242513D01*
X393389Y185500D02*
X490000Y282111D01*
X403972Y269194D02*
X487666Y185500D01*
X403289D02*
X490000Y272211D01*
X401946Y243555D02*
X440235Y281843D01*
X404036Y219632D02*
X438168Y185500D01*
X402011Y253519D02*
X433336Y284843D01*
X437733Y284930D02*
X439443Y283220D01*
X432942Y287000D02*
X435492D01*
X401815Y223624D02*
X454941Y276750D01*
X413188Y185500D02*
X490000Y262312D01*
X403954Y279111D02*
X490000Y193065D01*
X401881Y233590D02*
X448480Y280188D01*
X441612Y281051D02*
X490000Y232663D01*
X439842Y284000D02*
X442392D01*
X452786Y185500D02*
X490000Y222714D01*
X457000Y276450D02*
Y279000D01*
X451657Y280906D02*
X453978Y278584D01*
X457000Y279000D02*
Y281550D01*
X462686Y185500D02*
X490000Y212814D01*
X482485Y185500D02*
X490000Y193015D01*
X472585Y185500D02*
X490000Y202915D01*
X442887Y185500D02*
X490000Y232613D01*
X456584Y275978D02*
X490000Y242563D01*
X467433Y284929D02*
X490000Y262362D01*
X446950Y283063D02*
X449500D01*
Y280513D02*
Y283063D01*
X442392Y284000D02*
Y286550D01*
Y281450D02*
Y284000D01*
X444942D01*
X449500Y283063D02*
X452050D01*
X457000Y279000D02*
X459550D01*
X454450D02*
X457000D01*
X459250Y281059D02*
X463093Y284903D01*
X449500Y283063D02*
Y285613D01*
X401017Y291947D02*
X490000Y202965D01*
X402143Y214053D02*
X477969Y289879D01*
X400574Y331988D02*
X447343Y285219D01*
X404053Y298811D02*
X490000Y212864D01*
X400747Y312017D02*
X490000Y222764D01*
X400486Y341976D02*
X490000Y252462D01*
X404053Y206063D02*
X490000Y292010D01*
X402074Y263482D02*
X490000Y351407D01*
X402137Y273444D02*
X490000Y361307D01*
X403467Y358794D02*
X490000Y272261D01*
X402199Y283405D02*
X490000Y371206D01*
X400662Y322002D02*
X433423Y289240D01*
X400751Y351611D02*
X463120Y289242D01*
X400111Y381949D02*
X490000Y292060D01*
X400208Y371953D02*
X478004Y294157D01*
X404053Y295158D02*
X490000Y381106D01*
X403807Y324612D02*
X490000Y410804D01*
X403903Y304908D02*
X490000Y391005D01*
X403860Y314764D02*
X490000Y400905D01*
X403743Y334447D02*
X490000Y420704D01*
X405758Y415900D02*
X490000Y331658D01*
X415658Y415900D02*
X490000Y341558D01*
X435492Y284450D02*
Y287000D01*
X438042D01*
X435492D02*
Y289550D01*
X482317Y289843D02*
X490000Y282161D01*
X465250Y284509D02*
Y287059D01*
X444549Y286157D02*
X490000Y331608D01*
Y185500D02*
Y488000D01*
X452374Y284083D02*
X490000Y321709D01*
X462700Y287059D02*
X465250D01*
X467800D01*
X465250D02*
Y289609D01*
X480161Y289450D02*
Y292000D01*
X477610D02*
X480161D01*
X482711D01*
X480161D02*
Y294550D01*
X437649Y289157D02*
X490000Y341508D01*
X467407Y289216D02*
X490000Y311809D01*
X482282Y294192D02*
X490000Y301910D01*
X389634Y350036D02*
X391357Y351759D01*
X390000Y352047D02*
Y356000D01*
X386047D02*
X390000D01*
Y359953D01*
Y356000D02*
X393953D01*
X390836Y351626D02*
X395976Y346486D01*
X393559Y344062D02*
X395975Y346478D01*
X394241Y354643D02*
X395548Y355950D01*
X390149Y360450D02*
X392542Y362843D01*
X390395Y361966D02*
X395611Y356751D01*
X389849Y370050D02*
X395950Y376151D01*
X393157Y363458D02*
X395955Y366257D01*
X390302Y371959D02*
X395959Y366302D01*
X389952Y380052D02*
X395948Y386048D01*
X390208Y381953D02*
X395953Y376208D01*
X390052Y390052D02*
X415900Y415900D01*
X396047Y356000D02*
X400000D01*
X399522Y350025D02*
X401213Y351716D01*
X400000Y352047D02*
Y356000D01*
Y359953D01*
X400050Y360453D02*
X402184Y362586D01*
X400000Y356000D02*
X403953D01*
X400303Y361959D02*
X402794Y359467D01*
X399743Y370045D02*
X402542Y372844D01*
X398900Y415900D02*
X429100D01*
X399952Y390053D02*
X425799Y415900D01*
X398900D02*
Y457100D01*
X429100Y415900D02*
Y434400D01*
Y442056D02*
X433556Y437600D01*
X429100Y434400D02*
X434650D01*
X429100Y429100D02*
X434400Y434400D01*
X434650Y433150D02*
Y434400D01*
X429100Y437600D02*
X434650D01*
X440350Y433150D02*
Y438850D01*
X434650Y437600D02*
Y438850D01*
X403947Y468947D02*
X412053D01*
Y471450D02*
X413548Y472945D01*
X381155Y490000D02*
X414055Y457100D01*
X412053Y468947D02*
Y477053D01*
X403947Y468947D02*
Y477053D01*
X398900Y457100D02*
X429100D01*
X412053Y469002D02*
X423955Y457100D01*
X407603D02*
X419220Y468718D01*
X410843Y480112D02*
X414829Y476126D01*
X414047Y473000D02*
X418000D01*
X407756Y477053D02*
X410569Y479866D01*
X407756Y477053D02*
X410569Y479866D01*
X391055Y490000D02*
X404002Y477053D01*
X400954Y490000D02*
X405112Y485843D01*
X407854Y487050D02*
X410804Y490000D01*
X403947Y477053D02*
X412053D01*
X411134Y480431D02*
X413955Y483251D01*
X411134Y480431D02*
X413955Y483251D01*
X410854Y490000D02*
X415062Y485792D01*
X418000Y469047D02*
Y473000D01*
X421953D01*
X418000D02*
Y476953D01*
X422282Y471780D02*
X423975Y473472D01*
X420792Y480062D02*
X425062Y475792D01*
X417502Y457100D02*
X429743Y469341D01*
X429100Y437600D02*
Y457100D01*
X427401D02*
X439562Y469260D01*
X431659Y471257D02*
X433990Y473588D01*
X430740Y480014D02*
X435014Y475740D01*
X418055Y477452D02*
X420198Y479595D01*
X421405Y480802D02*
X423963Y483360D01*
X417748Y487045D02*
X420704Y490000D01*
X420753D02*
X425014Y485740D01*
X417748Y487045D02*
X420704Y490000D01*
X427528Y477025D02*
X429949Y479447D01*
X437412Y477010D02*
X439743Y479341D01*
X431553Y481051D02*
X433975Y483472D01*
X430653Y490000D02*
X434966Y485687D01*
X427640Y487037D02*
X430603Y490000D01*
X429100Y419201D02*
X443049Y433150D01*
X429100Y432156D02*
X490000Y371256D01*
X399849Y380050D02*
X490000Y470201D01*
X403157Y373458D02*
X490000Y460302D01*
X438005Y433150D02*
X490000Y381155D01*
X425557Y415900D02*
X490000Y351457D01*
X429100Y422257D02*
X490000Y361356D01*
X403414Y363816D02*
X490000Y450402D01*
X403663Y344266D02*
X490000Y430603D01*
X404284Y354787D02*
X490000Y440503D01*
X434650Y438850D02*
X440350D01*
X434650Y433150D02*
X440350D01*
X429100Y451955D02*
X442205Y438850D01*
X440650Y433150D02*
Y438850D01*
X446350D01*
X429100Y439000D02*
X446400Y456299D01*
X440650Y433150D02*
X446350D01*
X438850Y438850D02*
X446400Y446400D01*
X421126Y469829D02*
X446400Y444554D01*
X429100Y448899D02*
X446400Y466199D01*
X430792Y470062D02*
X446400Y454454D01*
X446350Y433150D02*
Y434400D01*
X447633Y434870D02*
X449130Y436367D01*
X446648Y434407D02*
X490000Y391055D01*
X449600Y441354D02*
X490000Y400954D01*
X449600Y451254D02*
X490000Y410854D01*
X449600Y461153D02*
X490000Y420753D01*
X450687Y469966D02*
X490000Y430653D01*
X446350Y438113D02*
Y438850D01*
X446400Y438163D02*
Y469276D01*
X440740Y470014D02*
X446400Y464353D01*
X449600Y437500D02*
Y469276D01*
Y459500D02*
X459243Y469143D01*
X449600Y439701D02*
X478963Y469063D01*
X449600Y449600D02*
X469099Y469099D01*
X460633Y469919D02*
X490000Y440552D01*
X470578Y469873D02*
X490000Y450452D01*
X480523Y469828D02*
X490000Y460351D01*
X441740Y471438D02*
X444010Y473708D01*
X440687Y479966D02*
X444966Y475687D01*
X447292Y476990D02*
X449562Y479260D01*
X451805Y471604D02*
X454034Y473833D01*
X450633Y479919D02*
X454919Y475633D01*
X460578Y479873D02*
X464873Y475578D01*
X457167Y476966D02*
X459396Y479195D01*
X441659Y481257D02*
X443990Y483588D01*
X437528Y487025D02*
X440503Y490000D01*
X440552D02*
X444919Y485633D01*
X447412Y487010D02*
X450402Y490000D01*
X451740Y481438D02*
X454010Y483708D01*
X461805Y481604D02*
X464034Y483833D01*
X450452Y490000D02*
X454873Y485578D01*
X460351Y490000D02*
X464828Y485523D01*
X457292Y486990D02*
X460301Y490000D01*
X461857Y471757D02*
X464063Y473963D01*
X471901Y471901D02*
X474099Y474099D01*
X467037Y476937D02*
X469243Y479143D01*
X480752Y479499D02*
X490000Y470251D01*
X476901Y476901D02*
X478586Y478586D01*
X470523Y479828D02*
X474828Y475523D01*
X481937Y472037D02*
X490000Y480101D01*
X471857Y481757D02*
X473572Y483472D01*
X478000Y479047D02*
Y483000D01*
X467167Y486966D02*
X470201Y490000D01*
X478000Y483000D02*
Y486953D01*
X470251Y490000D02*
X474499Y485752D01*
X474047Y483000D02*
X478000D01*
X482414Y482414D02*
X489000Y489000D01*
X478000Y483000D02*
X481953D01*
X477528Y487428D02*
X480100Y490000D01*
X480150D02*
X490000Y480150D01*
X488000Y490000D02*
X490000Y488000D01*
D13*
X169000Y446000D02*
D03*
X175000D02*
D03*
X443500Y436000D02*
D03*
X437500D02*
D03*
D16*
X291435Y211000D02*
D03*
X298915D02*
D03*
D25*
X169500Y215000D02*
X223500D01*
D26*
X312500Y239000D02*
X372000Y179500D01*
Y166000D02*
Y179500D01*
X190500Y231000D02*
Y265000D01*
X242500Y239000D02*
X312500D01*
X228500Y225000D02*
X242500Y239000D01*
X196500Y225000D02*
X228500D01*
X190500Y231000D02*
X196500Y225000D01*
X190500Y231000D02*
Y237000D01*
X114000Y336500D02*
X124000D01*
X111000Y333500D02*
X114000Y336500D01*
X111000Y295000D02*
Y333500D01*
Y295000D02*
X114500Y291500D01*
X124000D01*
X150500D01*
X156500Y297500D01*
X175000D01*
X179500Y293000D01*
Y276000D02*
Y293000D01*
Y276000D02*
X190500Y265000D01*
D29*
X342500Y171500D02*
D03*
X390000Y210000D02*
D03*
X400000D02*
D03*
X200000Y260000D02*
D03*
X178000Y264500D02*
D03*
X190000Y280000D02*
D03*
X200000D02*
D03*
X390000Y296000D02*
D03*
X400000D02*
D03*
D30*
X342500Y161500D02*
D03*
X408000Y483000D02*
D03*
X418000Y473000D02*
D03*
Y483000D02*
D03*
X428000Y473000D02*
D03*
X428000Y483000D02*
D03*
X438000Y473000D02*
D03*
Y483000D02*
D03*
X448000Y473000D02*
D03*
Y483000D02*
D03*
X458000Y473000D02*
D03*
Y483000D02*
D03*
X468000Y473000D02*
D03*
Y483000D02*
D03*
X478000Y473000D02*
D03*
X478000Y483000D02*
D03*
X122000D02*
D03*
X132000Y473000D02*
D03*
Y483000D02*
D03*
X142000Y473000D02*
D03*
X142000Y483000D02*
D03*
X152000Y473000D02*
D03*
Y483000D02*
D03*
X162000Y473000D02*
D03*
Y483000D02*
D03*
X172000Y473000D02*
D03*
Y483000D02*
D03*
X182000Y473000D02*
D03*
Y483000D02*
D03*
X192000Y473000D02*
D03*
X192000Y483000D02*
D03*
X265000Y228000D02*
D03*
X255000D02*
D03*
X390000Y280000D02*
D03*
Y270000D02*
D03*
Y260000D02*
D03*
Y250000D02*
D03*
Y240000D02*
D03*
Y230000D02*
D03*
Y220000D02*
D03*
X400000Y280000D02*
D03*
Y270000D02*
D03*
Y260000D02*
D03*
Y250000D02*
D03*
Y240000D02*
D03*
Y230000D02*
D03*
Y220000D02*
D03*
X178000Y239500D02*
D03*
X210000Y170000D02*
D03*
X200000D02*
D03*
X210000Y180000D02*
D03*
X200000D02*
D03*
X210000Y190000D02*
D03*
X200000Y190000D02*
D03*
X210000Y200000D02*
D03*
X200000D02*
D03*
X210000Y210000D02*
D03*
X200000D02*
D03*
X210000Y220000D02*
D03*
X200000D02*
D03*
X210000Y230000D02*
D03*
X200000D02*
D03*
X210000Y240000D02*
D03*
X200000Y240000D02*
D03*
X210000Y250000D02*
D03*
X200000D02*
D03*
X210000Y260000D02*
D03*
X178000Y254500D02*
D03*
X190000Y350000D02*
D03*
Y340000D02*
D03*
Y330000D02*
D03*
Y320000D02*
D03*
Y310000D02*
D03*
Y300000D02*
D03*
Y290000D02*
D03*
X200000Y350000D02*
D03*
Y340000D02*
D03*
Y330000D02*
D03*
Y320000D02*
D03*
Y310000D02*
D03*
Y300000D02*
D03*
Y290000D02*
D03*
X390000Y306000D02*
D03*
X390000Y326000D02*
D03*
Y336000D02*
D03*
Y346000D02*
D03*
X390000Y356000D02*
D03*
X390000Y366000D02*
D03*
Y376000D02*
D03*
Y386000D02*
D03*
Y316000D02*
D03*
X400000Y306000D02*
D03*
Y326000D02*
D03*
Y336000D02*
D03*
Y346000D02*
D03*
Y356000D02*
D03*
Y366000D02*
D03*
Y376000D02*
D03*
Y386000D02*
D03*
Y316000D02*
D03*
D31*
X408000Y473000D02*
D03*
X122000D02*
D03*
X245000Y228000D02*
D03*
X168000Y239500D02*
D03*
D32*
X322280Y112000D02*
D03*
X291280D02*
D03*
X428000Y139720D02*
D03*
X120000Y209720D02*
D03*
X124000Y319059D02*
D03*
Y305279D02*
D03*
Y364059D02*
D03*
Y350279D02*
D03*
D33*
X308500Y112000D02*
D03*
X277500D02*
D03*
D34*
X428000Y153500D02*
D03*
X120000Y223500D02*
D03*
X124000Y291500D02*
D03*
Y336500D02*
D03*
D35*
X178000Y180500D02*
D03*
D36*
X128000D02*
D03*
X148000Y190500D02*
D03*
D37*
X129800Y248000D02*
D03*
D38*
X120000D02*
D03*
D39*
X112733Y276233D02*
D03*
X148240Y298500D02*
D03*
Y342500D02*
D03*
X169500Y215000D02*
D03*
X223500D02*
D03*
X372000Y166000D02*
D03*
X305500Y206000D02*
D03*
X304500Y154500D02*
D03*
X300000D02*
D03*
X295000D02*
D03*
X158000Y281500D02*
D03*
X144500Y270000D02*
D03*
X301354Y164000D02*
D03*
X291500Y235000D02*
D03*
X298795Y186500D02*
D03*
X292000Y188500D02*
D03*
X312500Y180000D02*
D03*
X380500Y120000D02*
D03*
X384000D02*
D03*
X387500D02*
D03*
X391000D02*
D03*
X394500D02*
D03*
X398000D02*
D03*
X401500D02*
D03*
X405000D02*
D03*
X160912Y398500D02*
D03*
X158500Y412500D02*
D03*
X255000Y334000D02*
D03*
X264405Y353500D02*
D03*
X274500Y353696D02*
D03*
X285000Y354296D02*
D03*
X297103Y356500D02*
D03*
X309500Y358998D02*
D03*
X320000Y359598D02*
D03*
X334000Y363699D02*
D03*
X348801Y378500D02*
D03*
X357862Y394500D02*
D03*
X480161Y292000D02*
D03*
X465250Y287059D02*
D03*
X457000Y279000D02*
D03*
X449500Y283063D02*
D03*
X442392Y284000D02*
D03*
X435492Y287000D02*
D03*
X160000Y387000D02*
D03*
D40*
X298331Y203500D02*
D03*
X291638D02*
D03*
D41*
X414000Y436500D02*
D03*
X198500Y445500D02*
D03*
D42*
X184750Y436000D02*
D03*
M02*
