M48
;Layer_Color=6321
;FILE_FORMAT=2:5
INCH,LZ
;TYPE=PLATED
T1F00S00C0.01600
T2F00S00C0.02900
T3F00S00C0.03000
T4F00S00C0.03543
T5F00S00C0.04400
%
T01
X0295Y01545
X03
X03045
X03125Y018
X0372Y0166
X0301354Y0164
X0298795Y01865
X0292Y01885
X03055Y0206
X02915Y0235
X02235Y0215
X01695
X0158Y02815
X01445Y027
X014824Y02985
X0112733Y0276233
X014824Y03425
T02
X012Y0248
X01298
T03
X0178Y01805
X0148Y01905
X0128Y01805
T04
X03425Y01615
Y01715
X039Y021
Y022
X04
Y021
Y023
Y024
X039
Y023
Y025
Y026
Y027
Y028
X04
Y027
Y026
Y025
Y0296
X039
X039Y0306
X04
X02Y031
Y03
X019
Y031
Y029
Y028
X02
Y029
Y026
Y025
X021
Y024
Y023
Y022
Y021
Y02
Y019
Y018
Y017
X02
Y018
Y019
Y02
Y021
Y022
Y023
Y024
X0178Y02395
X0168
X0178Y02545
Y02645
X021Y026
X0245Y0228
X0255
X0265
X013Y0406
X012
Y0416
X013
Y0426
Y0436
X012
Y0426
Y0446
X013
Y0456
X012
Y0466
X013
X019Y035
Y034
Y033
Y032
X02
Y033
Y034
Y035
X039Y0346
Y0336
Y0326
Y0316
X04
Y0326
Y0336
Y0346
Y0356
X039Y0356
X039Y0366
X04
Y0376
X039
Y0386
X04
X047Y0406
Y0416
Y0426
Y0436
Y0446
Y0456
Y0466
X048
Y0456
Y0446
Y0436
Y0426
Y0416
Y0406
Y0476
X047
X013Y0476
X012Y0476
T05
X02775Y0112
X029128
X03085
X032228
X0428Y013972
Y01535
X012Y020972
Y02235
X0124Y02915
Y0305279
Y0319059
Y03365
Y0350279
Y0364059
M30
