G04 Layer_Color=20142*
%FSLAX25Y25*%
%MOIN*%
G70*
G01*
G75*
%ADD43R,0.04300X0.04300*%
%ADD44R,0.05524X0.03162*%
%ADD45R,0.04300X0.04300*%
%ADD46R,0.06706X0.05918*%
%ADD47R,0.04737X0.05131*%
%ADD48R,0.05918X0.06706*%
%ADD49R,0.06312X0.12611*%
%ADD50R,0.24422X0.26391*%
%ADD51R,0.04343X0.03359*%
%ADD52O,0.01972X0.07090*%
%ADD53R,0.01972X0.07090*%
%ADD54R,0.03162X0.09461*%
%ADD55O,0.03162X0.09461*%
%ADD56R,0.06706X0.06706*%
%ADD57C,0.06706*%
%ADD58C,0.10300*%
%ADD59R,0.10300X0.10300*%
%ADD60R,0.10300X0.10300*%
%ADD61R,0.06706X0.06706*%
%ADD62R,0.06800X0.06800*%
%ADD63C,0.06800*%
%ADD64C,0.05600*%
%ADD65R,0.05600X0.05600*%
%ADD66C,0.03900*%
D43*
X141000Y356000D02*
D03*
Y350000D02*
D03*
X140500Y306500D02*
D03*
Y300500D02*
D03*
X185500Y224500D02*
D03*
Y218500D02*
D03*
X171500Y290000D02*
D03*
Y284000D02*
D03*
D44*
X158087Y355760D02*
D03*
X151000Y352020D02*
D03*
Y359500D02*
D03*
X169587Y326260D02*
D03*
X162500Y322520D02*
D03*
Y330000D02*
D03*
D45*
X352500Y171500D02*
D03*
X358500D02*
D03*
X265000Y217000D02*
D03*
X259000Y217000D02*
D03*
X154000Y249000D02*
D03*
X160000D02*
D03*
X158000Y272000D02*
D03*
X152000D02*
D03*
X445500Y476000D02*
D03*
X439500D02*
D03*
X143500Y406000D02*
D03*
X149500D02*
D03*
D46*
X372000Y154240D02*
D03*
Y146760D02*
D03*
X325500Y171240D02*
D03*
Y163760D02*
D03*
D47*
X411500Y147153D02*
D03*
Y153847D02*
D03*
X178500Y218154D02*
D03*
Y224847D02*
D03*
X332500Y164654D02*
D03*
Y171346D02*
D03*
X162000Y209653D02*
D03*
Y216347D02*
D03*
X164500Y290846D02*
D03*
Y284154D02*
D03*
X144500Y263846D02*
D03*
Y257154D02*
D03*
D48*
X281760Y132000D02*
D03*
X289240D02*
D03*
X310260D02*
D03*
X317740D02*
D03*
X140760Y337000D02*
D03*
X148240D02*
D03*
X140760Y292500D02*
D03*
X148240D02*
D03*
D49*
X401000Y154000D02*
D03*
X382945D02*
D03*
D50*
X392000Y129394D02*
D03*
D51*
X152051Y257000D02*
D03*
Y264480D02*
D03*
X161500D02*
D03*
Y260740D02*
D03*
Y257000D02*
D03*
D52*
X286000Y143000D02*
D03*
D53*
X288559D02*
D03*
X291118D02*
D03*
X293677D02*
D03*
X296236D02*
D03*
X298795D02*
D03*
X301354D02*
D03*
X303913D02*
D03*
X306472D02*
D03*
X309032D02*
D03*
X311591D02*
D03*
X314150D02*
D03*
X286000Y171346D02*
D03*
X288559D02*
D03*
X291118D02*
D03*
X293677D02*
D03*
X296236D02*
D03*
X298795D02*
D03*
X301354D02*
D03*
X303913D02*
D03*
X306472D02*
D03*
X309032D02*
D03*
X311591D02*
D03*
X314150D02*
D03*
D54*
X145500Y209500D02*
D03*
X150500D02*
D03*
X155500D02*
D03*
X140500Y229972D02*
D03*
X145500D02*
D03*
X150500D02*
D03*
X155500D02*
D03*
D55*
X140500Y209500D02*
D03*
D56*
X342500Y171500D02*
D03*
X470000Y476000D02*
D03*
X130000Y406000D02*
D03*
X390000Y210000D02*
D03*
X400000D02*
D03*
X200000Y260000D02*
D03*
X178000Y264500D02*
D03*
X190000Y280000D02*
D03*
X200000D02*
D03*
X390000Y296000D02*
D03*
X400000D02*
D03*
D57*
X342500Y161500D02*
D03*
X480000Y476000D02*
D03*
X470000Y466000D02*
D03*
X480000D02*
D03*
X470000Y456000D02*
D03*
X480000Y456000D02*
D03*
X470000Y446000D02*
D03*
X480000D02*
D03*
X470000Y436000D02*
D03*
X480000D02*
D03*
X470000Y426000D02*
D03*
X480000D02*
D03*
X470000Y416000D02*
D03*
X480000D02*
D03*
X470000Y406000D02*
D03*
X480000Y406000D02*
D03*
X120000D02*
D03*
X130000Y416000D02*
D03*
X120000D02*
D03*
X130000Y426000D02*
D03*
X120000Y426000D02*
D03*
X130000Y436000D02*
D03*
X120000D02*
D03*
X130000Y446000D02*
D03*
X120000D02*
D03*
X130000Y456000D02*
D03*
X120000D02*
D03*
X130000Y466000D02*
D03*
X120000D02*
D03*
X130000Y476000D02*
D03*
X120000Y476000D02*
D03*
X265000Y228000D02*
D03*
X255000D02*
D03*
X390000Y280000D02*
D03*
Y270000D02*
D03*
Y260000D02*
D03*
Y250000D02*
D03*
Y240000D02*
D03*
Y230000D02*
D03*
Y220000D02*
D03*
X400000Y280000D02*
D03*
Y270000D02*
D03*
Y260000D02*
D03*
Y250000D02*
D03*
Y240000D02*
D03*
Y230000D02*
D03*
Y220000D02*
D03*
X178000Y239500D02*
D03*
X210000Y170000D02*
D03*
X200000D02*
D03*
X210000Y180000D02*
D03*
X200000D02*
D03*
X210000Y190000D02*
D03*
X200000Y190000D02*
D03*
X210000Y200000D02*
D03*
X200000D02*
D03*
X210000Y210000D02*
D03*
X200000D02*
D03*
X210000Y220000D02*
D03*
X200000D02*
D03*
X210000Y230000D02*
D03*
X200000D02*
D03*
X210000Y240000D02*
D03*
X200000Y240000D02*
D03*
X210000Y250000D02*
D03*
X200000D02*
D03*
X210000Y260000D02*
D03*
X178000Y254500D02*
D03*
X190000Y350000D02*
D03*
Y340000D02*
D03*
Y330000D02*
D03*
Y320000D02*
D03*
Y310000D02*
D03*
Y300000D02*
D03*
Y290000D02*
D03*
X200000Y350000D02*
D03*
Y340000D02*
D03*
Y330000D02*
D03*
Y320000D02*
D03*
Y310000D02*
D03*
Y300000D02*
D03*
Y290000D02*
D03*
X390000Y306000D02*
D03*
X390000Y326000D02*
D03*
Y336000D02*
D03*
Y346000D02*
D03*
X390000Y356000D02*
D03*
X390000Y366000D02*
D03*
Y376000D02*
D03*
Y386000D02*
D03*
Y316000D02*
D03*
X400000Y306000D02*
D03*
Y326000D02*
D03*
Y336000D02*
D03*
Y346000D02*
D03*
Y356000D02*
D03*
Y366000D02*
D03*
Y376000D02*
D03*
Y386000D02*
D03*
Y316000D02*
D03*
D58*
X322280Y112000D02*
D03*
X291280D02*
D03*
X428000Y139720D02*
D03*
X120000Y209720D02*
D03*
X124000Y319059D02*
D03*
Y305279D02*
D03*
Y364059D02*
D03*
Y350279D02*
D03*
D59*
X308500Y112000D02*
D03*
X277500D02*
D03*
D60*
X428000Y153500D02*
D03*
X120000Y223500D02*
D03*
X124000Y291500D02*
D03*
Y336500D02*
D03*
D61*
X245000Y228000D02*
D03*
X168000Y239500D02*
D03*
D62*
X178000Y180500D02*
D03*
D63*
X128000D02*
D03*
X148000Y190500D02*
D03*
D64*
X129800Y248000D02*
D03*
D65*
X120000D02*
D03*
D66*
X112733Y276233D02*
D03*
X148240Y298500D02*
D03*
Y342500D02*
D03*
X169500Y215000D02*
D03*
X223500D02*
D03*
X372000Y166000D02*
D03*
X305500Y206000D02*
D03*
X304500Y154500D02*
D03*
X300000D02*
D03*
X295000D02*
D03*
X158000Y281500D02*
D03*
X144500Y270000D02*
D03*
X301354Y164000D02*
D03*
X291500Y235000D02*
D03*
X298795Y186500D02*
D03*
X292000Y188500D02*
D03*
X312500Y180000D02*
D03*
M02*
